ply
format ascii 1.0
comment Created by Open3D
element vertex 2844
property double x
property double y
property double z
property uchar red
property uchar green
property uchar blue
end_header
-7.9451 -34.4545 -3.4144 255 0 0
-7.9451 -34.59 -3.4128 255 0 0
-7.9451 -35.5093 -3.4164 255 0 0
-7.9451 -35.5964 -3.417 255 0 0
-7.9451 -35.7123 -3.4254 255 0 0
-7.9451 -36.1273 -3.4613 255 0 0
-7.9451 -36.2772 -3.4636 255 0 0
-7.945 -36.4332 -3.4291 255 0 0
-7.945 -36.5392 -3.4425 255 0 0
-7.945 -36.9027 -3.4259 255 0 0
-7.945 -37.0807 -3.4589 255 0 0
-7.945 -37.1639 -3.4277 255 0 0
-7.9449 -38.5225 -3.4661 255 0 0
-7.9449 -38.6194 -3.4617 255 0 0
-7.9449 -38.7353 -3.4701 255 0 0
-7.9449 -38.8375 -3.4517 255 0 0
-7.9449 -38.9337 -3.4702 255 0 0
-7.9449 -39.4032 -3.467 255 0 0
-7.9449 -40.0226 -3.4661 255 0 0
-7.9448 -42.3429 -3.5428 255 0 0
-7.8778 -34.3683 -3.4128 255 0 0
-7.8777 -34.5228 -3.424 255 0 0
-7.8773 -36.7582 -3.4314 255 0 0
-7.8769 -39.1179 -3.488 255 0 0
-7.8769 -39.3125 -3.4562 255 0 0
-7.8769 -39.5435 -3.4959 255 0 0
-7.8768 -39.8683 -3.4765 255 0 0
-7.8768 -39.9653 -3.4721 255 0 0
-7.8764 -42.2825 -3.494 255 0 0
-7.8773 -36.965 -3.4722 255 0 0
-7.8773 -37.2126 -3.4472 255 0 0
-7.8772 -37.3194 -3.4377 255 0 0
-7.8772 -37.542 -3.4367 255 0 0
-7.8772 -37.6617 -3.4769 255 0 0
-7.8772 -37.8366 -3.4552 255 0 0
-7.8771 -37.976 -3.4854 255 0 0
-7.8771 -38.1365 -3.4597 255 0 0
-7.8771 -38.4416 -3.4504 255 0 0
-7.877 -38.9915 -3.5075 255 0 0
-7.8768 -39.6987 -3.4843 255 0 0
-7.8768 -40.1008 -3.4704 255 0 0
-7.8763 -42.6596 -3.5042 255 0 0
-7.692 -35.3896 -3.4674 255 0 0
-7.692 -36.0824 -3.4402 255 0 0
-7.692 -36.2036 -3.4347 255 0 0
-7.692 -36.3777 -3.4359 255 0 0
-7.692 -36.4785 -3.4632 255 0 0
-7.6919 -36.9473 -3.4829 255 0 0
-7.6919 -37.0442 -3.4785 255 0 0
-7.6919 -37.2092 -3.4618 255 0 0
-7.6919 -37.3304 -3.4562 255 0 0
-7.6919 -37.4856 -3.4446 255 0 0
-7.6919 -37.6053 -3.4848 255 0 0
-7.6919 -37.7514 -3.4552 255 0 0
-7.6919 -37.9052 -3.4893 255 0 0
-7.6919 -38.012 -3.4799 255 0 0
-7.6919 -38.1233 -3.4793 255 0 0
-7.6918 -38.3171 -3.4705 255 0 0
-7.6918 -38.5201 -3.4795 255 0 0
-7.6918 -38.6117 -3.489 255 0 0
-7.6918 -38.9797 -3.4813 255 0 0
-7.6918 -39.0812 -3.4858 255 0 0
-7.6918 -39.1789 -3.4585 255 0 0
-7.6918 -39.275 -3.4769 255 0 0
-7.6918 -39.4204 -3.4702 255 0 0
-7.6917 -39.6431 -3.4692 255 0 0
-7.6917 -39.7438 -3.4966 255 0 0
-7.6917 -40.024 -3.5112 255 0 0
-7.6917 -40.1543 -3.5235 255 0 0
-7.6917 -40.4654 -3.4772 255 0 0
-7.6917 -40.5715 -3.4907 255 0 0
-7.6917 -40.6782 -3.4812 255 0 0
-7.6916 -41.3605 -3.482 255 0 0
-7.6916 -41.4462 -3.5283 255 0 0
-7.6916 -41.6597 -3.5094 255 0 0
-7.6916 -41.8331 -3.5334 255 0 0
-7.6916 -41.9543 -3.5279 255 0 0
-7.6916 -42.0656 -3.5274 255 0 0
-7.6916 -42.2163 -3.5068 255 0 0
-7.5987 -35.2132 -3.4315 255 0 0
-7.5987 -35.6001 -3.4367 255 0 0
-7.5987 -36.0401 -3.4485 255 0 0
-7.5987 -36.3066 -3.4363 255 0 0
-7.5987 -36.4407 -3.4804 255 0 0
-7.5987 -36.6406 -3.4347 255 0 0
-7.5987 -36.8186 -3.4677 255 0 0
-7.5987 -36.9208 -3.4493 255 0 0
-7.5987 -37.1276 -3.49 255 0 0
-7.5987 -37.2442 -3.4756 255 0 0
-7.5987 -37.3358 -3.4851 255 0 0
-7.5987 -37.4766 -3.4695 255 0 0
-7.5987 -37.7129 -3.4952 255 0 0
-7.5987 -37.9265 -3.4763 255 0 0
-7.5987 -38.0279 -3.4808 255 0 0
-7.5987 -38.2021 -3.4819 255 0 0
-7.5987 -38.9177 -3.4994 255 0 0
-7.5987 -39.1365 -3.4665 255 0 0
-7.5987 -39.238 -3.471 255 0 0
-7.5987 -39.3819 -3.5101 255 0 0
-7.5987 -39.4834 -3.5146 255 0 0
-7.5987 -39.5856 -3.4962 255 0 0
-7.5987 -39.7015 -3.5046 255 0 0
-7.5987 -40.0945 -3.4729 255 0 0
-7.5987 -40.1899 -3.5142 255 0 0
-7.5987 -40.4087 -3.4814 255 0 0
-7.5987 -41.3038 -3.4861 255 0 0
-7.5987 -41.4197 -3.4945 255 0 0
-7.5987 -41.578 -3.5375 255 0 0
-7.5987 -41.8347 -3.5303 255 0 0
-7.5987 -42.1399 -3.5209 255 0 0
-7.5049 -35.055 -3.4214 255 0 0
-7.5049 -35.4753 -3.4433 255 0 0
-7.505 -35.7896 -3.4518 255 0 0
-7.505 -36.2243 -3.4776 255 0 0
-7.505 -36.3606 -3.4531 255 0 0
-7.5051 -36.559 -3.4532 255 0 0
-7.5051 -36.6506 -3.4627 255 0 0
-7.5051 -36.8824 -3.4796 255 0 0
-7.5051 -37.0573 -3.4579 255 0 0
-7.5051 -37.1496 -3.4445 255 0 0
-7.5051 -37.2655 -3.4529 255 0 0
-7.5052 -37.3564 -3.4853 255 0 0
-7.5052 -37.4972 -3.4697 255 0 0
-7.5052 -37.6086 -3.4692 255 0 0
-7.5052 -37.7722 -3.4983 255 0 0
-7.5052 -38.1447 -3.4995 255 0 0
-7.5053 -38.2417 -3.4951 255 0 0
-7.5053 -38.3249 -3.4639 255 0 0
-7.5053 -38.4787 -3.498 255 0 0
-7.5053 -38.5756 -3.4936 255 0 0
-7.5054 -39.5782 -3.466 255 0 0
-7.5054 -40.022 -3.5097 255 0 0
-7.5055 -40.128 -3.5231 255 0 0
-7.5055 -40.6126 -3.501 255 0 0
-7.5055 -40.7285 -3.5094 255 0 0
-7.5055 -40.9708 -3.4983 255 0 0
-7.5056 -41.6099 -3.4874 255 0 0
-7.5056 -41.85 -3.5449 255 0 0
-7.5057 -41.9712 -3.5394 255 0 0
-7.5057 -42.2286 -3.5094 255 0 0
-7.5057 -42.4316 -3.5184 255 0 0
-7.3081 -34.3447 -3.4378 255 0 0
-7.3081 -34.5242 -3.4251 255 0 0
-7.3081 -34.6885 -3.4313 255 0 0
-7.3081 -34.9059 -3.4442 255 0 0
-7.3081 -35.0126 -3.4347 255 0 0
-7.3081 -35.1679 -3.4231 255 0 0
-7.3081 -35.2883 -3.4404 255 0 0
-7.3081 -35.4034 -3.4717 255 0 0
-7.3081 -35.6791 -3.4774 255 0 0
-7.3081 -36.1054 -3.4625 255 0 0
-7.3081 -36.5362 -3.4565 255 0 0
-7.3081 -36.9906 -3.4724 255 0 0
-7.308 -37.7547 -3.4877 255 0 0
-7.308 -37.9296 -3.466 255 0 0
-7.308 -38.0834 -3.5001 255 0 0
-7.308 -38.3931 -3.4997 255 0 0
-7.308 -38.5241 -3.4891 255 0 0
-7.308 -38.6543 -3.5015 255 0 0
-7.308 -38.9201 -3.5122 255 0 0
-7.308 -39.6267 -3.5119 255 0 0
-7.308 -39.8985 -3.4858 255 0 0
-7.308 -40.0045 -3.4992 255 0 0
-7.308 -40.1249 -3.5166 255 0 0
-7.308 -40.2665 -3.4781 255 0 0
-7.308 -40.6535 -3.4833 255 0 0
-7.308 -41.0299 -3.5164 255 0 0
-7.308 -41.4123 -3.5126 255 0 0
-7.308 -41.5001 -3.4903 255 0 0
-7.308 -41.7318 -3.5072 255 0 0
-7.308 -41.8954 -3.5362 255 0 0
-7.308 -42.4724 -3.5008 255 0 0
-7.2162 -34.3485 -3.4662 255 0 0
-7.2162 -34.8921 -3.4139 255 0 0
-7.2162 -35.0701 -3.4469 255 0 0
-7.2162 -35.245 -3.4252 255 0 0
-7.2163 -35.7092 -3.4359 255 0 0
-7.2163 -35.888 -3.446 255 0 0
-7.2163 -36.047 -3.4661 255 0 0
-7.2163 -36.1432 -3.4846 255 0 0
-7.2163 -36.3802 -3.4874 255 0 0
-7.2163 -36.4786 -3.4373 255 0 0
-7.2163 -36.6369 -3.4803 255 0 0
-7.2163 -37.0769 -3.4921 255 0 0
-7.2164 -37.8902 -3.4823 255 0 0
-7.2164 -38.2136 -3.5086 255 0 0
-7.2164 -38.3211 -3.4763 255 0 0
-7.2164 -38.5672 -3.497 255 0 0
-7.2164 -38.7179 -3.4764 255 0 0
-7.2164 -38.9731 -3.515 255 0 0
-7.2165 -39.2843 -3.4688 255 0 0
-7.2165 -39.3858 -3.4733 255 0 0
-7.2165 -39.5153 -3.5084 255 0 0
-7.2165 -39.6803 -3.4918 255 0 0
-7.2165 -39.8303 -3.494 255 0 0
-7.2165 -40.028 -3.517 255 0 0
-7.2165 -40.4157 -3.4992 255 0 0
-7.2165 -40.7155 -3.5038 255 0 0
-7.2165 -40.8177 -3.4854 255 0 0
-7.2166 -40.942 -3.5345 255 0 0
-7.2166 -41.1608 -3.5017 255 0 0
-7.2166 -41.2532 -3.4883 255 0 0
-7.2166 -41.3872 -3.5324 255 0 0
-7.2166 -41.6401 -3.4934 255 0 0
-7.2166 -41.7939 -3.5275 255 0 0
-7.2166 -42.3361 -3.521 255 0 0
-7.2167 -42.8094 -3.5496 255 0 0
-7.1191 -34.6762 -3.4254 255 0 0
-7.1192 -36.084 -3.4386 255 0 0
-7.1192 -36.1794 -3.48 255 0 0
-7.1192 -36.2665 -3.4805 255 0 0
-7.1192 -36.5292 -3.4365 255 0 0
-7.1192 -36.4551 -3.4856 255 0 0
-7.1193 -36.6686 -3.4667 255 0 0
-7.1193 -37.0935 -3.4975 255 0 0
-7.1193 -37.7273 -3.5005 255 0 0
-7.1193 -37.8393 -3.4771 255 0 0
-7.1193 -38.0756 -3.5028 255 0 0
-7.1194 -38.371 -3.4984 255 0 0
-7.1194 -38.5655 -3.4667 255 0 0
-7.1194 -38.8609 -3.4623 255 0 0
-7.1194 -38.9949 -3.5064 255 0 0
-7.1194 -39.4107 -3.5193 255 0 0
-7.1194 -39.5136 -3.4781 255 0 0
-7.1194 -39.7643 -3.5077 255 0 0
-7.1194 -39.9203 -3.4732 255 0 0
-7.1195 -40.0839 -3.5022 255 0 0
-7.1195 -40.1899 -3.5156 255 0 0
-7.1195 -40.3058 -3.524 255 0 0
-7.1195 -40.4761 -3.4934 255 0 0
-7.1195 -40.5625 -3.5169 255 0 0
-7.1195 -40.8873 -3.4974 255 0 0
-7.1195 -40.9986 -3.4969 255 0 0
-7.1195 -41.0903 -3.5064 255 0 0
-7.1195 -41.4038 -3.5377 255 0 0
-7.1196 -41.8543 -3.5217 255 0 0
-7.1196 -42.2276 -3.5 255 0 0
-7.0239 -34.5351 -3.4183 255 0 0
-7.024 -35.8013 -3.47 255 0 0
-7.024 -35.9042 -3.4287 255 0 0
-7.024 -36.1155 -3.4785 255 0 0
-7.024 -36.2897 -3.4796 255 0 0
-7.024 -36.3957 -3.4931 255 0 0
-7.024 -36.5812 -3.4434 255 0 0
-7.024 -37.1075 -3.4788 255 0 0
-7.024 -37.9875 -3.5024 255 0 0
-7.024 -38.1245 -3.4551 255 0 0
-7.024 -38.2449 -3.4724 255 0 0
-7.024 -38.8977 -3.4882 255 0 0
-7.024 -38.9992 -3.4927 255 0 0
-7.024 -39.0968 -3.4654 255 0 0
-7.0241 -39.2271 -3.4777 255 0 0
-7.0241 -39.3482 -3.4721 255 0 0
-7.0241 -39.5013 -3.5291 255 0 0
-7.0241 -39.652 -3.5085 255 0 0
-7.0241 -39.7829 -3.4979 255 0 0
-7.0241 -39.8995 -3.4835 255 0 0
-7.0241 -40.1169 -3.4964 255 0 0
-7.0241 -40.2138 -3.4919 255 0 0
-7.0241 -40.31 -3.5104 255 0 0
-7.0241 -40.4691 -3.5305 255 0 0
-7.0241 -40.5849 -3.5389 255 0 0
-7.0241 -40.7265 -3.5004 255 0 0
-7.0241 -40.8318 -3.5367 255 0 0
-7.0241 -40.9779 -3.5072 255 0 0
-7.0241 -41.0741 -3.5257 255 0 0
-7.0241 -41.2005 -3.5062 255 0 0
-7.0241 -41.2922 -3.5157 255 0 0
-7.0241 -41.3944 -3.4973 255 0 0
-7.0241 -41.8238 -3.537 255 0 0
-7.0241 -41.9313 -3.5047 255 0 0
-7.0241 -42.235 -3.5411 255 0 0
-7.0241 -42.3372 -3.5227 255 0 0
-7.0242 -42.8295 -3.5641 255 0 0
-6.9249 -34.5472 -3.4686 255 0 0
-6.9249 -35.0651 -3.4632 255 0 0
-6.9248 -35.7815 -3.4579 255 0 0
-6.9248 -35.9451 -3.4869 255 0 0
-6.9248 -36.1783 -3.458 255 0 0
-6.9248 -36.3812 -3.467 255 0 0
-6.9248 -36.5024 -3.4614 255 0 0
-6.9248 -36.6516 -3.4866 255 0 0
-6.9247 -36.7773 -3.49 255 0 0
-6.9247 -38.0404 -3.487 255 0 0
-6.9246 -38.263 -3.486 255 0 0
-6.9246 -38.3698 -3.4765 255 0 0
-6.9246 -38.5334 -3.5056 255 0 0
-6.9246 -38.8484 -3.4912 255 0 0
-6.9246 -39.0233 -3.4695 255 0 0
-6.9246 -39.1248 -3.474 255 0 0
-6.9246 -39.4527 -3.5092 255 0 0
-6.9245 -39.7866 -3.5077 255 0 0
-6.9245 -40.0616 -3.5362 255 0 0
-6.9245 -40.425 -3.5196 255 0 0
-6.9245 -40.5265 -3.5241 255 0 0
-6.9245 -40.6621 -3.5225 255 0 0
-6.9245 -40.7643 -3.5041 255 0 0
-6.9244 -41.1217 -3.5243 255 0 0
-6.9244 -41.5185 -3.5244 255 0 0
-6.9244 -41.9638 -3.5223 255 0 0
-6.9243 -42.4333 -3.5191 255 0 0
-6.8293 -34.4415 -3.4548 255 0 0
-6.8293 -34.6058 -3.461 255 0 0
-6.8292 -35.7576 -3.4586 255 0 0
-6.8292 -35.878 -3.4759 255 0 0
-6.8292 -35.9953 -3.4386 255 0 0
-6.8292 -36.2506 -3.4771 255 0 0
-6.8292 -36.4156 -3.4604 255 0 0
-6.8292 -36.555 -3.4906 255 0 0
-6.8292 -37.9824 -3.4938 255 0 0
-6.8292 -38.099 -3.4794 255 0 0
-6.8292 -38.2104 -3.4789 255 0 0
-6.8292 -38.3641 -3.5129 255 0 0
-6.8292 -38.5337 -3.5052 255 0 0
-6.8292 -38.6208 -3.5058 255 0 0
-6.8291 -38.7238 -3.4645 255 0 0
-6.8291 -38.8245 -3.4919 255 0 0
-6.8291 -38.9495 -3.5181 255 0 0
-6.8291 -39.0524 -3.4769 255 0 0
-6.8291 -39.4523 -3.5317 255 0 0
-6.8291 -39.5689 -3.5172 255 0 0
-6.8291 -39.6522 -3.486 255 0 0
-6.8291 -39.762 -3.5312 255 0 0
-6.8291 -39.8604 -3.481 255 0 0
-6.8291 -40.0247 -3.4872 255 0 0
-6.8291 -40.3671 -3.5264 255 0 0
-6.8291 -40.8327 -3.4914 255 0 0
-6.8291 -40.9433 -3.5137 255 0 0
-6.8291 -41.0494 -3.5272 255 0 0
-6.8291 -41.1607 -3.5266 255 0 0
-6.8291 -41.4553 -3.5451 255 0 0
-6.8291 -41.568 -3.4989 255 0 0
-6.8291 -41.7551 -3.5497 255 0 0
-6.829 -41.8672 -3.5263 255 0 0
-6.7325 -34.3588 -3.4639 255 0 0
-6.7325 -35.4379 -3.4648 255 0 0
-6.7325 -35.7816 -3.4583 255 0 0
-6.7325 -35.9316 -3.4605 255 0 0
-6.7325 -36.0906 -3.4807 255 0 0
-6.7325 -36.3238 -3.4517 255 0 0
-6.7325 -36.4874 -3.4808 255 0 0
-6.7325 -36.6131 -3.4842 255 0 0
-6.7326 -37.8997 -3.503 255 0 0
-6.7326 -38.0602 -3.4774 255 0 0
-6.7326 -38.1852 -3.5037 255 0 0
-6.7326 -38.641 -3.4737 255 0 0
-6.7326 -38.9644 -3.5 255 0 0
-6.7326 -39.2506 -3.4778 255 0 0
-6.7326 -39.4529 -3.5096 255 0 0
-6.7326 -39.5603 -3.4773 255 0 0
-6.7326 -39.68 -3.5175 255 0 0
-6.7326 -39.9617 -3.4864 255 0 0
-6.7326 -40.0716 -3.5316 255 0 0
-6.7326 -40.1874 -3.54 255 0 0
-6.7326 -40.3283 -3.5244 255 0 0
-6.7326 -40.4403 -3.501 255 0 0
-6.7326 -40.6713 -3.5407 255 0 0
-6.7326 -40.8417 -3.5101 255 0 0
-6.7326 -41.1067 -3.5436 255 0 0
-6.7326 -41.1946 -3.5213 255 0 0
-6.7326 -41.3097 -3.5526 255 0 0
-6.7326 -41.6497 -3.5142 255 0 0
-6.7326 -41.7367 -3.5148 255 0 0
-6.6376 -34.8392 -3.4316 255 0 0
-6.6376 -35.1475 -3.4769 255 0 0
-6.6376 -35.7873 -3.4431 255 0 0
-6.6376 -35.8926 -3.4794 255 0 0
-6.6376 -36.0425 -3.4817 255 0 0
-6.6376 -36.1448 -3.4633 255 0 0
-6.6377 -36.3424 -3.4863 255 0 0
-6.6377 -36.6711 -3.4986 255 0 0
-6.6377 -37.9531 -3.5086 255 0 0
-6.6377 -38.0546 -3.5131 255 0 0
-6.6377 -38.2098 -3.5014 255 0 0
-6.6377 -38.5627 -3.5127 255 0 0
-6.6377 -39.192 -3.5068 255 0 0
-6.6377 -39.3184 -3.4873 255 0 0
-6.6378 -39.6123 -3.5287 255 0 0
-6.6378 -39.8637 -3.5354 255 0 0
-6.6378 -39.9568 -3.4992 255 0 0
-6.6378 -40.2377 -3.4909 255 0 0
-6.6378 -40.474 -3.5167 255 0 0
-6.6378 -40.6876 -3.4978 255 0 0
-6.6378 -40.7981 -3.5201 255 0 0
-6.6378 -40.9769 -3.5302 255 0 0
-6.6378 -41.8288 -3.5233 255 0 0
-6.5396 -34.7363 -3.4495 255 0 0
-6.5396 -34.8371 -3.4769 255 0 0
-6.5396 -34.9825 -3.4702 255 0 0
-6.5396 -35.0938 -3.4697 255 0 0
-6.5396 -35.2869 -3.4837 255 0 0
-6.5396 -35.4224 -3.4821 255 0 0
-6.5397 -35.723 -3.4638 255 0 0
-6.5397 -35.8442 -3.4583 255 0 0
-6.5397 -35.9797 -3.4566 255 0 0
-6.5397 -36.0911 -3.4561 255 0 0
-6.5397 -36.2016 -3.4785 255 0 0
-6.5397 -36.3478 -3.4489 255 0 0
-6.5397 -36.4334 -3.4953 255 0 0
-6.5398 -36.7234 -3.5048 255 0 0
-6.5398 -36.8105 -3.5054 255 0 0
-6.5398 -36.9074 -3.501 255 0 0
-6.5398 -37.0195 -3.4776 255 0 0
-6.5399 -37.982 -3.493 255 0 0
-6.5399 -38.1024 -3.5103 255 0 0
-6.5399 -38.2046 -3.4919 255 0 0
-6.5399 -38.3879 -3.511 255 0 0
-6.5399 -38.9982 -3.4922 255 0 0
-6.54 -39.2489 -3.5219 255 0 0
-6.54 -39.3753 -3.5024 255 0 0
-6.54 -39.4768 -3.5069 255 0 0
-6.54 -39.5919 -3.5381 255 0 0
-6.54 -39.6941 -3.5198 255 0 0
-6.54 -40.1106 -3.5099 255 0 0
-6.5401 -40.3954 -3.5334 255 0 0
-6.5401 -40.6339 -3.4905 255 0 0
-6.5401 -40.8997 -3.5012 255 0 0
-6.5401 -41.0155 -3.5096 255 0 0
-6.5401 -41.1216 -3.523 255 0 0
-6.5401 -41.4025 -3.5147 255 0 0
-6.5402 -41.4888 -3.5382 255 0 0
-6.5402 -41.5805 -3.5477 255 0 0
-6.5402 -41.6637 -3.5165 255 0 0
-6.5402 -41.8804 -3.5523 255 0 0
-6.5403 -42.6588 -3.5715 255 0 0
-6.4428 -34.6168 -3.4773 255 0 0
-6.4428 -34.816 -3.4545 255 0 0
-6.4428 -34.9508 -3.4757 255 0 0
-6.4429 -35.2559 -3.4663 255 0 0
-6.4429 -35.7837 -3.4559 255 0 0
-6.4429 -35.9003 -3.4414 255 0 0
-6.4429 -35.9905 -3.4967 255 0 0
-6.4429 -36.2578 -3.4616 255 0 0
-6.4429 -36.3547 -3.4571 255 0 0
-6.443 -36.5425 -3.4851 255 0 0
-6.443 -36.644 -3.4896 255 0 0
-6.443 -36.8575 -3.4707 255 0 0
-6.443 -36.9681 -3.493 255 0 0
-6.443 -37.1181 -3.4953 255 0 0
-6.443 -37.3649 -3.4931 255 0 0
-6.443 -37.524 -3.5133 255 0 0
-6.4431 -37.9935 -3.5101 255 0 0
-6.4431 -38.2123 -3.4772 255 0 0
-6.4431 -38.3138 -3.4817 255 0 0
-6.4431 -38.4387 -3.508 255 0 0
-6.4431 -39.1793 -3.5015 255 0 0
-6.4431 -39.305 -3.5049 255 0 0
-6.4431 -39.4255 -3.5222 255 0 0
-6.4432 -39.5322 -3.5127 255 0 0
-6.4432 -39.6428 -3.5351 255 0 0
-6.4432 -39.7844 -3.4966 255 0 0
-6.4432 -40.0502 -3.5073 255 0 0
-6.4432 -40.3508 -3.489 255 0 0
-6.4432 -40.4614 -3.5113 255 0 0
-6.4433 -41.0028 -3.5277 255 0 0
-6.4433 -41.5102 -3.5501 255 0 0
-6.4433 -41.8245 -3.5586 255 0 0
-6.4433 -41.9229 -3.5084 255 0 0
-6.4433 -42.0327 -3.5536 255 0 0
-6.4434 -42.4098 -3.5638 255 0 0
-6.4434 -42.6423 -3.5577 255 0 0
-6.4434 -42.7256 -3.5265 255 0 0
-6.347 -34.3751 -3.4433 255 0 0
-6.347 -34.4818 -3.4339 255 0 0
-6.3471 -34.8143 -3.4781 255 0 0
-6.3471 -34.912 -3.4508 255 0 0
-6.3471 -35.0082 -3.4692 255 0 0
-6.3471 -35.1097 -3.4737 255 0 0
-6.3471 -35.2505 -3.4581 255 0 0
-6.3471 -35.3414 -3.4905 255 0 0
-6.3471 -35.5012 -3.4877 255 0 0
-6.3471 -35.8601 -3.4622 255 0 0
-6.3472 -36.5764 -3.4568 255 0 0
-6.3472 -36.6635 -3.4574 255 0 0
-6.3472 -36.8377 -3.4585 255 0 0
-6.3472 -36.9346 -3.4541 255 0 0
-6.3472 -37.1474 -3.4581 255 0 0
-6.3472 -37.258 -3.4804 255 0 0
-6.3472 -37.417 -3.5005 255 0 0
-6.3473 -38.0418 -3.4857 255 0 0
-6.3473 -38.2454 -3.4718 255 0 0
-6.3473 -38.3651 -3.512 255 0 0
-6.3473 -39.1148 -3.5233 255 0 0
-6.3473 -39.1981 -3.4921 255 0 0
-6.3474 -39.7403 -3.4856 255 0 0
-6.3474 -40.1598 -3.5303 255 0 0
-6.3474 -40.387 -3.5382 255 0 0
-6.3474 -40.5279 -3.5226 255 0 0
-6.3474 -40.7558 -3.5076 255 0 0
-6.3474 -41.064 -3.5529 255 0 0
-6.3474 -41.1564 -3.5395 255 0 0
-6.3475 -41.6501 -3.5352 255 0 0
-6.3475 -42.337 -3.5449 255 0 0
-6.3475 -42.443 -3.5583 255 0 0
-6.3475 -42.6172 -3.5594 255 0 0
-6.2548 -34.6791 -3.4778 255 0 0
-6.2548 -35.0517 -3.479 255 0 0
-6.2549 -35.2645 -3.483 255 0 0
-6.2549 -35.3477 -3.4518 255 0 0
-6.2549 -35.5166 -3.4669 255 0 0
-6.2549 -35.734 -3.4798 255 0 0
-6.255 -36.7018 -3.4811 255 0 0
-6.255 -36.8078 -3.4946 255 0 0
-6.2551 -37.2235 -3.5075 255 0 0
-6.2552 -38.1959 -3.5178 255 0 0
-6.2553 -39.3628 -3.4963 255 0 0
-6.2553 -39.4794 -3.4819 255 0 0
-6.2553 -39.73 -3.5115 255 0 0
-6.2553 -39.9376 -3.5294 255 0 0
-6.2554 -40.3056 -3.5217 255 0 0
-6.2554 -40.925 -3.5207 255 0 0
-6.2555 -41.4801 -3.5638 255 0 0
-6.2555 -41.5831 -3.5226 255 0 0
-6.2555 -41.6944 -3.5221 255 0 0
-6.2556 -42.3956 -3.5356 255 0 0
-6.2556 -42.6379 -3.5245 255 0 0
-6.064 -34.59 -3.4784 255 0 0
-6.0641 -34.9724 -3.4746 255 0 0
-6.0641 -35.0701 -3.4473 255 0 0
-6.0641 -35.2625 -3.4842 255 0 0
-6.0641 -35.6017 -3.4686 255 0 0
-6.0641 -35.7024 -3.496 255 0 0
-6.0641 -35.8819 -3.4832 255 0 0
-6.0642 -36.4377 -3.5035 255 0 0
-6.0642 -36.5642 -3.484 255 0 0
-6.0642 -36.7671 -3.493 255 0 0
-6.0642 -36.9466 -3.4802 255 0 0
-6.0643 -37.3093 -3.4865 255 0 0
-6.0643 -37.4782 -3.5016 255 0 0
-6.0643 -37.5797 -3.5061 255 0 0
-6.0644 -38.6482 -3.5349 255 0 0
-6.0644 -38.8034 -3.5232 255 0 0
-6.0644 -38.9337 -3.5355 255 0 0
-6.0645 -39.6205 -3.5452 255 0 0
-6.0645 -39.753 -3.4889 255 0 0
-6.0646 -41.107 -3.5183 255 0 0
-6.0646 -41.2274 -3.5357 255 0 0
-6.0646 -41.6492 -3.5118 255 0 0
-6.0646 -41.7552 -3.5252 255 0 0
-6.0647 -42.7268 -3.5585 255 0 0
-6.0643 -37.7356 -3.4715 255 0 0
-6.0643 -37.8894 -3.5056 255 0 0
-6.0643 -38.0696 -3.47 255 0 0
-6.0644 -38.4937 -3.5237 255 0 0
-6.0645 -40.149 -3.5119 255 0 0
-6.0645 -40.3853 -3.5377 255 0 0
-6.0645 -40.5072 -3.5092 255 0 0
-6.0646 -41.528 -3.5174 255 0 0
-6.0646 -41.9332 -3.5582 255 0 0
-5.7803 -34.4352 -3.4776 255 0 0
-5.7805 -35.9398 -3.4863 255 0 0
-5.7805 -36.6895 -3.4976 255 0 0
-5.7805 -36.7826 -3.4613 255 0 0
-5.7806 -36.8735 -3.4937 255 0 0
-5.7806 -37.1302 -3.4865 255 0 0
-5.7806 -37.6528 -3.49 255 0 0
-5.7807 -37.7641 -3.4894 255 0 0
-5.7807 -37.9617 -3.5123 255 0 0
-5.7808 -38.8175 -3.5371 255 0 0
-5.7808 -39.2968 -3.5288 255 0 0
-5.7808 -39.4467 -3.5311 255 0 0
-5.7809 -39.5535 -3.5216 255 0 0
-5.7809 -39.6542 -3.549 255 0 0
-5.7809 -39.7572 -3.5077 255 0 0
-5.7809 -39.8632 -3.5211 255 0 0
-5.7809 -39.9556 -3.5077 255 0 0
-5.7809 -40.2737 -3.548 255 0 0
-5.7809 -40.3622 -3.5028 255 0 0
-5.781 -40.4728 -3.5251 255 0 0
-5.781 -40.7341 -3.5269 255 0 0
-5.7811 -41.8328 -3.5176 255 0 0
-5.7811 -41.9427 -3.5628 255 0 0
-5.7811 -42.1516 -3.535 255 0 0
-5.7803 -34.3095 -3.4742 255 0 0
-5.7805 -35.7748 -3.503 255 0 0
-5.7805 -36.133 -3.5002 255 0 0
-5.7805 -36.2352 -3.4819 255 0 0
-5.7805 -36.4911 -3.4975 255 0 0
-5.7806 -36.9947 -3.4881 255 0 0
-5.7806 -37.2272 -3.4821 255 0 0
-5.7807 -38.4706 -3.489 255 0 0
-5.7807 -38.5668 -3.5074 255 0 0
-5.7808 -38.6978 -3.4969 255 0 0
-5.7808 -38.9825 -3.5204 255 0 0
-5.781 -41.1832 -3.5565 255 0 0
-5.5852 -34.2886 -3.4631 255 0 0
-5.5852 -34.39 -3.4676 255 0 0
-5.5852 -34.6619 -3.4414 255 0 0
-5.5852 -35.2957 -3.4444 255 0 0
-5.5852 -35.5373 -3.4561 255 0 0
-5.5852 -35.6236 -3.4796 255 0 0
-5.5852 -35.716 -3.4662 255 0 0
-5.5852 -35.8455 -3.5014 255 0 0
-5.5852 -37.0177 -3.466 255 0 0
-5.5852 -38.4391 -3.506 255 0 0
-5.5852 -38.7246 -3.5066 255 0 0
-5.5852 -38.9609 -3.5323 255 0 0
-5.5852 -39.0533 -3.519 255 0 0
-5.5852 -39.4251 -3.5431 255 0 0
-5.5852 -39.5122 -3.5436 255 0 0
-5.5851 -39.6583 -3.5141 255 0 0
-5.5851 -39.7689 -3.5364 255 0 0
-5.5852 -40.015 -3.5572 255 0 0
-5.5851 -40.1611 -3.5276 255 0 0
-5.5851 -40.5519 -3.5645 255 0 0
-5.5851 -40.6935 -3.5261 255 0 0
-5.5851 -40.8722 -3.5362 255 0 0
-5.5851 -41.0032 -3.5256 255 0 0
-5.5851 -41.1668 -3.5547 255 0 0
-5.5851 -41.2971 -3.567 255 0 0
-5.5851 -41.3849 -3.5447 255 0 0
-5.5851 -41.5545 -3.5369 255 0 0
-5.5851 -41.8733 -3.5543 255 0 0
-5.4872 -34.3116 -3.4853 255 0 0
-5.4872 -34.5055 -3.4764 255 0 0
-5.4872 -34.6804 -3.4547 255 0 0
-5.4871 -35.324 -3.4527 255 0 0
-5.4871 -35.658 -3.4511 255 0 0
-5.4871 -35.7443 -3.4745 255 0 0
-5.4871 -35.8549 -3.4969 255 0 0
-5.4871 -35.9519 -3.4925 255 0 0
-5.487 -36.0586 -3.483 255 0 0
-5.487 -36.1563 -3.4557 255 0 0
-5.487 -36.7977 -3.5223 255 0 0
-5.487 -37.0173 -3.4665 255 0 0
-5.4868 -38.3857 -3.4999 255 0 0
-5.4868 -38.6311 -3.5435 255 0 0
-5.4868 -38.7189 -3.5212 255 0 0
-5.4868 -38.8052 -3.5446 255 0 0
-5.4868 -38.9514 -3.5151 255 0 0
-5.4868 -39.0619 -3.5374 255 0 0
-5.4868 -39.4148 -3.5487 255 0 0
-5.4867 -39.7783 -3.5321 255 0 0
-5.4867 -39.8858 -3.4997 255 0 0
-5.4867 -40.0343 -3.5478 255 0 0
-5.4867 -40.1319 -3.5205 255 0 0
-5.4867 -40.3447 -3.5244 255 0 0
-5.4867 -40.6249 -3.539 255 0 0
-5.4866 -40.771 -3.5095 255 0 0
-5.4866 -41.0694 -3.5598 255 0 0
-5.4866 -41.2208 -3.5163 255 0 0
-5.4866 -41.3269 -3.5297 255 0 0
-5.4865 -42.4582 -3.5602 255 0 0
-5.3933 -34.336 -3.4845 255 0 0
-5.3933 -34.4526 -3.47 255 0 0
-5.3933 -34.6411 -3.4751 255 0 0
-5.3933 -34.7335 -3.4617 255 0 0
-5.3933 -35.618 -3.4943 255 0 0
-5.3933 -35.7339 -3.5027 255 0 0
-5.3933 -35.8255 -3.5123 255 0 0
-5.3933 -36.1118 -3.49 255 0 0
-5.3933 -36.2034 -3.4995 255 0 0
-5.3933 -36.3238 -3.5168 255 0 0
-5.3933 -36.5373 -3.4979 255 0 0
-5.3933 -36.944 -3.493 255 0 0
-5.3933 -37.0447 -3.5204 255 0 0
-5.3932 -38.2601 -3.4967 255 0 0
-5.3932 -38.6523 -3.4879 255 0 0
-5.3932 -39.0052 -3.4991 255 0 0
-5.3932 -39.1158 -3.5215 255 0 0
-5.3932 -39.7156 -3.5306 255 0 0
-5.3932 -39.8276 -3.5072 255 0 0
-5.3932 -39.9768 -3.5323 255 0 0
-5.3932 -40.073 -3.5508 255 0 0
-5.3932 -40.1949 -3.5223 255 0 0
-5.3932 -40.5334 -3.5297 255 0 0
-5.3932 -40.7599 -3.5604 255 0 0
-5.3932 -40.9492 -3.5426 255 0 0
-5.3932 -41.0756 -3.5231 255 0 0
-5.3932 -41.2778 -3.555 255 0 0
-5.3931 -42.2888 -3.5681 255 0 0
-5.2959 -34.3027 -3.4453 255 0 0
-5.2959 -34.4185 -3.4537 255 0 0
-5.2958 -34.5291 -3.4761 255 0 0
-5.2958 -34.6366 -3.4437 255 0 0
-5.2958 -34.7426 -3.4572 255 0 0
-5.2958 -34.8396 -3.4527 255 0 0
-5.2958 -34.96 -3.4701 255 0 0
-5.2958 -35.1917 -3.4869 255 0 0
-5.2957 -35.8498 -3.4888 255 0 0
-5.2957 -36.1701 -3.4604 255 0 0
-5.2957 -36.3481 -3.4934 255 0 0
-5.2957 -36.5268 -3.5035 255 0 0
-5.2957 -36.6328 -3.5169 255 0 0
-5.2956 -36.7933 -3.4913 255 0 0
-5.2956 -36.8797 -3.5147 255 0 0
-5.2955 -38.6509 -3.5114 255 0 0
-5.2954 -39.6088 -3.5178 255 0 0
-5.2953 -39.9027 -3.5592 255 0 0
-5.2953 -40.1313 -3.5213 255 0 0
-5.2953 -40.329 -3.5443 255 0 0
-5.2953 -40.4214 -3.5309 255 0 0
-5.2953 -40.5267 -3.5672 255 0 0
-5.2953 -40.775 -3.5193 255 0 0
-5.2953 -40.9045 -3.5545 255 0 0
-5.2952 -41.0506 -3.525 255 0 0
-5.2952 -41.5384 -3.5575 255 0 0
-5.2951 -41.9071 -3.5269 255 0 0
-5.2951 -42.2017 -3.5454 255 0 0
-5.2951 -42.3085 -3.536 255 0 0
-5.2007 -34.3369 -3.4608 255 0 0
-5.2007 -34.6708 -3.4592 255 0 0
-5.2006 -35.5796 -3.4906 255 0 0
-5.2006 -36.5716 -3.4909 255 0 0
-5.2006 -36.6731 -3.4954 255 0 0
-5.2006 -36.7889 -3.5038 255 0 0
-5.2005 -36.8911 -3.4854 255 0 0
-5.2005 -37.0312 -3.4927 255 0 0
-5.2005 -37.1569 -3.4961 255 0 0
-5.2005 -37.4136 -3.4889 255 0 0
-5.2004 -38.9509 -3.5373 255 0 0
-5.2004 -39.1553 -3.5005 255 0 0
-5.2004 -39.4408 -3.5011 255 0 0
-5.2004 -39.6135 -3.548 255 0 0
-5.2004 -39.8179 -3.5113 255 0 0
-5.2003 -40.0012 -3.5303 255 0 0
-5.2003 -40.1073 -3.5437 255 0 0
-5.2003 -40.2822 -3.522 255 0 0
-5.2003 -40.3731 -3.5544 255 0 0
-5.2003 -40.5631 -3.5137 255 0 0
-5.2003 -40.6888 -3.5171 255 0 0
-5.2003 -40.8668 -3.55 255 0 0
-5.2003 -41.2742 -3.5223 255 0 0
-5.2003 -41.3605 -3.5457 255 0 0
-5.2002 -42.0186 -3.5476 255 0 0
-5.2002 -42.1109 -3.5342 255 0 0
-5.2002 -42.2064 -3.5755 255 0 0
-5.1018 -34.3349 -3.485 255 0 0
-5.1018 -34.6211 -3.4628 255 0 0
-5.1018 -35.0232 -3.449 255 0 0
-5.1018 -35.1134 -3.5042 255 0 0
-5.1017 -35.3898 -3.487 255 0 0
-5.1017 -35.5299 -3.4943 255 0 0
-5.1017 -35.7184 -3.4994 255 0 0
-5.1017 -36.0183 -3.504 255 0 0
-5.1016 -37.1451 -3.5255 255 0 0
-5.1016 -37.2329 -3.5032 255 0 0
-5.1015 -37.3639 -3.4927 255 0 0
-5.1014 -38.6217 -3.5037 255 0 0
-5.1014 -39.1102 -3.5133 255 0 0
-5.1013 -39.5933 -3.5369 255 0 0
-5.1013 -40.106 -3.5454 255 0 0
-5.1013 -40.2468 -3.5299 255 0 0
-5.1013 -40.4021 -3.5182 255 0 0
-5.1012 -40.836 -3.5669 255 0 0
-5.1012 -40.9625 -3.5474 255 0 0
-5.1012 -41.3986 -3.5274 255 0 0
-5.0088 -34.3136 -3.4504 255 0 0
-5.0088 -34.8831 -3.4975 255 0 0
-5.0089 -35.2951 -3.4787 255 0 0
-5.0089 -35.3822 -3.4793 255 0 0
-5.0089 -35.5275 -3.4726 255 0 0
-5.0089 -35.8956 -3.465 255 0 0
-5.009 -35.9857 -3.5202 255 0 0
-5.009 -36.0728 -3.5208 255 0 0
-5.009 -36.1515 -3.4807 255 0 0
-5.009 -36.3204 -3.4958 255 0 0
-5.0091 -37.264 -3.4984 255 0 0
-5.0091 -37.4813 -3.5113 255 0 0
-5.0091 -37.6161 -3.5325 255 0 0
-5.0091 -37.7183 -3.5142 255 0 0
-5.0093 -39.2381 -3.5041 255 0 0
-5.0094 -39.7258 -3.5367 255 0 0
-5.0094 -39.8568 -3.5261 255 0 0
-5.0094 -40.1612 -3.5396 255 0 0
-5.0094 -40.3203 -3.5598 255 0 0
-5.0095 -40.4846 -3.566 255 0 0
-5.0095 -40.6262 -3.5275 255 0 0
-5.0095 -40.7519 -3.5309 255 0 0
-5.0095 -40.8435 -3.5404 255 0 0
-5.0096 -41.5016 -3.5423 255 0 0
-5.0096 -42.3331 -3.5683 255 0 0
-5.0097 -42.4293 -3.5868 255 0 0
-4.9137 -35.0013 -3.5043 255 0 0
-4.9137 -35.3125 -3.4581 255 0 0
-4.9137 -35.5881 -3.4637 255 0 0
-4.9137 -35.8108 -3.4627 255 0 0
-4.9137 -36.0766 -3.4734 255 0 0
-4.9139 -37.3632 -3.4922 255 0 0
-4.9139 -37.4934 -3.5045 255 0 0
-4.9139 -37.7252 -3.5213 255 0 0
-4.9141 -39.8872 -3.5548 255 0 0
-4.9141 -39.9901 -3.5136 255 0 0
-4.9141 -40.1484 -3.5566 255 0 0
-4.9141 -40.4286 -3.5712 255 0 0
-4.9141 -40.7004 -3.545 255 0 0
-4.9142 -40.8609 -3.5194 255 0 0
-4.9142 -41.4312 -3.5436 255 0 0
-4.9143 -41.9726 -3.5599 255 0 0
-4.9143 -42.118 -3.5532 255 0 0
-4.8199 -34.9306 -3.4825 255 0 0
-4.8199 -35.0412 -3.5048 255 0 0
-4.8199 -35.3229 -3.4736 255 0 0
-4.82 -35.5213 -3.4736 255 0 0
-4.82 -35.6909 -3.4659 255 0 0
-4.82 -35.8787 -3.4938 255 0 0
-4.82 -35.9907 -3.4704 255 0 0
-4.8202 -37.3925 -3.5203 255 0 0
-4.8202 -37.5228 -3.5326 255 0 0
-4.8202 -37.6158 -3.4964 255 0 0
-4.8205 -39.8604 -3.5214 255 0 0
-4.8205 -39.9611 -3.5487 255 0 0
-4.8206 -40.1451 -3.5448 255 0 0
-4.8206 -40.367 -3.5666 255 0 0
-4.8206 -40.4549 -3.5443 255 0 0
-4.8207 -41.2537 -3.5306 255 0 0
-4.7212 -34.8281 -3.4791 255 0 0
-4.7212 -34.944 -3.4875 255 0 0
-4.7212 -35.2688 -3.468 255 0 0
-4.7212 -35.3597 -3.5004 255 0 0
-4.7213 -35.4763 -3.4859 255 0 0
-4.7213 -35.5975 -3.4804 255 0 0
-4.7213 -35.6937 -3.4988 255 0 0
-4.7213 -35.8534 -3.4961 255 0 0
-4.7213 -36.0178 -3.5023 255 0 0
-4.7215 -37.5073 -3.53 255 0 0
-4.7215 -37.6618 -3.5412 255 0 0
-4.7217 -39.3853 -3.5171 255 0 0
-4.7217 -39.8776 -3.5586 255 0 0
-4.7218 -40.1055 -3.5436 255 0 0
-4.7218 -40.3046 -3.5207 255 0 0
-4.7218 -40.5023 -3.5437 255 0 0
-4.7218 -40.603 -3.571 255 0 0
-4.7218 -40.8605 -3.541 255 0 0
-4.6258 -34.7557 -3.4598 255 0 0
-4.6258 -34.8853 -3.495 255 0 0
-4.6258 -34.9913 -3.5084 255 0 0
-4.6258 -35.0897 -3.4583 255 0 0
-4.6258 -35.1912 -3.4627 255 0 0
-4.6258 -35.2866 -3.5041 255 0 0
-4.6258 -35.4025 -3.5125 255 0 0
-4.6258 -35.51 -3.4801 255 0 0
-4.6258 -35.6167 -3.4707 255 0 0
-4.6258 -35.766 -3.4958 255 0 0
-4.626 -37.7591 -3.5142 255 0 0
-4.6262 -39.8772 -3.5588 255 0 0
-4.6262 -40.0043 -3.5165 255 0 0
-4.6262 -40.1574 -3.5734 255 0 0
-4.6262 -40.2452 -3.5511 255 0 0
-4.6262 -40.3284 -3.5199 255 0 0
-4.6262 -40.4731 -3.5361 255 0 0
-4.6262 -40.5686 -3.5774 255 0 0
-4.6262 -40.7094 -3.5619 255 0 0
-4.6262 -40.8154 -3.5753 255 0 0
-4.5277 -34.3691 -3.455 255 0 0
-4.5277 -34.6592 -3.4646 255 0 0
-4.5277 -34.7592 -3.5148 255 0 0
-4.5277 -34.9432 -3.511 255 0 0
-4.5277 -35.1332 -3.4703 255 0 0
-4.5277 -35.2301 -3.4658 255 0 0
-4.5277 -35.3453 -3.4971 255 0 0
-4.5277 -39.829 -3.5613 255 0 0
-4.5277 -40.0464 -3.5742 255 0 0
-4.5277 -40.3235 -3.5341 255 0 0
-4.5277 -40.4159 -3.5208 255 0 0
-4.5277 -40.643 -3.5286 255 0 0
-4.5277 -40.8453 -3.5605 255 0 0
-4.5277 -42.1084 -3.5575 255 0 0
-4.5277 -42.4181 -3.557 255 0 0
-4.3341 -34.4337 -3.4551 255 0 0
-4.3341 -34.5254 -3.4646 255 0 0
-4.3341 -34.6746 -3.4898 255 0 0
-4.3341 -34.8101 -3.4881 255 0 0
-4.3341 -35.3274 -3.5055 255 0 0
-4.3341 -37.8051 -3.5015 255 0 0
-4.3341 -39.9997 -3.5745 255 0 0
-4.3341 -40.1497 -3.5767 255 0 0
-4.3341 -40.4654 -3.5394 255 0 0
-4.3341 -40.794 -3.5517 255 0 0
-4.3341 -40.8993 -3.588 255 0 0
-4.2345 -34.5949 -3.4847 255 0 0
-4.2345 -34.8175 -3.4836 255 0 0
-4.2343 -39.8775 -3.535 255 0 0
-4.2343 -40.2357 -3.5323 255 0 0
-4.2343 -40.3326 -3.5279 255 0 0
-4.2343 -40.4667 -3.572 255 0 0
-4.2343 -40.6992 -3.5659 255 0 0
-4.2343 -40.8347 -3.5643 255 0 0
-4.2343 -40.9369 -3.5459 255 0 0
-4.2342 -41.9675 -3.5489 255 0 0
-4.2342 -42.1547 -3.5997 255 0 0
-4.2342 -42.3099 -3.5881 255 0 0
-4.1413 -34.6766 -3.4878 255 0 0
-4.1413 -34.8311 -3.499 255 0 0
-4.1414 -39.9192 -3.5804 255 0 0
-4.1414 -40.0221 -3.5391 255 0 0
-4.1414 -40.138 -3.5475 255 0 0
-4.1414 -40.428 -3.557 255 0 0
-4.1414 -40.5401 -3.5336 255 0 0
-4.1414 -40.8831 -3.5498 255 0 0
-4.1414 -40.9892 -3.5632 255 0 0
-4.1414 -41.1194 -3.5755 255 0 0
-4.1414 -41.2125 -3.5393 255 0 0
-4.1414 -41.3867 -3.5404 255 0 0
-4.1414 -41.8221 -3.5432 255 0 0
-4.1414 -42.1894 -3.5583 255 0 0
-4.0441 -34.5951 -3.5096 255 0 0
-4.0441 -34.7594 -3.5158 255 0 0
-4.0444 -40.0466 -3.575 255 0 0
-4.0444 -40.3707 -3.5785 255 0 0
-4.0445 -40.5895 -3.5456 255 0 0
-4.0445 -40.6948 -3.5819 255 0 0
-4.0445 -41.0394 -3.5524 255 0 0
-4.0445 -41.9049 -3.5721 255 0 0
-4.0445 -42.0064 -3.5766 255 0 0
-4.0446 -42.2343 -3.5616 255 0 0
-4.0446 -42.3744 -3.5689 255 0 0
-4.0446 -42.5479 -3.5929 255 0 0
-4.0446 -42.6402 -3.5795 255 0 0
-3.9497 -34.4963 -3.5022 255 0 0
-3.9497 -34.5894 -3.466 255 0 0
-3.9497 -34.6901 -3.4933 255 0 0
-3.9497 -34.8302 -3.5006 255 0 0
-3.9497 -34.9173 -3.5012 255 0 0
-3.9497 -35.0332 -3.5096 255 0 0
-3.9504 -39.9001 -3.5465 255 0 0
-3.9504 -40.0258 -3.5499 255 0 0
-3.9504 -40.147 -3.5443 255 0 0
-3.9505 -40.2393 -3.531 255 0 0
-3.9505 -40.3492 -3.5762 255 0 0
-3.9505 -40.5097 -3.5505 255 0 0
-3.9505 -40.6203 -3.5729 255 0 0
-3.9505 -40.7467 -3.5533 255 0 0
-3.9506 -40.8422 -3.5946 255 0 0
-3.9506 -41.0989 -3.5874 255 0 0
-3.9506 -41.2102 -3.5869 255 0 0
-3.9506 -41.4192 -3.559 255 0 0
-3.9507 -41.8743 -3.5518 255 0 0
-3.9507 -41.9758 -3.5563 255 0 0
-3.9507 -42.2022 -3.587 255 0 0
-3.9508 -42.3234 -3.5815 255 0 0
-3.9508 -42.434 -3.6038 255 0 0
-3.855 -34.6453 -3.4822 255 0 0
-3.855 -34.737 -3.4917 255 0 0
-3.855 -34.8672 -3.504 255 0 0
-3.855 -35.0467 -3.4912 255 0 0
-3.8557 -40.1499 -3.5543 255 0 0
-3.8557 -40.2749 -3.5806 255 0 0
-3.8558 -40.4347 -3.5778 255 0 0
-3.8558 -40.6724 -3.5578 255 0 0
-3.8559 -41.4168 -3.5831 255 0 0
-3.8559 -41.8144 -3.5603 255 0 0
-3.856 -42.2733 -3.5849 255 0 0
-3.856 -42.38 -3.5755 255 0 0
-3.756 -34.3048 -3.4997 255 0 0
-3.7561 -34.7395 -3.5255 255 0 0
-3.7561 -34.8417 -3.5071 255 0 0
-3.7561 -34.9287 -3.5077 255 0 0
-3.7561 -35.0302 -3.5122 255 0 0
-3.7566 -40.1486 -3.5563 255 0 0
-3.7566 -40.2455 -3.5519 255 0 0
-3.7567 -40.9565 -3.5604 255 0 0
-3.7568 -41.3867 -3.5772 255 0 0
-3.7568 -41.4889 -3.5588 255 0 0
-3.7568 -41.6858 -3.6046 255 0 0
-3.7569 -42.4022 -3.5992 255 0 0
-3.6628 -40.5302 -3.5533 255 0 0
-3.6628 -40.8255 -3.5489 255 0 0
-3.6629 -40.9209 -3.5902 255 0 0
-3.6629 -41.0375 -3.5758 255 0 0
-3.6629 -41.1254 -3.5535 255 0 0
-3.6629 -41.4821 -3.5965 255 0 0
-3.6629 -41.6858 -3.5827 255 0 0
-3.663 -41.9175 -3.5995 255 0 0
-3.663 -42.2037 -3.5772 255 0 0
-3.663 -42.3779 -3.5784 255 0 0
-3.663 -42.4741 -3.5968 255 0 0
-3.4759 -38.4457 -3.5462 255 0 0
-3.4762 -40.6471 -3.5596 255 0 0
-3.4763 -40.7924 -3.553 255 0 0
-3.4763 -40.9371 -3.5692 255 0 0
-3.4763 -41.0537 -3.5547 255 0 0
-3.4763 -41.3634 -3.5542 255 0 0
-3.4764 -41.4747 -3.5537 255 0 0
-3.4765 -42.0745 -3.5628 255 0 0
-3.4765 -42.0003 -3.6119 255 0 0
-3.4765 -42.3305 -3.5785 255 0 0
-3.4765 -42.46 -3.6137 255 0 0
-3.3771 -40.6861 -3.5625 255 0 0
-3.3771 -40.8262 -3.5698 255 0 0
-3.3771 -40.933 -3.5603 255 0 0
-3.3771 -41.0488 -3.5687 255 0 0
-3.3771 -41.1542 -3.605 255 0 0
-3.3771 -41.3199 -3.5654 255 0 0
-3.3771 -41.6872 -3.5806 255 0 0
-3.3771 -42.0984 -3.5846 255 0 0
-3.3771 -42.2188 -3.6019 255 0 0
-3.2808 -40.7845 -3.5796 255 0 0
-3.2807 -41.0026 -3.5696 255 0 0
-3.2807 -41.5008 -3.5742 255 0 0
-3.2807 -41.7674 -3.562 255 0 0
-3.2807 -42.4005 -3.5878 255 0 0
-3.1897 -40.6487 -3.6028 255 0 0
-3.1897 -41.2053 -3.6001 255 0 0
-3.1897 -41.3166 -3.5996 255 0 0
-3.1897 -41.4044 -3.5773 255 0 0
-3.1897 -42.1927 -3.5914 255 0 0
-3.1897 -42.348 -3.5797 255 0 0
-3.1897 -42.6327 -3.6032 255 0 0
-3.0948 -40.9789 -3.5905 255 0 0
-3.0948 -41.1387 -3.5877 255 0 0
-3.0948 -41.2644 -3.5911 255 0 0
-3.0949 -41.4196 -3.5794 255 0 0
-3.0949 -42.1012 -3.6029 255 0 0
-3.0949 -42.2943 -3.6169 255 0 0
-3.0949 -42.4215 -3.5745 255 0 0
-3.0949 -42.5366 -3.6058 255 0 0
-3.0949 -42.6532 -3.5913 255 0 0
-3.0949 -42.7494 -3.6097 255 0 0
-2.8991 -38.4893 -3.5652 255 0 0
-2.899 -40.8497 -3.5982 255 0 0
-2.899 -40.9807 -3.5876 255 0 0
-2.899 -41.0678 -3.5882 255 0 0
-2.899 -41.1942 -3.5687 255 0 0
-2.8989 -41.3343 -3.5759 255 0 0
-2.899 -41.4593 -3.6022 255 0 0
-2.8989 -41.6388 -3.5893 255 0 0
-2.8989 -42.0114 -3.5905 255 0 0
-2.8989 -42.262 -3.6201 255 0 0
-2.8989 -42.4029 -3.6045 255 0 0
-2.8045 -38.4043 -3.5752 255 0 0
-2.8045 -38.4921 -3.5528 255 0 0
-2.8048 -40.8374 -3.605 255 0 0
-2.8048 -40.9494 -3.5816 255 0 0
-2.8048 -41.0986 -3.6068 255 0 0
-2.8048 -41.4969 -3.5611 255 0 0
-2.8049 -41.6015 -3.6202 255 0 0
-2.8049 -41.6802 -3.58 255 0 0
-2.8049 -42.1686 -3.5896 255 0 0
-2.8049 -42.308 -3.6197 255 0 0
-2.7099 -38.28 -3.5705 255 0 0
-2.7099 -38.4745 -3.5387 255 0 0
-2.7103 -40.6646 -3.6025 255 0 0
-2.7104 -41.1727 -3.602 255 0 0
-2.7105 -41.5415 -3.5713 255 0 0
-2.7105 -41.7005 -3.5914 255 0 0
-2.7106 -42.1254 -3.6221 255 0 0
-2.6109 -38.4923 -3.5751 255 0 0
-2.6109 -38.5952 -3.5338 255 0 0
-2.6111 -40.911 -3.6011 255 0 0
-2.6111 -41.023 -3.5776 255 0 0
-2.6111 -41.1396 -3.5631 255 0 0
-2.6111 -41.3752 -3.6117 255 0 0
-2.6112 -41.719 -3.6051 255 0 0
-2.6112 -42.1976 -3.6196 255 0 0
-2.5173 -40.7609 -3.5982 255 0 0
-2.5173 -40.882 -3.5926 255 0 0
-2.5173 -41.0668 -3.5659 255 0 0
-2.5174 -41.4621 -3.6117 255 0 0
-2.5174 -41.7332 -3.6083 255 0 0
-2.4215 -40.5744 -3.57 255 0 0
-2.4215 -40.6895 -3.6012 255 0 0
-2.4215 -40.7925 -3.5599 255 0 0
-2.4216 -41.1878 -3.6057 255 0 0
-2.4216 -41.343 -3.594 255 0 0
-2.4217 -41.7921 -3.6236 255 0 0
-2.3261 -38.4431 -3.5334 255 0 0
-2.3264 -40.5711 -3.5728 255 0 0
-2.3264 -40.7294 -3.6157 255 0 0
-2.3264 -40.8604 -3.6052 255 0 0
-2.3265 -41.1648 -3.6186 255 0 0
-2.3265 -41.4314 -3.6064 255 0 0
-2.3266 -41.7646 -3.6276 255 0 0
-2.2309 -38.459 -3.5354 255 0 0
-2.2309 -38.6317 -3.5823 255 0 0
-2.2313 -40.6634 -3.6032 255 0 0
-2.2313 -40.8035 -3.6104 255 0 0
-2.2314 -41.6358 -3.6133 255 0 0
-2.1255 -40.5766 -3.5818 255 0 0
-2.1255 -40.7796 -3.5907 255 0 0
-2.1255 -41.6694 -3.6093 255 0 0
-2.1255 -41.82 -3.5887 255 0 0
-2.0355 -38.6203 -3.5991 255 0 0
-2.0355 -38.7664 -3.5695 255 0 0
-2.0355 -38.8542 -3.5472 255 0 0
-2.0356 -40.4119 -3.5623 255 0 0
-2.0356 -40.5081 -3.5807 255 0 0
-2.0357 -40.6437 -3.579 255 0 0
-2.0357 -40.8322 -3.5841 255 0 0
-2.0357 -40.9383 -3.5975 255 0 0
-1.9376 -40.4906 -3.6031 255 0 0
-1.9376 -40.8776 -3.6082 255 0 0
-1.8431 -38.5869 -3.5957 255 0 0
-1.8435 -40.5315 -3.6161 255 0 0
-1.8435 -40.6928 -3.5676 255 0 0
-1.8436 -40.8026 -3.6128 255 0 0
-1.8436 -40.9192 -3.5983 255 0 0
-1.7424 -38.484 -3.5714 255 0 0
-1.7424 -38.5901 -3.5848 255 0 0
-1.7426 -40.7377 -3.6143 255 0 0
-1.7427 -40.9217 -3.6105 255 0 0
-1.7427 -41.0428 -3.6049 255 0 0
-1.6489 -40.633 -3.5984 255 0 0
-1.6489 -40.7337 -3.6258 255 0 0
-1.4611 -38.8839 -3.5669 255 0 0
-1.4615 -40.484 -3.6167 255 0 0
-1.4615 -40.5869 -3.5754 255 0 0
-1.4616 -40.8323 -3.6189 255 0 0
-1.2628 -38.4309 -3.5952 255 0 0
-1.2628 -38.5907 -3.5924 255 0 0
-1.2628 -38.7747 -3.5885 255 0 0
-1.2628 -40.5315 -3.5807 255 0 0
-1.2628 -40.6323 -3.608 255 0 0
-1.2628 -40.7913 -3.6281 255 0 0
-1.1714 -38.4735 -3.5851 255 0 0
-1.1714 -38.6863 -3.589 255 0 0
-1.1716 -40.5053 -3.6059 255 0 0
-1.1716 -40.6703 -3.5892 255 0 0
-0.9792 -40.5296 -3.6066 255 0 0
-0.8825 -38.6494 -3.5968 255 0 0
-0.8825 -40.5024 -3.6078 255 0 0
-0.5984 -36.6626 -3.5413 255 0 0
-0.599 -40.3921 -3.585 255 0 0
-0.3109 -40.352 -3.627 255 0 0
-0.1147 -38.1271 -3.5715 255 0 0
-0.1147 -38.2324 -3.6078 255 0 0
-0.1147 -40.9124 -3.6357 255 0 0
0.0777 -38.2147 -3.5714 255 0 0
0.0777 -40.8062 -3.6444 255 0 0
0.0777 -40.9319 -3.6478 255 0 0
0.1711 -37.3417 -3.5673 255 0 0
0.171 -37.7233 -3.5863 255 0 0
0.171 -37.8287 -3.6226 255 0 0
0.1707 -40.2723 -3.6249 255 0 0
0.2703 -35.6543 -3.5729 255 0 0
0.2701 -37.2559 -3.5773 255 0 0
0.2701 -37.3475 -3.5868 255 0 0
0.2701 -37.7489 -3.5959 255 0 0
0.2698 -40.0464 -3.628 255 0 0
0.2698 -40.1388 -3.6146 255 0 0
0.3684 -37.2664 -3.6166 255 0 0
0.3684 -37.4367 -3.586 255 0 0
0.3684 -37.6162 -3.5732 255 0 0
0.3684 -37.7275 -3.5727 255 0 0
0.3684 -37.8774 -3.5749 255 0 0
0.3683 -38.7142 -3.5868 255 0 0
0.3682 -39.2988 -3.6149 255 0 0
0.4666 -35.6289 -3.5963 255 0 0
0.4662 -37.3759 -3.594 255 0 0
0.4661 -37.7485 -3.5952 255 0 0
0.4659 -38.8504 -3.6407 255 0 0
0.4658 -39.2433 -3.609 255 0 0
0.4657 -39.9211 -3.6008 255 0 0
0.4655 -40.7185 -3.6328 255 0 0
0.5627 -35.6922 -3.577 255 0 0
0.5624 -37.0909 -3.5724 255 0 0
0.5624 -37.2749 -3.5686 255 0 0
0.5623 -37.6808 -3.5866 255 0 0
0.5622 -37.7966 -3.595 255 0 0
0.562 -38.7637 -3.6193 255 0 0
0.562 -38.85 -3.6428 255 0 0
0.5619 -39.2044 -3.6083 255 0 0
0.5618 -40.0465 -3.6064 255 0 0
0.5616 -40.5963 -3.6635 255 0 0
0.5616 -40.7614 -3.6468 255 0 0
0.6561 -38.8365 -3.6371 255 0 0
0.6561 -39.1515 -3.6227 255 0 0
0.656 -39.4469 -3.6183 255 0 0
0.6559 -39.8134 -3.6563 255 0 0
0.6559 -39.955 -3.6179 255 0 0
0.6559 -40.0701 -3.6492 255 0 0
0.6558 -40.3904 -3.6208 255 0 0
0.6558 -40.6509 -3.6454 255 0 0
0.7577 -38.817 -3.6472 255 0 0
0.7577 -39.0154 -3.6472 255 0 0
0.7577 -39.0941 -3.607 255 0 0
0.7577 -39.5099 -3.62 255 0 0
0.7577 -39.9642 -3.6357 255 0 0
0.7577 -40.1096 -3.6291 255 0 0
0.7577 -40.4292 -3.6236 255 0 0
0.7577 -40.6124 -3.6426 255 0 0
0.7577 -40.7382 -3.646 255 0 0
0.8512 -37.7791 -3.6032 255 0 0
0.8512 -38.3788 -3.6123 255 0 0
0.8512 -38.6787 -3.6169 255 0 0
0.8512 -38.8529 -3.618 255 0 0
0.8512 -38.9832 -3.6303 255 0 0
0.8512 -39.1384 -3.6186 255 0 0
0.8512 -39.2307 -3.6053 255 0 0
0.8512 -39.5549 -3.6087 255 0 0
0.8512 -39.6359 -3.6461 255 0 0
0.8512 -40.0236 -3.6283 255 0 0
0.8512 -40.1357 -3.6049 255 0 0
0.8512 -40.3818 -3.6256 255 0 0
0.9458 -35.0613 -3.5838 255 0 0
0.9458 -35.5058 -3.6047 255 0 0
0.9458 -35.7542 -3.5568 255 0 0
0.9458 -35.6702 -3.6109 255 0 0
0.9458 -35.8837 -3.592 255 0 0
0.9457 -37.4709 -3.5926 255 0 0
0.9457 -37.6011 -3.6049 255 0 0
0.9456 -37.6928 -3.6144 255 0 0
0.9456 -38.3516 -3.5935 255 0 0
0.9456 -38.5015 -3.5958 255 0 0
0.9456 -38.6075 -3.6092 255 0 0
0.9455 -40.1508 -3.621 255 0 0
0.9455 -40.2621 -3.6205 255 0 0
1.0422 -34.4368 -3.5764 255 0 0
1.0422 -34.8714 -3.6022 255 0 0
1.0422 -34.9638 -3.5889 255 0 0
1.0423 -35.7673 -3.5842 255 0 0
1.0423 -35.8582 -3.6166 255 0 0
1.0423 -37.2772 -3.5792 255 0 0
1.0423 -37.4173 -3.5865 255 0 0
1.0423 -37.5089 -3.596 255 0 0
1.0423 -37.649 -3.6033 255 0 0
1.0423 -37.7551 -3.6167 255 0 0
1.0423 -37.8566 -3.6212 255 0 0
1.0423 -38.0648 -3.6163 255 0 0
1.0423 -38.2291 -3.6225 255 0 0
1.0423 -38.3359 -3.613 255 0 0
1.0423 -38.4381 -3.5946 255 0 0
1.0423 -38.5494 -3.5941 255 0 0
1.0423 -38.635 -3.6405 255 0 0
1.0423 -38.7274 -3.6271 255 0 0
1.0423 -40.1208 -3.6366 255 0 0
1.0424 -40.2328 -3.6132 255 0 0
1.0424 -40.3441 -3.6127 255 0 0
1.1378 -35.8527 -3.5736 255 0 0
1.1379 -37.5263 -3.5975 255 0 0
1.138 -38.5032 -3.6168 255 0 0
1.138 -38.5948 -3.6263 255 0 0
1.138 -39.9534 -3.6646 255 0 0
1.1381 -40.2737 -3.6362 255 0 0
1.1381 -40.4001 -3.6167 255 0 0
1.1381 -40.7515 -3.6737 255 0 0
1.3268 -35.1977 -3.6045 255 0 0
1.3268 -35.749 -3.6159 255 0 0
1.3269 -38.5319 -3.603 255 0 0
1.3269 -39.6671 -3.6653 255 0 0
1.3269 -39.8852 -3.6554 255 0 0
1.3269 -39.9874 -3.637 255 0 0
1.3269 -40.1896 -3.6689 255 0 0
1.3267 -34.704 -3.6088 255 0 0
1.3268 -34.9077 -3.5949 255 0 0
1.3268 -35.1166 -3.5671 255 0 0
1.3268 -37.2151 -3.622 255 0 0
1.3269 -38.6857 -3.6371 255 0 0
1.6133 -34.8593 -3.599 255 0 0
1.6133 -34.951 -3.6086 255 0 0
1.6133 -35.0342 -3.5774 255 0 0
1.6132 -35.7151 -3.624 255 0 0
1.6132 -35.8134 -3.5738 255 0 0
1.6132 -37.0569 -3.5811 255 0 0
1.613 -38.4579 -3.6542 255 0 0
1.613 -38.5555 -3.6269 255 0 0
1.613 -38.6858 -3.6393 255 0 0
1.7084 -35.1315 -3.6157 255 0 0
1.7084 -35.4412 -3.6152 255 0 0
1.7084 -35.6441 -3.6242 255 0 0
1.7084 -35.7653 -3.6186 255 0 0
1.7084 -35.8682 -3.5774 255 0 0
1.7083 -37.0632 -3.5866 255 0 0
1.7081 -38.3589 -3.6232 255 0 0
1.7081 -38.4551 -3.6417 255 0 0
1.7081 -38.5861 -3.6311 255 0 0
1.7081 -38.711 -3.6574 255 0 0
1.8057 -34.9872 -3.5992 255 0 0
1.8057 -35.0848 -3.5719 255 0 0
1.8057 -35.2242 -3.6021 255 0 0
1.8057 -35.3643 -3.6094 255 0 0
1.8057 -35.5824 -3.5994 255 0 0
1.8057 -35.6748 -3.586 255 0 0
1.8057 -37.6724 -3.6134 255 0 0
1.8057 -38.2964 -3.6214 255 0 0
1.8057 -38.4274 -3.6108 255 0 0
1.8057 -38.5289 -3.6153 255 0 0
1.8057 -38.6493 -3.6326 255 0 0
1.8833 -34.9356 -3.5809 255 0 0
1.8833 -35.0318 -3.5994 255 0 0
1.8833 -35.1431 -3.5989 255 0 0
1.8834 -35.6277 -3.5767 255 0 0
1.8834 -35.7186 -3.6091 255 0 0
1.8835 -37.6345 -3.6222 255 0 0
1.8835 -38.5485 -3.6399 255 0 0
1.9374 -35.2585 -3.6069 255 0 0
1.9375 -35.3751 -3.5925 255 0 0
1.9376 -37.3576 -3.6391 255 0 0
1.9377 -37.9634 -3.6115 255 0 0
1.9377 -38.6162 -3.6274 255 0 0
1.9744 -35.1667 -3.6177 255 0 0
1.9745 -35.6468 -3.5866 255 0 0
1.9747 -38.4865 -3.6122 255 0 0
1.9846 -34.9723 -3.6043 255 0 0
1.9847 -35.781 -3.5857 255 0 0
1.9848 -37.7931 -3.6172 255 0 0
1.9849 -38.3935 -3.6035 255 0 0
-6.2528 -33.2366 -3.457 255 0 0
-6.2495 -36.1191 -3.4665 255 0 0
-6.2463 -36.2738 -3.476 255 0 0
-6.2463 -38.096 -3.4759 255 0 0
-6.2462 -38.8802 -3.4759 255 0 0
-6.2399 -37.9414 -3.495 255 0 0
-6.2399 -38.7918 -3.495 255 0 0
-6.2367 -39.1452 -3.5045 255 0 0
-6.2304 -38.6814 -3.5235 255 0 0
-6.2304 -39.2667 -3.5235 255 0 0
-6.2133 -36.0209 -3.4957 255 0 0
-6.2133 -36.9044 -3.4956 255 0 0
-6.2133 -37.0811 -3.4956 255 0 0
-6.207 -37.4456 -3.5146 255 0 0
-6.2038 -38.307 -3.524 255 0 0
-6.1839 -35.8185 -3.4427 255 0 0
-6.1776 -33.7532 -3.4616 255 0 0
-6.1775 -37.3094 -3.4618 255 0 0
-6.1744 -35.697 -3.4712 255 0 0
-6.1712 -35.9289 -3.4808 255 0 0
-6.1648 -36.9781 -3.4998 255 0 0
-6.1648 -37.8506 -3.4999 255 0 0
-6.1553 -38.2261 -3.5285 255 0 0
-6.1144 -34.2115 -3.4246 255 0 0
-6.1049 -33.9574 -3.453 255 0 0
-6.1049 -34.3882 -3.4531 255 0 0
-6.1017 -34.8189 -3.4628 255 0 0
-6.1018 -37.2265 -3.4634 255 0 0
-6.0985 -33.8028 -3.472 255 0 0
-6.0986 -35.8018 -3.4725 255 0 0
-6.0986 -36.0227 -3.4726 255 0 0
-6.0828 -38.353 -3.5208 255 0 0
-6.0159 -34.0701 -3.4416 255 0 0
-6.0159 -35.5169 -3.4419 255 0 0
-6.0064 -33.9707 -3.4701 255 0 0
-6.0032 -36.1795 -3.4801 255 0 0
-6.0032 -37.2066 -3.4803 255 0 0
-6.0032 -37.3833 -3.4804 255 0 0
-6 -35.8261 -3.4895 255 0 0
-5.9969 -36.0359 -3.4991 255 0 0
-5.9937 -36.5108 -3.5087 255 0 0
-5.9937 -36.6986 -3.5087 255 0 0
-5.9936 -38.2448 -3.5091 255 0 0
-5.9905 -38.0349 -3.5185 255 0 0
-5.924 -33.7852 -3.4222 255 0 0
-5.9109 -36.4137 -3.4607 255 0 0
-5.9082 -33.6969 -3.4697 255 0 0
-5.9077 -36.6898 -3.4703 255 0 0
-5.9076 -37.0322 -3.4703 255 0 0
-5.9075 -37.4077 -3.4704 255 0 0
-5.9045 -36.5573 -3.4797 255 0 0
-5.9014 -35.983 -3.4891 255 0 0
-5.9014 -36.1597 -3.4892 255 0 0
-5.9014 -36.2481 -3.4892 255 0 0
-5.9013 -36.8223 -3.4893 255 0 0
-5.9012 -37.1537 -3.4894 255 0 0
-5.9012 -37.2972 -3.4894 255 0 0
-5.9011 -38.1035 -3.4896 255 0 0
-5.8983 -36.0713 -3.4987 255 0 0
-5.8981 -36.9217 -3.4988 255 0 0
-5.898 -37.739 -3.499 255 0 0
-5.8915 -38.4017 -3.5181 255 0 0
-5.7303 -33.6287 -3.4229 255 0 0
-5.7207 -35.3847 -3.4517 255 0 0
-5.7206 -36.0474 -3.4518 255 0 0
-5.7175 -35.208 -3.4612 255 0 0
-5.7174 -36.6217 -3.4614 255 0 0
-5.7111 -36.4118 -3.4804 255 0 0
-5.7109 -37.8255 -3.4806 255 0 0
-5.7109 -38.0353 -3.4807 255 0 0
-5.7078 -37.0634 -3.49 255 0 0
-5.7077 -38.3777 -3.4902 255 0 0
-5.7015 -36.7984 -3.509 255 0 0
-5.7015 -37.1849 -3.5091 255 0 0
-5.7014 -38.2783 -3.5093 255 0 0
-5.623 -35.9325 -3.4605 255 0 0
-5.6167 -36.2417 -3.4796 255 0 0
-5.6167 -36.6172 -3.4797 255 0 0
-5.6166 -36.7718 -3.4798 255 0 0
-5.6166 -36.9154 -3.4798 255 0 0
-5.6166 -37.8763 -3.4802 255 0 0
-5.6135 -37.3241 -3.4895 255 0 0
-5.6103 -36.0761 -3.4986 255 0 0
-5.6103 -36.4405 -3.4987 255 0 0
-5.6103 -37.4897 -3.499 255 0 0
-5.604 -37.2357 -3.518 255 0 0
-5.604 -37.7216 -3.5181 255 0 0
-5.604 -38.2186 -3.5183 255 0 0
-5.6008 -37.6333 -3.5276 255 0 0
-5.6008 -37.9646 -3.5277 255 0 0
-5.5315 -35.3947 -3.4482 255 0 0
-5.5253 -36.9078 -3.4674 255 0 0
-5.5221 -36.4881 -3.4769 255 0 0
-5.5222 -37.3385 -3.477 255 0 0
-5.5222 -37.5815 -3.477 255 0 0
-5.5222 -37.7471 -3.4771 255 0 0
-5.5159 -37.4379 -3.496 255 0 0
-5.5159 -38.4981 -3.4962 255 0 0
-5.5126 -36.5985 -3.5054 255 0 0
-5.5127 -37.2501 -3.5055 255 0 0
-5.5128 -38.1889 -3.5057 255 0 0
-5.5096 -37.6698 -3.5151 255 0 0
-5.5033 -38.2772 -3.5342 255 0 0
-5.4348 -34.9747 -3.4462 255 0 0
-5.4317 -35.0741 -3.4557 255 0 0
-5.4287 -36.4325 -3.4653 255 0 0
-5.4194 -37.5038 -3.494 255 0 0
-5.4159 -35.4165 -3.5033 255 0 0
-5.4162 -37.2719 -3.5035 255 0 0
-5.4162 -37.6916 -3.5035 255 0 0
-5.4098 -36.6534 -3.5224 255 0 0
-5.4068 -38.3432 -3.5321 255 0 0
-5.4069 -38.4536 -3.5321 255 0 0
-5.3354 -35.0836 -3.4578 255 0 0
-5.3322 -36.0003 -3.4674 255 0 0
-5.3291 -35.2713 -3.4768 255 0 0
-5.3291 -36.4531 -3.477 255 0 0
-5.3259 -37.7342 -3.4868 255 0 0
-5.3259 -37.8336 -3.4868 255 0 0
-5.3227 -35.437 -3.4959 255 0 0
-5.3228 -38.1539 -3.4964 255 0 0
-5.3228 -38.4189 -3.4965 255 0 0
-5.3196 -35.68 -3.5054 255 0 0
-5.3196 -38.3195 -3.506 255 0 0
-5.3196 -38.7392 -3.506 255 0 0
-5.3164 -37.3587 -3.5153 255 0 0
-5.3164 -37.6458 -3.5153 255 0 0
-5.3164 -38.8607 -3.5156 255 0 0
-5.2351 -35.0501 -3.46 255 0 0
-5.232 -35.282 -3.4695 255 0 0
-5.2288 -35.4256 -3.4791 255 0 0
-5.2256 -35.7459 -3.4886 255 0 0
-5.2225 -38.0983 -3.4986 255 0 0
-5.2225 -38.2308 -3.4986 255 0 0
-5.2225 -38.3302 -3.4986 255 0 0
-5.2193 -35.9005 -3.5077 255 0 0
-5.2161 -37.281 -3.5175 255 0 0
-5.2161 -38.4628 -3.5177 255 0 0
-5.2161 -38.7168 -3.5177 255 0 0
-5.213 -37.5461 -3.527 255 0 0
-5.213 -38.6174 -3.5272 255 0 0
-5.2098 -37.6344 -3.5365 255 0 0
-5.1325 -38.1966 -3.4875 255 0 0
-5.1325 -38.296 -3.4875 255 0 0
-5.1293 -35.2478 -3.4962 255 0 0
-5.1293 -35.8111 -3.4964 255 0 0
-5.1294 -39.0139 -3.4972 255 0 0
-5.123 -37.7659 -3.5159 255 0 0
-5.1199 -38.5279 -3.5256 255 0 0
-5.1199 -38.7157 -3.5257 255 0 0
-5.1199 -39.3121 -3.5258 255 0 0
-5.1104 -39.4335 -3.5544 255 0 0
-4.9412 -38.1495 -3.4911 255 0 0
-4.938 -37.8071 -3.5005 255 0 0
-4.9349 -38.6575 -3.5103 255 0 0
-4.9318 -38.8011 -3.5199 255 0 0
-4.9254 -39.3643 -3.5391 255 0 0
-4.9223 -39.1324 -3.5485 255 0 0
-4.9411 -33.1906 -3.4892 255 0 0
-4.9349 -38.3041 -3.5102 255 0 0
-4.845 -33.3371 -3.4888 255 0 0
-4.8422 -39.058 -3.5001 255 0 0
-4.839 -38.7266 -3.5095 255 0 0
-4.8358 -38.2628 -3.5189 255 0 0
-4.8359 -39.4776 -3.5192 255 0 0
-4.8327 -39.1794 -3.5286 255 0 0
-4.8233 -39.3893 -3.5572 255 0 0
-4.5539 -37.616 -3.5059 255 0 0
-4.5538 -38.0799 -3.506 255 0 0
-4.5537 -38.356 -3.5061 255 0 0
-4.5536 -38.8529 -3.5062 255 0 0
-4.5506 -38.1682 -3.5156 255 0 0
-4.5444 -37.5276 -3.5345 255 0 0
-4.5441 -39.4051 -3.5348 255 0 0
-4.5412 -37.7596 -3.544 255 0 0
-4.5409 -39.3057 -3.5443 255 0 0
-4.5378 -39.129 -3.5538 255 0 0
-4.4645 -34.8537 -3.4871 255 0 0
-4.4645 -35.2844 -3.4872 255 0 0
-4.4611 -37.8577 -3.4973 255 0 0
-4.4579 -38.3326 -3.5069 255 0 0
-4.4548 -37.6368 -3.5163 255 0 0
-4.4485 -37.3939 -3.5353 255 0 0
-4.4485 -37.5264 -3.5353 255 0 0
-4.4452 -38.2442 -3.545 255 0 0
-4.442 -39.3155 -3.5547 255 0 0
-4.3783 -34.886 -3.4597 255 0 0
-4.3751 -35.0848 -3.4693 255 0 0
-4.3656 -35.1953 -3.4979 255 0 0
-4.3623 -37.5918 -3.5081 255 0 0
-4.3622 -38.144 -3.5083 255 0 0
-4.359 -39.1932 -3.5181 255 0 0
-4.3558 -39.1049 -3.5276 255 0 0
-4.3558 -39.5687 -3.5277 255 0 0
-4.3528 -37.4814 -3.5366 255 0 0
-4.3495 -39.3589 -3.5467 255 0 0
-4.2788 -34.9974 -3.4795 255 0 0
-4.2756 -35.0968 -3.4891 255 0 0
-4.2724 -35.1962 -3.4986 255 0 0
-4.2724 -37.7033 -3.4993 255 0 0
-4.2724 -38.0567 -3.4994 255 0 0
-4.2692 -38.2002 -3.5089 255 0 0
-4.266 -39.4372 -3.5188 255 0 0
-4.2598 -37.5155 -3.5373 255 0 0
-4.2566 -39.5366 -3.5474 255 0 0
-4.1814 -35.0762 -3.4708 255 0 0
-4.169 -38.3452 -3.5097 255 0 0
-4.1658 -38.5772 -3.5193 255 0 0
-4.1659 -39.3392 -3.5195 255 0 0
-4.1626 -38.1906 -3.5287 255 0 0
-4.1627 -38.6876 -3.5289 255 0 0
-4.1595 -37.7268 -3.5381 255 0 0
-4.1596 -39.5049 -3.5386 255 0 0
-4.1531 -38.025 -3.5572 255 0 0
-4.0716 -37.9582 -3.5181 255 0 0
-4.0716 -38.1238 -3.5182 255 0 0
-4.0717 -38.3668 -3.5183 255 0 0
-4.0717 -38.7092 -3.5184 255 0 0
-4.0685 -38.5546 -3.5278 255 0 0
-4.0686 -39.405 -3.5281 255 0 0
-4.0622 -38.4552 -3.5468 255 0 0
-4.0589 -37.8477 -3.5562 255 0 0
-3.9789 -35.1167 -3.5094 255 0 0
-3.9792 -38.0213 -3.5106 255 0 0
-3.9792 -38.2091 -3.5107 255 0 0
-3.9792 -38.7061 -3.5109 255 0 0
-3.976 -38.3306 -3.5202 255 0 0
-3.9761 -38.5183 -3.5203 255 0 0
-3.9697 -37.8888 -3.5391 255 0 0
-3.9634 -38.0986 -3.5582 255 0 0
-3.8935 -34.2857 -3.4717 255 0 0
-3.8809 -34.3851 -3.5098 255 0 0
-3.8779 -37.9524 -3.5209 255 0 0
-3.8779 -38.604 -3.5212 255 0 0
-3.8779 -38.7034 -3.5212 255 0 0
-3.878 -39.5538 -3.5216 255 0 0
-3.8716 -38.0518 -3.5399 255 0 0
-3.8684 -38.1622 -3.5495 255 0 0
-3.8684 -38.2616 -3.5496 255 0 0
-3.7926 -34.442 -3.4988 255 0 0
-3.7804 -38.6609 -3.5383 255 0 0
-3.7772 -38.2633 -3.5477 255 0 0
-3.7773 -39.434 -3.5481 255 0 0
-3.774 -38.5615 -3.5573 255 0 0
-3.7708 -38.3627 -3.5667 255 0 0
-3.7709 -39.5333 -3.5671 255 0 0
-3.7022 -34.3875 -3.4802 255 0 0
-3.6932 -38.3193 -3.51 255 0 0
-3.6901 -38.9709 -3.5198 255 0 0
-3.6837 -38.4187 -3.5386 255 0 0
-3.6837 -38.6395 -3.5387 255 0 0
-3.6806 -38.5401 -3.5482 255 0 0
-3.6774 -38.1978 -3.5576 255 0 0
-3.5987 -34.4119 -3.4966 255 0 0
-3.5929 -38.4982 -3.5165 255 0 0
-3.5929 -38.7523 -3.5166 255 0 0
-3.5865 -38.3215 -3.5355 255 0 0
-3.5834 -38.5866 -3.5451 255 0 0
-3.5802 -38.4209 -3.5545 255 0 0
-3.577 -38.1779 -3.564 255 0 0
-3.4111 -34.1701 -3.4771 255 0 0
-3.4047 -34.391 -3.4962 255 0 0
-3.3984 -34.2585 -3.5152 255 0 0
-3.395 -38.3779 -3.5255 255 0 0
-3.3919 -38.5878 -3.535 255 0 0
-3.3919 -38.886 -3.5351 255 0 0
-3.3824 -39.2283 -3.5637 255 0 0
-3.3006 -34.1142 -3.5148 255 0 0
-3.2969 -38.565 -3.5252 255 0 0
-3.2937 -38.6754 -3.5347 255 0 0
-3.2905 -39.084 -3.5443 255 0 0
-3.2874 -38.7858 -3.5538 255 0 0
-3.2874 -38.9294 -3.5538 255 0 0
-3.2873 -39.2055 -3.5539 255 0 0
-3.2174 -34.0521 -3.4836 255 0 0
-3.2111 -34.2068 -3.5026 255 0 0
-3.2048 -34.2951 -3.5216 255 0 0
-3.198 -38.9116 -3.5407 255 0 0
-3.1949 -38.3594 -3.5502 255 0 0
-3.1917 -38.7349 -3.5597 255 0 0
-3.1886 -38.2158 -3.5692 255 0 0
-3.1197 -34.2403 -3.4909 255 0 0
-3.1063 -38.8899 -3.5289 255 0 0
-3.1032 -38.6469 -3.5384 255 0 0
-3.1001 -38.2162 -3.5479 255 0 0
-3.0968 -38.5586 -3.5575 255 0 0
-3.0906 -38.3598 -3.5765 255 0 0
-3.0231 -34.1734 -3.5009 255 0 0
-3.023 -34.2728 -3.5009 255 0 0
-3.0134 -38.5359 -3.5294 255 0 0
-3.0102 -38.9114 -3.5389 255 0 0
-3.0007 -38.4585 -3.5674 255 0 0
-2.9976 -38.083 -3.5769 255 0 0
-2.9147 -34.1878 -3.5291 255 0 0
-2.9144 -38.8043 -3.5287 255 0 0
-2.9112 -38.2521 -3.5383 255 0 0
-2.9081 -38.5834 -3.5477 255 0 0
-2.8185 -34.21 -3.5292 255 0 0
-2.8147 -38.6939 -3.5386 255 0 0
-2.8053 -38.1306 -3.5672 255 0 0
-2.6434 -34.0859 -3.4826 255 0 0
-2.6402 -33.8208 -3.4921 255 0 0
-2.6307 -34.1743 -3.5206 255 0 0
-2.6242 -38.2054 -3.5398 255 0 0
-2.6179 -38.106 -3.5588 255 0 0
-2.5402 -33.8317 -3.5118 255 0 0
-2.5339 -34.141 -3.5309 255 0 0
-2.5247 -38.8237 -3.5596 255 0 0
-2.5215 -38.5366 -3.5691 255 0 0
-2.5216 -38.636 -3.5691 255 0 0
-2.5184 -38.1611 -3.5786 255 0 0
-2.449 -34.0926 -3.4963 255 0 0
-2.4426 -33.8054 -3.5153 255 0 0
-2.4395 -33.9158 -3.5248 255 0 0
-2.424 -38.2562 -3.5731 255 0 0
-2.4208 -38.5544 -3.5827 255 0 0
-2.4209 -38.8195 -3.5827 255 0 0
-2.4177 -38.709 -3.5922 255 0 0
-2.3559 -33.7495 -3.4852 255 0 0
-2.3433 -33.8931 -3.5233 255 0 0
-2.3433 -34.114 -3.5233 255 0 0
-2.3278 -38.366 -3.5716 255 0 0
-2.3278 -38.6642 -3.5716 255 0 0
-2.1609 -33.7496 -3.4866 255 0 0
-2.1577 -33.1311 -3.4959 255 0 0
-2.1546 -33.8711 -3.5056 255 0 0
-2.1421 -38.863 -3.5446 255 0 0
-2.1358 -38.4434 -3.5635 255 0 0
-2.1326 -38.355 -3.573 255 0 0
-2.1295 -38.6863 -3.5826 255 0 0
-1.9688 -33.8142 -3.4876 255 0 0
-1.9471 -38.4085 -3.5551 255 0 0
-1.944 -38.9387 -3.5647 255 0 0
-1.9377 -38.8061 -3.5837 255 0 0
-1.8718 -33.7714 -3.4874 255 0 0
-1.8655 -34.0695 -3.5065 255 0 0
-1.8592 -33.926 -3.5255 255 0 0
-1.8529 -38.4982 -3.5454 255 0 0
-1.8466 -38.94 -3.5645 255 0 0
-1.8403 -38.8406 -3.5835 255 0 0
-1.8339 -38.7191 -3.6025 255 0 0
-1.7741 -33.7618 -3.4881 255 0 0
-1.7424 -39.1845 -3.5838 255 0 0
-1.7393 -38.7979 -3.5933 255 0 0
-1.7393 -39.0078 -3.5933 255 0 0
-1.7361 -38.9084 -3.6028 255 0 0
-1.67 -34.0718 -3.5059 255 0 0
-1.6567 -38.4233 -3.5443 255 0 0
-1.6542 -34.1712 -3.5534 255 0 0
-1.6503 -38.9202 -3.5634 255 0 0
-1.6472 -38.6441 -3.5729 255 0 0
-1.6472 -38.8098 -3.5729 255 0 0
-1.6471 -39.1632 -3.5729 255 0 0
-1.644 -39.0196 -3.5824 255 0 0
-1.5782 -34.1026 -3.5073 255 0 0
-1.5656 -34.0253 -3.5453 255 0 0
-1.562 -38.5645 -3.5556 255 0 0
-1.5619 -39.2381 -3.5558 255 0 0
-1.5557 -38.3877 -3.5746 255 0 0
-1.5525 -38.8406 -3.5842 255 0 0
-1.5524 -38.951 -3.5843 255 0 0
-1.5524 -39.0725 -3.5843 255 0 0
-1.5462 -38.6418 -3.6032 255 0 0
-1.4826 -34.1231 -3.4976 255 0 0
-1.4637 -34.0237 -3.5546 255 0 0
-1.4636 -34.2225 -3.5547 255 0 0
-1.4632 -38.4524 -3.5558 255 0 0
-1.46 -38.6733 -3.5654 255 0 0
-1.4599 -39.1482 -3.5655 255 0 0
-1.4567 -39.358 -3.5751 255 0 0
-1.4536 -39.0157 -3.5845 255 0 0
-1.4505 -38.2978 -3.5938 255 0 0
-1.3799 -33.9692 -3.5267 255 0 0
-1.3799 -34.146 -3.5268 255 0 0
-1.3706 -38.652 -3.5564 255 0 0
-1.3674 -39.3367 -3.5661 255 0 0
-1.3642 -39.16 -3.5755 255 0 0
-1.3611 -38.3869 -3.5849 255 0 0
-1.3611 -38.7735 -3.585 255 0 0
-1.3611 -38.9502 -3.585 255 0 0
-1.3547 -39.0716 -3.604 255 0 0
-1.1886 -34.1919 -3.5175 255 0 0
-1.1791 -34.0925 -3.546 255 0 0
-1.1671 -38.3224 -3.5851 255 0 0
-1.1672 -38.8415 -3.5853 255 0 0
-1.1672 -39.1065 -3.5853 255 0 0
-1.164 -38.9629 -3.5948 255 0 0
-1.0952 -34.159 -3.5081 255 0 0
-1.0825 -34.0486 -3.5461 255 0 0
-1.0766 -38.4552 -3.5663 255 0 0
-1.0767 -39.2614 -3.5665 255 0 0
-1.0736 -39.3829 -3.576 255 0 0
-1.0703 -38.5546 -3.5853 255 0 0
-1.0704 -38.8969 -3.5854 255 0 0
-1.0704 -39.151 -3.5855 255 0 0
-1.0609 -38.7092 -3.6139 255 0 0
-0.9794 -38.822 -3.5749 255 0 0
-0.9794 -39.3631 -3.575 255 0 0
-0.9761 -38.3912 -3.5843 255 0 0
-0.9667 -38.9324 -3.613 255 0 0
-0.9017 -34.1395 -3.5143 255 0 0
-0.889 -34.0401 -3.5523 255 0 0
-0.8862 -38.3915 -3.5626 255 0 0
-0.8831 -39.0983 -3.5722 255 0 0
-0.8768 -38.767 -3.5912 255 0 0
-0.8768 -38.8774 -3.5912 255 0 0
-0.8768 -39.2088 -3.5912 255 0 0
-0.8768 -39.3634 -3.5913 255 0 0
-0.8736 -38.9879 -3.6007 255 0 0
-0.8642 -39.6726 -3.6294 255 0 0
-0.7904 -34.0733 -3.5644 255 0 0
-0.7875 -38.4578 -3.5745 255 0 0
-0.7876 -38.5793 -3.5745 255 0 0
-0.7845 -39.5954 -3.5841 255 0 0
-0.7812 -38.3032 -3.5935 255 0 0
-0.7813 -39.253 -3.5936 255 0 0
-0.7813 -39.3634 -3.5936 255 0 0
-0.7781 -38.8775 -3.6031 255 0 0
-0.7749 -39.0542 -3.6126 255 0 0
-0.6989 -34.1725 -3.5438 255 0 0
-0.6865 -38.8 -3.582 255 0 0
-0.6865 -39.2197 -3.5821 255 0 0
-0.6833 -38.6012 -3.5915 255 0 0
-0.6833 -38.7006 -3.5915 255 0 0
-0.6833 -38.8994 -3.5916 255 0 0
-0.6834 -39.1313 -3.5916 255 0 0
-0.6834 -39.4406 -3.5916 255 0 0
-0.6834 -39.6283 -3.5916 255 0 0
-0.677 -38.4797 -3.6106 255 0 0
-0.5916 -38.6445 -3.5819 255 0 0
-0.5885 -38.247 -3.5913 255 0 0
-0.5885 -38.5231 -3.5914 255 0 0
-0.5884 -38.7992 -3.5914 255 0 0
-0.5884 -39.2851 -3.5914 255 0 0
-0.5853 -39.1526 -3.6009 255 0 0
-0.5853 -39.3845 -3.6009 255 0 0
-0.5821 -38.3574 -3.6104 255 0 0
-0.5821 -39.5833 -3.6105 255 0 0
-0.579 -39.0311 -3.6199 255 0 0
-0.517 -34.1042 -3.5148 255 0 0
-0.4946 -38.1685 -3.5819 255 0 0
-0.4945 -38.6434 -3.5819 255 0 0
-0.4914 -38.555 -3.5914 255 0 0
-0.4914 -38.8863 -3.5915 255 0 0
-0.4913 -39.0299 -3.5915 255 0 0
-0.4913 -39.2729 -3.5915 255 0 0
-0.4913 -39.4827 -3.5916 255 0 0
-0.4882 -38.3452 -3.6009 255 0 0
-0.4882 -38.4556 -3.6009 255 0 0
-0.485 -39.1293 -3.6105 255 0 0
-0.4187 -34.1141 -3.525 255 0 0
-0.4057 -38.2225 -3.5636 255 0 0
-0.4025 -38.4434 -3.5732 255 0 0
-0.4025 -39.1281 -3.5733 255 0 0
-0.3993 -39.5478 -3.5829 255 0 0
-0.3962 -38.6974 -3.5922 255 0 0
-0.3962 -38.7968 -3.5923 255 0 0
-0.3961 -39.2496 -3.5923 255 0 0
-0.393 -38.587 -3.6017 255 0 0
-0.3929 -39.3711 -3.6019 255 0 0
-0.3867 -38.101 -3.6207 255 0 0
-0.2232 -33.7943 -3.5448 255 0 0
-0.2232 -33.8827 -3.5449 255 0 0
-0.22 -34.0262 -3.5544 255 0 0
-0.2136 -38.4218 -3.5739 255 0 0
-0.2136 -38.5102 -3.5739 255 0 0
-0.2105 -38.6758 -3.5835 255 0 0
-0.2104 -38.8857 -3.5835 255 0 0
-0.2073 -38.7863 -3.593 255 0 0
-0.2136 -38.1899 -3.5739 255 0 0
-0.2104 -39.5483 -3.5836 255 0 0
-0.2073 -39.2833 -3.593 255 0 0
-0.201 -38.0905 -3.6119 255 0 0
-0.1978 -39.3827 -3.6216 255 0 0
-0.02 -38.2767 -3.5751 255 0 0
-0.0135 -39.4695 -3.5944 255 0 0
-0.0072 -38.9283 -3.6133 255 0 0
0.172 -34.1684 -3.5732 255 0 0
0.1719 -38.3099 -3.5737 255 0 0
0.1751 -38.7848 -3.5833 255 0 0
0.1751 -38.8842 -3.5833 255 0 0
0.1814 -37.9676 -3.6022 255 0 0
0.1814 -38.0559 -3.6022 255 0 0
0.1846 -38.1553 -3.6117 255 0 0
0.2613 -34.156 -3.5655 255 0 0
0.2645 -34.0235 -3.575 255 0 0
0.2741 -38.1098 -3.6043 255 0 0
0.2805 -39.2253 -3.6235 255 0 0
0.2868 -39.6008 -3.6426 255 0 0
0.2646 -38.2534 -3.5758 255 0 0
0.2678 -37.9552 -3.5852 255 0 0
0.2678 -38.9713 -3.5854 255 0 0
0.2678 -39.1148 -3.5854 255 0 0
0.271 -38.4191 -3.5948 255 0 0
0.271 -38.8829 -3.5949 255 0 0
0.2741 -38.6179 -3.6044 255 0 0
0.2742 -39.4793 -3.6045 255 0 0
0.2805 -39.3357 -3.6235 255 0 0
0.463 -36.4014 -3.5831 255 0 0
0.466 -39.0852 -3.5929 255 0 0
0.466 -39.5711 -3.593 255 0 0
0.4693 -37.8482 -3.6023 255 0 0
0.4692 -38.5219 -3.6024 255 0 0
0.4725 -37.0972 -3.6117 255 0 0
0.4724 -38.6765 -3.6119 255 0 0
0.4724 -39.4054 -3.612 255 0 0
0.4756 -38.7649 -3.6214 255 0 0
0.485 -39.6484 -3.65 255 0 0
0.554 -33.6281 -3.5648 255 0 0
0.554 -34.1803 -3.5649 255 0 0
0.554 -36.9524 -3.5655 255 0 0
0.5604 -33.7165 -3.5839 255 0 0
0.5603 -37.9022 -3.5847 255 0 0
0.5603 -38.2225 -3.5847 255 0 0
0.5635 -36.0689 -3.5938 255 0 0
0.5634 -38.3219 -3.5942 255 0 0
0.5729 -38.5869 -3.6228 255 0 0
0.5761 -38.4544 -3.6323 255 0 0
0.5761 -38.9403 -3.6324 255 0 0
0.5761 -39.4815 -3.6325 255 0 0
0.5761 -39.603 -3.6325 255 0 0
0.5792 -38.6753 -3.6419 255 0 0
0.6506 -35.8258 -3.5651 255 0 0
0.6506 -36.0908 -3.5652 255 0 0
0.6506 -36.9633 -3.5653 255 0 0
0.6538 -34.1139 -3.5743 255 0 0
0.6538 -34.3679 -3.5744 255 0 0
0.657 -34.2133 -3.5839 255 0 0
0.6569 -37.88 -3.5845 255 0 0
0.6569 -37.9904 -3.5845 255 0 0
0.66 -37.2173 -3.5939 255 0 0
0.66 -37.3388 -3.5939 255 0 0
0.66 -38.2113 -3.594 255 0 0
0.6664 -37.4493 -3.6129 255 0 0
0.6663 -38.5205 -3.6131 255 0 0
0.6695 -37.6812 -3.6225 255 0 0
0.6695 -39.5808 -3.6228 255 0 0
0.6727 -37.7916 -3.632 255 0 0
0.6758 -39.2384 -3.6418 255 0 0
0.7353 -33.9715 -3.5358 255 0 0
0.7416 -34.3028 -3.5549 255 0 0
0.7415 -35.8601 -3.5552 255 0 0
0.7479 -34.6121 -3.574 255 0 0
0.7478 -37.594 -3.5745 255 0 0
0.751 -37.3731 -3.584 255 0 0
0.751 -38.0358 -3.5841 255 0 0
0.7509 -38.3781 -3.5841 255 0 0
0.7541 -38.2566 -3.5936 255 0 0
0.7573 -37.2847 -3.603 255 0 0
0.7573 -37.4615 -3.603 255 0 0
0.7573 -37.9143 -3.6031 255 0 0
0.7604 -38.1462 -3.6126 255 0 0
0.7636 -37.7486 -3.6221 255 0 0
0.7699 -38.5659 -3.6412 255 0 0
0.8337 -34.4658 -3.5465 255 0 0
0.837 -33.6927 -3.5558 255 0 0
0.8367 -35.9015 -3.5564 255 0 0
0.8432 -34.256 -3.575 255 0 0
0.8432 -34.3664 -3.575 255 0 0
0.8432 -34.8744 -3.5752 255 0 0
0.8464 -33.9578 -3.5845 255 0 0
0.8463 -34.7419 -3.5847 255 0 0
0.8494 -35.7027 -3.5944 255 0 0
0.8492 -37.5361 -3.5949 255 0 0
0.8523 -38.1656 -3.6046 255 0 0
0.8555 -37.4477 -3.6139 255 0 0
0.8554 -37.8784 -3.614 255 0 0
0.8554 -38.265 -3.6141 255 0 0
0.8586 -37.6907 -3.6235 255 0 0
0.931 -34.5136 -3.5447 255 0 0
0.9374 -33.1331 -3.5634 255 0 0
0.9373 -34.2706 -3.5637 255 0 0
0.9405 -34.4252 -3.5732 255 0 0
0.9404 -34.9664 -3.5733 255 0 0
0.9404 -35.3419 -3.5734 255 0 0
0.9436 -35.2425 -3.5829 255 0 0
0.9434 -37.1531 -3.5833 255 0 0
0.9468 -34.7124 -3.5923 255 0 0
0.9468 -34.8118 -3.5923 255 0 0
0.9497 -37.3409 -3.6023 255 0 0
0.953 -35.4192 -3.6114 255 0 0
0.956 -37.8047 -3.6215 255 0 0
0.9591 -37.9041 -3.631 255 0 0
0.9623 -38.0035 -3.6405 255 0 0
1.1266 -34.7772 -3.5557 255 0 0
1.1266 -35.4067 -3.5558 255 0 0
1.1296 -33.1095 -3.5649 255 0 0
1.1328 -33.7169 -3.5745 255 0 0
1.1424 -34.9097 -3.6033 255 0 0
1.1426 -37.7149 -3.6038 255 0 0
1.1458 -38.0794 -3.6134 255 0 0
1.1521 -37.8364 -3.6324 255 0 0
1.1522 -37.98 -3.6324 255 0 0
1.2238 -33.7848 -3.5638 255 0 0
1.2239 -34.9445 -3.564 255 0 0
1.2239 -35.0328 -3.564 255 0 0
1.227 -34.3702 -3.5734 255 0 0
1.2271 -35.1322 -3.5736 255 0 0
1.2301 -33.6854 -3.5828 255 0 0
1.2302 -34.2597 -3.5829 255 0 0
1.2304 -37.4625 -3.5836 255 0 0
1.2304 -37.6613 -3.5836 255 0 0
1.2334 -34.7346 -3.5925 255 0 0
1.2334 -35.4083 -3.5926 255 0 0
1.2336 -37.9043 -3.5932 255 0 0
1.2367 -37.1864 -3.6025 255 0 0
1.2397 -35.5629 -3.6117 255 0 0
1.2398 -37.341 -3.6121 255 0 0
1.2399 -37.7607 -3.6122 255 0 0
1.2399 -38.2135 -3.6123 255 0 0
1.2399 -38.5559 -3.6123 255 0 0
1.2431 -38.324 -3.6218 255 0 0
1.2493 -37.584 -3.6407 255 0 0
1.3171 -34.1271 -3.5523 255 0 0
1.3203 -34.6131 -3.5619 255 0 0
1.3235 -34.8008 -3.5714 255 0 0
1.3235 -35.4745 -3.5715 255 0 0
1.3296 -33.089 -3.5901 255 0 0
1.3297 -33.9946 -3.5903 255 0 0
1.3297 -34.2707 -3.5903 255 0 0
1.3301 -38.0699 -3.591 255 0 0
1.3333 -38.2908 -3.6005 255 0 0
1.3364 -37.8159 -3.6099 255 0 0
1.3364 -37.9153 -3.6099 255 0 0
1.3395 -37.3079 -3.6194 255 0 0
1.3395 -37.4514 -3.6194 255 0 0
1.3396 -37.5508 -3.6194 255 0 0
1.3396 -37.6613 -3.6194 255 0 0
1.3428 -38.1693 -3.629 255 0 0
1.4074 -33.6848 -3.5436 255 0 0
1.4105 -34.3364 -3.5533 255 0 0
1.4137 -34.6677 -3.5629 255 0 0
1.4136 -35.5402 -3.5632 255 0 0
1.4168 -35.1095 -3.5726 255 0 0
1.4168 -35.1978 -3.5726 255 0 0
1.4201 -33.6075 -3.5816 255 0 0
1.4201 -33.9388 -3.5817 255 0 0
1.42 -34.1928 -3.5818 255 0 0
1.42 -34.8665 -3.582 255 0 0
1.4199 -35.3414 -3.5822 255 0 0
1.4232 -34.0382 -3.5912 255 0 0
1.4232 -34.5241 -3.5914 255 0 0
1.4231 -34.7671 -3.5915 255 0 0
1.4231 -35.4408 -3.5917 255 0 0
1.423 -35.6506 -3.5918 255 0 0
1.4229 -37.1858 -3.5923 255 0 0
1.4228 -38.0251 -3.5925 255 0 0
1.4228 -38.1908 -3.5926 255 0 0
1.4291 -37.6275 -3.6114 255 0 0
1.4291 -37.8705 -3.6115 255 0 0
1.4291 -38.2791 -3.6116 255 0 0
1.4323 -37.5171 -3.6209 255 0 0
1.4322 -38.4117 -3.6212 255 0 0
1.4355 -37.0532 -3.6303 255 0 0
1.4355 -37.2852 -3.6303 255 0 0
1.4354 -38.1135 -3.6306 255 0 0
1.4387 -37.4066 -3.6399 255 0 0
1.5114 -33.9624 -3.5735 255 0 0
1.5111 -35.3098 -3.5738 255 0 0
1.5176 -34.3159 -3.5926 255 0 0
1.5175 -34.7134 -3.5927 255 0 0
1.5174 -35.4092 -3.5929 255 0 0
1.5171 -37.2426 -3.5933 255 0 0
1.5169 -38.1482 -3.5935 255 0 0
1.5208 -34.0729 -3.6021 255 0 0
1.5208 -34.4263 -3.6022 255 0 0
1.5205 -35.5749 -3.6024 255 0 0
1.5202 -37.4524 -3.6028 255 0 0
1.5238 -34.9343 -3.6118 255 0 0
1.5234 -37.0106 -3.6122 255 0 0
1.5234 -37.3309 -3.6123 255 0 0
1.5265 -37.5739 -3.6219 255 0 0
1.5296 -37.7395 -3.6314 255 0 0
1.5327 -38.0598 -3.641 255 0 0
1.5327 -38.2365 -3.641 255 0 0
1.6056 -34.0063 -3.5522 255 0 0
1.6087 -34.5253 -3.5618 255 0 0
1.6118 -34.6468 -3.5714 255 0 0
1.6183 -33.6418 -3.5902 255 0 0
1.6183 -33.8516 -3.5902 255 0 0
1.6214 -33.7522 -3.5997 255 0 0
1.6214 -34.1498 -3.5998 255 0 0
1.6214 -34.2713 -3.5998 255 0 0
1.6245 -34.4259 -3.6094 255 0 0
1.6238 -38.1257 -3.6101 255 0 0
1.6271 -37.6177 -3.6195 255 0 0
1.6271 -37.8275 -3.6196 255 0 0
1.6303 -37.1318 -3.6289 255 0 0
1.6335 -37.2532 -3.6385 255 0 0
1.6333 -38.2362 -3.6387 255 0 0
1.7043 -34.3589 -3.5632 255 0 0
1.7042 -35.2314 -3.5634 255 0 0
1.7076 -33.3318 -3.5724 255 0 0
1.7106 -34.2706 -3.5822 255 0 0
1.7137 -34.7344 -3.5918 255 0 0
1.7135 -36.9322 -3.5923 255 0 0
1.717 -33.641 -3.601 255 0 0
1.717 -33.8509 -3.6011 255 0 0
1.7229 -37.7495 -3.621 255 0 0
1.7261 -37.4844 -3.6305 255 0 0
1.726 -38.2464 -3.6307 255 0 0
1.7292 -37.5727 -3.64 255 0 0
1.7292 -37.9483 -3.6401 255 0 0
1.7324 -37.8599 -3.6496 255 0 0
1.7323 -38.1581 -3.6497 255 0 0
1.7938 -33.2869 -3.5441 255 0 0
1.7938 -33.3752 -3.5442 255 0 0
1.7969 -34.2919 -3.5539 255 0 0
1.8001 -34.0821 -3.5634 255 0 0
1.8032 -34.4134 -3.5729 255 0 0
1.8032 -34.5017 -3.573 255 0 0
1.8032 -34.6122 -3.573 255 0 0
1.8096 -33.563 -3.5918 255 0 0
1.8128 -33.6624 -3.6013 255 0 0
1.8128 -33.7618 -3.6013 255 0 0
1.8126 -35.827 -3.6018 255 0 0
1.8156 -38.0248 -3.6119 255 0 0
1.822 -37.1302 -3.6307 255 0 0
1.822 -37.7598 -3.6308 255 0 0
1.8252 -37.5499 -3.6403 255 0 0
1.8907 -33.4745 -3.5546 255 0 0
1.897 -34.3801 -3.5738 255 0 0
1.9065 -33.6291 -3.6022 255 0 0
1.9065 -34.0046 -3.6023 255 0 0
1.9065 -34.4906 -3.6024 255 0 0
1.9062 -37.0639 -3.6031 255 0 0
1.9125 -37.4393 -3.6222 255 0 0
1.9124 -38.1351 -3.6224 255 0 0
1.9188 -37.2074 -3.6411 255 0 0
1.922 -37.5277 -3.6507 255 0 0
1.9219 -38.2345 -3.6509 255 0 0
1.9868 -33.4424 -3.5614 255 0 0
1.9899 -33.7406 -3.571 255 0 0
1.9899 -34.0719 -3.5711 255 0 0
1.9897 -35.4966 -3.5714 255 0 0
1.993 -34.856 -3.5807 255 0 0
1.9993 -34.5026 -3.5997 255 0 0
1.9991 -36.9876 -3.6002 255 0 0
1.999 -37.2747 -3.6003 255 0 0
2.0025 -34.1713 -3.6091 255 0 0
2.0025 -34.6241 -3.6092 255 0 0
2.0085 -37.1753 -3.6288 255 0 0
2.0084 -37.8932 -3.6289 255 0 0
2.0148 -37.4514 -3.6479 255 0 0
2.0147 -38.1361 -3.648 255 0 0
2.1887 -33.7502 -3.5725 255 0 0
2.1887 -34.214 -3.5726 255 0 0
2.1887 -34.3466 -3.5727 255 0 0
2.1918 -34.446 -3.5822 255 0 0
2.1918 -35.0423 -3.5823 255 0 0
2.1981 -34.6227 -3.6013 255 0 0
2.1982 -36.964 -3.6018 255 0 0
2.1982 -37.1518 -3.6019 255 0 0
2.1982 -37.5715 -3.602 255 0 0
2.2013 -37.2622 -3.6114 255 0 0
2.2013 -37.3727 -3.6115 255 0 0
2.2045 -34.7441 -3.6203 255 0 0
2.2045 -34.8767 -3.6203 255 0 0
2.2045 -38.2672 -3.6212 255 0 0
2.2077 -37.6929 -3.6306 255 0 0
2.2077 -37.969 -3.6306 255 0 0
2.2077 -38.1126 -3.6307 255 0 0
2.214 -37.8144 -3.6496 255 0 0
2.214 -38.3556 -3.6497 255 0 0
2.2171 -38.455 -3.6593 255 0 0
2.2771 -33.5414 -3.5549 255 0 0
2.2771 -33.7954 -3.5549 255 0 0
2.2802 -33.442 -3.5644 255 0 0
2.2834 -34.2372 -3.5741 255 0 0
2.2834 -34.3255 -3.5741 255 0 0
2.2834 -35.198 -3.5742 255 0 0
2.2866 -35.7281 -3.5839 255 0 0
2.2897 -34.7231 -3.5932 255 0 0
2.2898 -36.9319 -3.5936 255 0 0
2.2929 -34.8335 -3.6027 255 0 0
2.2929 -34.9329 -3.6027 255 0 0
2.2961 -34.4139 -3.6121 255 0 0
2.2961 -37.0203 -3.6126 255 0 0
2.2961 -37.1528 -3.6127 255 0 0
2.2961 -37.2853 -3.6127 255 0 0
2.3025 -37.5835 -3.6318 255 0 0
2.3025 -37.8817 -3.6318 255 0 0
2.3025 -38.191 -3.6319 255 0 0
2.3025 -38.3345 -3.6319 255 0 0
2.3056 -37.7492 -3.6413 255 0 0
2.3056 -37.9922 -3.6414 255 0 0
2.3056 -38.0805 -3.6414 255 0 0
2.3088 -37.3847 -3.6507 255 0 0
2.4675 -33.3514 -3.5571 255 0 0
2.4706 -33.8043 -3.5667 255 0 0
2.4738 -35.3615 -3.5767 255 0 0
2.4769 -33.5061 -3.5857 255 0 0
2.4769 -35.0191 -3.5861 255 0 0
2.4769 -35.748 -3.5863 255 0 0
2.4801 -35.6265 -3.5958 255 0 0
2.4833 -35.1295 -3.6052 255 0 0
2.4833 -36.9739 -3.6057 255 0 0
2.4833 -37.3052 -3.6058 255 0 0
2.4864 -36.6868 -3.6151 255 0 0
2.4864 -37.4046 -3.6153 255 0 0
2.4864 -37.5372 -3.6153 255 0 0
2.4896 -37.1617 -3.6247 255 0 0
2.4927 -37.6476 -3.6344 255 0 0
2.4959 -38.2109 -3.6441 255 0 0
2.4959 -38.3103 -3.6441 255 0 0
2.4991 -38.4317 -3.6536 255 0 0
2.568 -33.5607 -3.577 255 0 0
2.568 -35.2284 -3.5775 255 0 0
2.5743 -33.4392 -3.596 255 0 0
2.5743 -33.8037 -3.5961 255 0 0
2.5775 -33.6822 -3.6056 255 0 0
2.5806 -34.886 -3.6154 255 0 0
2.5806 -35.5818 -3.6156 255 0 0
2.5806 -35.7364 -3.6157 255 0 0
2.5838 -34.5215 -3.6248 255 0 0
2.5838 -35.0185 -3.625 255 0 0
2.5838 -36.5095 -3.6254 255 0 0
2.5838 -37.393 -3.6257 255 0 0
2.5838 -37.4814 -3.6257 255 0 0
2.5869 -35.129 -3.6345 255 0 0
2.5869 -37.6139 -3.6353 255 0 0
2.5901 -37.2936 -3.6447 255 0 0
2.5964 -37.7022 -3.6638 255 0 0
2.662 -33.1202 -3.5666 255 0 0
2.6685 -34.4675 -3.586 255 0 0
2.6751 -36.4665 -3.6055 255 0 0
2.6778 -33.341 -3.6142 255 0 0
2.678 -34.8541 -3.6146 255 0 0
2.6783 -36.8531 -3.6151 255 0 0
2.6811 -34.2798 -3.624 255 0 0
2.6812 -35.0197 -3.6241 255 0 0
2.6846 -36.577 -3.634 255 0 0
2.691 -37.1623 -3.6532 255 0 0
2.6911 -37.2948 -3.6532 255 0 0
2.6942 -37.4494 -3.6628 255 0 0
2.7692 -33.2182 -3.5849 255 0 0
2.7694 -34.7202 -3.5853 255 0 0
2.7726 -34.8417 -3.5948 255 0 0
2.7727 -35.0847 -3.5949 255 0 0
2.7728 -35.7694 -3.5951 255 0 0
2.7728 -36.1891 -3.5952 255 0 0
2.7789 -34.5987 -3.6138 255 0 0
2.7791 -35.8577 -3.6141 255 0 0
2.7823 -35.9571 -3.6236 255 0 0
2.7823 -36.0676 -3.6237 255 0 0
2.7887 -36.6308 -3.6428 255 0 0
2.7888 -37.183 -3.643 255 0 0
2.8627 -35.4734 -3.5836 255 0 0
2.8691 -33.7395 -3.6023 255 0 0
2.869 -36.4895 -3.6029 255 0 0
2.8722 -34.3138 -3.6119 255 0 0
2.8722 -34.6562 -3.612 255 0 0
2.8754 -34.5568 -3.6215 255 0 0
2.8753 -36.6772 -3.6219 255 0 0
2.8785 -36.5889 -3.6314 255 0 0
2.8879 -37.13 -3.6601 255 0 0
2.9523 -34.534 -3.5744 255 0 0
2.9619 -33.1535 -3.6027 255 0 0
2.9619 -33.8824 -3.6028 255 0 0
2.9618 -35.031 -3.6031 255 0 0
2.965 -33.772 -3.6123 255 0 0
2.965 -34.269 -3.6124 255 0 0
2.965 -34.4457 -3.6125 255 0 0
2.9713 -34.7991 -3.6316 255 0 0
2.9713 -34.8874 -3.6316 255 0 0
2.9712 -36.7318 -3.632 255 0 0
2.9775 -36.8202 -3.6511 255 0 0
2.9806 -37.03 -3.6606 255 0 0
2.9806 -37.1405 -3.6606 255 0 0
3.06 -33.1182 -3.6041 255 0 0
3.06 -33.5489 -3.6042 255 0 0
3.0597 -36.6744 -3.6053 255 0 0
3.063 -34.5871 -3.6141 255 0 0
3.063 -34.6975 -3.6141 255 0 0
3.063 -34.8963 -3.6142 255 0 0
3.066 -36.4094 -3.6242 255 0 0
3.0692 -36.7628 -3.6338 255 0 0
3.0723 -36.9174 -3.6434 255 0 0
3.0755 -37.0168 -3.6529 255 0 0
3.0786 -37.1714 -3.6625 255 0 0
3.143 -33.4869 -3.5654 255 0 0
3.1492 -34.8011 -3.5847 255 0 0
3.1525 -33.2108 -3.5939 255 0 0
3.1524 -33.7519 -3.594 255 0 0
3.1524 -34.6134 -3.5941 255 0 0
3.1523 -34.7128 -3.5941 255 0 0
3.1557 -33.3433 -3.6034 255 0 0
3.1554 -36.259 -3.604 255 0 0
3.1588 -33.1224 -3.6129 255 0 0
3.1588 -33.9176 -3.613 255 0 0
3.1585 -36.6234 -3.6135 255 0 0
3.1585 -36.7449 -3.6136 255 0 0
3.1585 -36.8443 -3.6136 255 0 0
3.1619 -33.6084 -3.6225 255 0 0
3.1619 -34.3594 -3.6226 255 0 0
3.1648 -36.3805 -3.6325 255 0 0
3.1711 -36.9879 -3.6517 255 0 0
3.1711 -37.0983 -3.6517 255 0 0
3.2477 -33.519 -3.5848 255 0 0
3.2509 -34.4467 -3.5945 255 0 0
3.254 -33.1325 -3.6038 255 0 0
3.254 -33.6737 -3.6039 255 0 0
3.254 -34.9216 -3.6041 255 0 0
3.254 -36.6998 -3.6044 255 0 0
3.2572 -33.8945 -3.6134 255 0 0
3.2572 -34.6014 -3.6135 255 0 0
3.2603 -34.7449 -3.6231 255 0 0
3.2604 -36.3463 -3.6233 255 0 0
3.2699 -36.6224 -3.6519 255 0 0
3.2699 -36.9538 -3.652 255 0 0
3.4388 -34.4466 -3.5844 255 0 0
3.442 -33.4526 -3.5937 255 0 0
3.442 -34.1926 -3.5939 255 0 0
3.4451 -33.8613 -3.6033 255 0 0
3.4451 -36.3352 -3.6039 255 0 0
3.4577 -36.7548 -3.6421 255 0 0
3.4609 -36.5119 -3.6515 255 0 0
3.4609 -36.6444 -3.6516 255 0 0
3.4609 -36.8432 -3.6516 255 0 0
3.464 -37.1303 -3.6612 255 0 0
3.533 -33.5965 -3.5746 255 0 0
3.5361 -34.0272 -3.5841 255 0 0
3.5392 -34.5905 -3.5938 255 0 0
3.5423 -36.225 -3.6035 255 0 0
3.5456 -33.6849 -3.6126 255 0 0
3.5456 -34.1487 -3.6127 255 0 0
3.5455 -36.8104 -3.6132 255 0 0
3.5488 -33.8395 -3.6222 255 0 0
3.5487 -34.3806 -3.6223 255 0 0
3.5487 -36.3134 -3.6226 255 0 0
3.5581 -36.6116 -3.6512 255 0 0
3.5644 -37.0312 -3.6703 255 0 0
3.6286 -33.6083 -3.5924 255 0 0
3.6286 -33.8844 -3.5925 255 0 0
3.6318 -34.8563 -3.6021 255 0 0
3.6381 -33.7077 -3.621 255 0 0
3.6382 -36.1926 -3.6214 255 0 0
3.6413 -34.1936 -3.6306 255 0 0
3.6445 -36.6234 -3.6405 255 0 0
3.6477 -36.4135 -3.65 255 0 0
3.6477 -36.8442 -3.65 255 0 0
3.6509 -36.7338 -3.6595 255 0 0
3.6919 -34.0439 -3.5819 255 0 0
3.7046 -34.3532 -3.62 255 0 0
3.7109 -33.9335 -3.6389 255 0 0
3.7109 -36.3521 -3.6392 255 0 0
3.7455 -33.8 -3.5901 255 0 0
3.7519 -36.5169 -3.6095 255 0 0
3.7677 -36.9034 -3.6571 255 0 0
3.7745 -34.2727 -3.5904 255 0 0
3.7776 -34.1733 -3.5999 255 0 0
3.7839 -33.0689 -3.6187 255 0 0
3.7839 -34.0629 -3.6189 255 0 0
3.7841 -36.2054 -3.6194 255 0 0
3.7871 -33.588 -3.6283 255 0 0
3.7904 -36.2938 -3.6384 255 0 0
3.7905 -36.6361 -3.6385 255 0 0
3.7905 -36.7687 -3.6385 255 0 0
3.7999 -36.4263 -3.667 255 0 0
3.8 -37.0006 -3.6671 255 0 0
3.8031 -37.1663 -3.6766 255 0 0
-8.6333 -37.9411 -3.478 255 0 0
-8.6379 -37.7572 -3.4723 255 0 0
-8.6439 -37.0981 -3.4239 255 0 0
-8.6666 -36.9838 -3.4734 255 0 0
-8.6701 -36.8725 -3.4716 255 0 0
-8.6589 -36.7696 -3.4319 255 0 0
-8.6663 -36.4162 -3.4171 255 0 0
-8.6877 -36.1854 -3.4517 255 0 0
-8.7001 -35.3279 -3.4011 255 0 0
-8.7153 -35.1886 -3.4278 255 0 0
-8.724 -34.9518 -3.4279 255 0 0
-8.7311 -34.8118 -3.4331 255 0 0
-8.725 -34.6899 -3.4052 255 0 0
-8.7379 -34.5892 -3.4297 255 0 0
-8.7511 -33.6834 -3.3765 255 0 0
-8.7672 -33.389 -3.3906 255 0 0
-8.7659 -33.2724 -3.3757 255 0 0
-8.782 -32.978 -3.3898 255 0 0
-8.7967 -32.863 -3.4178 255 0 0
-8.7917 -32.7752 -3.396 255 0 0
-8.8007 -32.6208 -3.4047 255 0 0
-8.8128 -32.2727 -3.403 255 0 0
-8.54 -37.7612 -3.4579 255 0 0
-8.5482 -37.6552 -3.4692 255 0 0
-8.545 -37.553 -3.4509 255 0 0
-8.5452 -37.4463 -3.4408 255 0 0
-8.5515 -37.3548 -3.4487 255 0 0
-8.553 -37.2579 -3.4435 255 0 0
-8.5561 -37.1708 -3.443 255 0 0
-8.5522 -37.0104 -3.4173 255 0 0
-8.5757 -36.6585 -3.4453 255 0 0
-8.5867 -36.5722 -3.4663 255 0 0
-8.5892 -36.3202 -3.4484 255 0 0
-8.6008 -36.103 -3.458 255 0 0
-8.5996 -35.5838 -3.4043 255 0 0
-8.6026 -35.4968 -3.4038 255 0 0
-8.6113 -35.2599 -3.4038 255 0 0
-8.6305 -35.0677 -3.4362 255 0 0
-8.624 -34.9701 -3.4096 255 0 0
-8.6322 -34.8641 -3.4209 255 0 0
-8.6422 -34.7438 -3.4358 255 0 0
-8.6376 -34.6318 -3.4126 255 0 0
-8.652 -34.1383 -3.4031 255 0 0
-8.6743 -33.859 -3.435 255 0 0
-8.6674 -33.4897 -3.3808 255 0 0
-8.6978 -32.8086 -3.3953 255 0 0
-8.6964 -32.6921 -3.3805 255 0 0
-8.7139 -32.4075 -3.3993 255 0 0
-8.7235 -32.3114 -3.4155 255 0 0
-8.4689 -37.3149 -3.4364 255 0 0
-8.4848 -37.1272 -3.4605 255 0 0
-8.4911 -37.0356 -3.4684 255 0 0
-8.4927 -36.9388 -3.4632 255 0 0
-8.5075 -36.5278 -3.4624 255 0 0
-8.5062 -36.4113 -3.4475 255 0 0
-8.5116 -36.1789 -3.4393 255 0 0
-8.5052 -36.0813 -3.4126 255 0 0
-8.5342 -35.6863 -3.4512 255 0 0
-8.5349 -35.4486 -3.4298 255 0 0
-8.5303 -35.3366 -3.4067 255 0 0
-8.546 -34.7705 -3.3932 255 0 0
-8.554 -34.5821 -3.3959 255 0 0
-8.5695 -34.4186 -3.4213 255 0 0
-8.5795 -34.2983 -3.4361 255 0 0
-8.5731 -34.2007 -3.4095 255 0 0
-8.5707 -34.0501 -3.3885 255 0 0
-8.576 -33.9244 -3.3903 255 0 0
-8.5965 -33.6595 -3.4188 255 0 0
-8.6163 -33.0405 -3.411 255 0 0
-8.6077 -32.8747 -3.3721 255 0 0
-8.6297 -32.3238 -3.3766 255 0 0
-8.6329 -32.13 -3.3662 255 0 0
-8.6458 -31.7335 -3.3619 255 0 0
-8.3819 -37.2575 -3.4667 255 0 0
-8.3939 -37.0161 -3.475 255 0 0
-8.4163 -36.3342 -3.468 255 0 0
-8.4146 -36.2419 -3.4545 255 0 0
-8.4223 -35.971 -3.4484 255 0 0
-8.4195 -35.8446 -3.4287 255 0 0
-8.4385 -35.5699 -3.4523 255 0 0
-8.4413 -35.4003 -3.4432 255 0 0
-8.4315 -35.3073 -3.4082 255 0 0
-8.4426 -35.221 -3.4292 255 0 0
-8.4402 -35.0704 -3.4082 255 0 0
-8.4412 -34.9152 -3.3955 255 0 0
-8.4446 -34.804 -3.3938 255 0 0
-8.4579 -34.6791 -3.417 255 0 0
-8.4697 -34.3552 -3.4165 255 0 0
-8.4632 -34.2576 -3.3899 255 0 0
-8.4699 -34.1418 -3.3964 255 0 0
-8.4682 -34.0495 -3.3829 255 0 0
-8.4962 -33.6203 -3.4153 255 0 0
-8.5131 -32.9816 -3.3978 255 0 0
-8.507 -32.8598 -3.3698 255 0 0
-8.5275 -32.5949 -3.3983 255 0 0
-8.2157 -36.2734 -3.4614 255 0 0
-8.2195 -36.1379 -3.4584 255 0 0
-8.2171 -35.9873 -3.4374 255 0 0
-8.2335 -35.7754 -3.4601 255 0 0
-8.2271 -35.5711 -3.4234 255 0 0
-8.2516 -35.2532 -3.4575 255 0 0
-8.2536 -35.1321 -3.4509 255 0 0
-8.2658 -34.3814 -3.4102 255 0 0
-8.2731 -34.1347 -3.4054 255 0 0
-8.2847 -33.9175 -3.415 255 0 0
-8.2901 -33.6851 -3.4067 255 0 0
-8.3056 -33.2257 -3.4032 255 0 0
-8.3156 -33.1054 -3.418 255 0 0
-8.3114 -32.9692 -3.3935 255 0 0
-8.3496 -31.9104 -3.3917 255 0 0
-8.3417 -31.803 -3.3603 255 0 0
-8.3575 -31.722 -3.3944 255 0 0
-8.1141 -36.3857 -3.462 255 0 0
-8.1179 -36.2502 -3.4589 255 0 0
-8.1314 -35.912 -3.462 255 0 0
-8.1305 -35.7712 -3.4458 255 0 0
-8.1226 -35.6637 -3.4143 255 0 0
-8.1437 -35.4571 -3.4502 255 0 0
-8.1524 -35.2202 -3.4502 255 0 0
-8.1512 -34.997 -3.4253 255 0 0
-8.1538 -34.6383 -3.3973 255 0 0
-8.1617 -34.4498 -3.3999 255 0 0
-8.1885 -33.9866 -3.4261 255 0 0
-8.1931 -33.8027 -3.4205 255 0 0
-8.203 -33.1973 -3.3877 255 0 0
-8.2031 -33.0906 -3.3776 255 0 0
-8.2121 -32.9362 -3.3864 255 0 0
-8.2452 -32.0855 -3.3916 255 0 0
-8.26 -31.6746 -3.3907 255 0 0
-8.0163 -36.3251 -3.461 255 0 0
-8.0183 -36.204 -3.4544 255 0 0
-8.0254 -36.064 -3.4597 255 0 0
-8.0256 -35.9573 -3.4496 255 0 0
-8.0298 -35.7976 -3.4452 255 0 0
-8.0347 -35.6962 -3.4483 255 0 0
-8.0348 -35.5895 -3.4382 255 0 0
-8.0364 -35.4926 -3.433 255 0 0
-8.0499 -34.9651 -3.4173 255 0 0
-8.0581 -34.5633 -3.3998 255 0 0
-8.0644 -34.4717 -3.4076 255 0 0
-8.0818 -33.9979 -3.4076 255 0 0
-8.0853 -33.8867 -3.4059 255 0 0
-8.1095 -33.0012 -3.3836 255 0 0
-8.1543 -31.9334 -3.3985 255 0 0
-8.1658 -31.8229 -3.4181 255 0 0
-7.9238 -36.0433 -3.4508 255 0 0
-7.941 -35.7829 -3.4709 255 0 0
-7.953 -35.2456 -3.4503 255 0 0
-7.9498 -35.1434 -3.432 255 0 0
-7.9613 -35.0329 -3.4516 255 0 0
-7.9608 -34.868 -3.4341 255 0 0
-7.9897 -33.9878 -3.4249 255 0 0
-8.0508 -31.7378 -3.3672 255 0 0
-8.0618 -31.6515 -3.3882 255 0 0
-7.8303 -36.0746 -3.4665 255 0 0
-7.8394 -35.8135 -3.4652 255 0 0
-7.8636 -34.9281 -3.4429 255 0 0
-7.8863 -33.8436 -3.3971 255 0 0
-7.9448 -31.9523 -3.3674 255 0 0
-7.9558 -31.8661 -3.3884 255 0 0
-7.9531 -31.7397 -3.3687 255 0 0
-7.7386 -35.8468 -3.4486 255 0 0
-7.7369 -35.7545 -3.435 255 0 0
-7.7524 -35.591 -3.4604 255 0 0
-7.7637 -35.2913 -3.4613 255 0 0
-7.7611 -34.7624 -3.4027 255 0 0
-7.7883 -34.5709 -3.4565 255 0 0
-7.7819 -34.4732 -3.4298 255 0 0
-7.7835 -34.3764 -3.4246 255 0 0
-7.7898 -34.2848 -3.4325 255 0 0
-7.794 -34.1251 -3.4281 255 0 0
-7.7935 -33.9601 -3.4106 255 0 0
-7.8024 -33.8057 -3.4194 255 0 0
-7.8361 -32.5283 -3.3845 255 0 0
-7.88 -31.6155 -3.4121 255 0 0
-7.6415 -35.9454 -3.4532 255 0 0
-7.6406 -35.8047 -3.437 255 0 0
-7.6693 -35.0312 -3.438 255 0 0
-7.6844 -34.8919 -3.4647 255 0 0
-7.6758 -34.537 -3.4071 255 0 0
-7.6792 -34.4258 -3.4053 255 0 0
-7.7074 -34.0791 -3.4465 255 0 0
-7.7035 -33.9187 -3.4207 255 0 0
-7.703 -33.7537 -3.4033 255 0 0
-7.7093 -33.6621 -3.4112 255 0 0
-7.5467 -35.6917 -3.4358 255 0 0
-7.5736 -34.9326 -3.4333 255 0 0
-7.5901 -34.8032 -3.4648 255 0 0
-7.5855 -34.6912 -3.4416 255 0 0
-7.5886 -34.6041 -3.4412 255 0 0
-7.6017 -34.2901 -3.4456 255 0 0
-7.5992 -33.9503 -3.4059 255 0 0
-7.6122 -34.0388 -3.4491 255 0 0
-7.608 -33.6067 -3.3958 255 0 0
-7.4331 -36.0548 -3.4331 255 0 0
-7.4406 -35.8906 -3.437 255 0 0
-7.4541 -35.659 -3.4502 255 0 0
-7.4556 -35.5621 -3.4449 255 0 0
-7.4806 -34.9241 -3.4489 255 0 0
-7.481 -34.604 -3.4188 255 0 0
-7.4891 -34.498 -3.4302 255 0 0
-7.5006 -34.3875 -3.4499 255 0 0
-7.4968 -34.2271 -3.4241 255 0 0
-7.5029 -34.053 -3.4232 255 0 0
-7.5052 -33.9077 -3.4154 255 0 0
-7.5087 -33.7965 -3.4136 255 0 0
-7.5103 -33.6996 -3.4084 255 0 0
-7.5219 -33.4824 -3.418 255 0 0
-7.5202 -33.3901 -3.4045 255 0 0
-7.5274 -33.1433 -3.3997 255 0 0
-7.3409 -36.0041 -3.4381 255 0 0
-7.3575 -35.5787 -3.4408 255 0 0
-7.3609 -35.4675 -3.4391 255 0 0
-7.3862 -35.1012 -3.4706 255 0 0
-7.3848 -34.7954 -3.437 255 0 0
-7.391 -34.5147 -3.4262 255 0 0
-7.4084 -34.3368 -3.4551 255 0 0
-7.4104 -34.2157 -3.4485 255 0 0
-7.4006 -34.1226 -3.4136 255 0 0
-7.4078 -33.9826 -3.4189 255 0 0
-7.4149 -33.8426 -3.4242 255 0 0
-7.4141 -33.5951 -3.398 255 0 0
-7.4273 -33.2811 -3.4024 255 0 0
-7.1565 -35.9828 -3.4489 255 0 0
-7.1686 -35.6347 -3.4472 255 0 0
-7.174 -35.4024 -3.439 255 0 0
-7.1898 -35.3214 -3.4731 255 0 0
-7.2089 -34.4548 -3.4391 255 0 0
-7.2201 -34.2618 -3.4501 255 0 0
-7.2089 -34.1589 -3.4103 255 0 0
-7.2156 -34.0431 -3.4169 255 0 0
-7.2428 -33.6624 -3.4519 255 0 0
-7.2345 -33.5792 -3.4218 255 0 0
-7.2361 -33.4823 -3.4165 255 0 0
-7.2344 -33.39 -3.403 255 0 0
-7.0792 -35.6784 -3.4549 255 0 0
-7.0809 -35.4748 -3.4396 255 0 0
-7.0848 -35.3393 -3.4366 255 0 0
-7.1031 -35.0063 -3.4528 255 0 0
-7.1019 -34.7831 -3.428 255 0 0
-7.1194 -34.2026 -3.418 255 0 0
-7.1372 -34.0005 -3.4456 255 0 0
-7.1359 -33.884 -3.4308 255 0 0
-7.1446 -33.6471 -3.4308 255 0 0
-7.1513 -33.5313 -3.4374 255 0 0
-7.1518 -33.4004 -3.426 255 0 0
-7.1811 -32.2001 -3.3869 255 0 0
-6.9858 -35.6065 -3.4516 255 0 0
-6.9904 -35.4226 -3.4459 255 0 0
-6.9971 -35.3068 -3.4525 255 0 0
-7.0346 -34.2964 -3.4536 255 0 0
-7.0306 -33.9468 -3.409 255 0 0
-7.0476 -33.7932 -3.4392 255 0 0
-7.0463 -33.6766 -3.4244 255 0 0
-7.0641 -33.4745 -3.4519 255 0 0
-7.0588 -33.3043 -3.4214 255 0 0
-7.0583 -33.1393 -3.4039 255 0 0
-6.8814 -35.5325 -3.4265 255 0 0
-6.9063 -35.1904 -3.4594 255 0 0
-6.9183 -34.949 -3.4677 255 0 0
-6.9186 -34.4397 -3.4188 255 0 0
-6.9407 -34.2671 -3.4608 255 0 0
-6.9359 -34.0726 -3.429 255 0 0
-6.936 -33.9659 -3.4189 255 0 0
-6.957 -33.866 -3.4648 255 0 0
-6.9553 -33.7737 -3.4513 255 0 0
-6.95 -33.6034 -3.4207 255 0 0
-6.9549 -33.502 -3.4238 255 0 0
-6.9569 -33.3809 -3.4173 255 0 0
-6.9622 -33.2553 -3.419 255 0 0
-6.9657 -33.0373 -3.4073 255 0 0
-6.7942 -35.652 -3.46 255 0 0
-6.7975 -35.3515 -3.4395 255 0 0
-6.8091 -35.1343 -3.4492 255 0 0
-6.8179 -34.8974 -3.4493 255 0 0
-6.8166 -34.7809 -3.4344 255 0 0
-6.8348 -34.2587 -3.4319 255 0 0
-6.8487 -34.0029 -3.4438 255 0 0
-6.8658 -33.7426 -3.464 255 0 0
-6.8588 -33.5867 -3.4299 255 0 0
-6.8721 -33.4618 -3.4531 255 0 0
-6.8633 -33.2136 -3.4055 255 0 0
-6.7044 -35.6988 -3.4851 255 0 0
-6.6994 -35.611 -3.4633 255 0 0
-6.7285 -34.6241 -3.4443 255 0 0
-6.7505 -34.2624 -3.4675 255 0 0
-6.7661 -33.803 -3.4641 255 0 0
-6.7662 -33.6963 -3.4541 255 0 0
-6.7565 -33.6032 -3.4191 255 0 0
-6.7749 -33.4594 -3.4541 255 0 0
-6.6075 -35.64 -3.4792 255 0 0
-6.5967 -35.5129 -3.4381 255 0 0
-6.6238 -34.6471 -3.4256 255 0 0
-6.6394 -34.1877 -3.4222 255 0 0
-6.6545 -34.0484 -3.4489 255 0 0
-6.6668 -33.8895 -3.4659 255 0 0
-6.6644 -33.7389 -3.445 255 0 0
-6.6741 -33.6428 -3.4612 255 0 0
-6.6692 -33.4483 -3.4293 255 0 0
-6.6694 -33.3416 -3.4193 255 0 0
-6.5036 -35.617 -3.4539 255 0 0
-6.5165 -35.5163 -3.4784 255 0 0
-6.5079 -35.3506 -3.4395 255 0 0
-6.5416 -34.4757 -3.4438 255 0 0
-6.5418 -34.369 -3.4337 255 0 0
-6.5569 -34.2297 -3.4605 255 0 0
-6.5687 -33.9058 -3.4601 255 0 0
-6.5703 -33.809 -3.4549 255 0 0
-6.5807 -33.6644 -3.4685 255 0 0
-6.5809 -33.5577 -3.4585 255 0 0
-6.579 -33.087 -3.4075 255 0 0
-6.4176 -35.6436 -3.4761 255 0 0
-6.4206 -35.5565 -3.4757 255 0 0
-6.427 -35.465 -3.4836 255 0 0
-6.4187 -35.3817 -3.4535 255 0 0
-6.4257 -35.0525 -3.44 255 0 0
-6.4393 -34.525 -3.4244 255 0 0
-6.4522 -34.4244 -3.4489 255 0 0
-6.4529 -34.1867 -3.4276 255 0 0
-6.4645 -34.2654 -3.466 255 0 0
-6.4652 -34.0278 -3.4447 255 0 0
-6.4653 -33.9211 -3.4346 255 0 0
-6.4697 -33.6547 -3.4203 255 0 0
-6.4842 -33.7531 -3.4683 255 0 0
-6.4841 -33.5639 -3.4496 255 0 0
-6.485 -33.2195 -3.4182 255 0 0
-6.2275 -35.1178 -3.4321 255 0 0
-6.2397 -34.7696 -3.4304 255 0 0
-6.2575 -34.8635 -3.4868 255 0 0
-6.2491 -34.591 -3.4379 255 0 0
-6.2683 -34.2096 -3.4515 255 0 0
-6.282 -34.0605 -3.4734 255 0 0
-6.2741 -33.953 -3.4419 255 0 0
-6.2776 -33.8418 -3.4402 255 0 0
-6.2763 -33.7253 -3.4253 255 0 0
-6.2824 -33.5512 -3.4245 255 0 0
-6.2935 -33.4649 -3.4455 255 0 0
-6.3006 -33.3249 -3.4507 255 0 0
-6.3075 -33.1024 -3.4473 255 0 0
-6.1362 -35.5225 -3.4928 255 0 0
-6.1397 -35.4113 -3.4911 255 0 0
-6.1287 -35.2016 -3.4413 255 0 0
-6.1504 -35.0533 -3.4846 255 0 0
-6.1514 -34.8982 -3.472 255 0 0
-6.1508 -34.544 -3.4358 255 0 0
-6.1581 -34.2973 -3.431 255 0 0
-6.1636 -34.0649 -3.4228 255 0 0
-6.1841 -33.9892 -3.47 255 0 0
-6.1777 -33.8916 -3.4434 255 0 0
-6.1857 -33.4073 -3.4173 255 0 0
-6.1987 -33.0107 -3.413 255 0 0
-6.234 -32.039 -3.4119 255 0 0
-5.8864 -37.5013 -3.5234 255 0 0
-5.9329 -35.769 -3.4769 255 0 0
-5.9462 -35.4549 -3.4813 255 0 0
-5.9434 -35.3286 -3.4617 255 0 0
-5.9597 -35.2234 -3.4945 255 0 0
-5.9631 -35.1121 -3.4927 255 0 0
-5.9614 -35.0198 -3.4792 255 0 0
-5.9675 -34.8457 -3.4783 255 0 0
-5.9578 -34.7526 -3.4434 255 0 0
-5.9802 -34.1775 -3.4465 255 0 0
-6.0065 -33.4668 -3.4467 255 0 0
-6.0122 -33.317 -3.4471 255 0 0
-6.0241 -33.1823 -3.4655 255 0 0
-5.7782 -37.8703 -3.5283 255 0 0
-5.8508 -35.6166 -3.5005 255 0 0
-5.8462 -35.5046 -3.4773 255 0 0
-5.8577 -35.3941 -3.497 255 0 0
-5.856 -35.3017 -3.4835 255 0 0
-5.8638 -34.9241 -3.4673 255 0 0
-5.8806 -34.688 -3.4887 255 0 0
-5.8808 -34.5813 -3.4787 255 0 0
-5.8725 -34.498 -3.4485 255 0 0
-5.8741 -34.4011 -3.4433 255 0 0
-5.894 -34.2672 -3.4831 255 0 0
-5.8978 -34.1317 -3.48 255 0 0
-5.9017 -33.9962 -3.477 255 0 0
-5.8953 -33.6027 -3.4215 255 0 0
-5.9159 -33.527 -3.4687 255 0 0
-5.9186 -33.1683 -3.4408 255 0 0
-5.7518 -35.6814 -3.5007 255 0 0
-5.7422 -35.4816 -3.4557 255 0 0
-5.7469 -35.2977 -3.45 255 0 0
-5.7712 -35.0866 -3.4942 255 0 0
-5.7634 -34.9791 -3.4627 255 0 0
-5.7766 -34.665 -3.4672 255 0 0
-5.7866 -34.5447 -3.482 255 0 0
-5.8085 -33.4019 -3.4289 255 0 0
-5.8262 -33.3066 -3.4665 255 0 0
-5.814 -33.1696 -3.4206 255 0 0
-5.8221 -33.0636 -3.432 255 0 0
-5.5701 -35.2083 -3.4785 255 0 0
-5.5663 -35.0479 -3.4527 255 0 0
-5.5728 -34.8496 -3.4506 255 0 0
-5.6235 -33.2293 -3.4273 255 0 0
-5.6413 -33.0272 -3.4548 255 0 0
-5.4775 -35.2331 -3.5013 255 0 0
-5.4805 -35.1461 -3.5009 255 0 0
-5.477 -34.7722 -3.4551 255 0 0
-5.5253 -33.2972 -3.4396 255 0 0
-5.3945 -34.8672 -3.4885 255 0 0
-5.4432 -33.368 -3.4718 255 0 0
-5.4349 -33.2848 -3.4416 255 0 0
-5.1082 -38.0192 -3.5347 255 0 0
-5.1907 -34.9466 -3.4542 255 0 0
-5.2084 -34.8512 -3.4918 255 0 0
-5.013 -38.0666 -3.5447 255 0 0
-5.1109 -34.8305 -3.4902 255 0 0
-5.1111 -34.7238 -3.4802 255 0 0
-5.1472 -33.301 -3.4378 255 0 0
-5.154 -33.0785 -3.4343 255 0 0
-5.1607 -32.9627 -3.4409 255 0 0
-4.9104 -38.0029 -3.5212 255 0 0
-5.013 -34.7964 -3.4811 255 0 0
-5.0193 -34.7048 -3.489 255 0 0
-4.8133 -38.0245 -3.5277 255 0 0
-4.82 -37.9087 -3.5343 255 0 0
-4.8263 -37.8171 -3.5422 255 0 0
-4.9161 -34.9004 -3.4959 255 0 0
-4.9218 -34.7506 -3.4964 255 0 0
-4.8091 -34.7585 -3.4567 255 0 0
-4.8214 -34.5996 -3.4737 255 0 0
-4.7328 -34.6494 -3.4971 255 0 0
-4.7216 -34.5464 -3.4573 255 0 0
-4.6315 -34.6142 -3.4696 255 0 0
-4.5446 -34.5531 -3.4917 255 0 0
-4.4454 -34.3937 -3.4669 255 0 0
-4.457 -34.4724 -3.5054 255 0 0
-4.0738 -34.1845 -3.4821 255 0 0
-3.8802 -34.187 -3.4752 255 0 0
-3.7967 -34.1457 -3.5061 255 0 0
-3.7011 -34.1902 -3.5181 255 0 0
-3.6874 -34.0434 -3.4674 255 0 0
-3.6 -34.1476 -3.4991 255 0 0
-3.5034 -34.2064 -3.5072 255 0 0
-3.1138 -34.0707 -3.4837 255 0 0
-2.9216 -34.0576 -3.4853 255 0 0
-2.8457 -33.8806 -3.514 255 0 0
-2.8388 -33.618 -3.4699 255 0 0
-2.7394 -33.8778 -3.4941 255 0 0
-2.6572 -33.933 -3.5294 255 0 0
-2.5606 -34.0558 -3.5361 255 0 0
-2.5546 -33.934 -3.5081 255 0 0
-2.267 -34.0516 -3.5219 255 0 0
-2.2617 -33.8813 -3.4913 255 0 0
-1.9925 -34.0366 -3.5459 255 0 0
-1.5069 -33.911 -3.5255 255 0 0
-1.4986 -33.8278 -3.4953 255 0 0
-1.4033 -33.8746 -3.497 255 0 0
-1.3252 -33.8735 -3.5488 255 0 0
-1.211 -33.9285 -3.5146 255 0 0
-0.932 -33.929 -3.5371 255 0 0
-0.9302 -33.8367 -3.5236 255 0 0
-0.6549 -33.9065 -3.5555 255 0 0
-0.5526 -33.9383 -3.5408 255 0 0
-0.5481 -33.8263 -3.5176 255 0 0
-0.3185 -38.4083 -3.6211 255 0 0
-0.3219 -38.2971 -3.6194 255 0 0
-0.3388 -37.1732 -3.5545 255 0 0
-0.3518 -37.2618 -3.5977 255 0 0
-0.4569 -33.9924 -3.5581 255 0 0
-0.4618 -33.8909 -3.5612 255 0 0
-0.4492 -33.7782 -3.5166 255 0 0
-0.2608 -37.2958 -3.6037 255 0 0
-0.355 -34.006 -3.5331 255 0 0
-0.3697 -33.8909 -3.5611 255 0 0
-0.1618 -36.959 -3.5643 255 0 0
-0.2024 -35.5657 -3.5363 255 0 0
-0.2058 -35.4544 -3.5346 255 0 0
-0.2706 -33.9567 -3.5608 255 0 0
0.0253 -37.1871 -3.6034 255 0 0
0.0328 -37.0554 -3.5706 255 0 0
0.0176001 -36.9162 -3.5973 255 0 0
0.0226001 -36.8284 -3.5755 255 0 0
0.0276 -36.7406 -3.5536 255 0 0
-0.0201 -35.6924 -3.5783 255 0 0
-0.0151 -35.6046 -3.5564 255 0 0
0.1153 -37.13 -3.6171 255 0 0
0.1231 -36.9158 -3.5757 255 0 0
0.1133 -36.713 -3.5818 255 0 0
0.0684 -35.6452 -3.597 255 0 0
0.0309 -34.043 -3.5405 255 0 0
0.0215 -33.8644 -3.548 255 0 0
0.0199 -33.7675 -3.5428 255 0 0
0.0142 -33.6177 -3.5433 255 0 0
0.2097 -37.0677 -3.6175 255 0 0
0.2142 -36.9557 -3.5943 255 0 0
0.2114 -36.7862 -3.5852 255 0 0
0.1326 -34.63 -3.5845 255 0 0
0.1359 -34.4454 -3.5574 255 0 0
0.1328 -34.2516 -3.547 255 0 0
0.1278 -33.8543 -3.5213 255 0 0
0.1229 -33.7529 -3.5244 255 0 0
0.1024 -33.6772 -3.5716 255 0 0
0.3088 -36.9313 -3.5926 255 0 0
0.317 -36.848 -3.5625 255 0 0
0.3107 -36.7565 -3.5704 255 0 0
0.3083 -36.6112 -3.5625 255 0 0
0.2302 -34.6102 -3.5743 255 0 0
0.2385 -34.5269 -3.5442 255 0 0
0.2266 -34.3922 -3.5626 255 0 0
0.2124 -33.923 -3.5544 255 0 0
0.1963 -33.6286 -3.5684 255 0 0
0.4036 -36.9911 -3.5972 255 0 0
0.406 -36.8405 -3.5762 255 0 0
0.3922 -36.6914 -3.5981 255 0 0
0.3272 -34.6019 -3.5669 255 0 0
0.3267 -34.471 -3.5555 255 0 0
0.3284 -34.3786 -3.542 255 0 0
0.3256 -34.2091 -3.5329 255 0 0
0.3156 -34.0888 -3.5478 255 0 0
0.3116 -33.8466 -3.5347 255 0 0
0.3034 -33.7406 -3.5461 255 0 0
0.5034 -37.1854 -3.6062 255 0 0
0.4953 -36.8902 -3.5989 255 0 0
0.4922 -36.8032 -3.5985 255 0 0
0.4923 -36.614 -3.5798 255 0 0
0.4244 -34.5441 -3.5582 255 0 0
0.4205 -34.4087 -3.5552 255 0 0
0.4188 -34.2051 -3.54 255 0 0
0.4032 -34.0416 -3.5654 255 0 0
0.3932 -33.9213 -3.5803 255 0 0
0.4044 -33.8183 -3.5406 255 0 0
0.3881 -33.7131 -3.5734 255 0 0
0.3931 -33.6254 -3.5516 255 0 0
0.3981 -33.5376 -3.5297 255 0 0
0.59 -36.5128 -3.5639 255 0 0
0.5851 -36.4114 -3.567 255 0 0
0.5568 -35.9581 -3.5981 255 0 0
0.5298 -35.199 -3.5958 255 0 0
0.5154 -34.5164 -3.5676 255 0 0
0.4922 -34.082 -3.587 255 0 0
0.4939 -33.9896 -3.5735 255 0 0
0.4971 -33.8875 -3.5551 255 0 0
0.6796 -36.8779 -3.6191 255 0 0
0.6779 -36.6743 -3.6038 255 0 0
0.6862 -36.5911 -3.5737 255 0 0
0.6795 -36.4753 -3.5803 255 0 0
0.6785 -36.3202 -3.5676 255 0 0
0.6621 -36.0015 -3.5804 255 0 0
0.6557 -35.91 -3.5883 255 0 0
0.6255 -35.1463 -3.5941 255 0 0
0.5971 -34.2904 -3.5865 255 0 0
0.5956 -34.0043 -3.5625 255 0 0
0.7847 -37.0436 -3.6153 255 0 0
0.7775 -36.7969 -3.6105 255 0 0
0.7792 -36.7046 -3.597 255 0 0
0.7783 -36.5494 -3.5844 255 0 0
0.7306 -35.2053 -3.5804 255 0 0
0.7286 -35.0842 -3.5739 255 0 0
0.6824 -33.7303 -3.5651 255 0 0
0.6782 -33.2747 -3.532 255 0 0
0.6733 -33.1733 -3.5351 255 0 0
0.8891 -37.0401 -3.5973 255 0 0
0.8763 -36.7503 -3.6031 255 0 0
0.8805 -36.614 -3.5786 255 0 0
0.8765 -36.3719 -3.5656 255 0 0
0.8419 -35.827 -3.6046 255 0 0
0.8266 -35.2851 -3.5925 255 0 0
0.8312 -35.1731 -3.5693 255 0 0
0.82 -34.9801 -3.5803 255 0 0
0.775 -33.8055 -3.5854 255 0 0
0.7754 -33.5338 -3.5579 255 0 0
0.7814 -33.412 -3.53 255 0 0
0.7761 -33.2864 -3.5317 255 0 0
1.1463 -37.0029 -3.6214 255 0 0
1.1577 -36.8175 -3.5729 255 0 0
1.1372 -36.7418 -3.6201 255 0 0
1.1484 -36.6389 -3.5804 255 0 0
1.0953 -35.0625 -3.5679 255 0 0
1.067 -34.6091 -3.599 255 0 0
1.0677 -34.255 -3.5628 255 0 0
1.0614 -33.8675 -3.5419 255 0 0
1.0483 -33.956 -3.5852 255 0 0
1.0425 -33.6995 -3.5756 255 0 0
1.0406 -33.5784 -3.569 255 0 0
1.1032 -35.2509 -3.5653 255 0 0
1.0704 -34.7204 -3.6008 255 0 0
1.0546 -34.0476 -3.5773 255 0 0
1.2414 -36.6728 -3.5832 255 0 0
1.2577 -37.0822 -3.6292 255 0 0
1.2648 -36.9263 -3.5951 255 0 0
1.2482 -36.7969 -3.6266 255 0 0
1.2421 -36.1377 -3.5782 255 0 0
1.2259 -36.0325 -3.611 255 0 0
1.2306 -35.7313 -3.5691 255 0 0
1.2195 -35.6451 -3.5901 255 0 0
1.1815 -34.6105 -3.5899 255 0 0
1.1702 -34.1216 -3.572 255 0 0
1.1621 -34.0157 -3.5834 255 0 0
1.1482 -33.2748 -3.5477 255 0 0
1.1926 -34.8344 -3.5703 255 0 0
1.1452 -33.6212 -3.5776 255 0 0
1.1469 -33.5289 -3.564 255 0 0
1.1406 -33.4373 -3.5719 255 0 0
