ply
format ascii 1.0
element vertex 1024
property float x
property float y
property float z
property uchar red
property uchar green
property uchar blue
end_header
0.7429 -0.1736 -0.0997 14 149 245
-0.2881 0.0048 -0.1393 106 244 99
0.2473 0.0643 -0.3971 14 149 245
0.3067 0.0643 -0.2583 106 244 99
0.2274 -0.1736 -0.0204 106 244 99
-0.0700 -0.1340 -0.0799 179 61 234
-0.7243 0.1634 -0.3574 92 3 98
0.2473 0.0048 0.0986 179 61 234
-0.2286 -0.0943 -0.0600 179 61 234
-0.3872 0.0246 0.0193 92 3 98
0.0490 -0.1340 -0.0600 106 244 99
0.3067 0.0246 0.1382 179 61 234
0.3860 0.0246 -0.1790 106 244 99
0.3067 -0.0745 0.0193 179 61 234
-0.5458 0.1634 -0.1988 92 3 98
0.3464 -0.1736 -0.0402 106 244 99
-0.5855 0.1436 0.0788 92 3 98
-0.1295 -0.0745 -0.1393 106 244 99
0.0688 0.1039 -0.4367 102 220 225
0.0490 -0.1340 0.0391 106 244 99
0.3266 0.0246 0.3563 14 149 245
0.1878 -0.0547 0.0193 179 61 234
-0.0105 0.0444 0.4158 102 220 225
0.4257 0.0246 0.1184 179 61 234
-0.6846 0.1634 -0.3376 92 3 98
0.2076 -0.1538 -0.0402 106 244 99
0.6438 -0.1538 -0.0997 14 149 245
-0.1096 0.0246 0.4158 102 220 225
-0.2484 -0.0745 -0.1393 106 244 99
0.4455 -0.1538 -0.1592 14 149 245
-0.4863 0.1039 -0.1195 92 3 98
-0.0303 -0.1142 -0.0799 106 244 99
0.0886 0.1238 -0.5954 102 220 225
-0.4863 0.0246 -0.0997 92 3 98
-0.4665 -0.0349 -0.1195 92 3 98
0.1481 0.0444 -0.0204 179 61 234
-0.5657 0.1634 -0.2980 92 3 98
0.8421 -0.1340 -0.0402 179 61 234
0.0490 0.0444 0.1977 102 220 225
-0.1096 -0.0150 -0.0997 179 61 234
-0.5657 0.1238 -0.1195 92 3 98
-0.0898 -0.0349 -0.0005 179 61 234
0.0292 -0.0745 -0.0799 106 244 99
-0.0502 0.1238 -0.7143 102 220 225
0.4653 -0.0150 0.0193 179 61 234
0.9610 -0.1340 -0.1393 179 61 234
0.6041 -0.1340 -0.1195 14 149 245
0.0093 -0.0745 -0.0005 179 61 234
0.8222 -0.1142 -0.0005 179 61 234
-0.1096 -0.1538 -0.0005 179 61 234
0.6834 -0.2530 -0.0005 14 149 245
0.8024 -0.1736 -0.1790 14 149 245
-0.5458 0.0246 0.0193 92 3 98
-0.4070 0.0643 -0.1195 92 3 98
0.4653 -0.1538 -0.0997 106 244 99
0.4455 -0.1736 -0.0204 179 61 234
-0.5458 0.1436 -0.2186 92 3 98
0.4257 -0.1538 -0.0204 179 61 234
-0.3277 -0.0745 -0.0204 179 61 234
-0.0502 -0.1340 -0.0799 106 244 99
0.5447 0.0048 -0.1592 179 61 234
-0.3476 -0.0349 -0.0402 179 61 234
-0.7243 0.1436 0.1977 92 3 98
0.6041 -0.1538 -0.0997 14 149 245
-0.4070 0.1634 -0.1195 92 3 98
-0.1096 0.0246 0.6339 102 220 225
0.8619 -0.0943 -0.0600 179 61 234
-0.4665 0.1436 -0.1195 92 3 98
0.3662 -0.1340 -0.0204 179 61 234
-0.7243 0.1436 0.2572 92 3 98
-0.6053 0.1039 -0.1195 92 3 98
0.2076 0.0048 0.2969 14 149 245
0.0292 0.0841 -0.5160 102 220 225
-0.0303 0.0048 0.6537 102 220 225
0.1679 0.0246 0.4356 102 220 225
0.3464 0.0048 0.1184 179 61 234
0.1085 -0.1340 -0.0204 106 244 99
0.1283 0.0246 0.3960 102 220 225
-0.0303 -0.0943 0.0589 179 61 234
0.0490 0.1238 -0.5954 102 220 225
0.2473 0.0246 0.3365 14 149 245
0.0886 0.0444 0.2374 102 220 225
0.0292 0.0841 -0.4764 102 220 225
0.3067 0.0643 -0.2385 106 244 99
0.6636 -0.2530 -0.0600 14 149 245
0.0292 -0.1142 -0.0402 106 244 99
0.0093 0.0048 0.5744 102 220 225
-0.7441 0.1634 -0.2781 92 3 98
0.3662 0.0048 0.1581 106 244 99
-0.5062 0.0841 -0.1393 92 3 98
-0.3476 -0.0547 -0.0997 179 61 234
-0.3079 -0.0349 -0.0204 179 61 234
-0.4070 -0.0150 -0.1195 92 3 98
-0.5657 0.1039 0.1184 92 3 98
-0.7243 0.1436 -0.2385 92 3 98
0.0292 -0.0943 -0.0997 106 244 99
-0.0700 -0.1142 -0.0600 179 61 234
0.0292 0.1039 -0.4962 102 220 225
-0.5062 0.1436 -0.1790 92 3 98
-0.5458 0.1238 0.0391 92 3 98
0.2274 0.0643 -0.2186 106 244 99
-0.5855 0.1238 -0.2385 92 3 98
-0.1096 -0.1538 -0.0204 179 61 234
-0.0898 -0.1340 -0.0997 106 244 99
0.1481 0.0643 -0.2583 102 220 225
0.1481 0.0048 0.5546 102 220 225
-0.1889 -0.0150 -0.1592 106 244 99
0.1679 0.0444 0.0788 179 61 234
0.0886 0.0643 0.1184 106 244 99
0.0093 -0.0943 -0.1195 106 244 99
0.1679 0.0048 0.3167 106 244 99
0.1878 0.0246 0.0391 179 61 234
-0.1493 0.0444 0.5348 102 220 225
-0.3476 -0.1538 -0.1195 179 61 234
0.0490 0.1238 -0.5359 102 220 225
0.1679 0.0444 0.2770 102 220 225
0.0490 0.0444 0.5546 102 220 225
-0.1096 -0.0547 -0.1393 106 244 99
-0.1889 0.0246 0.5744 102 220 225
-0.6846 0.1634 -0.1988 92 3 98
0.4257 0.0444 -0.2385 106 244 99
-0.0898 -0.1142 -0.0997 106 244 99
-0.3079 -0.0943 -0.0204 179 61 234
-0.0700 -0.0943 0.0589 179 61 234
-0.3674 -0.0547 -0.0600 179 61 234
0.1085 -0.0943 -0.1393 14 149 245
-0.1493 0.0643 0.5150 102 220 225
0.1878 0.0048 0.3960 14 149 245
-0.3674 0.0246 0.0193 179 61 234
0.0490 0.0841 -0.4962 102 220 225
0.1679 -0.1142 0.0193 106 244 99
0.3860 0.0246 0.0589 179 61 234
0.4653 -0.1538 -0.1592 14 149 245
-0.4863 0.1238 -0.1790 92 3 98
0.2473 0.0841 -0.2980 106 244 99
-0.1096 -0.1142 -0.0204 179 61 234
0.1283 0.0246 0.3167 102 220 225
0.3266 0.0643 -0.4367 14 149 245
-0.0105 0.1238 -0.6548 102 220 225
0.1878 0.0048 0.4555 106 244 99
0.0093 0.0048 0.5943 102 220 225
0.2473 -0.1538 -0.0600 106 244 99
0.2473 -0.1538 -0.0997 14 149 245
-0.2484 -0.0943 -0.0204 179 61 234
0.3067 0.0246 0.2572 106 244 99
0.1481 0.0841 -0.1195 179 61 234
0.1679 0.0246 0.4158 102 220 225
-0.6846 0.2031 -0.2781 92 3 98
0.7826 -0.1736 -0.0005 179 61 234
-0.3476 -0.0349 -0.1393 106 244 99
0.0886 0.1039 -0.4367 102 220 225
-0.1691 0.0643 0.6339 102 220 225
0.0093 0.0841 -0.0005 179 61 234
-0.3476 -0.0745 -0.0997 179 61 234
0.2274 0.0246 0.3365 14 149 245
0.1283 -0.1142 0.0589 106 244 99
-0.0502 0.0048 0.6736 102 220 225
-0.0502 -0.0547 -0.1393 106 244 99
-0.0105 0.0841 -0.4962 102 220 225
0.0688 0.0444 0.5744 102 220 225
-0.0700 0.1238 -0.5160 102 220 225
0.3266 -0.1142 -0.0799 106 244 99
-0.7441 0.1832 -0.2583 92 3 98
-0.4665 0.0444 -0.1195 92 3 98
-0.5657 0.0048 -0.0997 92 3 98
0.4257 0.0444 -0.1988 106 244 99
0.7826 -0.0943 0.0193 179 61 234
0.1679 0.0444 0.3960 102 220 225
0.0688 0.1039 -0.6548 102 220 225
0.4653 -0.1736 -0.0997 14 149 245
0.0490 -0.0547 -0.1592 106 244 99
0.1878 -0.0943 -0.0005 106 244 99
0.3662 0.0048 0.0391 179 61 234
-0.0502 -0.1340 -0.0204 179 61 234
-0.0303 0.0246 0.6934 102 220 225
-0.1493 -0.1340 -0.0799 179 61 234
-0.4863 -0.0745 -0.0799 179 61 234
-0.6846 0.1238 -0.1592 92 3 98
0.4059 -0.1736 0.0193 179 61 234
0.7627 -0.1538 -0.1592 14 149 245
0.3662 -0.1736 0.0193 179 61 234
0.1283 0.0444 0.3365 102 220 225
-0.4269 -0.0349 -0.0600 179 61 234
0.0292 0.0048 0.4356 102 220 225
0.3860 -0.1538 -0.1592 14 149 245
0.2076 0.0246 0.1977 106 244 99
-0.5458 -0.0349 -0.0997 92 3 98
-0.6053 0.1634 -0.1790 92 3 98
0.1481 0.0246 0.0391 179 61 234
-0.4863 -0.0349 -0.0600 92 3 98
-0.5657 0.1436 -0.2980 92 3 98
-0.6648 0.1634 -0.3178 92 3 98
-0.7044 0.1634 0.1382 92 3 98
-0.4070 0.0048 0.0391 179 61 234
-0.1295 0.0246 0.5546 102 220 225
0.4257 -0.1736 0.0193 179 61 234
-0.0502 0.0444 0.3762 102 220 225
-0.5062 0.0048 -0.1592 92 3 98
-0.5062 -0.0745 -0.0997 92 3 98
0.8619 -0.1538 -0.1790 14 149 245
0.8817 -0.1538 -0.0997 179 61 234
-0.2484 -0.0745 -0.0402 179 61 234
0.1878 -0.1142 -0.0204 106 244 99
0.0886 0.0246 0.5744 102 220 225
0.0292 -0.1340 -0.0997 14 149 245
-0.4070 -0.0150 -0.0402 179 61 234
0.0292 0.0444 0.2770 102 220 225
0.2274 0.0048 0.1184 106 244 99
-0.6053 0.1039 0.0788 92 3 98
-0.6846 0.1238 0.0986 92 3 98
-0.6053 0.0643 -0.1195 92 3 98
-0.0898 0.0246 0.5943 102 220 225
0.0490 0.1436 -0.6945 102 220 225
-0.0105 0.1039 -0.6152 102 220 225
0.1878 -0.1340 -0.0204 106 244 99
0.3662 -0.0943 0.0193 179 61 234
-0.4863 -0.0745 -0.1195 92 3 98
-0.0502 -0.0745 0.0391 179 61 234
-0.7441 0.1238 0.1184 92 3 98
0.3860 0.0246 0.0986 179 61 234
-0.1295 0.1039 -0.5359 102 220 225
0.1085 0.0643 0.2572 102 220 225
0.0886 -0.1142 -0.0600 106 244 99
-0.4863 0.0643 -0.1592 92 3 98
-0.5855 0.1238 0.1382 92 3 98
0.4852 0.0444 -0.2186 106 244 99
0.1878 0.0246 0.2175 106 244 99
-0.1096 0.0048 0.6934 102 220 225
0.8222 -0.1935 -0.0799 14 149 245
-0.1295 -0.0547 0.0193 179 61 234
-0.6648 0.1238 0.2175 92 3 98
-0.5458 -0.0943 -0.0799 92 3 98
0.9015 -0.0943 -0.0600 179 61 234
-0.0898 0.0246 0.4555 102 220 225
0.1481 -0.0943 0.0589 106 244 99
0.8817 0.0444 -0.0402 179 61 234
-0.5657 0.0444 -0.1195 92 3 98
-0.0700 -0.0943 0.0391 179 61 234
0.0886 0.1238 -0.5755 102 220 225
-0.3277 -0.1340 -0.0600 179 61 234
0.1085 0.0048 0.3563 102 220 225
-0.7243 0.1436 0.1382 92 3 98
-0.1889 0.0444 0.6141 102 220 225
-0.6648 0.1832 0.2374 92 3 98
0.0688 0.0444 0.2770 102 220 225
-0.6846 0.1634 -0.3773 92 3 98
-0.5458 0.0246 -0.0005 92 3 98
0.8222 -0.1340 0.0193 179 61 234
-0.5062 0.1238 -0.1790 92 3 98
0.1283 0.0246 0.4356 102 220 225
-0.2286 -0.0547 -0.0005 179 61 234
-0.3476 -0.0349 -0.1195 179 61 234
-0.0502 -0.0547 -0.1592 106 244 99
-0.0303 -0.0349 -0.0997 179 61 234
0.2274 0.0444 -0.2186 106 244 99
0.9214 -0.0943 -0.1790 179 61 234
0.1085 0.0246 0.3167 102 220 225
-0.1096 -0.0547 -0.1592 106 244 99
0.8421 -0.1340 0.0193 179 61 234
-0.3476 0.1634 -0.1592 92 3 98
0.0886 0.0444 0.0391 179 61 234
0.2869 -0.1340 -0.0204 106 244 99
-0.2881 -0.0349 -0.0005 179 61 234
0.1878 0.0246 0.1779 106 244 99
0.1878 0.0246 0.2374 106 244 99
0.1283 0.0444 -0.0997 179 61 234
0.9015 -0.1736 -0.0600 179 61 234
0.2473 0.0643 -0.2385 106 244 99
-0.6053 -0.0150 -0.0600 92 3 98
0.0490 -0.0943 -0.0005 179 61 234
-0.5260 -0.0150 -0.0799 92 3 98
-0.1889 -0.0745 -0.0997 179 61 234
0.0688 0.0246 0.5943 102 220 225
-0.3079 -0.0349 -0.0005 179 61 234
-0.7441 0.1436 -0.2583 92 3 98
0.3266 0.0643 -0.3178 14 149 245
-0.0700 -0.1142 -0.0005 179 61 234
0.5447 0.0048 -0.1195 179 61 234
0.8024 -0.1736 -0.1592 14 149 245
-0.6846 0.1436 -0.3178 92 3 98
0.7033 -0.1736 -0.1195 14 149 245
-0.2881 -0.0745 -0.0204 179 61 234
0.4852 -0.1340 -0.1592 14 149 245
-0.1295 -0.0943 -0.0600 179 61 234
-0.1096 0.0246 0.5546 102 220 225
0.0886 0.1238 -0.6152 102 220 225
0.8817 -0.1340 -0.0600 179 61 234
0.6240 -0.2530 -0.0799 14 149 245
0.8421 0.0048 -0.0799 179 61 234
0.1481 0.0841 -0.6152 102 220 225
-0.0105 0.0444 0.4356 102 220 225
0.4653 0.0444 -0.2385 106 244 99
0.7429 -0.1736 -0.1592 14 149 245
0.5447 0.0246 -0.2186 106 244 99
0.3662 0.0048 0.0589 179 61 234
0.2473 0.0444 -0.3376 14 149 245
0.9412 -0.1538 -0.1195 179 61 234
-0.2088 -0.1340 -0.0799 179 61 234
0.3662 0.0246 0.2374 106 244 99
0.1085 -0.0745 -0.0005 179 61 234
0.0886 0.0246 0.5546 102 220 225
-0.7243 0.1634 -0.2980 92 3 98
-0.2881 -0.1142 -0.0204 179 61 234
0.3860 0.0444 -0.3376 14 149 245
-0.7044 0.1039 0.2572 92 3 98
-0.0105 -0.1340 -0.0402 179 61 234
0.2473 0.0048 0.3563 14 149 245
-0.5458 0.0048 -0.0799 92 3 98
0.3067 0.0444 0.2175 106 244 99
-0.1096 0.0444 0.5348 102 220 225
0.2869 -0.1340 -0.0600 106 244 99
0.0490 0.0841 -0.5160 102 220 225
0.2869 -0.0943 0.0193 179 61 234
0.3266 0.0246 -0.1195 179 61 234
0.0093 0.0048 0.6339 102 220 225
-0.0502 0.0444 0.4356 102 220 225
0.7033 -0.1538 -0.1195 14 149 245
0.3067 0.0246 0.0986 179 61 234
0.2274 -0.1538 -0.0005 106 244 99
-0.5855 0.1238 -0.1592 92 3 98
-0.2682 -0.0150 -0.1195 179 61 234
0.2671 -0.1340 -0.0402 106 244 99
0.0490 0.1039 -0.6945 102 220 225
-0.6648 0.1039 0.0193 92 3 98
0.6438 -0.1538 -0.1393 14 149 245
-0.5855 0.0841 -0.0204 92 3 98
0.1085 0.0246 0.5348 102 220 225
0.1085 -0.1340 -0.0600 106 244 99
-0.1889 0.0444 0.6537 102 220 225
0.8421 -0.1538 -0.0997 179 61 234
-0.0502 0.1039 -0.5359 102 220 225
-0.6648 0.1436 0.2374 92 3 98
-0.1096 -0.0349 -0.0997 179 61 234
0.4653 0.0246 0.1977 179 61 234
0.5447 0.0048 0.1581 179 61 234
0.8619 -0.1142 -0.0600 179 61 234
0.3662 0.0048 0.0788 179 61 234
0.3860 -0.1538 -0.0005 179 61 234
0.0886 0.0841 -0.4367 102 220 225
0.1085 0.0246 0.4356 102 220 225
0.0886 0.0841 -0.5557 102 220 225
0.0490 0.0246 0.4356 102 220 225
0.3067 0.0444 -0.2781 14 149 245
0.7231 -0.1736 -0.1195 14 149 245
0.2869 -0.1142 -0.0005 179 61 234
-0.4269 0.0048 0.0391 92 3 98
0.3464 0.0246 0.1382 179 61 234
0.3266 0.0246 0.3762 14 149 245
-0.6251 0.1634 0.0986 92 3 98
0.3067 0.0048 0.4158 14 149 245
0.0292 0.0841 -0.4169 102 220 225
0.3662 -0.1538 -0.0600 106 244 99
-0.4269 0.0643 -0.1790 92 3 98
-0.1295 -0.0745 -0.0204 179 61 234
0.0490 0.0246 0.2770 102 220 225
-0.6846 0.1238 0.1382 92 3 98
-0.2088 0.0444 0.6141 102 220 225
-0.2286 -0.0349 -0.1393 179 61 234
0.1481 -0.0547 -0.0005 179 61 234
-0.6450 0.1238 -0.1393 92 3 98
-0.0303 0.0048 0.5150 102 220 225
0.4852 0.0246 0.0788 179 61 234
-0.0105 0.0643 0.3365 102 220 225
0.7429 -0.1538 -0.1592 14 149 245
0.3266 -0.0943 -0.1195 106 244 99
-0.5458 0.0444 -0.0997 92 3 98
0.6636 -0.1340 -0.1195 14 149 245
0.2076 0.0246 0.3365 106 244 99
0.2473 0.0048 0.1977 106 244 99
0.1481 0.0048 0.4555 102 220 225
-0.1295 0.0444 0.4753 102 220 225
-0.5260 0.1436 -0.1790 92 3 98
-0.6450 0.1238 -0.1790 92 3 98
0.7826 -0.2133 -0.0799 14 149 245
0.2274 -0.0943 -0.0005 179 61 234
0.4455 0.0246 0.1184 179 61 234
-0.2484 -0.0349 0.0391 179 61 234
-0.5855 0.0246 -0.1592 92 3 98
-0.6648 0.1436 0.0193 92 3 98
-0.0303 0.0246 0.5348 102 220 225
0.5447 0.0444 -0.1790 179 61 234
0.2274 0.0444 0.0986 179 61 234
-0.2682 -0.0349 -0.0204 179 61 234
-0.5855 0.1634 -0.1790 92 3 98
0.3860 0.0444 -0.1592 106 244 99
-0.5657 0.0841 -0.0005 92 3 98
-0.2682 -0.1340 -0.0799 179 61 234
0.1085 0.0246 0.5744 102 220 225
-0.7243 0.1832 -0.3773 92 3 98
-0.3079 0.0048 -0.1393 106 244 99
0.4257 0.0048 0.2175 106 244 99
0.1283 -0.0943 -0.1393 14 149 245
-0.2286 0.0444 0.6537 102 220 225
-0.5657 0.1238 0.1184 92 3 98
0.1481 0.0643 -0.3971 102 220 225
0.8421 -0.1736 0.0391 179 61 234
0.3662 -0.1736 -0.1195 14 149 245
0.1283 0.0048 0.5546 102 220 225
-0.4269 -0.0745 -0.1195 179 61 234
-0.4863 -0.0150 -0.0997 92 3 98
0.0093 -0.1142 -0.0005 179 61 234
-0.7243 0.1436 -0.2781 92 3 98
0.0292 0.0246 0.3960 102 220 225
0.4653 0.0444 0.1382 179 61 234
0.2274 0.0246 0.2572 106 244 99
-0.0700 0.1238 -0.6747 102 220 225
-0.0700 -0.0349 0.0193 179 61 234
-0.3872 0.0246 -0.1195 92 3 98
-0.5855 0.1039 0.1581 92 3 98
0.4852 0.0048 0.1977 179 61 234
0.3067 0.0048 0.3960 14 149 245
-0.6053 -0.0349 -0.0799 92 3 98
-0.6251 0.1238 0.1581 92 3 98
-0.0502 0.1436 -0.6747 102 220 225
0.6834 -0.2530 -0.0600 14 149 245
0.1283 -0.1142 -0.0402 106 244 99
0.1283 0.1039 -0.3574 102 220 225
0.8817 -0.1142 -0.0402 179 61 234
0.9214 -0.1340 -0.1195 179 61 234
0.0292 0.0444 0.4158 102 220 225
0.8222 -0.1935 -0.1393 14 149 245
-0.1691 -0.0745 -0.0204 179 61 234
0.9214 -0.1538 -0.1393 179 61 234
-0.5062 0.1634 -0.2186 92 3 98
0.7826 -0.1142 0.0193 179 61 234
-0.5062 0.1436 -0.2186 92 3 98
0.9214 -0.1538 -0.0402 179 61 234
0.2274 0.0841 -0.2781 106 244 99
0.2473 0.0643 -0.4764 14 149 245
0.1085 0.0246 0.2969 102 220 225
0.9015 0.0444 -0.0997 179 61 234
0.4257 0.0246 -0.1592 106 244 99
-0.7243 0.1436 0.0986 92 3 98
-0.0105 -0.1142 -0.0204 179 61 234
0.2473 0.0246 0.3762 14 149 245
-0.0700 0.1039 -0.4962 102 220 225
-0.0898 -0.1142 -0.0402 179 61 234
0.2671 0.0444 0.0986 179 61 234
0.1283 0.0643 -0.2781 102 220 225
0.0490 -0.1340 0.0193 106 244 99
0.0292 0.0246 0.4555 102 220 225
0.2869 0.0246 0.2770 14 149 245
0.3464 0.0048 0.1581 106 244 99
0.0490 0.0444 0.4753 102 220 225
0.1878 0.0841 -0.0005 179 61 234
-0.1493 -0.0943 -0.0005 179 61 234
0.5248 0.0246 0.1581 179 61 234
-0.5062 0.1436 -0.1592 92 3 98
-0.2682 -0.0349 -0.0997 179 61 234
0.0093 0.0246 0.3167 102 220 225
0.0688 0.0048 0.5348 102 220 225
0.1481 0.0643 -0.2781 102 220 225
-0.5657 0.1436 -0.1393 92 3 98
0.0490 0.0841 -0.5359 102 220 225
0.3860 -0.1538 -0.1195 14 149 245
-0.0502 0.0048 0.5744 102 220 225
-0.6053 0.1436 -0.2781 92 3 98
-0.4863 0.0444 -0.0997 92 3 98
-0.0502 0.1436 -0.7341 102 220 225
0.0292 -0.0943 -0.0799 106 244 99
0.3464 -0.1340 -0.1195 106 244 99
-0.1889 -0.0547 -0.0997 179 61 234
-0.6648 0.1634 -0.2980 92 3 98
-0.0105 0.0444 0.4753 102 220 225
-0.2484 -0.0349 -0.1195 179 61 234
0.4059 0.0048 0.0986 179 61 234
0.8024 -0.1340 -0.0600 179 61 234
0.1679 0.0246 0.2175 106 244 99
-0.5657 0.0246 -0.0997 92 3 98
-0.7243 0.1238 0.0589 92 3 98
-0.7044 0.1634 -0.3178 92 3 98
0.1085 0.0444 0.2572 102 220 225
0.2274 0.0643 -0.1790 106 244 99
0.3662 0.0643 -0.2781 14 149 245
0.7826 -0.1538 -0.0005 179 61 234
-0.1096 -0.1142 -0.0799 179 61 234
-0.1295 0.0246 0.6934 102 220 225
0.0688 -0.0943 -0.0005 179 61 234
-0.5657 0.0048 -0.1393 92 3 98
-0.5458 -0.0150 -0.0997 92 3 98
0.9214 -0.1142 -0.0204 179 61 234
-0.0303 -0.1340 -0.0005 179 61 234
-0.6450 0.1634 -0.3178 92 3 98
0.6041 0.0048 0.0788 179 61 234
0.2076 0.0048 0.3762 14 149 245
-0.5260 0.0246 -0.0005 92 3 98
-0.1493 0.0048 0.6934 102 220 225
0.3860 0.0048 0.0986 179 61 234
0.1283 0.0643 -0.2186 106 244 99
0.1679 -0.1142 -0.1393 14 149 245
0.1283 0.0246 -0.0997 179 61 234
0.2076 0.0643 -0.0005 179 61 234
0.4257 -0.1736 -0.0005 179 61 234
-0.6450 0.1238 0.1184 92 3 98
-0.2286 0.0048 0.7132 102 220 225
0.8817 -0.0745 0.0193 179 61 234
0.2274 -0.1538 0.0193 106 244 99
0.4653 0.0048 0.1581 179 61 234
0.2473 -0.0150 0.4753 14 149 245
0.3662 0.0048 0.2969 14 149 245
0.3266 0.0444 -0.1195 179 61 234
0.9015 -0.1340 -0.1790 14 149 245
0.0886 0.0643 0.1382 102 220 225
-0.2682 -0.0150 -0.0997 179 61 234
-0.0105 0.1238 -0.7143 102 220 225
-0.3476 -0.0150 -0.0204 179 61 234
0.1679 0.0048 0.3365 106 244 99
0.1283 -0.0547 -0.0005 179 61 234
-0.6648 0.1634 0.0589 92 3 98
-0.0105 -0.1142 -0.0005 179 61 234
0.8817 -0.1340 0.0193 179 61 234
0.0490 0.0444 0.3960 102 220 225
-0.0105 -0.0349 -0.1592 106 244 99
-0.5062 0.1436 0.0788 92 3 98
-0.2484 -0.0349 -0.0204 179 61 234
-0.0700 -0.1340 -0.0997 106 244 99
0.3662 0.0246 0.0986 179 61 234
-0.4070 -0.0943 -0.0799 179 61 234
-0.0700 0.1436 -0.7341 102 220 225
0.5447 0.0246 -0.1393 179 61 234
0.1085 0.0444 0.1977 106 244 99
0.0490 -0.0943 -0.1393 106 244 99
-0.2682 -0.0745 -0.0005 179 61 234
-0.2286 0.0246 0.6537 102 220 225
-0.1691 0.0444 0.5744 102 220 225
-0.5062 0.0246 -0.1592 92 3 98
0.0886 0.0444 0.1581 106 244 99
-0.1889 -0.1142 -0.1195 179 61 234
0.2076 0.0048 0.2770 14 149 245
0.3067 -0.1736 0.0193 106 244 99
0.1481 0.0643 -0.2186 106 244 99
-0.6053 0.1238 0.0589 92 3 98
0.4653 0.0246 -0.2583 14 149 245
0.1481 0.0643 -0.1195 179 61 234
-0.1691 -0.0547 -0.0005 179 61 234
0.3067 0.0444 -0.1790 106 244 99
0.8619 -0.1935 -0.0600 179 61 234
0.2869 0.0246 0.3960 14 149 245
0.1283 0.0444 -0.1592 106 244 99
0.0490 0.0048 0.5348 102 220 225
0.0490 0.0246 0.6736 102 220 225
-0.3476 0.0048 0.0193 179 61 234
0.5248 0.0444 -0.1790 179 61 234
0.3266 -0.1340 0.0589 106 244 99
0.1283 0.0643 -0.2385 102 220 225
-0.6053 0.1238 0.0391 92 3 98
-0.3476 -0.0150 -0.1393 106 244 99
0.0292 -0.1538 -0.0005 179 61 234
-0.1493 -0.0547 -0.1195 179 61 234
-0.0303 0.0643 0.4753 102 220 225
0.8619 -0.0547 0.0193 179 61 234
-0.0502 -0.0943 -0.0997 106 244 99
-0.1096 0.0246 0.4753 102 220 225
-0.2286 -0.0943 -0.0799 179 61 234
-0.6846 0.1238 0.1184 92 3 98
0.3464 -0.1538 -0.0997 106 244 99
0.2274 0.0444 -0.3574 14 149 245
0.8817 -0.1935 -0.0997 14 149 245
0.0490 -0.1142 -0.1195 14 149 245
0.4257 0.0048 0.0986 179 61 234
0.9808 -0.1538 -0.1195 179 61 234
-0.5657 0.1436 0.0788 92 3 98
-0.7243 0.1634 -0.3178 92 3 98
-0.5260 0.0643 -0.1393 92 3 98
-0.2881 -0.0150 -0.0997 179 61 234
-0.6648 0.1832 -0.3971 92 3 98
-0.0898 0.0643 0.4753 102 220 225
0.3266 0.0048 0.0391 179 61 234
0.8222 -0.1538 -0.1790 14 149 245
-0.1295 -0.0745 -0.0799 179 61 234
0.0093 0.0444 0.4158 102 220 225
-0.2286 0.0444 0.6934 102 220 225
-0.1691 -0.0150 -0.1195 179 61 234
0.2274 -0.1340 -0.0204 106 244 99
-0.7044 0.1634 -0.3971 92 3 98
0.1481 -0.1142 -0.1195 14 149 245
0.5248 -0.0150 0.0391 179 61 234
0.1481 0.0246 0.5150 102 220 225
-0.2881 -0.0349 -0.0997 179 61 234
-0.5062 0.0048 -0.0204 92 3 98
0.2274 -0.1142 0.0193 106 244 99
-0.3872 0.0048 -0.1195 92 3 98
-0.4070 -0.0349 -0.0005 179 61 234
-0.6053 0.1436 -0.1988 92 3 98
-0.3674 -0.1142 -0.1195 179 61 234
-0.7243 0.1832 -0.4169 92 3 98
0.2671 0.0246 0.1779 106 244 99
-0.5062 0.0246 -0.0005 92 3 98
0.4257 0.0444 -0.1790 106 244 99
0.0688 -0.1142 -0.0204 106 244 99
-0.4467 0.0246 -0.1592 92 3 98
0.0688 0.0444 0.4356 102 220 225
-0.0700 0.1039 -0.6350 102 220 225
-0.5062 0.0246 -0.0204 92 3 98
0.0490 0.0444 0.4951 102 220 225
-0.2682 -0.0349 -0.1393 106 244 99
0.2473 0.0048 0.3960 14 149 245
-0.1889 -0.0943 0.0193 179 61 234
0.1481 -0.0150 0.4951 102 220 225
-0.5458 0.1238 0.0193 92 3 98
-0.0303 0.0048 0.5348 102 220 225
0.4257 0.0643 -0.2980 14 149 245
0.7033 -0.1340 0.0193 179 61 234
-0.0502 0.0444 0.4951 102 220 225
0.4257 0.0048 0.0391 179 61 234
-0.4467 -0.0745 -0.0600 179 61 234
0.2473 0.0841 -0.4962 14 149 245
0.1283 0.0643 -0.1592 106 244 99
0.5645 0.0048 0.0788 179 61 234
0.0688 0.0643 0.1581 102 220 225
0.4059 0.0246 0.1382 179 61 234
0.1283 0.0444 0.2969 102 220 225
0.3662 0.0444 -0.0997 179 61 234
0.4653 0.0444 -0.1393 179 61 234
0.1481 0.0444 -0.1592 106 244 99
0.3464 -0.1340 -0.0997 106 244 99
-0.1096 0.0246 0.6934 102 220 225
0.2473 0.0444 -0.2186 106 244 99
0.1283 0.0444 0.2374 102 220 225
-0.5855 0.0246 -0.0997 92 3 98
-0.2682 -0.0745 -0.0402 179 61 234
-0.4863 0.0048 -0.0799 92 3 98
0.5447 0.0048 0.0986 179 61 234
0.0886 -0.0943 -0.0005 106 244 99
0.4653 0.0048 -0.1393 179 61 234
0.3464 -0.1340 -0.1592 14 149 245
0.1085 0.0444 0.3762 102 220 225
0.1283 -0.1538 0.0193 106 244 99
0.6834 -0.2530 -0.0799 14 149 245
-0.1691 -0.0349 0.0391 179 61 234
-0.7243 0.2031 -0.3574 92 3 98
-0.5062 0.1238 -0.1393 92 3 98
-0.6450 0.1039 0.0788 92 3 98
0.2076 0.0444 0.2175 106 244 99
0.3266 0.0841 -0.4169 14 149 245
0.7429 -0.2133 -0.0997 14 149 245
-0.4070 -0.0745 -0.0402 179 61 234
-0.5458 -0.0547 -0.0402 92 3 98
-0.0502 0.0048 0.6141 102 220 225
0.4455 0.0048 0.2572 106 244 99
0.3266 0.0444 -0.1393 179 61 234
-0.5260 -0.0349 -0.0005 92 3 98
-0.3476 -0.0547 -0.0005 179 61 234
-0.1295 0.0444 0.5348 102 220 225
-0.0105 -0.1142 -0.0799 106 244 99
-0.1096 0.0444 0.4555 102 220 225
0.2869 -0.1538 -0.0799 106 244 99
-0.2881 -0.0547 -0.0799 179 61 234
-0.0105 -0.0547 -0.1592 106 244 99
-0.7044 0.1039 0.2175 92 3 98
-0.5657 -0.0150 -0.1393 92 3 98
-0.1493 0.0444 0.4753 102 220 225
0.5645 0.0048 0.1184 179 61 234
-0.7441 0.1832 -0.2781 92 3 98
0.3464 0.0841 -0.2980 14 149 245
-0.0303 0.1238 -0.5359 102 220 225
0.0688 0.0246 0.5546 102 220 225
-0.3476 -0.1340 -0.0799 179 61 234
-0.6648 0.1039 0.0986 92 3 98
-0.6846 0.2031 -0.3178 92 3 98
0.3266 0.0643 -0.2980 14 149 245
-0.0105 0.0048 0.5348 102 220 225
-0.7044 0.1634 -0.3376 92 3 98
0.2473 0.0048 0.4753 14 149 245
-0.5062 -0.0349 -0.1195 92 3 98
-0.2286 -0.1340 -0.0600 179 61 234
-0.5458 0.1238 -0.1592 92 3 98
0.1283 0.0643 0.1382 106 244 99
-0.4269 0.0246 -0.1790 92 3 98
0.0886 0.0048 0.4951 102 220 225
0.0292 -0.1538 -0.0204 106 244 99
0.9015 -0.1538 -0.0204 179 61 234
-0.4665 0.0246 -0.0997 92 3 98
0.2869 0.0246 0.1779 106 244 99
0.3266 -0.0943 0.0193 179 61 234
0.8817 -0.1538 -0.0799 179 61 234
-0.4863 -0.0150 -0.0799 92 3 98
0.1679 0.0643 0.1382 106 244 99
-0.0898 0.0246 0.4951 102 220 225
0.1085 0.0048 0.3365 102 220 225
0.8222 -0.1935 -0.1195 14 149 245
0.0688 0.0246 0.3960 102 220 225
0.4257 0.0048 0.0788 179 61 234
0.0490 0.1238 -0.6152 102 220 225
0.9015 -0.1736 -0.0799 179 61 234
-0.5855 0.1436 -0.1988 92 3 98
0.1481 0.0444 0.1977 106 244 99
0.8619 -0.1142 -0.0204 179 61 234
-0.4863 0.1238 0.0788 92 3 98
-0.1096 -0.0943 -0.0600 179 61 234
0.1481 0.0048 0.3365 102 220 225
0.1878 0.0643 0.0986 179 61 234
-0.0700 -0.1340 0.0193 179 61 234
0.7826 -0.1538 -0.0997 14 149 245
-0.0502 0.1039 -0.5160 102 220 225
-0.2484 -0.0745 -0.0005 179 61 234
-0.5458 -0.0349 -0.0402 92 3 98
0.2671 0.0048 0.3762 14 149 245
-0.7243 0.1436 0.2374 92 3 98
0.0292 0.1238 -0.5160 102 220 225
0.8421 -0.1935 -0.0600 179 61 234
-0.5458 0.1436 -0.2583 92 3 98
-0.6450 0.1634 0.0986 92 3 98
0.7627 -0.2331 -0.0600 14 149 245
-0.3476 -0.0349 -0.0997 179 61 234
-0.6450 0.1238 -0.1988 92 3 98
0.2869 -0.1340 -0.0997 106 244 99
-0.1295 0.0444 0.5744 102 220 225
-0.5260 0.0841 -0.1790 92 3 98
-0.0105 0.1436 -0.6350 102 220 225
-0.5657 0.0246 -0.0204 92 3 98
-0.1889 -0.0943 -0.0402 179 61 234
0.2076 -0.1340 -0.1195 14 149 245
-0.5260 0.0048 -0.1592 92 3 98
0.2869 0.0048 0.2175 106 244 99
-0.0898 0.0048 0.6934 102 220 225
0.1283 -0.1142 -0.0600 106 244 99
0.4653 0.0246 -0.1988 106 244 99
-0.3872 0.0048 0.0193 179 61 234
-0.5260 0.0444 -0.0204 92 3 98
0.9412 -0.1142 -0.0204 179 61 234
0.3464 -0.1538 -0.1393 14 149 245
0.2671 0.0444 0.1779 106 244 99
-0.2484 -0.0745 -0.0799 179 61 234
0.2869 -0.1538 -0.0997 14 149 245
-0.1096 -0.0547 -0.0799 179 61 234
0.3662 -0.1736 -0.0204 106 244 99
0.2076 0.0246 0.3167 106 244 99
-0.0303 0.0444 0.5546 102 220 225
-0.5260 0.0048 0.0193 92 3 98
0.2473 0.0643 -0.3376 14 149 245
-0.7441 0.1238 0.0986 92 3 98
-0.6846 0.1436 0.1382 92 3 98
0.0688 0.0841 -0.4566 102 220 225
0.2076 -0.1340 -0.0799 106 244 99
-0.2682 -0.0547 -0.0005 179 61 234
-0.4467 0.0246 -0.0997 92 3 98
-0.4863 0.0048 -0.0402 92 3 98
-0.5855 -0.0150 -0.1393 92 3 98
0.2274 0.0048 0.3167 14 149 245
0.7231 -0.1935 0.0193 179 61 234
-0.3079 -0.0150 -0.0005 179 61 234
-0.1295 -0.0547 -0.0799 179 61 234
0.9214 -0.1538 -0.0997 179 61 234
-0.6846 0.1436 0.0788 92 3 98
-0.2484 -0.1142 -0.0997 179 61 234
0.1283 0.0444 0.1184 106 244 99
0.2274 -0.0943 -0.1195 106 244 99
0.3662 0.0048 -0.0997 179 61 234
0.4257 0.0246 0.2175 106 244 99
0.1679 0.0048 0.4555 102 220 225
-0.1295 0.0048 0.5943 102 220 225
0.2671 0.0048 0.4356 14 149 245
0.0688 0.0841 -0.5557 102 220 225
0.2473 0.0643 -0.4169 14 149 245
0.2274 0.0643 -0.2781 106 244 99
0.1878 0.0246 0.3365 106 244 99
0.5248 0.0048 0.0391 179 61 234
0.1878 -0.1142 0.0193 106 244 99
-0.4665 0.1238 -0.1988 92 3 98
0.3067 0.0246 0.2969 14 149 245
-0.1096 -0.0943 0.0391 179 61 234
-0.0303 -0.1142 -0.0005 179 61 234
0.4455 0.0246 -0.2186 106 244 99
0.1283 0.0246 0.3563 102 220 225
0.4257 0.0444 -0.2186 106 244 99
-0.4665 0.0048 -0.0997 92 3 98
0.8222 -0.1142 0.0193 179 61 234
-0.4070 0.0048 -0.1195 92 3 98
-0.6648 0.1039 0.2175 92 3 98
0.1481 0.0048 0.2969 106 244 99
-0.6450 0.1238 0.0193 92 3 98
0.0093 0.0246 0.2969 102 220 225
0.0490 0.0444 0.5744 102 220 225
0.1283 0.0246 0.4555 102 220 225
0.0886 0.0048 0.4356 102 220 225
0.0292 -0.1142 -0.1195 14 149 245
0.1085 -0.1340 -0.0402 106 244 99
-0.3476 -0.0150 -0.0997 179 61 234
0.3662 0.0444 -0.3178 14 149 245
-0.7441 0.1634 -0.3178 92 3 98
-0.0502 -0.0745 -0.0799 179 61 234
0.3266 0.0444 0.2374 106 244 99
-0.5855 0.1436 -0.2980 92 3 98
-0.2088 -0.1340 -0.0600 179 61 234
0.0093 -0.1340 -0.1195 14 149 245
-0.1295 0.0246 0.6141 102 220 225
-0.1691 -0.0745 -0.1195 179 61 234
-0.0700 -0.1142 -0.0204 179 61 234
-0.3476 -0.1340 -0.0402 179 61 234
0.0886 -0.0943 -0.1195 106 244 99
0.3266 -0.1340 -0.1592 14 149 245
0.2076 -0.1538 -0.1195 14 149 245
0.0490 0.0048 0.6537 102 220 225
0.1481 0.0048 0.5150 102 220 225
0.4059 -0.1142 -0.1195 106 244 99
0.2274 0.0841 -0.4367 14 149 245
-0.1889 -0.0150 0.0193 179 61 234
0.4257 0.0444 -0.2781 14 149 245
0.2473 0.0643 -0.1988 106 244 99
0.1085 -0.1142 -0.0204 106 244 99
-0.3079 -0.0547 -0.0997 179 61 234
-0.0502 -0.0745 -0.0005 179 61 234
-0.1889 -0.0349 -0.1592 106 244 99
0.1481 -0.1142 -0.0402 106 244 99
0.2869 -0.0745 0.0193 179 61 234
0.9015 -0.1340 -0.1195 179 61 234
-0.3674 -0.0150 -0.1195 179 61 234
-0.5657 0.0246 -0.1195 92 3 98
-0.2682 -0.0547 -0.0997 179 61 234
-0.7044 0.1238 0.0986 92 3 98
0.4257 0.0444 -0.2980 14 149 245
-0.4269 -0.0745 -0.0997 179 61 234
0.2274 -0.1538 -0.0600 106 244 99
-0.1691 -0.1340 -0.0204 179 61 234
0.0490 0.0246 0.5943 102 220 225
0.7231 -0.1736 0.0391 179 61 234
0.1283 -0.0150 0.5546 102 220 225
0.2869 0.0444 0.0788 179 61 234
0.3860 0.0048 0.1184 179 61 234
-0.5458 -0.0150 -0.0204 92 3 98
-0.0700 -0.0943 -0.0402 179 61 234
0.1283 0.0444 -0.1195 106 244 99
0.8421 -0.1538 -0.1393 14 149 245
0.1481 0.0841 -0.5557 102 220 225
0.5248 -0.0150 -0.1195 179 61 234
-0.0700 0.1436 -0.5954 102 220 225
-0.0700 0.1436 -0.6548 102 220 225
-0.6251 0.1436 0.0986 92 3 98
-0.7044 0.1634 -0.2583 92 3 98
0.3464 0.0048 0.3563 14 149 245
0.3266 -0.1142 -0.1592 14 149 245
0.1283 0.0643 -0.2583 102 220 225
-0.0502 -0.0943 -0.0402 179 61 234
-0.2088 -0.1142 -0.0799 179 61 234
0.0688 0.0246 0.4555 102 220 225
0.0490 0.1238 -0.6747 102 220 225
-0.6251 0.1238 0.2175 92 3 98
0.0886 0.0246 0.4555 102 220 225
0.3860 0.0048 0.2572 14 149 245
-0.3674 0.0048 -0.1195 92 3 98
0.1283 0.0643 -0.3574 102 220 225
-0.3079 -0.0150 -0.1195 179 61 234
0.3662 0.0246 0.0788 179 61 234
-0.0105 0.1039 -0.4962 102 220 225
-0.1295 -0.1142 -0.0997 179 61 234
-0.1493 -0.1340 -0.0997 179 61 234
0.2473 -0.1142 -0.1592 14 149 245
-0.0502 -0.1340 -0.0600 179 61 234
0.2473 0.0444 0.0391 179 61 234
0.2473 0.0246 0.2969 14 149 245
0.5050 -0.0150 0.0391 179 61 234
-0.1889 -0.0150 -0.1393 106 244 99
0.0490 -0.1142 0.0193 179 61 234
0.0688 0.1039 -0.5359 102 220 225
0.1679 0.0841 -0.4962 102 220 225
0.8619 -0.1736 -0.0005 179 61 234
-0.2088 -0.0349 -0.1592 106 244 99
-0.2286 0.0246 0.6736 102 220 225
0.2671 0.0246 0.3762 14 149 245
0.1283 -0.1538 -0.0005 106 244 99
-0.6648 0.1039 0.0391 92 3 98
0.1283 0.0643 -0.4566 102 220 225
-0.6450 0.1436 -0.2186 92 3 98
-0.7044 0.1832 0.0986 92 3 98
-0.1889 0.0444 0.5744 102 220 225
-0.7044 0.1832 0.0589 92 3 98
0.3464 0.0048 0.0589 179 61 234
0.1481 0.0841 -0.3971 102 220 225
0.1283 -0.1538 0.0391 106 244 99
0.0688 -0.0547 -0.0005 179 61 234
0.0490 -0.1538 -0.0402 106 244 99
-0.5062 0.0048 -0.1393 92 3 98
-0.6450 0.1238 0.0788 92 3 98
0.5248 0.0048 -0.1393 179 61 234
-0.4863 0.1436 -0.1988 92 3 98
-0.1096 -0.0349 -0.1592 106 244 99
0.4852 0.0048 0.0986 179 61 234
-0.5657 0.0246 -0.1393 92 3 98
0.6636 -0.2530 -0.1195 14 149 245
-0.1493 0.0444 0.6141 102 220 225
0.1481 0.0246 0.1779 106 244 99
-0.0303 0.1238 -0.6747 102 220 225
-0.0105 0.0246 0.6736 102 220 225
-0.0898 0.0048 0.6736 102 220 225
-0.2088 -0.0943 -0.1195 179 61 234
-0.4467 -0.0349 -0.0799 179 61 234
0.1283 0.0841 -0.3376 102 220 225
0.0688 0.1039 -0.5160 102 220 225
-0.6648 0.1238 0.1977 92 3 98
-0.4863 0.1436 0.0193 92 3 98
0.7429 -0.2530 -0.0005 14 149 245
-0.0105 0.0048 0.6537 102 220 225
0.2274 -0.1538 -0.0402 106 244 99
-0.4467 0.0048 0.0391 92 3 98
-0.7044 0.1634 0.1581 92 3 98
-0.6450 0.1436 0.0391 92 3 98
0.0490 0.0841 -0.4566 102 220 225
0.8024 -0.1340 -0.1790 14 149 245
0.1481 -0.1340 -0.0997 14 149 245
0.2473 -0.1340 -0.1195 14 149 245
-0.6648 0.1436 -0.2781 92 3 98
0.2274 -0.1736 -0.0005 106 244 99
0.1085 0.0048 0.3762 102 220 225
0.1481 0.0246 0.3563 102 220 225
0.1679 0.0444 -0.1790 106 244 99
-0.2286 0.0048 0.6736 102 220 225
-0.1691 -0.0943 -0.1195 179 61 234
0.3067 0.0444 -0.2583 14 149 245
0.3266 -0.1142 0.0589 179 61 234
0.1481 0.0841 -0.2583 102 220 225
0.1283 -0.1538 -0.0600 14 149 245
0.0490 -0.0547 -0.0997 106 244 99
-0.7441 0.1238 0.2374 92 3 98
0.0688 0.0048 0.5150 102 220 225
-0.6846 0.1436 -0.1790 92 3 98
0.9610 -0.1340 -0.0997 179 61 234
-0.6648 0.1436 0.0589 92 3 98
0.3464 -0.1736 0.0589 106 244 99
0.2869 -0.1538 -0.0204 106 244 99
-0.6450 0.1436 0.1184 92 3 98
-0.0105 0.0444 0.5546 102 220 225
0.4653 0.0643 -0.2781 14 149 245
0.8817 -0.0943 -0.0799 179 61 234
-0.6846 0.1436 -0.1393 92 3 98
0.1481 0.0643 -0.3773 102 220 225
0.1481 0.0444 -0.2186 106 244 99
-0.6450 0.1238 -0.0005 92 3 98
-0.4070 -0.0150 0.0193 179 61 234
-0.4467 0.0048 -0.1790 92 3 98
-0.6251 0.1436 -0.2781 92 3 98
0.4059 -0.1538 -0.0005 179 61 234
-0.5855 0.1436 0.0391 92 3 98
-0.5657 0.1832 -0.2781 92 3 98
0.2274 0.0246 0.0788 179 61 234
0.4455 0.0048 0.0193 179 61 234
-0.4269 -0.0943 -0.0402 179 61 234
0.3662 0.0246 -0.2781 14 149 245
-0.2286 -0.1142 -0.0799 179 61 234
0.2473 -0.0745 -0.1195 106 244 99
0.2869 -0.1538 -0.0005 106 244 99
0.0292 0.0643 0.2374 102 220 225
-0.2484 -0.1340 -0.0799 179 61 234
-0.4665 0.0246 -0.1195 92 3 98
0.8817 -0.1538 -0.0005 179 61 234
0.4653 0.0246 -0.1592 179 61 234
0.7231 -0.1538 -0.0997 14 149 245
-0.2088 -0.0745 -0.0997 179 61 234
0.1085 0.0246 0.3563 102 220 225
0.1481 0.0246 0.0788 179 61 234
0.1481 0.0444 0.1382 106 244 99
-0.1691 -0.0349 -0.0005 179 61 234
0.1481 0.0841 -0.3376 102 220 225
0.8222 -0.1340 -0.0204 179 61 234
-0.6450 0.1436 -0.1988 92 3 98
0.2274 0.0048 0.1581 106 244 99
-0.5657 0.0246 -0.0402 92 3 98
-0.4269 0.0048 -0.0204 92 3 98
0.8222 -0.1538 -0.0204 179 61 234
-0.5458 0.1039 0.1184 92 3 98
0.0292 0.0246 0.6537 102 220 225
0.0292 0.1436 -0.6152 102 220 225
-0.5062 0.0246 0.0391 92 3 98
-0.2484 -0.0547 0.0193 179 61 234
0.3860 0.0048 0.2770 14 149 245
-0.2484 -0.0150 -0.1592 106 244 99
0.0093 0.0246 0.4356 102 220 225
-0.3674 0.0048 -0.0204 179 61 234
0.2671 0.0048 0.2572 14 149 245
-0.0700 -0.1142 -0.0402 179 61 234
0.9214 -0.1736 -0.0799 179 61 234
-0.2286 -0.0943 -0.1195 179 61 234
-0.6251 0.1436 -0.2186 92 3 98
0.0886 0.0444 0.1977 102 220 225
0.2869 0.0246 0.3167 14 149 245
-0.4863 0.1238 0.0589 92 3 98
0.2869 0.0246 0.2969 14 149 245
0.0688 0.0444 0.3563 102 220 225
-0.0502 0.0048 0.5348 102 220 225
-0.0502 0.0246 0.4356 102 220 225
-0.0303 0.0246 0.3365 102 220 225
0.0292 0.0643 0.2969 102 220 225
-0.1096 -0.0943 -0.1393 106 244 99
-0.7243 0.1238 0.2175 92 3 98
0.4257 -0.1538 -0.1592 14 149 245
0.1878 0.0048 0.2770 106 244 99
0.5447 -0.0150 0.0193 179 61 234
-0.6648 0.1436 0.0391 92 3 98
0.4455 0.0444 -0.2385 106 244 99
0.0490 0.0444 0.1779 102 220 225
0.1481 0.0643 -0.0204 179 61 234
-0.5062 -0.0150 -0.0799 92 3 98
-0.5657 0.1634 -0.2781 92 3 98
-0.6251 0.1039 0.0193 92 3 98
0.5645 0.0048 0.0986 179 61 234
-0.4665 -0.0349 -0.1393 92 3 98
0.1283 0.0444 0.2572 102 220 225
-0.4070 0.0444 -0.1195 92 3 98
-0.5062 0.0444 -0.1592 92 3 98
0.1679 0.0246 0.4555 102 220 225
0.9015 -0.1538 -0.1195 179 61 234
0.3067 0.0643 -0.3773 14 149 245
-0.6648 0.1436 -0.3376 92 3 98
-0.4269 0.0048 -0.1195 92 3 98
0.2274 0.0246 0.2969 14 149 245
-0.0700 -0.0943 -0.0005 179 61 234
0.4653 0.0048 -0.1592 179 61 234
-0.0303 0.0246 0.2770 102 220 225
-0.4467 -0.0349 -0.0005 179 61 234
-0.3674 -0.0349 -0.1393 106 244 99
0.9412 -0.1538 -0.1393 179 61 234
-0.6251 0.1436 -0.3178 92 3 98
-0.6450 0.0048 -0.1195 92 3 98
-0.5657 0.1634 -0.1790 92 3 98
0.4455 -0.2133 -0.0600 106 244 99
-0.1096 0.1039 -0.5359 102 220 225
-0.6053 -0.0150 -0.0799 92 3 98
-0.0303 -0.1538 -0.0204 179 61 234
0.1481 -0.0745 0.0788 106 244 99
0.3662 -0.1736 -0.0402 106 244 99
-0.6251 0.1039 0.1382 92 3 98
-0.2484 -0.0943 -0.1195 179 61 234
0.0490 0.0643 0.1779 102 220 225
0.6438 -0.0943 -0.1195 179 61 234
