ply
format ascii 1.0
element vertex 1024
property float x
property float y
property float z
property uchar red
property uchar green
property uchar blue
end_header
-0.4018 -0.1078 0.6321 179 61 234
0.1393 -0.1763 0.0643 179 61 234
-0.2122 0.2063 0.3952 179 61 234
-0.0339 0.0175 -0.2276 102 220 225
-0.4645 -0.0785 0.6413 179 61 234
0.0812 0.1636 -0.2321 102 220 225
-0.0119 0.1943 -0.1436 102 220 225
0.1035 0.0294 0.1835 179 61 234
-0.1336 0.3531 -0.0429 102 220 225
-0.0574 0.0175 0.2675 179 61 234
-0.1083 0.0372 0.3806 179 61 234
-0.1520 -0.0922 -0.2420 102 220 225
-0.3364 -0.0535 0.3338 179 61 234
-0.2288 -0.1286 0.4097 179 61 234
-0.5200 -0.1297 0.6013 179 61 234
-0.1456 0.0765 0.3624 179 61 234
-0.1814 -0.0922 0.0008 102 220 225
0.0433 0.4564 -0.2093 102 220 225
-0.1480 0.1943 -0.0304 102 220 225
-0.3736 0.0620 0.5086 179 61 234
-0.1733 -0.1472 0.3644 179 61 234
0.5277 -0.2059 -0.0197 179 61 234
-0.3614 0.0956 0.5267 179 61 234
-0.2286 -0.1319 0.1928 102 220 225
0.1003 0.0387 0.1637 179 61 234
0.1770 -0.1673 -0.3149 102 220 225
-0.0382 -0.1967 0.2334 179 61 234
0.4006 -0.1520 -0.0201 179 61 234
-0.1722 0.0959 0.4029 179 61 234
0.0873 0.1700 0.2842 179 61 234
-0.2198 -0.1478 0.3965 179 61 234
-0.3582 -0.1765 0.5210 179 61 234
-0.0974 -0.1763 0.1826 179 61 234
-0.1049 -0.0899 -0.7477 102 220 225
-0.0184 0.0550 0.0594 102 220 225
0.0371 0.0316 0.1590 179 61 234
-0.0280 0.0419 -0.2616 102 220 225
0.0937 0.1943 -0.1280 102 220 225
0.1707 -0.1669 -0.5841 102 220 225
-0.0414 0.5199 -0.1896 102 220 225
0.0010 -0.0922 -0.3080 102 220 225
-0.0671 -0.1763 -0.4741 102 220 225
0.1083 0.0329 0.2075 179 61 234
-0.0762 -0.1763 -0.5476 102 220 225
-0.1075 0.0728 -0.2183 102 220 225
0.1420 0.1482 0.1726 179 61 234
-0.0432 -0.0922 -0.5851 102 220 225
0.1633 -0.0922 -0.1232 102 220 225
-0.0383 -0.1763 -0.6677 102 220 225
-0.1548 0.0526 0.3833 179 61 234
0.0369 -0.1763 -0.2336 102 220 225
-0.4217 -0.0013 0.5503 179 61 234
0.0917 0.1365 0.0935 179 61 234
0.0251 -0.0922 0.1564 179 61 234
-0.1293 -0.0922 -0.1850 102 220 225
0.4216 -0.1992 0.0361 179 61 234
-0.0783 0.0544 -0.2933 102 220 225
0.0574 -0.1763 0.1129 179 61 234
-0.2907 0.0820 0.3400 179 61 234
0.0211 0.2290 0.3263 179 61 234
0.2647 -0.1300 -0.0288 179 61 234
-0.1122 0.0576 -0.0258 102 220 225
-0.1011 0.1943 -0.0788 102 220 225
-0.2327 0.1177 0.3310 179 61 234
0.1323 0.0156 -0.2241 102 220 225
-0.0561 -0.0922 -0.4915 102 220 225
0.1769 0.1943 -0.1695 102 220 225
-0.0545 0.0871 -0.1878 102 220 225
-0.0523 0.3463 -0.0672 102 220 225
-0.1510 -0.0624 0.3245 179 61 234
0.5709 -0.1715 -0.0328 179 61 234
-0.2855 -0.0073 0.5416 179 61 234
-0.0444 0.3745 -0.1700 102 220 225
0.2159 -0.2083 0.0421 179 61 234
0.1323 0.0122 -0.0693 102 220 225
-0.0770 0.1178 -0.3102 102 220 225
-0.1017 0.0175 0.0123 102 220 225
-0.1411 0.0816 0.3461 179 61 234
0.0842 0.1631 0.2375 179 61 234
0.4159 -0.2469 -0.1412 179 61 234
0.1770 -0.1654 -0.1069 102 220 225
-0.0002 0.0175 -0.0610 102 220 225
0.5469 -0.2075 -0.0313 179 61 234
0.0359 -0.0922 -0.0373 102 220 225
-0.1083 0.2760 -0.0559 102 220 225
0.2007 0.4679 0.1741 179 61 234
0.3688 -0.0716 0.0755 179 61 234
-0.2600 0.0864 0.3982 179 61 234
-0.1429 -0.0694 -0.1021 102 220 225
0.5112 -0.1231 -0.0178 179 61 234
0.0918 -0.1763 -0.7229 102 220 225
0.3024 0.3555 0.1903 179 61 234
-0.0272 -0.1672 0.2158 179 61 234
-0.1429 -0.0671 0.2501 179 61 234
-0.1011 0.0175 -0.3148 102 220 225
0.0178 -0.0922 -0.1825 102 220 225
-0.0646 0.1943 -0.1389 102 220 225
-0.0903 -0.1087 0.2837 179 61 234
-0.0988 0.3849 -0.0057 102 220 225
-0.1108 -0.1763 -0.7839 102 220 225
-0.0029 -0.1763 -0.3935 102 220 225
-0.1775 -0.1304 0.3583 179 61 234
0.1550 -0.1843 0.0401 179 61 234
-0.0737 -0.1763 0.0655 102 220 225
0.0996 -0.0744 -0.3961 102 220 225
-0.4853 -0.0588 0.5667 179 61 234
-0.1854 -0.1340 -0.5758 102 220 225
-0.0892 -0.0200 -0.4602 102 220 225
0.1707 0.2594 0.2355 179 61 234
0.5260 -0.1759 -0.2310 179 61 234
0.0404 0.2808 0.2159 179 61 234
-0.1943 -0.2029 0.2513 179 61 234
0.3094 -0.1438 0.1872 179 61 234
-0.4659 -0.1258 0.4449 179 61 234
-0.1429 0.0039 -0.2483 102 220 225
0.0900 0.3006 -0.0077 102 220 225
-0.0146 -0.0721 0.3589 179 61 234
-0.0781 -0.1763 0.0503 102 220 225
-0.2165 -0.0259 0.4235 179 61 234
0.0868 0.1223 -0.1860 102 220 225
-0.1503 -0.1763 -0.2761 102 220 225
-0.0710 -0.1763 0.1504 179 61 234
-0.2151 0.2006 0.2922 179 61 234
-0.4604 0.0113 0.4592 179 61 234
0.1602 -0.0940 0.0744 179 61 234
-0.0924 -0.1763 0.2853 179 61 234
0.1836 0.3669 -0.1368 102 220 225
0.0306 -0.0206 -0.5497 102 220 225
0.1448 0.1722 -0.0466 102 220 225
0.1615 -0.1792 0.0040 179 61 234
0.1311 -0.1916 0.0746 179 61 234
-0.0545 0.0309 0.2441 179 61 234
-0.2145 -0.1650 0.3992 179 61 234
-0.1122 0.1041 -0.1145 102 220 225
0.2350 -0.1035 0.1435 179 61 234
0.3020 0.5500 0.1516 179 61 234
0.1529 0.3688 -0.1257 102 220 225
-0.1667 -0.1196 0.3758 179 61 234
-0.0667 0.0823 0.2966 179 61 234
-0.0680 0.0718 -0.2086 102 220 225
0.0463 -0.1686 -0.9301 102 220 225
-0.1912 -0.1596 0.3083 179 61 234
0.2296 -0.1949 0.0543 179 61 234
0.3375 -0.1553 0.0491 179 61 234
0.0733 0.0341 0.1142 179 61 234
0.4631 -0.2137 -0.0643 179 61 234
-0.2645 0.0173 0.3967 179 61 234
0.1263 0.1793 0.0594 179 61 234
0.1703 0.1722 -0.1655 102 220 225
-0.0759 -0.1474 -0.9117 102 220 225
0.1960 0.3713 0.1088 179 61 234
0.1150 0.0563 0.0299 179 61 234
-0.0833 0.0188 0.3763 179 61 234
-0.3291 0.0767 0.4302 179 61 234
0.4094 -0.1712 0.0591 179 61 234
0.0512 0.4104 -0.1324 102 220 225
0.2550 -0.0917 0.0038 179 61 234
0.4099 -0.1967 -0.0263 179 61 234
-0.0468 -0.0757 -0.5865 102 220 225
0.2108 0.5066 0.1332 179 61 234
-0.0655 0.1943 -0.0807 102 220 225
0.2787 -0.2552 0.0065 179 61 234
0.2180 0.1569 -0.0053 179 61 234
-0.1578 0.1898 0.4262 179 61 234
-0.1094 0.2204 0.3228 179 61 234
0.0799 0.2912 -0.0374 102 220 225
0.0323 -0.1763 -0.5308 102 220 225
0.1655 -0.0225 0.1888 179 61 234
-0.0498 -0.1058 0.1347 179 61 234
-0.1857 -0.1437 -0.1539 102 220 225
0.0954 0.2665 -0.0924 102 220 225
0.2704 -0.1500 0.0856 179 61 234
-0.6058 -0.0644 0.6704 179 61 234
-0.0190 -0.0757 -0.6556 102 220 225
0.0131 0.0836 0.0594 102 220 225
0.0774 -0.1842 0.1514 179 61 234
-0.1785 -0.1458 0.4536 179 61 234
-0.0463 -0.0757 -0.6510 102 220 225
0.1550 0.0834 0.1139 179 61 234
-0.0085 -0.1763 0.1736 179 61 234
0.3579 -0.1600 -0.0976 179 61 234
-0.0352 -0.0763 -0.7731 102 220 225
0.0469 -0.1763 -0.4475 102 220 225
0.1119 0.1722 -0.0901 102 220 225
0.0974 -0.0346 -0.4054 102 220 225
-0.5747 -0.1262 0.4424 179 61 234
-0.1107 0.1219 0.0594 102 220 225
0.0185 0.1568 0.3310 179 61 234
-0.1105 -0.0922 -0.0870 102 220 225
-0.0686 -0.1763 -0.5632 102 220 225
-0.1286 -0.0922 -0.6001 102 220 225
-0.0616 0.0175 -0.2730 102 220 225
-0.0518 -0.0922 -0.1573 102 220 225
0.2882 -0.2064 0.0267 179 61 234
0.0905 -0.1763 -0.6506 102 220 225
-0.1825 -0.0922 -0.3874 102 220 225
-0.2394 -0.0593 0.2948 179 61 234
-0.5235 -0.0646 0.5029 179 61 234
0.1312 0.0175 -0.3024 102 220 225
-0.3529 -0.1521 0.4758 179 61 234
0.0909 -0.2293 0.1987 179 61 234
-0.1068 -0.1153 0.3530 179 61 234
-0.0496 -0.0922 -0.8658 102 220 225
0.3142 0.3418 0.0070 179 61 234
-0.0339 0.0217 0.1934 179 61 234
-0.1122 0.1429 -0.1507 102 220 225
-0.1567 -0.0922 -0.2490 102 220 225
0.1415 0.2068 0.2429 179 61 234
-0.1069 -0.0922 -0.7832 102 220 225
0.0200 -0.0922 -0.5158 102 220 225
-0.1319 -0.2220 0.3000 179 61 234
-0.2121 0.0861 0.4583 179 61 234
-0.1122 0.1019 -0.0428 102 220 225
-0.3737 -0.0075 0.5646 179 61 234
-0.4000 -0.0064 0.3895 179 61 234
0.4170 -0.1528 0.0477 179 61 234
-0.2565 -0.1922 0.4258 179 61 234
0.1770 -0.1255 -0.3784 102 220 225
-0.3513 -0.1374 0.5075 179 61 234
-0.0482 -0.0962 0.2358 179 61 234
0.1333 0.0444 0.0366 179 61 234
0.3242 -0.0902 -0.0437 179 61 234
0.3474 -0.1168 0.0262 179 61 234
0.0362 0.1204 -0.2311 102 220 225
0.3994 -0.0659 -0.0255 179 61 234
-0.0983 -0.1763 -0.6851 102 220 225
0.0540 0.0175 0.1500 179 61 234
0.2883 -0.2193 0.0698 179 61 234
-0.1857 -0.1729 0.2055 179 61 234
0.0209 -0.1763 -0.2923 102 220 225
0.1054 0.2257 0.2441 179 61 234
0.0675 0.1204 -0.2020 102 220 225
-0.3222 -0.1256 0.4755 179 61 234
0.3236 -0.2073 -0.0555 179 61 234
0.0708 0.0147 0.1924 179 61 234
-0.0739 0.3077 -0.2310 102 220 225
0.0192 0.0766 0.0594 102 220 225
0.6450 -0.1520 -0.0291 179 61 234
0.0633 -0.0757 -0.6408 102 220 225
0.4092 -0.1930 -0.1730 179 61 234
0.1889 0.1563 0.1341 179 61 234
0.0323 0.0244 0.0999 179 61 234
-0.0610 0.1703 -0.1860 102 220 225
0.0809 -0.0827 0.2668 179 61 234
0.0112 0.0891 -0.1916 102 220 225
0.1422 -0.1763 -0.2162 102 220 225
-0.2424 0.0234 0.4288 179 61 234
-0.0964 -0.1763 -0.8423 102 220 225
-0.3985 -0.1236 0.4856 179 61 234
-0.1104 0.0488 0.2869 179 61 234
0.3451 -0.1109 0.0091 179 61 234
0.1473 -0.1763 -0.4444 102 220 225
-0.1857 -0.1085 0.2040 179 61 234
0.1553 -0.0922 -0.5997 102 220 225
0.0260 0.1825 0.3208 179 61 234
-0.0951 0.0175 -0.2484 102 220 225
0.2589 0.0360 0.1898 179 61 234
0.1692 0.0105 0.2038 179 61 234
0.2392 0.2650 0.1585 179 61 234
-0.0607 -0.0842 -0.8269 102 220 225
-0.0215 -0.0575 0.2655 179 61 234
-0.1517 -0.0922 0.2520 179 61 234
0.1770 -0.1735 -0.0076 179 61 234
-0.1825 0.0566 0.3107 179 61 234
-0.1018 0.0397 0.2651 179 61 234
0.2519 0.4756 0.0956 179 61 234
-0.1429 -0.0358 -0.2593 102 220 225
-0.2522 -0.1301 0.3536 179 61 234
-0.0205 -0.1763 -0.2016 102 220 225
0.0097 -0.1763 0.0312 102 220 225
0.3838 -0.1123 0.0950 179 61 234
-0.0958 0.2070 0.0158 102 220 225
0.5299 -0.1802 -0.0190 179 61 234
-0.4644 -0.0988 0.4784 179 61 234
0.0352 -0.0003 -0.4697 102 220 225
0.0905 0.0175 -0.2811 102 220 225
-0.1290 0.0696 0.4143 179 61 234
0.3351 -0.2001 -0.0199 179 61 234
-0.0872 0.2270 0.4033 179 61 234
-0.5184 -0.1383 0.6892 179 61 234
0.1289 0.0175 -0.3148 102 220 225
-0.0739 0.2795 -0.0906 102 220 225
-0.1573 0.0522 0.4839 179 61 234
0.1072 0.1716 -0.0004 102 220 225
-0.0383 0.0252 0.1757 179 61 234
0.3114 -0.0020 0.0255 179 61 234
-0.2811 0.0020 0.4389 179 61 234
-0.1900 0.1498 0.4022 179 61 234
-0.1550 0.3688 -0.1565 102 220 225
0.0477 0.1274 0.2447 179 61 234
-0.4471 -0.0422 0.5954 179 61 234
-0.1857 -0.1564 -0.0029 102 220 225
-0.0155 0.0175 -0.0934 102 220 225
0.1582 -0.1763 0.0965 179 61 234
-0.0184 -0.1359 0.1695 179 61 234
0.3574 -0.1150 0.0979 179 61 234
0.0096 -0.0757 -0.6623 102 220 225
-0.2891 0.0763 0.4688 179 61 234
-0.1001 -0.0922 -0.6754 102 220 225
-0.3356 -0.0283 0.4756 179 61 234
-0.1548 0.0627 0.4576 179 61 234
-0.1857 -0.1343 -0.0916 102 220 225
-0.0036 0.0652 -0.1860 102 220 225
0.0115 0.4509 -0.2099 102 220 225
-0.1897 0.0364 0.3618 179 61 234
0.0949 0.0568 -0.1860 102 220 225
0.0810 -0.0922 0.0788 179 61 234
0.1988 0.3113 0.0909 179 61 234
-0.0592 0.2824 -0.0672 102 220 225
0.2805 -0.1056 0.0530 179 61 234
0.1427 -0.1763 0.1301 179 61 234
0.1783 -0.1842 0.0118 179 61 234
-0.0440 0.1943 -0.1239 102 220 225
-0.2180 0.0206 0.4833 179 61 234
0.1474 -0.0789 0.1320 179 61 234
-0.0381 0.0257 0.0594 102 220 225
0.0026 -0.1035 0.2997 179 61 234
0.3208 -0.1735 0.0671 179 61 234
0.0833 0.1345 0.0594 179 61 234
0.1938 0.1828 0.1873 179 61 234
0.3274 0.1835 0.0383 179 61 234
0.1653 0.2918 0.1718 179 61 234
0.2660 -0.1817 0.0085 179 61 234
-0.0846 0.0520 0.2356 179 61 234
-0.0255 0.0175 -0.1692 102 220 225
0.1030 -0.1763 -0.7707 102 220 225
0.1565 -0.0917 0.0911 179 61 234
-0.1498 -0.0922 -0.4667 102 220 225
-0.4881 -0.1041 0.4856 179 61 234
-0.2064 0.1841 0.4067 179 61 234
0.0762 0.0570 0.2031 179 61 234
-0.3979 -0.1055 0.4877 179 61 234
0.4098 -0.2238 -0.0926 179 61 234
0.0731 0.0500 0.1062 179 61 234
0.0047 0.0175 -0.1347 102 220 225
0.0474 -0.0922 -0.3536 102 220 225
0.0060 0.0291 0.3138 179 61 234
0.1564 0.2027 -0.0627 102 220 225
-0.0815 -0.1763 -0.2680 102 220 225
-0.1294 0.0175 -0.2679 102 220 225
0.0889 0.2183 -0.1803 102 220 225
0.1686 -0.1763 -0.4957 102 220 225
-0.1339 0.2665 -0.1099 102 220 225
-0.1429 -0.0399 -0.2890 102 220 225
-0.1750 -0.0430 0.4117 179 61 234
0.3205 -0.0453 0.1472 179 61 234
-0.4362 -0.0541 0.5588 179 61 234
0.1207 0.2676 -0.0510 102 220 225
0.0974 -0.0491 -0.4351 102 220 225
-0.0254 -0.0200 -0.3850 102 220 225
-0.0987 0.0943 0.2674 179 61 234
0.2410 0.0196 0.0467 179 61 234
0.2916 -0.1389 -0.0385 179 61 234
0.0147 -0.0922 -0.9077 102 220 225
0.2127 0.3373 0.1278 179 61 234
0.0995 -0.2048 0.1421 179 61 234
-0.0925 -0.0922 -0.5343 102 220 225
0.0701 -0.0200 -0.4415 102 220 225
-0.1020 -0.1540 0.2054 179 61 234
-0.0697 0.0782 -0.2562 102 220 225
0.0529 -0.0599 -0.5497 102 220 225
0.1153 0.0175 -0.2921 102 220 225
-0.0271 -0.0922 -0.9715 102 220 225
-0.0970 -0.0672 0.4227 179 61 234
-0.0574 0.1321 0.2605 179 61 234
-0.3780 -0.0093 0.5753 179 61 234
-0.1222 0.0175 -0.2178 102 220 225
-0.1699 0.0365 0.4255 179 61 234
0.0636 -0.1698 -0.9014 102 220 225
-0.2123 0.2312 0.3169 179 61 234
0.1339 -0.1763 -0.1777 102 220 225
0.0542 -0.0922 -0.9142 102 220 225
0.0490 -0.0922 0.0974 179 61 234
-0.2698 0.2129 0.3578 179 61 234
0.0716 -0.1117 -0.8879 102 220 225
0.1007 -0.0922 -0.7364 102 220 225
0.0799 -0.0922 -0.8418 102 220 225
0.0597 0.0782 0.1689 179 61 234
0.0318 -0.0259 -0.5497 102 220 225
-0.2180 -0.1675 0.4426 179 61 234
0.0423 0.0428 0.0594 102 220 225
0.0466 0.4806 -0.1962 102 220 225
0.0343 -0.1763 -0.3628 102 220 225
0.0523 -0.1429 0.3564 179 61 234
0.4556 -0.1634 -0.1114 179 61 234
0.1173 0.0792 0.3180 179 61 234
0.0009 -0.2026 0.2882 179 61 234
0.1612 0.2134 0.2420 179 61 234
0.1072 0.1052 0.0593 179 61 234
0.0278 -0.0056 -0.5311 102 220 225
0.0301 -0.0702 -0.7596 102 220 225
-0.0866 -0.0665 0.3415 179 61 234
0.0317 -0.0592 -0.7909 102 220 225
-0.1228 -0.0922 -0.7783 102 220 225
-0.4963 -0.1350 0.5583 179 61 234
-0.4984 -0.0723 0.4691 179 61 234
0.4270 -0.1864 -0.1936 179 61 234
0.0009 -0.0174 -0.4561 102 220 225
-0.1726 -0.2125 0.3552 179 61 234
-0.2100 0.0261 0.3919 179 61 234
0.0312 0.4930 -0.2051 102 220 225
-0.1857 -0.1618 0.0700 102 220 225
0.5610 -0.1611 -0.0914 179 61 234
-0.1856 -0.1296 -0.5418 102 220 225
0.1454 -0.1763 -0.2925 102 220 225
0.6013 -0.2458 -0.1724 179 61 234
-0.0336 -0.0922 -0.9445 102 220 225
0.0973 -0.0041 0.2691 179 61 234
0.2420 0.2603 0.1519 179 61 234
0.4255 -0.1544 -0.1142 179 61 234
-0.1091 0.3224 -0.0029 102 220 225
-0.0408 0.2513 -0.2391 102 220 225
0.0044 0.3255 -0.0672 102 220 225
0.1072 0.0361 0.0149 102 220 225
-0.0598 -0.1763 0.0822 102 220 225
-0.2279 0.0766 0.3786 179 61 234
0.2188 0.1514 0.1688 179 61 234
0.2691 0.0086 -0.0098 179 61 234
-0.0152 0.5986 -0.1931 102 220 225
-0.1446 0.1264 0.2668 179 61 234
0.5749 -0.2419 -0.1111 179 61 234
0.4955 -0.1077 -0.0236 179 61 234
0.2854 -0.0895 0.0713 179 61 234
-0.1490 -0.1609 0.2894 179 61 234
-0.1429 -0.0003 -0.1172 102 220 225
-0.0970 0.3134 -0.0520 102 220 225
0.3750 -0.0971 -0.0398 179 61 234
0.0815 -0.0970 0.2472 179 61 234
0.0421 0.1943 -0.0303 102 220 225
0.3486 -0.1546 -0.0109 179 61 234
-0.1813 -0.0922 0.1537 102 220 225
0.1072 0.1206 -0.1249 102 220 225
-0.1185 -0.0922 0.1605 102 220 225
0.1280 -0.1306 0.2451 179 61 234
-0.1857 -0.1583 0.2782 179 61 234
-0.3344 -0.0529 0.5547 179 61 234
0.2248 0.1880 0.0323 179 61 234
0.1530 -0.1763 -0.2335 102 220 225
-0.0016 0.1943 -0.0494 102 220 225
-0.6278 -0.0121 0.5130 179 61 234
0.0979 -0.1763 0.0554 179 61 234
0.1118 0.1722 -0.1602 102 220 225
-0.4315 0.0008 0.5609 179 61 234
-0.0586 -0.1763 -0.7571 102 220 225
0.0754 0.3688 -0.0737 102 220 225
0.4641 -0.1301 -0.1162 179 61 234
0.0469 0.2816 0.2005 179 61 234
0.2285 -0.1344 0.1030 179 61 234
-0.1122 0.1547 -0.0294 102 220 225
0.0370 0.2665 -0.0042 102 220 225
0.1782 0.0066 0.0648 179 61 234
-0.5458 -0.0438 0.6580 179 61 234
0.0685 -0.0922 -0.8895 102 220 225
0.0091 -0.0723 0.1941 179 61 234
0.1072 0.0270 -0.0176 102 220 225
-0.3714 -0.0737 0.4062 179 61 234
-0.0095 0.0175 0.0867 102 220 225
0.0294 0.0290 0.1288 179 61 234
0.0565 -0.0922 -0.4219 102 220 225
0.0518 -0.1560 -0.9215 102 220 225
-0.3909 0.0422 0.3713 179 61 234
-0.3449 0.0189 0.5135 179 61 234
-0.1429 -0.0116 -0.2176 102 220 225
0.1408 0.4347 0.1310 179 61 234
-0.0485 0.2284 -0.2510 102 220 225
0.1439 0.2276 0.1339 179 61 234
-0.3009 -0.0816 0.4297 179 61 234
0.1348 -0.1970 0.1102 179 61 234
-0.1559 -0.1730 0.2986 179 61 234
0.1408 -0.1647 0.1552 179 61 234
-0.1072 -0.0865 -0.6522 102 220 225
0.2621 0.1406 0.0361 179 61 234
0.1564 0.2246 -0.0807 102 220 225
-0.4899 -0.1202 0.6062 179 61 234
-0.2700 -0.0706 0.4515 179 61 234
-0.0237 0.1943 -0.0765 102 220 225
0.2307 -0.1641 0.0808 179 61 234
-0.0960 0.1593 0.3527 179 61 234
0.2375 -0.2014 0.1681 179 61 234
-0.1068 0.0809 0.2943 179 61 234
-0.1557 0.2656 -0.0357 102 220 225
0.1544 -0.0990 0.1535 179 61 234
0.0710 0.0928 -0.2993 102 220 225
-0.0864 -0.1763 0.2148 179 61 234
0.1064 -0.1763 -0.6658 102 220 225
-0.1857 -0.1452 -0.5115 102 220 225
0.2214 0.2939 0.1647 179 61 234
0.0611 -0.1278 0.1594 179 61 234
-0.0292 -0.0493 0.2962 179 61 234
-0.4068 0.0293 0.5656 179 61 234
-0.1122 0.1684 -0.0352 102 220 225
0.2486 0.3226 0.0917 179 61 234
-0.0852 0.0549 -0.2927 102 220 225
-0.1276 -0.1763 -0.0206 102 220 225
-0.1687 0.0469 0.2959 179 61 234
0.0974 -0.0548 -0.5046 102 220 225
-0.1557 0.2624 -0.1203 102 220 225
-0.3317 -0.0263 0.6520 179 61 234
-0.0509 0.0380 0.2128 179 61 234
-0.2565 0.1081 0.5074 179 61 234
0.1327 -0.0922 -0.7124 102 220 225
-0.0659 -0.1763 0.1717 179 61 234
0.1297 0.3716 -0.0395 102 220 225
0.1841 0.1069 0.1156 179 61 234
0.0050 0.0175 -0.2086 102 220 225
-0.1240 -0.1763 -0.5429 102 220 225
-0.0701 -0.1174 0.3220 179 61 234
-0.0872 -0.1493 0.2957 179 61 234
-0.4545 -0.0106 0.6065 179 61 234
-0.1429 -0.0176 -0.2913 102 220 225
0.1141 -0.0922 -0.7768 102 220 225
-0.0883 -0.1568 0.4455 179 61 234
0.1340 0.3480 -0.2130 102 220 225
-0.0795 0.0328 0.2651 179 61 234
0.1131 -0.1574 0.1030 179 61 234
0.3580 -0.1433 0.0122 179 61 234
0.0313 0.0288 0.0594 102 220 225
0.0398 0.0441 0.2454 179 61 234
0.1974 0.0251 0.1039 179 61 234
0.0107 -0.0833 0.1220 179 61 234
-0.2435 -0.1325 0.3504 179 61 234
0.1132 -0.1763 -0.6315 102 220 225
-0.0310 0.0973 0.2272 179 61 234
0.0456 0.2692 -0.0672 102 220 225
0.0898 -0.1976 0.2098 179 61 234
0.0010 -0.1763 -0.2935 102 220 225
-0.1594 -0.1021 -0.7338 102 220 225
-0.5572 -0.0760 0.5372 179 61 234
-0.2169 -0.1396 0.3873 179 61 234
-0.0659 0.0248 0.2987 179 61 234
-0.0918 0.0175 -0.0270 102 220 225
-0.2135 -0.0850 0.2913 179 61 234
-0.2684 0.0634 0.3286 179 61 234
-0.0108 -0.1097 -0.9939 102 220 225
-0.5682 -0.1025 0.5954 179 61 234
-0.1072 -0.0921 -0.6418 102 220 225
-0.1115 -0.1660 0.2986 179 61 234
-0.1429 -0.0416 0.0490 102 220 225
-0.1429 -0.0745 -0.0135 102 220 225
-0.3674 -0.1428 0.4650 179 61 234
-0.0739 0.2738 -0.0941 102 220 225
0.0012 -0.0446 0.1800 179 61 234
0.2045 0.2247 0.1278 179 61 234
0.0667 0.0175 0.1450 179 61 234
-0.1250 -0.0151 0.4513 179 61 234
0.4580 -0.1461 -0.0595 179 61 234
0.1407 -0.0922 -0.3758 102 220 225
0.0320 0.2665 -0.0018 102 220 225
-0.1136 -0.0922 -0.0482 102 220 225
-0.1717 -0.1574 0.4370 179 61 234
-0.0050 -0.1454 0.3191 179 61 234
-0.0123 -0.1763 -0.4775 102 220 225
0.0282 0.0751 0.2242 179 61 234
-0.0740 0.0175 0.0342 102 220 225
0.0928 0.0092 0.1449 179 61 234
-0.5516 -0.0422 0.4611 179 61 234
0.1753 -0.1763 -0.0688 179 61 234
0.2209 -0.1188 0.1141 179 61 234
0.0841 0.4205 -0.0225 102 220 225
0.0253 -0.0200 -0.5104 102 220 225
-0.0190 -0.1763 -0.5627 102 220 225
-0.1565 -0.0922 0.3129 179 61 234
0.1095 -0.1093 0.0530 179 61 234
-0.0586 -0.0132 -0.4342 102 220 225
-0.1251 0.1844 0.1553 102 220 225
-0.3020 -0.1662 0.4616 179 61 234
-0.0330 -0.1763 -0.3237 102 220 225
-0.0862 0.0570 0.1454 179 61 234
-0.0228 -0.0757 -0.7200 102 220 225
0.1053 -0.2087 0.2372 179 61 234
-0.5097 -0.1260 0.5325 179 61 234
-0.0598 0.4012 -0.1313 102 220 225
-0.0021 -0.0646 -0.7707 102 220 225
0.0855 -0.1747 -0.8613 102 220 225
-0.0679 0.1478 -0.2531 102 220 225
0.1776 -0.0180 0.1397 179 61 234
0.1757 -0.1425 -0.5283 102 220 225
-0.1768 0.0620 0.3890 179 61 234
-0.0687 0.0874 -0.2135 102 220 225
-0.1811 -0.0922 -0.4930 102 220 225
-0.1429 0.0172 -0.1828 102 220 225
-0.1407 0.1943 -0.0201 102 220 225
-0.4565 -0.0756 0.5564 179 61 234
-0.2240 0.2729 0.4545 179 61 234
0.0558 0.0423 0.2982 179 61 234
-0.0698 -0.1763 0.0120 102 220 225
-0.3012 -0.0019 0.5281 179 61 234
0.0157 0.2684 0.2013 179 61 234
-0.1406 -0.0922 -0.2998 102 220 225
-0.1067 0.1782 -0.1955 102 220 225
-0.1094 0.0488 0.3300 179 61 234
-0.1857 -0.1342 -0.0871 102 220 225
-0.0866 0.0698 -0.2235 102 220 225
-0.0432 -0.0922 -0.7011 102 220 225
-0.2067 -0.0305 0.2717 179 61 234
-0.1212 0.0626 0.2887 179 61 234
0.5103 -0.1206 -0.0106 179 61 234
-0.1705 -0.0648 0.5409 179 61 234
0.4198 -0.1435 -0.0865 179 61 234
0.0974 -0.0201 -0.4367 102 220 225
0.0162 -0.0922 -0.2865 102 220 225
0.2101 0.0174 0.1395 179 61 234
0.0255 -0.0616 -0.7055 102 220 225
0.0364 0.3688 -0.0972 102 220 225
-0.0562 0.0175 0.2167 179 61 234
0.3747 0.1275 0.1530 179 61 234
-0.0790 0.1943 -0.0762 102 220 225
0.1075 -0.0922 -0.2256 102 220 225
-0.1143 -0.0922 -0.5936 102 220 225
0.4788 -0.1229 -0.0629 179 61 234
-0.0135 -0.0922 -0.2144 102 220 225
0.1439 0.3688 -0.1466 102 220 225
-0.4028 -0.0655 0.5358 179 61 234
-0.1589 -0.0922 -0.0253 102 220 225
-0.2213 0.0497 0.3741 179 61 234
0.3828 -0.1864 0.0343 179 61 234
-0.1061 0.0858 0.3036 179 61 234
0.2363 0.0414 0.2098 179 61 234
-0.1429 -0.0534 0.1830 102 220 225
0.0442 -0.0720 0.2619 179 61 234
0.0010 -0.1524 0.2201 179 61 234
-0.1176 0.1943 -0.1532 102 220 225
0.3028 -0.2153 0.0326 179 61 234
0.5340 -0.2136 -0.0940 179 61 234
0.0473 -0.0922 -0.3800 102 220 225
0.1862 -0.0586 0.1753 179 61 234
0.0184 -0.0922 -0.0877 102 220 225
0.1072 0.0653 -0.2571 102 220 225
-0.0320 0.1140 -0.2405 102 220 225
-0.4423 -0.0070 0.7084 179 61 234
0.3732 0.1432 0.0709 179 61 234
0.1114 0.3401 0.2246 179 61 234
0.0727 0.0091 0.3068 179 61 234
-0.0169 -0.1590 0.1800 179 61 234
0.0301 -0.0607 -0.7794 102 220 225
-0.0822 0.0449 0.1314 102 220 225
-0.5182 -0.1109 0.4838 179 61 234
-0.0433 -0.0922 -0.5811 102 220 225
0.4070 -0.2148 -0.0417 179 61 234
0.0345 0.0175 0.1937 179 61 234
-0.1429 -0.0818 0.1584 102 220 225
0.0363 -0.0922 -0.0813 102 220 225
-0.1886 -0.1947 0.3799 179 61 234
0.0227 -0.0200 -0.5201 102 220 225
-0.0028 0.0065 -0.3888 102 220 225
0.1058 0.3688 -0.1025 102 220 225
0.1712 -0.0334 0.1211 179 61 234
-0.1888 0.1056 0.2594 179 61 234
-0.0803 -0.1763 -0.1852 102 220 225
-0.1535 -0.0922 -0.2650 102 220 225
-0.2185 -0.0320 0.4351 179 61 234
-0.1153 -0.0922 -0.3008 102 220 225
-0.0301 -0.1164 0.3776 179 61 234
-0.0792 0.0998 0.4183 179 61 234
-0.0824 0.0797 0.0594 102 220 225
0.1016 0.1805 -0.1860 102 220 225
-0.3913 -0.0941 0.5299 179 61 234
0.0240 0.0754 -0.2020 102 220 225
0.0183 0.5444 -0.1993 102 220 225
-0.0035 0.1535 0.1245 179 61 234
0.4687 -0.0596 0.0468 179 61 234
-0.1847 -0.1698 -0.5872 102 220 225
-0.1881 0.3659 -0.0933 102 220 225
0.2466 0.1467 0.1074 179 61 234
0.0240 -0.0628 -0.7737 102 220 225
0.0956 -0.0922 -0.5832 102 220 225
0.1054 -0.0980 0.1466 179 61 234
0.1054 -0.0010 0.2100 179 61 234
0.5030 -0.1640 -0.2240 179 61 234
-0.1336 0.0175 -0.1398 102 220 225
0.1081 -0.1061 0.1929 179 61 234
-0.1304 0.2375 -0.1758 102 220 225
0.0491 0.0570 0.0875 179 61 234
0.0467 0.0695 -0.1860 102 220 225
-0.2217 0.1396 0.4195 179 61 234
-0.3581 -0.1222 0.3655 179 61 234
0.1149 0.1109 0.2065 179 61 234
-0.0550 0.3541 -0.0672 102 220 225
0.0694 0.3289 -0.1040 102 220 225
0.2036 0.0903 0.1930 179 61 234
0.0735 0.0266 0.1733 179 61 234
-0.3808 0.0784 0.3715 179 61 234
0.2882 -0.1087 -0.0261 179 61 234
0.1101 -0.1763 0.1013 179 61 234
-0.0727 0.1713 0.1461 102 220 225
-0.0258 -0.1600 0.1788 179 61 234
0.0551 0.1620 0.2523 179 61 234
-0.0079 0.0531 0.2657 179 61 234
-0.1898 0.1943 -0.0258 102 220 225
0.0644 0.1007 -0.2144 102 220 225
0.0825 0.1943 -0.1241 102 220 225
-0.1109 0.0804 0.2935 179 61 234
-0.0013 -0.1763 -0.6037 102 220 225
0.5490 -0.2008 -0.0242 179 61 234
-0.0286 0.0171 0.1907 179 61 234
-0.1740 -0.1364 -0.6733 102 220 225
-0.1427 -0.0657 0.3729 179 61 234
0.0361 -0.0922 -0.2053 102 220 225
-0.0434 0.0572 0.0594 102 220 225
-0.2725 -0.0782 0.4937 179 61 234
-0.0778 0.0402 0.3733 179 61 234
-0.0025 0.1730 0.0594 102 220 225
0.3249 -0.0213 -0.0031 179 61 234
-0.0362 -0.0922 -0.6890 102 220 225
0.2000 -0.1494 0.1187 179 61 234
-0.0437 -0.0554 0.1912 179 61 234
0.3739 -0.2126 0.0094 179 61 234
0.3987 -0.0839 0.0439 179 61 234
-0.0092 0.2665 0.0046 102 220 225
-0.1302 -0.0922 -0.0589 102 220 225
0.5235 -0.2530 -0.0698 179 61 234
-0.0787 0.0726 0.2830 179 61 234
0.1583 -0.0922 -0.0232 179 61 234
-0.2030 -0.2067 0.4720 179 61 234
0.0446 0.0175 0.0349 102 220 225
0.1728 0.1722 -0.1463 102 220 225
0.1725 -0.0922 -0.1750 102 220 225
-0.1529 -0.1150 -0.7544 102 220 225
-0.0351 0.0119 0.2551 179 61 234
0.1344 -0.0218 0.1422 179 61 234
0.2250 -0.0040 -0.0515 179 61 234
0.1077 -0.0068 0.2523 179 61 234
0.1218 -0.0903 0.2084 179 61 234
-0.1566 0.0235 0.4812 179 61 234
0.5632 -0.1717 -0.0645 179 61 234
0.0694 0.2044 -0.2181 102 220 225
-0.3786 -0.0856 0.4134 179 61 234
-0.1073 0.0958 -0.1860 102 220 225
0.4440 -0.1691 -0.1493 179 61 234
-0.1756 -0.0925 -0.6653 102 220 225
0.0694 0.3314 -0.1754 102 220 225
-0.1617 -0.1763 -0.3517 102 220 225
0.3846 -0.2125 0.1101 179 61 234
-0.0641 -0.0734 -0.6790 102 220 225
0.1824 0.1943 0.0371 179 61 234
0.1416 -0.1856 0.1386 179 61 234
-0.1429 -0.0570 0.0408 102 220 225
0.1770 -0.1443 -0.3887 102 220 225
0.0982 -0.0922 -0.4474 102 220 225
-0.0543 0.0458 0.3987 179 61 234
0.0267 0.3323 -0.2531 102 220 225
-0.0393 0.2514 -0.2391 102 220 225
-0.1966 -0.1301 0.4391 179 61 234
0.0766 0.0773 0.0580 179 61 234
0.3269 0.4638 0.1999 179 61 234
0.4586 -0.1717 0.0797 179 61 234
-0.1890 -0.0217 0.4435 179 61 234
0.3005 0.0727 0.1388 179 61 234
0.4225 -0.1071 0.0660 179 61 234
0.0348 0.4497 -0.1369 102 220 225
-0.0764 -0.0922 -0.3673 102 220 225
-0.0986 0.3492 -0.2531 102 220 225
0.3385 -0.0256 0.1486 179 61 234
0.0804 -0.1763 -0.7906 102 220 225
-0.0440 -0.1763 -0.6453 102 220 225
0.0784 0.0175 0.1542 179 61 234
-0.1784 -0.0922 0.1032 102 220 225
-0.0666 -0.0763 -0.7407 102 220 225
0.3240 0.3354 0.0528 179 61 234
0.0650 0.0175 -0.2177 102 220 225
0.0588 -0.0077 0.2154 179 61 234
0.0143 0.1096 0.2134 179 61 234
-0.1580 0.0633 0.3666 179 61 234
0.4386 -0.2070 -0.1305 179 61 234
-0.3332 -0.0375 0.3963 179 61 234
-0.0208 -0.1763 -0.2622 102 220 225
-0.0259 -0.0922 -0.2691 102 220 225
0.1770 -0.1123 -0.3291 102 220 225
0.0288 0.5901 -0.1613 102 220 225
-0.1615 -0.1457 0.2957 179 61 234
0.0824 -0.2247 0.1454 179 61 234
-0.3961 -0.0669 0.5326 179 61 234
-0.2756 0.0452 0.4035 179 61 234
-0.1726 -0.1763 0.1227 102 220 225
-0.5790 -0.1154 0.6752 179 61 234
0.0541 -0.0922 -0.6169 102 220 225
-0.3786 -0.0469 0.3580 179 61 234
0.1419 0.3240 0.1255 179 61 234
-0.0739 0.2519 -0.2118 102 220 225
0.3864 -0.2190 -0.1798 179 61 234
-0.0296 0.2017 0.3021 179 61 234
-0.1557 0.2251 0.0109 102 220 225
0.1425 -0.1231 0.0289 179 61 234
0.1117 0.0118 0.1823 179 61 234
0.1409 -0.0922 0.1472 179 61 234
0.3331 -0.1294 -0.0618 179 61 234
0.1647 0.3151 0.1053 179 61 234
0.0252 -0.0170 0.2804 179 61 234
0.2397 -0.1859 0.1408 179 61 234
0.1997 0.2908 0.1377 179 61 234
0.2836 -0.1008 -0.1680 102 220 225
-0.1374 0.0863 0.4364 179 61 234
-0.0563 -0.1763 -0.9179 102 220 225
0.0696 -0.0922 -0.7882 102 220 225
-0.1354 0.0056 0.4665 179 61 234
-0.0888 0.0175 -0.1538 102 220 225
-0.1842 0.3688 -0.1919 102 220 225
0.0368 0.0065 -0.4030 102 220 225
0.3982 -0.0834 -0.0075 179 61 234
0.0220 -0.0945 0.2368 179 61 234
0.0061 -0.0200 -0.5180 102 220 225
-0.1881 0.3562 -0.1632 102 220 225
0.0502 -0.0922 -0.1321 102 220 225
-0.1857 -0.0929 -0.3963 102 220 225
0.3338 0.3258 0.1172 179 61 234
-0.0898 0.1943 -0.1410 102 220 225
0.0487 0.1943 0.0148 102 220 225
-0.1278 -0.1763 0.1941 179 61 234
0.1336 0.2028 0.0584 179 61 234
-0.1122 0.0848 0.0177 102 220 225
-0.4364 -0.1332 0.4194 179 61 234
0.2112 0.1660 0.2305 179 61 234
0.0072 0.5387 -0.1470 102 220 225
-0.5627 -0.0726 0.5641 179 61 234
-0.0989 0.0678 0.3937 179 61 234
0.3032 0.0144 0.0003 179 61 234
-0.1857 -0.1091 0.1406 102 220 225
-0.1339 -0.0629 -0.3713 102 220 225
0.1319 0.0394 0.1548 179 61 234
-0.0354 0.1533 -0.1860 102 220 225
-0.0777 0.0680 0.3637 179 61 234
0.3965 -0.1405 0.0423 179 61 234
-0.3130 -0.0247 0.5592 179 61 234
0.3712 -0.1326 -0.0611 179 61 234
-0.2789 0.0488 0.4674 179 61 234
-0.0533 -0.1763 -0.3032 102 220 225
-0.1855 0.0399 0.3545 179 61 234
-0.0728 -0.0757 -0.5731 102 220 225
0.0266 -0.1763 -0.8959 102 220 225
0.1515 0.0526 0.1185 179 61 234
0.1408 0.2181 -0.0226 102 220 225
-0.4826 -0.0859 0.5268 179 61 234
0.0733 0.0326 0.1927 179 61 234
-0.0622 0.0381 -0.3081 102 220 225
0.0510 -0.1695 0.1633 179 61 234
0.4270 -0.1338 0.0036 179 61 234
-0.0526 0.0175 0.2393 179 61 234
-0.1896 0.1040 0.3941 179 61 234
-0.0532 -0.1763 -0.5573 102 220 225
0.1770 -0.1649 0.0052 179 61 234
-0.3687 -0.0371 0.5816 179 61 234
0.0694 0.3457 -0.0759 102 220 225
-0.0220 0.2209 0.2410 179 61 234
0.0649 -0.0127 -0.3246 102 220 225
0.5424 -0.1261 -0.1334 179 61 234
-0.1624 -0.0922 -0.2742 102 220 225
-0.3857 -0.0003 0.5447 179 61 234
-0.5741 -0.1105 0.5213 179 61 234
0.4284 -0.0738 -0.0006 179 61 234
-0.1857 -0.1113 -0.4787 102 220 225
0.1195 -0.2124 0.0676 179 61 234
0.3157 -0.0952 0.0009 179 61 234
0.5613 -0.1901 -0.0733 179 61 234
0.1785 0.4522 0.1099 179 61 234
-0.2146 0.0826 0.3736 179 61 234
-0.3184 -0.0252 0.3776 179 61 234
0.1943 -0.1854 0.0105 179 61 234
0.1865 -0.2057 0.0210 179 61 234
-0.1503 0.1722 -0.0031 102 220 225
0.0107 0.3688 -0.1066 102 220 225
-0.0145 -0.1763 -0.2315 102 220 225
-0.1985 -0.1406 0.3515 179 61 234
-0.1388 0.1943 -0.0165 102 220 225
0.0021 0.7116 -0.1802 102 220 225
-0.0878 -0.1763 -0.3654 102 220 225
0.0412 -0.0922 -0.2071 102 220 225
-0.1466 0.0555 0.2457 179 61 234
-0.2649 -0.1609 0.1984 102 220 225
0.0750 0.0175 -0.2004 102 220 225
-0.0354 -0.0170 0.2363 179 61 234
0.1685 -0.0976 -0.5994 102 220 225
-0.1654 0.1722 -0.0503 102 220 225
0.2064 0.2840 0.1772 179 61 234
-0.0926 -0.1032 0.2378 179 61 234
-0.2862 -0.0260 0.4334 179 61 234
0.1197 -0.1763 -0.5673 102 220 225
0.1371 0.2665 -0.0617 102 220 225
0.1072 0.1237 -0.1693 102 220 225
0.0032 0.0595 0.3059 179 61 234
-0.0739 0.2958 -0.0890 102 220 225
0.2504 0.3491 0.1588 179 61 234
-0.0304 0.0549 0.3709 179 61 234
0.0084 -0.1763 -0.8125 102 220 225
-0.0342 0.2665 0.0002 102 220 225
0.3202 0.2098 0.0205 179 61 234
-0.5434 -0.0653 0.5595 179 61 234
-0.4311 0.0046 0.6156 179 61 234
0.2355 0.2161 0.0216 179 61 234
0.2149 -0.1938 0.0445 179 61 234
0.0733 0.0286 0.1139 179 61 234
-0.1317 -0.1595 0.3325 179 61 234
0.1301 0.2780 -0.0385 102 220 225
-0.0039 -0.1763 -0.7616 102 220 225
-0.1857 -0.1732 -0.4656 102 220 225
-0.1072 -0.0337 -0.4556 102 220 225
-0.4341 -0.0366 0.4118 179 61 234
-0.1132 0.0175 0.0182 102 220 225
-0.1052 -0.0757 -0.6943 102 220 225
0.1425 -0.1763 -0.6384 102 220 225
0.1770 -0.1278 -0.4328 102 220 225
0.0294 0.0318 0.1407 179 61 234
0.2649 -0.2151 0.1402 179 61 234
0.3671 -0.1209 -0.0815 179 61 234
0.1123 -0.0525 -0.3626 102 220 225
-0.0490 -0.0922 -0.6503 102 220 225
-0.1088 0.2945 -0.0029 102 220 225
-0.0545 0.3688 -0.0887 102 220 225
-0.4473 0.0227 0.4680 179 61 234
0.2387 -0.0323 0.0942 179 61 234
0.0555 -0.1779 0.0079 102 220 225
0.1770 -0.1746 -0.1135 102 220 225
0.0510 0.0570 0.0866 179 61 234
-0.1334 0.3363 -0.0432 102 220 225
0.2023 0.0515 0.2080 179 61 234
0.0121 -0.1763 -0.5689 102 220 225
-0.0603 -0.1426 0.1794 179 61 234
0.0586 0.0939 -0.2010 102 220 225
0.1408 -0.1703 -0.7249 102 220 225
-0.1857 -0.1075 0.0978 102 220 225
-0.1086 0.0832 0.2983 179 61 234
0.6389 -0.1871 -0.0986 179 61 234
-0.0550 -0.1763 -0.7446 102 220 225
0.0294 -0.1763 -0.2147 102 220 225
-0.0805 0.0175 -0.3091 102 220 225
0.1643 -0.1178 0.1219 179 61 234
-0.0257 0.0186 0.2651 179 61 234
-0.3304 -0.0244 0.5328 179 61 234
0.2002 0.0186 0.1681 179 61 234
0.1651 -0.1009 -0.6230 102 220 225
-0.1508 -0.1763 -0.3750 102 220 225
0.1203 -0.1763 -0.7083 102 220 225
0.0751 -0.1763 -0.1606 102 220 225
0.3567 -0.0202 -0.0502 179 61 234
0.4330 -0.1297 0.0203 179 61 234
0.2452 -0.0060 0.1637 179 61 234
0.2792 0.1176 0.1140 179 61 234
-0.3286 0.0208 0.5894 179 61 234
-0.0378 -0.0922 -0.8618 102 220 225
-0.1036 -0.1763 -0.5718 102 220 225
-0.0190 -0.0763 -0.7893 102 220 225
-0.1611 -0.0519 0.4418 179 61 234
0.0903 -0.0547 -0.5497 102 220 225
0.1342 0.0534 0.2522 179 61 234
-0.0739 0.2780 -0.1877 102 220 225
-0.1881 0.3671 -0.2441 102 220 225
0.1068 0.0175 -0.1180 102 220 225
0.1564 0.2637 -0.1148 102 220 225
0.0646 0.2665 0.0073 102 220 225
0.2661 0.3616 0.0715 179 61 234
-0.0999 0.3480 -0.1994 102 220 225
-0.4719 0.0186 0.6186 179 61 234
-0.3987 -0.0416 0.4799 179 61 234
0.3902 -0.1207 -0.0420 179 61 234
0.1240 0.3551 -0.0104 102 220 225
-0.1429 -0.0500 0.2612 179 61 234
0.0377 0.2593 0.2449 179 61 234
0.1195 0.0794 -0.1944 102 220 225
-0.1181 0.0175 -0.1463 102 220 225
0.1536 -0.0192 0.1512 179 61 234
-0.1814 -0.0922 -0.2665 102 220 225
-0.2840 -0.1704 0.3468 179 61 234
-0.1670 0.0727 0.4277 179 61 234
0.1715 -0.1763 0.0759 179 61 234
0.1933 0.1722 -0.1073 102 220 225
0.3639 -0.1325 0.0505 179 61 234
-0.0043 -0.0922 -0.5491 102 220 225
-0.0739 0.3079 -0.2257 102 220 225
-0.0634 -0.1763 0.1739 179 61 234
-0.2570 0.0446 0.4984 179 61 234
0.1323 0.0144 -0.1505 102 220 225
-0.0471 -0.0037 0.2718 179 61 234
-0.0753 -0.1660 0.3919 179 61 234
-0.1740 0.0411 0.4309 179 61 234
0.1248 -0.0564 0.3554 179 61 234
0.1109 -0.1590 0.3423 179 61 234
0.2163 -0.1465 0.1329 179 61 234
-0.3907 -0.0849 0.5863 179 61 234
0.4305 -0.0919 -0.0944 179 61 234
-0.1952 0.0790 0.3953 179 61 234
-0.1341 -0.1763 -0.2117 102 220 225
-0.3398 -0.0563 0.4374 179 61 234
0.0786 0.3325 -0.0291 102 220 225
0.1323 -0.0900 0.0897 179 61 234
-0.0822 0.0481 0.1498 179 61 234
-0.0955 -0.0922 -0.6783 102 220 225
0.0462 0.2891 -0.2476 102 220 225
0.1591 -0.0520 -0.3577 102 220 225
0.0240 0.0362 -0.2612 102 220 225
-0.2313 0.0553 0.3230 179 61 234
-0.0814 0.0570 0.0939 102 220 225
0.0265 0.4703 -0.1392 102 220 225
-0.1353 0.2665 0.0088 102 220 225
-0.1023 -0.1763 -0.5364 102 220 225
-0.2880 0.0151 0.4002 179 61 234
-0.0626 0.0730 -0.2002 102 220 225
0.2953 0.1044 0.1015 179 61 234
-0.2467 0.0698 0.3650 179 61 234
0.4797 -0.2518 -0.0904 179 61 234
-0.0222 0.1475 -0.1860 102 220 225
0.0539 -0.0430 0.1446 179 61 234
-0.0488 -0.0757 -0.6368 102 220 225
-0.4719 0.0176 0.5946 179 61 234
-0.0041 -0.0141 -0.4960 102 220 225
0.0451 -0.0013 0.3186 179 61 234
0.0785 0.0592 -0.2879 102 220 225
0.2463 -0.1725 0.0584 179 61 234
-0.0139 0.0199 0.3195 179 61 234
-0.1527 -0.1327 -0.7551 102 220 225
0.1652 0.0091 0.2349 179 61 234
-0.0377 -0.0200 -0.3478 102 220 225
0.2283 -0.1824 0.1987 179 61 234
0.1214 -0.0922 0.0588 179 61 234
-0.5089 -0.0235 0.5172 179 61 234
-0.0310 0.0617 0.1670 179 61 234
0.0983 -0.0922 -0.7748 102 220 225
0.3132 -0.2051 0.1146 179 61 234
-0.0070 -0.0174 -0.4033 102 220 225
-0.3920 -0.0383 0.4572 179 61 234
-0.1326 -0.1338 0.4382 179 61 234
-0.0662 -0.1400 0.2986 179 61 234
0.3863 -0.0733 0.0403 179 61 234
-0.0599 0.1943 -0.1263 102 220 225
-0.1429 -0.0830 -0.2931 102 220 225
0.1323 -0.0241 0.0470 179 61 234
