ply
format ascii 1.0
comment Created by Open3D
element vertex 2644
property double x
property double y
property double z
property uchar red
property uchar green
property uchar blue
end_header
-5.5344 -35.9744 -2.6587 44 160 44
-5.5344 -36.0758 -2.6632 44 160 44
-5.5344 -35.9472 -2.7513 44 160 44
-5.5344 -36.0487 -2.7558 44 160 44
-5.5344 -36.1668 -2.6956 44 160 44
-5.5344 -36.4174 -2.7252 44 160 44
-5.5344 -36.5583 -2.7096 44 160 44
-5.5344 -36.5023 -2.7944 44 160 44
-5.5344 -36.7528 -2.6779 44 160 44
-5.5344 -36.6871 -2.7677 44 160 44
-5.4403 -35.9642 -2.7324 44 160 44
-5.4403 -36.1057 -2.6939 44 160 44
-5.4403 -36.2405 -2.7151 44 160 44
-5.4402 -36.3715 -2.7046 44 160 44
-5.4402 -36.4821 -2.7269 44 160 44
-5.4402 -36.5942 -2.7035 44 160 44
-5.4403 -36.4262 -2.8117 44 160 44
-5.4402 -36.533 -2.8022 44 160 44
-5.4402 -36.7002 -2.7169 44 160 44
-5.4402 -36.8024 -2.6985 44 160 44
-5.343 -36.0278 -2.7242 44 160 44
-5.343 -35.9674 -2.8001 44 160 44
-5.343 -36.2171 -2.7064 44 160 44
-5.343 -36.0885 -2.7945 44 160 44
-5.343 -36.1756 -2.7951 44 160 44
-5.343 -36.3428 -2.7098 44 160 44
-5.343 -36.2627 -2.7957 44 160 44
-5.3429 -36.4587 -2.7182 44 160 44
-5.343 -36.3982 -2.7941 44 160 44
-5.3429 -36.5338 -2.7925 44 160 44
-5.3429 -36.642 -2.7373 44 160 44
-5.3429 -36.7646 -2.686 44 160 44
-5.3429 -36.8615 -2.6816 44 160 44
-5.3429 -36.7473 -2.7736 44 160 44
-5.3429 -36.9615 -2.7318 44 160 44
-5.2492 -35.9617 -2.7689 44 160 44
-5.2492 -36.0533 -2.7785 44 160 44
-5.2492 -36.2244 -2.725 44 160 44
-5.2492 -36.3168 -2.7116 44 160 44
-5.2492 -36.4811 -2.7178 44 160 44
-5.2492 -36.5878 -2.7084 44 160 44
-5.2492 -36.6946 -2.6989 44 160 44
-5.2492 -36.7817 -2.6995 44 160 44
-5.2492 -36.918 -2.675 44 160 44
-5.2492 -36.7454 -2.7743 44 160 44
-5.2492 -36.8378 -2.7609 44 160 44
-5.1477 -35.7968 -2.6831 44 160 44
-5.1477 -35.8764 -2.7663 44 160 44
-5.1477 -36.1785 -2.7022 44 160 44
-5.1477 -36.1036 -2.7742 44 160 44
-5.1476 -36.2747 -2.7206 44 160 44
-5.1476 -36.3966 -2.6922 44 160 44
-5.1476 -36.5125 -2.7006 44 160 44
-5.1476 -36.6382 -2.704 44 160 44
-5.1476 -36.558 -2.7899 44 160 44
-5.1476 -36.7593 -2.6985 44 160 44
-5.1475 -36.8759 -2.684 44 160 44
-5.1475 -36.963 -2.6846 44 160 44
-5.1475 -36.8828 -2.7705 44 160 44
-5.1475 -37.0433 -2.7449 44 160 44
-5.0558 -35.7378 -2.735 44 160 44
-5.0558 -35.865 -2.6926 44 160 44
-5.0558 -36.0005 -2.691 44 160 44
-5.0558 -35.8378 -2.7852 44 160 44
-5.0558 -36.1672 -2.7747 44 160 44
-5.0558 -36.3049 -2.7045 44 160 44
-5.0558 -36.3906 -2.7508 44 160 44
-5.0558 -36.523 -2.6945 44 160 44
-5.0558 -36.5837 -2.7648 44 160 44
-5.0558 -36.7116 -2.6996 44 160 44
-5.0558 -37.0031 -2.6634 44 160 44
-5.0558 -36.9418 -2.7622 44 160 44
-5.0558 -37.0781 -2.7377 44 160 44
-4.8651 -35.6219 -2.636 44 160 44
-4.8651 -35.5319 -2.7269 44 160 44
-4.8651 -35.6288 -2.7225 44 160 44
-4.8651 -35.7099 -2.7599 44 160 44
-4.8651 -35.8348 -2.7861 44 160 44
-4.8651 -35.9431 -2.7309 44 160 44
-4.8651 -36.0968 -2.765 44 160 44
-4.8651 -36.5102 -2.7004 44 160 44
-4.8652 -36.6791 -2.7156 44 160 44
-4.8652 -36.5996 -2.7786 44 160 44
-4.8652 -36.7813 -2.6972 44 160 44
-4.8652 -36.8881 -2.6877 44 160 44
-4.8652 -36.8609 -2.7803 44 160 44
-4.8652 -37.1167 -2.6499 44 160 44
-4.8652 -37.0509 -2.7397 44 160 44
-4.8652 -37.1819 -2.7291 44 160 44
-4.7707 -35.4156 -2.6608 44 160 44
-4.7707 -35.5262 -2.6831 44 160 44
-4.7707 -35.627 -2.7105 44 160 44
-4.7708 -35.7376 -2.7328 44 160 44
-4.7708 -36.0912 -2.7212 44 160 44
-4.7708 -36.3781 -2.6761 44 160 44
-4.7708 -36.2056 -2.7753 44 160 44
-4.7709 -36.6924 -2.6845 44 160 44
-4.7709 -36.828 -2.6829 44 160 44
-4.7709 -37.1725 -2.6534 44 160 44
-4.7709 -37.2845 -2.63 44 160 44
-4.7709 -37.1021 -2.7343 44 160 44
-4.771 -37.2574 -2.7226 44 160 44
-4.771 -37.3649 -2.6902 44 160 44
-4.5755 -35.4265 -2.6345 44 160 44
-4.5755 -35.5023 -2.6858 44 160 44
-4.5755 -35.634 -2.6524 44 160 44
-4.5755 -35.7386 -2.7115 44 160 44
-4.5755 -35.9862 -2.6865 44 160 44
-4.5755 -36.146 -2.6837 44 160 44
-4.5755 -36.2429 -2.6793 44 160 44
-4.5755 -36.3398 -2.6749 44 160 44
-4.5755 -36.3467 -2.7613 44 160 44
-4.5755 -36.4353 -2.7162 44 160 44
-4.5755 -36.5375 -2.6978 44 160 44
-4.5755 -36.639 -2.7023 44 160 44
-4.5755 -36.7292 -2.7575 44 160 44
-4.5755 -36.9009 -2.6811 44 160 44
-4.5755 -36.8359 -2.7481 44 160 44
-4.5755 -37.0055 -2.7403 44 160 44
-4.5755 -37.1183 -2.694 44 160 44
-4.5755 -37.2507 -2.6377 44 160 44
-4.5755 -37.2092 -2.7264 44 160 44
-4.5755 -37.3599 -2.7058 44 160 44
-4.4815 -35.3338 -2.648 44 160 44
-4.4815 -35.4391 -2.6843 44 160 44
-4.4815 -35.5609 -2.6559 44 160 44
-4.4815 -35.7298 -2.671 44 160 44
-4.4815 -35.8147 -2.7402 44 160 44
-4.4816 -36.0139 -2.7174 44 160 44
-4.4816 -36.1396 -2.7208 44 160 44
-4.4816 -36.2365 -2.7163 44 160 44
-4.4816 -36.3198 -2.6851 44 160 44
-4.4816 -36.4008 -2.7225 44 160 44
-4.4816 -36.5908 -2.6818 44 160 44
-4.4816 -36.6976 -2.6724 44 160 44
-4.4816 -36.8718 -2.6735 44 160 44
-4.4816 -36.8257 -2.7533 44 160 44
-4.4816 -37.0126 -2.6579 44 160 44
-4.4816 -36.9377 -2.7299 44 160 44
-4.4816 -37.1194 -2.6485 44 160 44
-4.4816 -37.2504 -2.6379 44 160 44
-4.4816 -37.3427 -2.6246 44 160 44
-4.4816 -37.2088 -2.7266 44 160 44
-4.4817 -37.3012 -2.7133 44 160 44
-4.4817 -37.4132 -2.6899 44 160 44
-4.3821 -35.2493 -2.5793 44 160 44
-4.3821 -35.341 -2.5888 44 160 44
-4.3821 -35.3093 -2.6725 44 160 44
-4.3821 -35.4115 -2.6541 44 160 44
-4.3821 -35.5357 -2.7033 44 160 44
-4.3821 -35.6531 -2.6659 44 160 44
-4.3821 -35.8016 -2.7139 44 160 44
-4.3821 -36 -2.714 44 160 44
-4.3821 -36.1053 -2.7503 44 160 44
-4.3821 -36.1885 -2.7191 44 160 44
-4.3821 -36.3202 -2.6856 44 160 44
-4.3821 -36.4104 -2.7409 44 160 44
-4.3821 -36.6254 -2.6762 44 160 44
-4.3821 -36.5649 -2.7521 44 160 44
-4.3821 -36.736 -2.6985 44 160 44
-4.3821 -36.848 -2.6751 44 160 44
-4.3821 -36.9828 -2.6964 44 160 44
-4.3821 -37.1676 -2.6696 44 160 44
-4.3821 -37.0882 -2.7327 44 160 44
-4.3821 -37.2554 -2.6473 44 160 44
-4.3821 -37.3418 -2.6708 44 160 44
-4.3821 -37.4296 -2.6485 44 160 44
-4.2848 -35.1706 -2.641 44 160 44
-4.2848 -35.2864 -2.6494 44 160 44
-4.2848 -35.3714 -2.7186 44 160 44
-4.2848 -35.4599 -2.6734 44 160 44
-4.2848 -35.6197 -2.6707 44 160 44
-4.2848 -35.7847 -2.654 44 160 44
-4.2848 -35.7674 -2.7415 44 160 44
-4.2848 -35.9483 -2.683 44 160 44
-4.2848 -36.0635 -2.7143 44 160 44
-4.2848 -36.1854 -2.6858 44 160 44
-4.2848 -36.3936 -2.6809 44 160 44
-4.2847 -36.4807 -2.6814 44 160 44
-4.2848 -36.5663 -2.7278 44 160 44
-4.2847 -36.6745 -2.6726 44 160 44
-4.2847 -36.7594 -2.7418 44 160 44
-4.2847 -36.9358 -2.6743 44 160 44
-4.2847 -36.8609 -2.7463 44 160 44
-4.2847 -37.0267 -2.7067 44 160 44
-4.2847 -37.1152 -2.6615 44 160 44
-4.2847 -37.2023 -2.6621 44 160 44
-4.2847 -37.3136 -2.6616 44 160 44
-4.2847 -37.2433 -2.7424 44 160 44
-4.2847 -37.4681 -2.6727 44 160 44
-4.2847 -37.5794 -2.6722 44 160 44
-4.1872 -35.077 -2.5766 44 160 44
-4.1873 -35.1422 -2.6558 44 160 44
-4.1872 -35.2353 -2.6195 44 160 44
-4.1873 -35.3588 -2.6915 44 160 44
-4.1872 -35.651 -2.6324 44 160 44
-4.1872 -35.7518 -2.6598 44 160 44
-4.1872 -36.0569 -2.6504 44 160 44
-4.1872 -35.9677 -2.7184 44 160 44
-4.1872 -36.197 -2.6576 44 160 44
-4.1872 -36.1464 -2.7285 44 160 44
-4.1872 -36.6279 -2.6516 44 160 44
-4.1872 -36.7196 -2.6611 44 160 44
-4.1872 -36.8165 -2.6566 44 160 44
-4.1872 -36.9081 -2.6661 44 160 44
-4.1872 -37.005 -2.6617 44 160 44
-4.1872 -37.0921 -2.6623 44 160 44
-4.1872 -37.1845 -2.6489 44 160 44
-4.1872 -37.2852 -2.6762 44 160 44
-4.1872 -37.4949 -2.6255 44 160 44
-4.1872 -37.6751 -2.5898 44 160 44
-4.1872 -37.4776 -2.7131 44 160 44
-4.1872 -37.5957 -2.6529 44 160 44
-3.9975 -35.0056 -2.6129 44 160 44
-3.9975 -35.1593 -2.6469 44 160 44
-3.9976 -35.535 -2.7028 44 160 44
-3.9976 -35.8826 -2.728 44 160 44
-3.9977 -36.184 -2.6867 44 160 44
-3.9977 -36.0901 -2.7459 44 160 44
-3.9977 -36.277 -2.6505 44 160 44
-3.9977 -36.5088 -2.6673 44 160 44
-3.9978 -36.5959 -2.6679 44 160 44
-3.9978 -36.7511 -2.6562 44 160 44
-3.9978 -36.8427 -2.6657 44 160 44
-3.9978 -36.9541 -2.6651 44 160 44
-3.9978 -37.1138 -2.6624 44 160 44
-3.9979 -37.2206 -2.6529 44 160 44
-3.9979 -37.3561 -2.6513 44 160 44
-3.9979 -37.556 -2.6056 44 160 44
-3.9979 -37.6726 -2.5911 44 160 44
-3.9979 -37.6265 -2.6708 44 160 44
-3.9044 -34.9723 -2.561 44 160 44
-3.9044 -35.1064 -2.6051 44 160 44
-3.9044 -35.5404 -2.6537 44 160 44
-3.9045 -35.9744 -2.7023 44 160 44
-3.9045 -36.1236 -2.7274 44 160 44
-3.9045 -36.2802 -2.67 44 160 44
-3.9045 -36.4052 -2.6962 44 160 44
-3.9046 -36.5408 -2.6945 44 160 44
-3.9046 -36.6293 -2.6493 44 160 44
-3.9046 -36.7353 -2.6628 44 160 44
-3.9046 -36.886 -2.6421 44 160 44
-3.9046 -37.0208 -2.6633 44 160 44
-3.9046 -37.176 -2.6516 44 160 44
-3.9046 -37.2684 -2.6383 44 160 44
-3.9046 -37.3646 -2.6567 44 160 44
-3.9047 -37.6129 -2.6087 44 160 44
-3.9047 -37.7281 -2.64 44 160 44
-3.8074 -34.9325 -2.6031 44 160 44
-3.8074 -35.627 -2.6762 44 160 44
-3.8075 -35.7239 -2.6718 44 160 44
-3.8075 -35.9571 -2.6428 44 160 44
-3.8075 -36.2563 -2.6702 44 160 44
-3.8075 -36.3395 -2.6389 44 160 44
-3.8075 -36.4842 -2.6551 44 160 44
-3.8075 -36.4002 -2.7092 44 160 44
-3.8075 -36.6288 -2.6713 44 160 44
-3.8075 -36.7795 -2.6507 44 160 44
-3.8075 -36.6994 -2.7366 44 160 44
-3.8075 -36.8666 -2.6512 44 160 44
-3.8075 -36.8205 -2.731 44 160 44
-3.8075 -36.9923 -2.6546 44 160 44
-3.8075 -37.0839 -2.6641 44 160 44
-3.8076 -37.3262 -2.653 44 160 44
-3.8076 -37.2468 -2.716 44 160 44
-3.8076 -37.4179 -2.6624 44 160 44
-3.8076 -37.6722 -2.5777 44 160 44
-3.8076 -37.5928 -2.6407 44 160 44
-3.8076 -37.4786 -2.7328 44 160 44
-3.8076 -37.7473 -2.6519 44 160 44
-3.7109 -34.9994 -2.5706 44 160 44
-3.7109 -35.2402 -2.6053 44 160 44
-3.7109 -35.6061 -2.6662 44 160 44
-3.7109 -35.7083 -2.6478 44 160 44
-3.7109 -35.9271 -2.6149 44 160 44
-3.7109 -36.0285 -2.6194 44 160 44
-3.711 -36.0112 -2.707 44 160 44
-3.711 -36.2361 -2.6373 44 160 44
-3.711 -36.4201 -2.6334 44 160 44
-3.711 -36.3308 -2.7014 44 160 44
-3.711 -36.6208 -2.711 44 160 44
-3.711 -36.7329 -2.6876 44 160 44
-3.711 -36.8653 -2.6312 44 160 44
-3.711 -37.0486 -2.6503 44 160 44
-3.711 -37.2084 -2.6475 44 160 44
-3.7111 -37.3053 -2.643 44 160 44
-3.7111 -37.5037 -2.6431 44 160 44
-3.7111 -37.4296 -2.6922 44 160 44
-3.7111 -37.6066 -2.6018 44 160 44
-3.7111 -37.6997 -2.5656 44 160 44
-3.7111 -37.7702 -2.6309 44 160 44
-3.6214 -34.9777 -2.5465 44 160 44
-3.6214 -34.9036 -2.5956 44 160 44
-3.6214 -35.0687 -2.5789 44 160 44
-3.6215 -35.2452 -2.6576 44 160 44
-3.6215 -35.6389 -2.603 44 160 44
-3.6215 -35.5103 -2.6911 44 160 44
-3.6216 -35.7404 -2.6075 44 160 44
-3.6216 -35.9776 -2.7565 44 160 44
-3.6219 -37.6584 -2.5513 44 160 44
-3.6219 -37.5396 -2.6345 44 160 44
-3.6219 -37.7441 -2.5977 44 160 44
-3.6219 -37.2764 -2.8476 44 160 44
-3.6219 -37.3892 -2.8013 44 160 44
-3.5227 -34.9373 -2.5229 44 160 44
-3.5227 -35.0683 -2.5123 44 160 44
-3.5227 -35.1599 -2.5218 44 160 44
-3.5227 -35.2434 -2.6368 44 160 44
-3.5228 -35.3729 -2.6719 44 160 44
-3.5228 -35.5402 -2.5866 44 160 44
-3.5228 -35.4744 -2.6764 44 160 44
-3.5228 -35.6947 -2.5978 44 160 44
-3.5228 -35.7834 -2.6988 44 160 44
-3.5231 -37.5129 -2.6378 44 160 44
-3.5231 -37.6552 -2.5764 44 160 44
-3.5231 -37.6091 -2.6562 44 160 44
-3.5231 -37.3677 -2.7906 44 160 44
-3.5231 -37.51 -2.7293 44 160 44
-3.5231 -37.731 -2.6278 44 160 44
-3.3313 -35.8269 -1.8994 44 160 44
-3.3313 -36.0078 -1.8408 44 160 44
-3.3313 -35.9329 -1.9128 44 160 44
-3.3313 -36.1668 -1.8609 44 160 44
-3.3313 -36.073 -1.9201 44 160 44
-3.3314 -34.9396 -2.566 44 160 44
-3.3314 -35.0516 -2.5426 44 160 44
-3.3315 -35.2464 -2.657 44 160 44
-3.3315 -35.4107 -2.6632 44 160 44
-3.3315 -35.6348 -2.6163 44 160 44
-3.3315 -35.7689 -2.6604 44 160 44
-3.3316 -37.5379 -2.7254 44 160 44
-3.2366 -35.6905 -1.9243 44 160 44
-3.2366 -35.7882 -1.897 44 160 44
-3.2366 -36.0948 -1.8418 44 160 44
-3.2366 -36.0343 -1.9177 44 160 44
-3.2368 -34.9894 -2.5184 44 160 44
-3.2366 -36.16 -1.921 44 160 44
-3.2368 -34.9047 -2.5954 44 160 44
-3.2368 -35.2803 -2.6512 44 160 44
-3.2368 -35.5543 -2.5564 44 160 44
-3.0417 -35.6395 -1.8263 44 160 44
-3.0417 -35.8144 -1.8046 44 160 44
-3.0417 -35.71 -1.8916 44 160 44
-3.0418 -35.6352 -1.9636 44 160 44
-3.0417 -35.9401 -1.8079 44 160 44
-3.0417 -36.0462 -1.8213 44 160 44
-3.0418 -35.627 -2.069 44 160 44
-3.0417 -36.1385 -1.808 44 160 44
-3.0419 -35.5476 -2.132 44 160 44
-3.0416 -36.2491 -1.8303 44 160 44
-3.0417 -36.1455 -1.8945 44 160 44
-3.0421 -34.9839 -2.5097 44 160 44
-3.0421 -34.8947 -2.5777 44 160 44
-3.0419 -35.5084 -2.2983 44 160 44
-3.0419 -35.6 -2.3078 44 160 44
-3.0421 -35.1226 -2.5627 44 160 44
-3.042 -35.4957 -2.3948 44 160 44
-3.0421 -35.2703 -2.6336 44 160 44
-3.042 -35.5011 -2.5271 44 160 44
-2.9456 -35.689 -1.7985 44 160 44
-2.9456 -35.6187 -1.8794 44 160 44
-2.9456 -35.7641 -1.8727 44 160 44
-2.9456 -35.9116 -1.7974 44 160 44
-2.9457 -35.5908 -1.9949 44 160 44
-2.9455 -36.0373 -1.8008 44 160 44
-2.9455 -36.135 -1.7735 44 160 44
-2.9457 -35.6023 -2.0903 44 160 44
-2.9457 -35.5373 -2.1573 44 160 44
-2.9456 -36.0882 -1.8761 44 160 44
-2.9456 -36.1806 -1.8627 44 160 44
-2.9459 -34.9895 -2.4931 44 160 44
-2.9459 -34.9056 -2.5472 44 160 44
-2.9459 -35.0773 -2.4708 44 160 44
-2.9458 -35.4792 -2.3107 44 160 44
-2.9457 -35.5723 -2.2744 44 160 44
-2.9455 -36.5462 -1.7774 44 160 44
-2.9455 -36.4766 -1.8354 44 160 44
-2.9458 -35.4566 -2.4122 44 160 44
-2.9459 -35.2138 -2.5924 44 160 44
-2.9458 -35.4583 -2.5127 44 160 44
-2.9459 -35.4403 -2.6231 44 160 44
-2.8489 -35.6591 -1.8143 44 160 44
-2.8489 -35.7546 -1.8556 44 160 44
-2.8489 -35.9067 -1.7892 44 160 44
-2.8489 -35.6403 -1.9476 44 160 44
-2.8489 -36.0074 -1.8166 44 160 44
-2.8489 -35.9378 -1.8746 44 160 44
-2.849 -35.5194 -2.0994 44 160 44
-2.849 -35.6178 -2.0492 44 160 44
-2.8489 -36.1286 -1.811 44 160 44
-2.8491 -34.9013 -2.5161 44 160 44
-2.8491 -34.999 -2.4888 44 160 44
-2.849 -35.5635 -2.2344 44 160 44
-2.849 -35.4546 -2.3125 44 160 44
-2.8491 -35.4176 -2.4102 44 160 44
-2.8491 -35.5205 -2.3689 44 160 44
-2.8491 -35.2338 -2.5602 44 160 44
-2.8491 -35.336 -2.5418 44 160 44
-2.756 -35.6345 -1.8154 44 160 44
-2.7561 -35.5975 -1.913 44 160 44
-2.756 -35.8533 -1.7825 44 160 44
-2.756 -35.7443 -1.8606 44 160 44
-2.756 -36.032 -1.7926 44 160 44
-2.7561 -35.889 -1.8768 44 160 44
-2.756 -36.1152 -1.7613 44 160 44
-2.7561 -35.5689 -2.0514 44 160 44
-2.756 -36.2076 -1.748 44 160 44
-2.7561 -35.9859 -1.8723 44 160 44
-2.756 -36.0979 -1.8489 44 160 44
-2.7561 -35.5319 -2.149 44 160 44
-2.7562 -34.9698 -2.4809 44 160 44
-2.7562 -34.9093 -2.5568 44 160 44
-2.7561 -36.3054 -1.8668 44 160 44
-2.7562 -35.4686 -2.3164 44 160 44
-2.7562 -35.5556 -2.317 44 160 44
-2.7562 -35.1705 -2.5585 44 160 44
-2.7562 -35.4657 -2.4079 44 160 44
-2.7562 -35.3939 -2.5345 44 160 44
-2.7563 -35.2751 -2.6177 44 160 44
-2.7561 -36.8992 -1.9126 44 160 44
-2.7561 -37.046 -1.8602 44 160 44
-2.7561 -36.9856 -1.9361 44 160 44
-2.7561 -37.1218 -1.9116 44 160 44
-2.6626 -35.6564 -1.8029 44 160 44
-2.6627 -35.596 -1.8788 44 160 44
-2.6627 -35.8169 -1.7772 44 160 44
-2.6627 -35.7421 -1.8492 44 160 44
-2.6627 -35.6272 -1.9641 44 160 44
-2.6627 -35.5333 -2.0233 44 160 44
-2.6627 -36.0888 -1.751 44 160 44
-2.6627 -35.5206 -2.1198 44 160 44
-2.6627 -36.1842 -1.7923 44 160 44
-2.6628 -34.904 -2.4908 44 160 44
-2.6627 -36.2956 -1.7918 44 160 44
-2.6628 -35.5072 -2.2392 44 160 44
-2.6627 -36.3918 -1.8102 44 160 44
-2.6628 -35.1372 -2.4618 44 160 44
-2.6627 -36.4887 -1.8057 44 160 44
-2.6628 -35.0911 -2.5416 44 160 44
-2.6628 -35.4354 -2.3658 44 160 44
-2.6628 -35.5187 -2.3346 44 160 44
-2.6629 -35.1964 -2.5779 44 160 44
-2.6629 -35.456 -2.4791 44 160 44
-2.6628 -36.5873 -1.9017 44 160 44
-2.6629 -35.2934 -2.5734 44 160 44
-2.6628 -37.04 -1.8169 44 160 44
-2.6628 -37.1302 -1.8721 44 160 44
-2.4684 -35.8134 -1.7683 44 160 44
-2.4685 -35.5246 -2.0283 44 160 44
-2.4685 -35.6131 -1.9831 44 160 44
-2.4685 -36.055 -1.78 44 160 44
-2.4684 -36.1435 -1.7348 44 160 44
-2.4685 -35.5073 -2.1159 44 160 44
-2.4686 -34.8899 -2.5098 44 160 44
-2.4686 -35.5332 -2.2152 44 160 44
-2.4685 -36.364 -1.8024 44 160 44
-2.4685 -36.4602 -1.8208 44 160 44
-2.4686 -35.5204 -2.3117 44 160 44
-2.4686 -35.4357 -2.3887 44 160 44
-2.4687 -35.2308 -2.5946 44 160 44
-2.4687 -35.4307 -2.5489 44 160 44
-2.4687 -35.3467 -2.603 44 160 44
-2.4685 -36.9904 -1.8877 44 160 44
-2.4686 -36.9057 -1.9647 44 160 44
-2.3717 -35.8026 -1.7511 44 160 44
-2.3717 -35.6688 -1.8532 44 160 44
-2.3717 -35.5833 -1.9531 44 160 44
-2.3717 -36.1335 -1.6948 44 160 44
-2.3717 -36.0965 -1.7924 44 160 44
-2.3718 -35.5797 -2.0675 44 160 44
-2.3717 -36.229 -1.7361 44 160 44
-2.3718 -35.5101 -2.1255 44 160 44
-2.3718 -34.8928 -2.5194 44 160 44
-2.3718 -35.0056 -2.4731 44 160 44
-2.3718 -35.4717 -2.2689 44 160 44
-2.3718 -36.3124 -1.851 44 160 44
-2.3718 -35.459 -2.3654 44 160 44
-2.3719 -35.226 -2.5406 44 160 44
-2.3719 -35.4463 -2.4619 44 160 44
-2.3719 -35.3548 -2.5986 44 160 44
-2.2757 -35.6555 -1.7699 44 160 44
-2.2757 -35.5951 -1.8458 44 160 44
-2.2757 -35.7556 -1.8201 44 160 44
-2.2758 -35.6308 -1.9401 44 160 44
-2.2757 -36.0288 -1.7481 44 160 44
-2.2757 -36.1461 -1.7108 44 160 44
-2.2758 -35.5008 -2.074 44 160 44
-2.2758 -35.5984 -2.0467 44 160 44
-2.2757 -36.119 -1.8034 44 160 44
-2.2757 -36.2114 -1.79 44 160 44
-2.2757 -36.3083 -1.7855 44 160 44
-2.2759 -34.9063 -2.5126 44 160 44
-2.2758 -35.4609 -2.2631 44 160 44
-2.2759 -35.0032 -2.5081 44 160 44
-2.2759 -35.1546 -2.4646 44 160 44
-2.2758 -35.548 -2.2637 44 160 44
-2.2758 -36.3493 -1.8659 44 160 44
-2.2759 -35.4293 -2.3468 44 160 44
-2.2757 -36.5309 -1.7844 44 160 44
-2.2759 -35.1039 -2.5354 44 160 44
-2.2758 -36.4357 -1.8893 44 160 44
-2.2759 -35.204 -2.5856 44 160 44
-2.2759 -35.3803 -2.5181 44 160 44
-2.2759 -35.4681 -2.4958 44 160 44
-2.1779 -35.7041 -1.7454 44 160 44
-2.1779 -35.6232 -1.8542 44 160 44
-2.1779 -35.7208 -1.8269 44 160 44
-2.1779 -35.8079 -1.8274 44 160 44
-2.1779 -36.0629 -1.7197 44 160 44
-2.178 -35.6445 -1.9446 44 160 44
-2.1779 -35.9003 -1.814 44 160 44
-2.1779 -36.1894 -1.7002 44 160 44
-2.178 -35.603 -2.0333 44 160 44
-2.1779 -35.9965 -1.8324 44 160 44
-2.178 -35.5191 -2.0874 44 160 44
-2.1781 -34.9903 -2.4362 44 160 44
-2.1779 -36.2395 -1.7984 44 160 44
-2.178 -35.5548 -2.1817 44 160 44
-2.1781 -35.4603 -2.2637 44 160 44
-2.1782 -35.0411 -2.5115 44 160 44
-2.1779 -36.5999 -1.727 44 160 44
-2.1781 -35.5519 -2.2732 44 160 44
-2.1779 -36.447 -1.8162 44 160 44
-2.1779 -36.5394 -1.8028 44 160 44
-2.1781 -35.4619 -2.3642 44 160 44
-2.1782 -35.1563 -2.5427 44 160 44
-2.1782 -35.2465 -2.598 44 160 44
-2.1782 -35.4137 -2.5126 44 160 44
-2.08 -35.6329 -1.7604 44 160 44
-2.08 -35.7533 -1.7777 44 160 44
-2.08 -35.8562 -1.7365 44 160 44
-2.08 -35.6422 -1.9245 44 160 44
-2.08 -35.9865 -1.7487 44 160 44
-2.08 -35.8874 -1.8218 44 160 44
-2.08 -35.5674 -1.9964 44 160 44
-2.08 -36.1077 -1.7432 44 160 44
-2.08 -35.5114 -2.0812 44 160 44
-2.08 -36.057 -1.814 44 160 44
-2.08 -36.2243 -1.7287 44 160 44
-2.0801 -34.879 -2.494 44 160 44
-2.0801 -34.9721 -2.4578 44 160 44
-2.0801 -35.5176 -2.1906 44 160 44
-2.08 -36.2751 -1.804 44 160 44
-2.0801 -35.4473 -2.2715 44 160 44
-2.0801 -35.0577 -2.5041 44 160 44
-2.0801 -35.5337 -2.2949 44 160 44
-2.0801 -35.449 -2.3719 44 160 44
-2.0801 -35.1486 -2.5365 44 160 44
-2.0801 -35.4166 -2.4785 44 160 44
-2.0801 -35.2434 -2.6006 44 160 44
-2.0801 -35.3698 -2.5811 44 160 44
-1.983 -35.659 -1.7352 44 160 44
-1.983 -35.8188 -1.7324 44 160 44
-1.983 -35.7583 -1.8083 44 160 44
-1.983 -35.9203 -1.7368 44 160 44
-1.983 -35.5753 -1.9355 44 160 44
-1.983 -36.0074 -1.7374 44 160 44
-1.983 -36.1057 -1.6872 44 160 44
-1.983 -35.5717 -2.0498 44 160 44
-1.983 -36.0779 -1.8027 44 160 44
-1.983 -36.1861 -1.7475 44 160 44
-1.9831 -34.8968 -2.4281 44 160 44
-1.983 -36.2785 -1.7341 44 160 44
-1.9831 -34.9915 -2.4923 44 160 44
-1.9831 -35.4334 -2.2892 44 160 44
-1.9831 -35.5462 -2.2429 44 160 44
-1.9831 -35.1923 -2.5698 44 160 44
-1.9831 -35.4572 -2.4571 44 160 44
-1.9831 -35.3271 -2.591 44 160 44
-1.9831 -36.9255 -1.9327 44 160 44
-1.9831 -37.0238 -1.8825 44 160 44
-1.9831 -37.1116 -1.8602 44 160 44
-1.7927 -35.6091 -1.7829 44 160 44
-1.7927 -35.6976 -1.7378 44 160 44
-1.7928 -35.8627 -1.721 44 160 44
-1.7928 -35.6395 -1.8912 44 160 44
-1.7928 -35.545 -1.9732 44 160 44
-1.7928 -36.027 -1.7272 44 160 44
-1.7928 -35.9665 -1.803 44 160 44
-1.7928 -36.1875 -1.7015 44 160 44
-1.7928 -35.5172 -2.0887 44 160 44
-1.7928 -36.0975 -1.7924 44 160 44
-1.7928 -36.2535 -1.7579 44 160 44
-1.7928 -34.8945 -2.4965 44 160 44
-1.7928 -36.3406 -1.7584 44 160 44
-1.7928 -35.5385 -2.1791 44 160 44
-1.7928 -35.0059 -2.496 44 160 44
-1.7928 -35.4334 -2.289 44 160 44
-1.7928 -35.5454 -2.2656 44 160 44
-1.7929 -35.2256 -2.5864 44 160 44
-1.7929 -35.4715 -2.4608 44 160 44
-1.7929 -35.3566 -2.5758 44 160 44
-1.7929 -36.8806 -1.8204 44 160 44
-1.7929 -36.9957 -1.8516 44 160 44
-1.7929 -37.1039 -1.7964 44 160 44
-1.6974 -35.7033 -1.724 44 160 44
-1.6974 -35.6618 -1.8127 44 160 44
-1.6974 -35.8873 -1.7201 44 160 44
-1.6974 -36.0229 -1.7184 44 160 44
-1.6974 -35.5152 -2.0113 44 160 44
-1.6974 -35.6181 -1.97 44 160 44
-1.6974 -36.138 -1.7497 44 160 44
-1.6974 -36.0586 -1.8127 44 160 44
-1.6974 -34.9161 -2.4409 44 160 44
-1.6974 -36.2978 -1.7469 44 160 44
-1.6974 -35.0214 -2.4772 44 160 44
-1.6974 -35.5624 -2.201 44 160 44
-1.6974 -35.483 -2.2641 44 160 44
-1.6975 -35.446 -2.3617 44 160 44
-1.6975 -35.1404 -2.5402 44 160 44
-1.6975 -35.3599 -2.4845 44 160 44
-1.6975 -35.4575 -2.4571 44 160 44
-1.6975 -35.2942 -2.5743 44 160 44
-1.6975 -35.4108 -2.5598 44 160 44
-1.6975 -37.0226 -1.7821 44 160 44
-1.6975 -36.9083 -1.8742 44 160 44
-1.6976 -37.0787 -1.8435 44 160 44
-1.6008 -35.628 -1.7297 44 160 44
-1.6009 -35.7031 -1.8039 44 160 44
-1.6008 -35.6184 -1.8809 44 160 44
-1.6009 -35.8341 -1.7933 44 160 44
-1.6009 -36.0884 -1.7086 44 160 44
-1.6009 -35.5557 -2.0254 44 160 44
-1.6009 -36.2239 -1.7069 44 160 44
-1.6009 -36.056 -1.8151 44 160 44
-1.6009 -36.1589 -1.7739 44 160 44
-1.6008 -34.8688 -2.4773 44 160 44
-1.6008 -35.0845 -2.3897 44 160 44
-1.6008 -34.9808 -2.4538 44 160 44
-1.6009 -35.5559 -2.1716 44 160 44
-1.6009 -35.4621 -2.2307 44 160 44
-1.6008 -35.0816 -2.4812 44 160 44
-1.6008 -35.1603 -2.441 44 160 44
-1.6009 -35.4494 -2.3272 44 160 44
-1.6009 -35.28 -2.4812 44 160 44
-1.6009 -35.1907 -2.5493 44 160 44
-1.6009 -35.4366 -2.4238 44 160 44
-1.6009 -35.4186 -2.5342 44 160 44
-1.5062 -35.6089 -1.8069 44 160 44
-1.5062 -35.7059 -1.8025 44 160 44
-1.5062 -35.8081 -1.7841 44 160 44
-1.5063 -36.0525 -1.7043 44 160 44
-1.5062 -35.5062 -1.9944 44 160 44
-1.5063 -35.9194 -1.7835 44 160 44
-1.5062 -35.5993 -1.9581 44 160 44
-1.5063 -36.0209 -1.788 44 160 44
-1.5063 -36.148 -1.7456 44 160 44
-1.5063 -36.2457 -1.7182 44 160 44
-1.5063 -36.5885 -1.5882 44 160 44
-1.5062 -35.5254 -2.1534 44 160 44
-1.5062 -34.9103 -2.4787 44 160 44
-1.5062 -34.9889 -2.4385 44 160 44
-1.5063 -36.5038 -1.6652 44 160 44
-1.5063 -36.3011 -1.8025 44 160 44
-1.5063 -36.4721 -1.7489 44 160 44
-1.5063 -35.5028 -2.255 44 160 44
-1.5063 -36.5849 -1.7026 44 160 44
-1.5063 -35.428 -2.3269 44 160 44
-1.5062 -35.2305 -2.4502 44 160 44
-1.5063 -35.4479 -2.4631 44 160 44
-1.5063 -35.2754 -2.5624 44 160 44
-1.4117 -35.6099 -1.7382 44 160 44
-1.4118 -35.6857 -1.7895 44 160 44
-1.4118 -35.5715 -1.8816 44 160 44
-1.4118 -35.778 -1.7761 44 160 44
-1.4118 -35.9983 -1.6975 44 160 44
-1.4118 -35.8894 -1.7756 44 160 44
-1.4118 -36.1641 -1.6579 44 160 44
-1.4118 -35.5875 -1.9859 44 160 44
-1.4118 -36.0938 -1.7388 44 160 44
-1.4118 -35.5081 -2.049 44 160 44
-1.4118 -36.249 -1.7271 44 160 44
-1.4118 -35.5393 -2.1343 44 160 44
-1.4118 -34.8992 -2.4836 44 160 44
-1.4118 -35.0172 -2.4233 44 160 44
-1.4118 -35.4244 -2.2493 44 160 44
-1.4118 -35.5364 -2.2258 44 160 44
-1.4118 -35.3066 -2.4557 44 160 44
-1.4118 -35.2127 -2.5149 44 160 44
-1.4118 -35.4481 -2.4172 44 160 44
-1.4119 -35.3423 -2.55 44 160 44
-1.3105 -35.6102 -1.761 44 160 44
-1.3105 -35.6413 -1.8463 44 160 44
-1.3105 -35.7692 -1.7811 44 160 44
-1.3105 -35.9115 -1.7197 44 160 44
-1.3105 -36.0713 -1.7169 44 160 44
-1.3106 -35.5053 -2.0171 44 160 44
-1.3105 -36.2037 -1.6606 44 160 44
-1.3106 -35.6082 -1.9758 44 160 44
-1.3105 -36.1576 -1.7403 44 160 44
-1.3106 -34.9652 -2.4166 44 160 44
-1.3105 -36.2637 -1.7537 44 160 44
-1.3106 -35.5305 -2.1393 44 160 44
-1.3106 -34.9002 -2.4835 44 160 44
-1.3106 -35.1447 -2.4037 44 160 44
-1.3106 -35.0456 -2.4768 44 160 44
-1.3106 -35.542 -2.2347 44 160 44
-1.3106 -35.4671 -2.3066 44 160 44
-1.3106 -35.1895 -2.5159 44 160 44
-1.3106 -35.2924 -2.4746 44 160 44
-1.3106 -35.4522 -2.4718 44 160 44
-1.3107 -35.3675 -2.5488 44 160 44
-1.3107 -37.5696 -2.5388 44 160 44
-1.2126 -35.6145 -1.7253 44 160 44
-1.2126 -35.887 -1.6762 44 160 44
-1.2126 -35.7047 -1.7806 44 160 44
-1.2126 -35.5451 -1.9295 44 160 44
-1.2126 -36.0415 -1.6874 44 160 44
-1.2126 -35.6329 -1.9072 44 160 44
-1.2126 -36.1339 -1.674 44 160 44
-1.2126 -36.0098 -1.7711 44 160 44
-1.2127 -35.5271 -2.04 44 160 44
-1.2126 -36.0976 -1.7488 44 160 44
-1.2126 -36.2543 -1.6913 44 160 44
-1.2126 -36.1847 -1.7494 44 160 44
-1.2127 -34.9536 -2.4227 44 160 44
-1.2127 -35.0854 -2.3892 44 160 44
-1.2127 -35.4342 -2.2224 44 160 44
-1.2127 -35.5462 -2.199 44 160 44
-1.2127 -35.1309 -2.4785 44 160 44
-1.2127 -35.2869 -2.4439 44 160 44
-1.2127 -35.2218 -2.5109 44 160 44
-1.2127 -35.4474 -2.4183 44 160 44
-1.2127 -37.4959 -2.5205 44 160 44
-1.0248 -35.7634 -1.6822 44 160 44
-1.0248 -35.8582 -1.7464 44 160 44
-1.0248 -36.005 -1.6939 44 160 44
-1.0248 -35.6403 -1.9026 44 160 44
-1.0248 -35.7372 -1.8981 44 160 44
-1.0248 -34.9965 -2.3661 44 160 44
-1.0248 -34.8777 -2.4492 44 160 44
-1.0248 -35.5656 -2.1207 44 160 44
-1.0248 -36.2785 -1.7682 44 160 44
-1.0248 -35.4612 -2.2077 44 160 44
-1.0248 -35.5529 -2.2172 44 160 44
-1.0248 -35.4295 -2.2914 44 160 44
-1.0249 -35.4266 -2.3829 44 160 44
-1.0249 -35.2527 -2.528 44 160 44
-1.0249 -35.3609 -2.4727 44 160 44
-1.0251 -37.5039 -2.4932 44 160 44
-1.0251 -37.6652 -2.4446 44 160 44
-0.9285 -34.8657 -2.399 44 160 44
-0.9284 -34.9732 -2.3667 44 160 44
-0.9284 -35.5303 -2.195 44 160 44
-0.9284 -35.7112 -2.1364 44 160 44
-0.9284 -35.4888 -2.2837 44 160 44
-0.9284 -35.6265 -2.2134 44 160 44
-0.9284 -35.781 -2.2246 44 160 44
-0.9285 -35.333 -2.4644 44 160 44
-0.9285 -35.5321 -2.4416 44 160 44
-0.9285 -37.6577 -2.4034 44 160 44
-0.9285 -37.6987 -2.4838 44 160 44
-0.7387 -34.9175 -2.3511 44 160 44
-0.7387 -34.8669 -2.4219 44 160 44
-0.7387 -34.9835 -2.4074 44 160 44
-0.7387 -35.1152 -2.3739 44 160 44
-0.7388 -35.2524 -2.4727 44 160 44
-0.7388 -35.4031 -2.4521 44 160 44
-0.7388 -35.5007 -2.4248 44 160 44
-0.7387 -35.6514 -2.4041 44 160 44
-0.7388 -35.5811 -2.485 44 160 44
-0.7388 -37.0927 -2.58 44 160 44
-0.7388 -37.263 -2.5494 44 160 44
-0.7388 -37.366 -2.5081 44 160 44
-0.7388 -37.4886 -2.4568 44 160 44
-0.7388 -37.6066 -2.3965 44 160 44
-0.7388 -37.4713 -2.5444 44 160 44
-0.7388 -37.6037 -2.488 44 160 44
-0.7388 -37.7316 -2.4228 44 160 44
-0.6451 -34.9252 -2.3453 44 160 44
-0.6452 -34.9027 -2.4468 44 160 44
-0.6452 -35.2889 -2.4748 44 160 44
-0.6452 -35.41 -2.4692 44 160 44
-0.6452 -35.5312 -2.4637 44 160 44
-0.6452 -35.725 -2.4548 44 160 44
-0.6452 -35.6411 -2.5089 44 160 44
-0.6452 -35.8469 -2.4263 44 160 44
-0.6453 -35.8008 -2.5061 44 160 44
-0.6453 -35.9364 -2.5044 44 160 44
-0.6453 -36.0273 -2.5368 44 160 44
-0.6453 -36.7307 -2.4817 44 160 44
-0.6453 -36.8012 -2.547 44 160 44
-0.6454 -37.0004 -2.5241 44 160 44
-0.6454 -37.1678 -2.585 44 160 44
-0.6454 -37.6097 -2.382 44 160 44
-0.6454 -37.329 -2.5365 44 160 44
-0.6454 -37.6855 -2.4333 44 160 44
-0.6453 -36.0446 -2.4492 44 160 44
-0.6453 -36.1446 -2.4995 44 160 44
-0.6453 -36.2521 -2.4671 44 160 44
-0.6453 -36.3082 -2.5285 44 160 44
-0.6453 -36.3915 -2.4973 44 160 44
-0.6453 -36.5278 -2.4727 44 160 44
-0.6453 -36.63 -2.4543 44 160 44
-0.6453 -36.8859 -2.47 44 160 44
-0.6454 -37.1131 -2.4778 44 160 44
-0.6454 -37.2539 -2.4622 44 160 44
-0.6454 -37.3948 -2.4466 44 160 44
-0.4496 -35.2793 -2.5249 44 160 44
-0.4496 -35.6305 -2.4357 44 160 44
-0.4496 -35.8774 -2.4335 44 160 44
-0.4496 -35.9743 -2.429 44 160 44
-0.4496 -35.8313 -2.5132 44 160 44
-0.4496 -36.0614 -2.4296 44 160 44
-0.4496 -35.9426 -2.5127 44 160 44
-0.4496 -36.1916 -2.4418 44 160 44
-0.4496 -36.3205 -2.4999 44 160 44
-0.4496 -36.4234 -2.4586 44 160 44
-0.4496 -36.5786 -2.4469 44 160 44
-0.4496 -36.5136 -2.5138 44 160 44
-0.4496 -36.6734 -2.5111 44 160 44
-0.4496 -36.7907 -2.4737 44 160 44
-0.4496 -36.9171 -2.4542 44 160 44
-0.4496 -37.0435 -2.4346 44 160 44
-0.4496 -37.1882 -2.4508 44 160 44
-0.4496 -37.3245 -2.4263 44 160 44
-0.4496 -37.485 -2.4006 44 160 44
-0.4496 -37.4147 -2.4815 44 160 44
-0.4496 -37.6244 -2.4308 44 160 44
-0.2581 -35.0391 -2.322 44 160 44
-0.2581 -34.965 -2.3711 44 160 44
-0.2581 -35.1982 -2.3421 44 160 44
-0.2582 -35.1233 -2.4141 44 160 44
-0.2582 -35.243 -2.4542 44 160 44
-0.2582 -35.3702 -2.4119 44 160 44
-0.2582 -35.4769 -2.4024 44 160 44
-0.2582 -35.5875 -2.4247 44 160 44
-0.2582 -35.7276 -2.432 44 160 44
-0.2582 -35.6535 -2.4811 44 160 44
-0.2582 -35.8397 -2.4086 44 160 44
-0.2582 -35.9555 -2.417 44 160 44
-0.2582 -36.1153 -2.4142 44 160 44
-0.2582 -36.0404 -2.4861 44 160 44
-0.2582 -36.3144 -2.3913 44 160 44
-0.2582 -36.2252 -2.4594 44 160 44
-0.2582 -36.3993 -2.4605 44 160 44
-0.2582 -36.5114 -2.4371 44 160 44
-0.2582 -36.6378 -2.4176 44 160 44
-0.2582 -36.4653 -2.5169 44 160 44
-0.2582 -36.5963 -2.5063 44 160 44
-0.2582 -36.7129 -2.4918 44 160 44
-0.2582 -36.8158 -2.4505 44 160 44
-0.2582 -36.9415 -2.4539 44 160 44
-0.2582 -37.0732 -2.4204 44 160 44
-0.2582 -37.1951 -2.392 44 160 44
-0.2582 -37.2822 -2.3926 44 160 44
-0.2582 -37.3837 -2.397 44 160 44
-0.2582 -37.2937 -2.488 44 160 44
-0.2582 -37.4542 -2.4623 44 160 44
-0.2582 -37.5557 -2.4668 44 160 44
-0.1614 -35.1011 -2.3466 44 160 44
-0.1614 -35.223 -2.3181 44 160 44
-0.1614 -35.3328 -2.3633 44 160 44
-0.1614 -35.4979 -2.3466 44 160 44
-0.1614 -35.423 -2.4186 44 160 44
-0.1614 -35.6524 -2.3578 44 160 44
-0.1614 -35.573 -2.4208 44 160 44
-0.1614 -35.7834 -2.3472 44 160 44
-0.1614 -35.7176 -2.437 44 160 44
-0.1614 -35.8191 -2.4415 44 160 44
-0.1614 -36.0614 -2.4304 44 160 44
-0.1614 -36.1939 -2.374 44 160 44
-0.1614 -36.2908 -2.3696 44 160 44
-0.1614 -36.3613 -2.4348 44 160 44
-0.1614 -36.4673 -2.4482 44 160 44
-0.1614 -36.7936 -2.383 44 160 44
-0.1614 -36.7044 -2.4511 44 160 44
-0.1615 -36.6249 -2.5141 44 160 44
-0.1614 -36.9095 -2.3914 44 160 44
-0.1614 -36.7907 -2.4745 44 160 44
-0.1614 -37.0594 -2.3936 44 160 44
-0.1614 -37.176 -2.3791 44 160 44
-0.1614 -37.0035 -2.4784 44 160 44
-0.1614 -37.1201 -2.4639 44 160 44
-0.1614 -37.3207 -2.3953 44 160 44
-0.1614 -37.2367 -2.4494 44 160 44
-0.1614 -37.3715 -2.4707 44 160 44
-5.5533 -36.2755 -2.7285 44 160 44
-5.528 -36.1871 -2.8046 44 160 44
-5.5217 -36.3417 -2.8237 44 160 44
-5.4325 -36.0434 -2.7945 44 160 44
-5.4325 -36.1428 -2.7945 44 160 44
-5.4294 -36.2312 -2.8041 44 160 44
-5.4231 -36.3195 -2.8231 44 160 44
-5.4231 -36.6177 -2.8232 44 160 44
-5.2776 -35.9549 -2.689 44 160 44
-5.2713 -36.1426 -2.7081 44 160 44
-5.2428 -36.3745 -2.7938 44 160 44
-5.2428 -36.5402 -2.7938 44 160 44
-5.2397 -36.2641 -2.8032 44 160 44
-5.2365 -36.6396 -2.8128 44 160 44
-5.1821 -35.9237 -2.6888 44 160 44
-5.1726 -36.0231 -2.7173 44 160 44
-5.1505 -36.4538 -2.7839 44 160 44
-5.1473 -36.3434 -2.7934 44 160 44
-5.141 -36.7189 -2.8125 44 160 44
-5.0796 -36.0903 -2.7075 44 160 44
-5.0765 -36.8303 -2.7171 44 160 44
-5.0543 -36.2781 -2.7836 44 160 44
-5.048 -36.4989 -2.8027 44 160 44
-5.048 -36.6646 -2.8027 44 160 44
-5.048 -36.764 -2.8027 44 160 44
-4.9913 -36.1336 -2.6876 44 160 44
-4.9882 -36.9067 -2.6973 44 160 44
-4.985 -36.8073 -2.7068 44 160 44
-4.9819 -36.0452 -2.7161 44 160 44
-4.9787 -36.233 -2.7257 44 160 44
-4.9787 -36.3545 -2.7257 44 160 44
-4.9755 -36.6306 -2.7353 44 160 44
-4.9724 -36.5312 -2.7448 44 160 44
-4.9661 -35.9458 -2.7636 44 160 44
-4.966 -36.741 -2.7638 44 160 44
-4.9629 -35.8133 -2.7731 44 160 44
-4.9629 -36.4428 -2.7733 44 160 44
-4.9629 -36.8625 -2.7734 44 160 44
-4.9597 -36.1557 -2.7827 44 160 44
-4.9534 -36.3103 -2.8018 44 160 44
-4.9502 -36.6526 -2.8114 44 160 44
-4.9199 -35.7303 -2.6094 44 160 44
-4.9009 -35.8628 -2.6665 44 160 44
-4.8946 -36.0395 -2.6856 44 160 44
-4.8946 -36.1389 -2.6856 44 160 44
-4.8914 -35.7745 -2.695 44 160 44
-4.8819 -36.3377 -2.7236 44 160 44
-4.8819 -36.4261 -2.7236 44 160 44
-4.8693 -36.1941 -2.7617 44 160 44
-4.8692 -36.9562 -2.7617 44 160 44
-4.8598 -36.5144 -2.7902 44 160 44
-4.8566 -36.3929 -2.7997 44 160 44
-4.8566 -36.6801 -2.7997 44 160 44
-4.8566 -36.7684 -2.7998 44 160 44
-4.8162 -35.7087 -2.6399 44 160 44
-4.8067 -35.8081 -2.6685 44 160 44
-4.8003 -36.1836 -2.6875 44 160 44
-4.7972 -36.283 -2.697 44 160 44
-4.7971 -36.9677 -2.6971 44 160 44
-4.7908 -36.4597 -2.7161 44 160 44
-4.7814 -35.8854 -2.7446 44 160 44
-4.7813 -36.548 -2.7446 44 160 44
-4.7782 -35.9958 -2.7541 44 160 44
-4.7719 -36.3824 -2.7731 44 160 44
-4.7687 -36.294 -2.7826 44 160 44
-4.7687 -36.8904 -2.7827 44 160 44
-4.7624 -36.78 -2.8017 44 160 44
-4.7592 -36.6585 -2.8112 44 160 44
-4.7411 -35.5534 -2.5822 44 160 44
-4.7316 -35.6528 -2.6107 44 160 44
-4.719 -35.7412 -2.6488 44 160 44
-4.7063 -35.9842 -2.6869 44 160 44
-4.7032 -36.2492 -2.6964 44 160 44
-4.7031 -37.0113 -2.6965 44 160 44
-4.7 -35.8295 -2.7059 44 160 44
-4.7 -36.4811 -2.7059 44 160 44
-4.6968 -36.8787 -2.7155 44 160 44
-4.6937 -36.6026 -2.725 44 160 44
-4.6873 -35.9179 -2.7439 44 160 44
-4.6873 -36.0615 -2.7439 44 160 44
-4.6873 -36.7904 -2.744 44 160 44
-4.6842 -36.1609 -2.7535 44 160 44
-4.6842 -37.0886 -2.7536 44 160 44
-4.681 -36.3707 -2.763 44 160 44
-4.6778 -36.945 -2.7726 44 160 44
-4.6715 -36.702 -2.7916 44 160 44
-4.5264 -35.8276 -2.6599 44 160 44
-4.5043 -36.4903 -2.7266 44 160 44
-4.4917 -37.0204 -2.7648 44 160 44
-4.4885 -36.667 -2.7742 44 160 44
-4.4822 -36.5565 -2.7932 44 160 44
-4.4822 -37.1087 -2.7933 44 160 44
-4.4791 -36.7553 -2.8028 44 160 44
-4.4539 -35.396 -2.5848 44 160 44
-4.454 -35.4843 -2.5848 44 160 44
-4.4318 -35.8377 -2.6515 44 160 44
-4.4287 -35.9261 -2.661 44 160 44
-4.4255 -36.0917 -2.6706 44 160 44
-4.4193 -36.5004 -2.6897 44 160 44
-4.394 -37.3287 -2.766 44 160 44
-4.3909 -37.1851 -2.7755 44 160 44
-4.3877 -36.8096 -2.7849 44 160 44
-4.3845 -36.666 -2.7944 44 160 44
-4.2745 -35.3251 -2.5489 44 160 44
-4.2618 -35.4797 -2.587 44 160 44
-4.2492 -35.3803 -2.625 44 160 44
-4.2303 -36.319 -2.6825 44 160 44
-4.2271 -35.5349 -2.6917 44 160 44
-4.2241 -37.3792 -2.7019 44 160 44
-4.2176 -35.833 -2.7203 44 160 44
-4.2176 -36.4405 -2.7206 44 160 44
-4.2114 -36.9485 -2.7398 44 160 44
-4.2114 -37.07 -2.7399 44 160 44
-4.2081 -36.2417 -2.749 44 160 44
-4.2082 -36.6834 -2.7492 44 160 44
-4.2082 -37.1804 -2.7494 44 160 44
-4.2051 -37.3019 -2.759 44 160 44
-4.2019 -36.584 -2.7682 44 160 44
-4.2019 -36.7828 -2.7683 44 160 44
-4.1677 -35.338 -2.5767 44 160 44
-4.1519 -35.4374 -2.6243 44 160 44
-4.1519 -35.5478 -2.6244 44 160 44
-4.1424 -35.8791 -2.653 44 160 44
-4.133 -36.3982 -2.6817 44 160 44
-4.1297 -35.4926 -2.6909 44 160 44
-4.1299 -36.2546 -2.6912 44 160 44
-4.13 -37.359 -2.6915 44 160 44
-4.1267 -36.5307 -2.7008 44 160 44
-4.1235 -35.7908 -2.71 44 160 44
-4.1204 -36.6191 -2.7198 44 160 44
-4.1205 -36.8621 -2.7199 44 160 44
-4.1173 -36.7516 -2.7294 44 160 44
-4.1173 -36.9614 -2.7295 44 160 44
-4.1142 -37.0608 -2.739 44 160 44
-4.1142 -37.1823 -2.739 44 160 44
-4.1142 -37.4363 -2.7391 44 160 44
-4.1109 -36.0558 -2.7482 44 160 44
-4.1111 -37.2707 -2.7486 44 160 44
-4.0921 -37.1271 -2.8056 44 160 44
-4.0808 -35.2285 -2.5573 44 160 44
-4.0713 -35.1401 -2.5859 44 160 44
-4.065 -35.35 -2.6049 44 160 44
-4.0556 -35.5708 -2.6335 44 160 44
-4.0493 -35.7365 -2.6526 44 160 44
-4.0461 -35.4604 -2.662 44 160 44
-4.0462 -35.8469 -2.6621 44 160 44
-4.043 -36.0899 -2.6717 44 160 44
-4.0402 -37.4373 -2.6815 44 160 44
-4.0368 -36.366 -2.6908 44 160 44
-4.0337 -36.6753 -2.7003 44 160 44
-4.0303 -35.6481 -2.7096 44 160 44
-4.0307 -37.5367 -2.71 44 160 44
-4.0241 -35.9684 -2.7287 44 160 44
-4.0212 -37.3489 -2.7385 44 160 44
-4.0178 -36.2777 -2.7478 44 160 44
-4.0178 -36.4544 -2.7478 44 160 44
-4.0147 -36.8078 -2.7574 44 160 44
-4.0148 -37.0287 -2.7575 44 160 44
-4.0115 -36.5758 -2.7669 44 160 44
-4.0116 -36.9072 -2.767 44 160 44
-4.0085 -37.2606 -2.7766 44 160 44
-3.9964 -35.1397 -2.5281 44 160 44
-3.9933 -35.0514 -2.5376 44 160 44
-3.9838 -35.217 -2.5661 44 160 44
-3.9775 -35.4821 -2.5852 44 160 44
-3.9712 -35.3937 -2.6042 44 160 44
-3.9649 -35.6367 -2.6233 44 160 44
-3.9617 -35.725 -2.6329 44 160 44
-3.9554 -35.9017 -2.6519 44 160 44
-3.9523 -36.0563 -2.6615 44 160 44
-3.9491 -35.46 -2.6708 44 160 44
-3.9428 -35.8023 -2.6899 44 160 44
-3.943 -37.4479 -2.6904 44 160 44
-3.9336 -37.5915 -2.7189 44 160 44
-3.9303 -36.6748 -2.7282 44 160 44
-3.9271 -36.8626 -2.7378 44 160 44
-3.9272 -37.1939 -2.7379 44 160 44
-3.924 -37.0834 -2.7473 44 160 44
-3.9177 -36.973 -2.7663 44 160 44
-3.9114 -37.3043 -2.7854 44 160 44
-3.9076 -35.0638 -2.4997 44 160 44
-3.8823 -35.2073 -2.5758 44 160 44
-3.8791 -35.4834 -2.5854 44 160 44
-3.8696 -35.3509 -2.6139 44 160 44
-3.8665 -35.6712 -2.6234 44 160 44
-3.8665 -35.7706 -2.6235 44 160 44
-3.8604 -37.5155 -2.6428 44 160 44
-3.8539 -36.1792 -2.6616 44 160 44
-3.8507 -35.2625 -2.6709 44 160 44
-3.8475 -35.4282 -2.6805 44 160 44
-3.8413 -35.87 -2.6996 44 160 44
-3.8381 -36.0577 -2.7091 44 160 44
-3.8382 -37.1511 -2.7093 44 160 44
-3.8383 -37.6591 -2.7094 44 160 44
-3.8351 -36.9081 -2.7188 44 160 44
-3.8319 -37.372 -2.7284 44 160 44
-3.8255 -36.5768 -2.7473 44 160 44
-3.8224 -37.0517 -2.7569 44 160 44
-3.8137 -34.9423 -2.4791 44 160 44
-3.7979 -35.0637 -2.5267 44 160 44
-3.7821 -35.1742 -2.5743 44 160 44
-3.7789 -35.4834 -2.5838 44 160 44
-3.7726 -35.3619 -2.6028 44 160 44
-3.7694 -35.5718 -2.6124 44 160 44
-3.7536 -35.8368 -2.66 44 160 44
-3.7536 -36.124 -2.66 44 160 44
-3.7505 -35.4392 -2.6694 44 160 44
-3.7441 -37.6591 -2.6888 44 160 44
-3.7378 -36.5326 -2.7077 44 160 44
-3.7378 -37.14 -2.7078 44 160 44
-3.7378 -37.5597 -2.7078 44 160 44
-3.7346 -36.9081 -2.7172 44 160 44
-3.7252 -36.4442 -2.7457 44 160 44
-3.722 -37.0075 -2.7553 44 160 44
-3.7188 -36.7976 -2.7648 44 160 44
-3.7188 -37.2173 -2.7649 44 160 44
-3.7156 -37.3278 -2.7744 44 160 44
-3.718 -35.0454 -2.4785 44 160 44
-3.7148 -34.946 -2.488 44 160 44
-3.7021 -35.1338 -2.5261 44 160 44
-3.6768 -35.3325 -2.6022 44 160 44
-3.6737 -35.5424 -2.6117 44 160 44
-3.6736 -35.8185 -2.6117 44 160 44
-3.6578 -36.0835 -2.6593 44 160 44
-3.6578 -36.5364 -2.6593 44 160 44
-3.6547 -35.4209 -2.6687 44 160 44
-3.6546 -36.6689 -2.6688 44 160 44
-3.6514 -36.9671 -2.6784 44 160 44
-3.6452 -35.6528 -2.6973 44 160 44
-3.6452 -35.7853 -2.6973 44 160 44
-3.6452 -35.9068 -2.6973 44 160 44
-3.6451 -37.6629 -2.6974 44 160 44
-3.6419 -37.3426 -2.7069 44 160 44
-3.6388 -36.1719 -2.7164 44 160 44
-3.6388 -36.2713 -2.7164 44 160 44
-3.6388 -36.8235 -2.7164 44 160 44
-3.6357 -36.4811 -2.7259 44 160 44
-3.6356 -37.0775 -2.7259 44 160 44
-3.6356 -37.2432 -2.726 44 160 44
-3.6325 -36.3928 -2.7354 44 160 44
-3.6324 -37.4972 -2.7355 44 160 44
-3.6293 -36.6247 -2.7449 44 160 44
-3.6293 -36.7131 -2.7449 44 160 44
-3.6293 -36.9118 -2.7449 44 160 44
-3.6198 -37.1659 -2.7735 44 160 44
-3.6306 -34.9991 -2.4571 44 160 44
-3.6211 -35.0874 -2.4857 44 160 44
-3.5895 -35.1868 -2.5808 44 160 44
-3.5863 -35.4298 -2.5903 44 160 44
-3.5863 -35.8274 -2.5904 44 160 44
-3.5831 -36.0483 -2.5999 44 160 44
-3.58 -35.3193 -2.6093 44 160 44
-3.5799 -35.9268 -2.6094 44 160 44
-3.5768 -36.236 -2.619 44 160 44
-3.5704 -36.3796 -2.638 44 160 44
-3.5672 -36.8324 -2.6476 44 160 44
-3.5641 -36.7109 -2.6571 44 160 44
-3.561 -35.8605 -2.6665 44 160 44
-3.5609 -36.976 -2.6666 44 160 44
-3.5578 -35.7059 -2.676 44 160 44
-3.5578 -36.1145 -2.676 44 160 44
-3.5578 -36.479 -2.6761 44 160 44
-3.5547 -35.6065 -2.6855 44 160 44
-3.5547 -35.982 -2.6855 44 160 44
-3.5546 -37.2741 -2.6857 44 160 44
-3.5515 -36.2029 -2.695 44 160 44
-3.5483 -36.8986 -2.7046 44 160 44
-3.5482 -37.3735 -2.7047 44 160 44
-3.5451 -36.3354 -2.7141 44 160 44
-3.542 -36.6004 -2.7236 44 160 44
-3.542 -36.7882 -2.7236 44 160 44
-3.5419 -37.1527 -2.7237 44 160 44
-3.5356 -37.0091 -2.7427 44 160 44
-3.4393 -35.0225 -2.4556 44 160 44
-3.4204 -34.9342 -2.5127 44 160 44
-3.4172 -35.0777 -2.5222 44 160 44
-3.4172 -35.1661 -2.5222 44 160 44
-3.3982 -35.4201 -2.5792 44 160 44
-3.3982 -35.5968 -2.5793 44 160 44
-3.3951 -35.2324 -2.5888 44 160 44
-3.3951 -35.3318 -2.5888 44 160 44
-3.3919 -35.5085 -2.5983 44 160 44
-3.3887 -35.7073 -2.6078 44 160 44
-3.3886 -37.64 -2.6079 44 160 44
-3.3823 -37.5075 -2.6269 44 160 44
-3.3697 -36.9884 -2.6649 44 160 44
-3.3697 -37.4191 -2.6649 44 160 44
-3.3665 -37.3307 -2.6744 44 160 44
-3.3634 -37.1209 -2.6839 44 160 44
-3.3634 -37.2313 -2.6839 44 160 44
-3.3603 -35.6852 -2.6934 44 160 44
-3.3602 -36.9 -2.6934 44 160 44
-3.3602 -37.7062 -2.6935 44 160 44
-3.3444 -37.0546 -2.741 44 160 44
-3.3412 -37.3087 -2.7505 44 160 44
-3.3381 -37.1651 -2.76 44 160 44
-3.3479 -34.9493 -2.4558 44 160 44
-3.3479 -35.0376 -2.4558 44 160 44
-3.3479 -35.137 -2.4558 44 160 44
-3.3162 -35.2696 -2.5509 44 160 44
-3.3162 -35.4905 -2.5509 44 160 44
-3.3131 -35.3911 -2.5604 44 160 44
-3.3005 -35.1702 -2.5985 44 160 44
-3.3003 -37.633 -2.5984 44 160 44
-3.2908 -37.5336 -2.6269 44 160 44
-3.2878 -35.5236 -2.6365 44 160 44
-3.2751 -35.6561 -2.6745 44 160 44
-3.2751 -37.1029 -2.6745 44 160 44
-3.275 -37.3459 -2.6745 44 160 44
-3.2719 -37.6441 -2.684 44 160 44
-3.2624 -37.4563 -2.7125 44 160 44
-3.2529 -36.9593 -2.7411 44 160 44
-3.2529 -37.2354 -2.7411 44 160 44
-3.2575 -34.9737 -2.4251 44 160 44
-3.2449 -35.0952 -2.4631 44 160 44
-3.2386 -34.9074 -2.4822 44 160 44
-3.2259 -35.2167 -2.5202 44 160 44
-3.2195 -35.4375 -2.5392 44 160 44
-3.2164 -35.305 -2.5487 44 160 44
-3.2133 -35.1173 -2.5583 44 160 44
-3.2033 -37.5801 -2.5866 44 160 44
-3.1943 -35.2056 -2.6153 44 160 44
-3.1942 -35.3713 -2.6153 44 160 44
-3.1938 -37.6906 -2.6151 44 160 44
-3.1911 -35.4928 -2.6248 44 160 44
-3.191 -35.6032 -2.6248 44 160 44
-3.1907 -37.4918 -2.6247 44 160 44
-3.1812 -37.4034 -2.6532 44 160 44
-3.1781 -37.2488 -2.6627 44 160 44
-3.178 -37.6132 -2.6627 44 160 44
-3.1749 -37.1494 -2.6722 44 160 44
-3.1686 -37.05 -2.6913 44 160 44
-3.1626 -35.5811 -2.7104 44 160 44
-3.3371 -36.4166 -1.8929 44 160 44
-3.3339 -36.3172 -1.9024 44 160 44
-3.3087 -36.2731 -1.9785 44 160 44
-3.3055 -36.4829 -1.988 44 160 44
-3.1571 -35.0251 -2.4351 44 160 44
-3.1413 -34.9367 -2.4826 44 160 44
-3.135 -35.1686 -2.5016 44 160 44
-3.1287 -35.0582 -2.5207 44 160 44
-3.1192 -35.3122 -2.5492 44 160 44
-3.1191 -35.4006 -2.5492 44 160 44
-3.1128 -35.522 -2.5682 44 160 44
-3.1034 -35.2018 -2.5968 44 160 44
-3.103 -37.6094 -2.5967 44 160 44
-3.0938 -35.4337 -2.6253 44 160 44
-3.0935 -37.4658 -2.6252 44 160 44
-3.0875 -35.5441 -2.6443 44 160 44
-3.084 -37.6867 -2.6538 44 160 44
-3.0777 -37.267 -2.6728 44 160 44
-3.0714 -37.1566 -2.6918 44 160 44
-3.0619 -37.4216 -2.7203 44 160 44
-3.2564 -35.9542 -1.8467 44 160 44
-3.2532 -36.2634 -1.8562 44 160 44
-3.2374 -36.7604 -1.9037 44 160 44
-3.2342 -36.6389 -1.9133 44 160 44
-3.228 -35.9321 -1.9323 44 160 44
-3.2279 -36.3186 -1.9323 44 160 44
-3.2279 -36.5395 -1.9323 44 160 44
-3.2248 -36.418 -1.9418 44 160 44
-3.2121 -36.7052 -1.9798 44 160 44
-3.0605 -35.0375 -2.4364 44 160 44
-3.0542 -35.1369 -2.4555 44 160 44
-3.0511 -34.8939 -2.465 44 160 44
-3.032 -35.2252 -2.522 44 160 44
-3.0131 -35.3467 -2.5791 44 160 44
-3.0064 -37.5335 -2.598 44 160 44
-3.0035 -35.5124 -2.6076 44 160 44
-2.9938 -37.423 -2.6361 44 160 44
-2.9938 -37.666 -2.6361 44 160 44
-2.9875 -37.3126 -2.6551 44 160 44
-2.9814 -35.5676 -2.6742 44 160 44
-2.978 -37.1911 -2.6836 44 160 44
-2.9654 -37.4009 -2.7217 44 160 44
-3.1786 -35.8873 -1.8176 44 160 44
-3.1754 -35.7437 -1.8271 44 160 44
-3.1723 -35.9977 -1.8366 44 160 44
-3.1723 -36.1855 -1.8366 44 160 44
-3.166 -36.3512 -1.8556 44 160 44
-3.166 -36.6714 -1.8557 44 160 44
-3.166 -36.804 -1.8557 44 160 44
-3.1628 -36.561 -1.8652 44 160 44
-3.1565 -36.0971 -1.8842 44 160 44
-3.1533 -35.8431 -1.8937 44 160 44
-3.1533 -35.9315 -1.8937 44 160 44
-3.147 -36.2297 -1.9127 44 160 44
-3.1407 -36.6273 -1.9317 44 160 44
-3.1375 -36.3732 -1.9413 44 160 44
-3.1375 -36.7598 -1.9413 44 160 44
-3.1375 -36.8813 -1.9413 44 160 44
-3.1312 -36.5058 -1.9603 44 160 44
-2.9826 -34.9927 -2.4073 44 160 44
-2.97 -34.9154 -2.4453 44 160 44
-2.951 -35.1694 -2.5024 44 160 44
-2.9447 -35.2909 -2.5214 44 160 44
-2.9227 -37.5881 -2.5881 44 160 44
-2.9131 -35.3461 -2.6166 44 160 44
-2.91 -37.4556 -2.6261 44 160 44
-2.9005 -37.2347 -2.6547 44 160 44
-2.8942 -37.5329 -2.6737 44 160 44
-2.891 -35.5007 -2.6831 44 160 44
-2.8847 -37.3782 -2.7022 44 160 44
-2.8752 -37.2126 -2.7308 44 160 44
-3.0651 -36.7372 -1.8659 44 160 44
-3.0651 -36.8587 -1.8659 44 160 44
-3.0555 -35.8426 -1.8944 44 160 44
-3.0556 -36.6157 -1.8944 44 160 44
-3.0557 -36.947 -1.8944 44 160 44
-3.0524 -35.931 -1.9039 44 160 44
-3.0492 -36.0304 -1.9134 44 160 44
-3.0493 -36.3285 -1.9134 44 160 44
-3.0493 -36.439 -1.9134 44 160 44
-3.0398 -36.693 -1.942 44 160 44
-3.0367 -36.8145 -1.9515 44 160 44
-2.8815 -34.9259 -2.4175 44 160 44
-2.8563 -35.1468 -2.4936 44 160 44
-2.8342 -35.4671 -2.5602 44 160 44
-2.8281 -37.6207 -2.5793 44 160 44
-2.8249 -37.5324 -2.5888 44 160 44
-2.812 -35.3898 -2.6267 44 160 44
-2.8123 -37.455 -2.6268 44 160 44
-2.7994 -35.5444 -2.6648 44 160 44
-2.7965 -37.5434 -2.6744 44 160 44
-2.7933 -37.19 -2.6839 44 160 44
-2.787 -37.4109 -2.7029 44 160 44
-2.7807 -37.3115 -2.7219 44 160 44
-2.9716 -36.8565 -1.8491 44 160 44
-2.9684 -36.3484 -1.8586 44 160 44
-2.9651 -35.8514 -1.8681 44 160 44
-2.9557 -36.006 -1.8966 44 160 44
-2.9526 -36.6356 -1.9062 44 160 44
-2.9526 -36.7571 -1.9062 44 160 44
-2.9494 -36.5251 -1.9157 44 160 44
-2.9463 -36.8785 -1.9252 44 160 44
-2.943 -36.2932 -1.9347 44 160 44
-2.9431 -36.4036 -1.9347 44 160 44
-2.9431 -36.989 -1.9347 44 160 44
-2.7879 -34.99 -2.4006 44 160 44
-2.7753 -34.8795 -2.4387 44 160 44
-2.769 -35.1556 -2.4577 44 160 44
-2.7563 -35.0562 -2.4957 44 160 44
-2.75 -35.2882 -2.5148 44 160 44
-2.7377 -37.6074 -2.553 44 160 44
-2.7184 -35.3765 -2.6099 44 160 44
-2.7187 -37.4307 -2.6101 44 160 44
-2.7153 -35.4649 -2.6194 44 160 44
-2.7153 -35.5643 -2.6194 44 160 44
-2.7156 -37.5522 -2.6196 44 160 44
-2.7156 -37.6627 -2.6196 44 160 44
-2.706 -37.3424 -2.6481 44 160 44
-2.6807 -37.1657 -2.7242 44 160 44
-2.6807 -37.2761 -2.7242 44 160 44
-2.8976 -35.7731 -1.7732 44 160 44
-2.8818 -36.248 -1.8208 44 160 44
-2.8723 -36.5462 -1.8494 44 160 44
-2.8692 -35.8504 -1.8588 44 160 44
-2.8692 -36.3695 -1.8589 44 160 44
-2.8692 -36.8223 -1.8589 44 160 44
-2.8692 -36.9548 -1.8589 44 160 44
-2.8565 -36.2922 -1.8969 44 160 44
-2.8534 -36.1817 -1.9064 44 160 44
-2.8502 -36.4689 -1.9159 44 160 44
-2.8502 -36.6125 -1.916 44 160 44
-2.8439 -36.734 -1.935 44 160 44
-2.6857 -35.0662 -2.4103 44 160 44
-2.6826 -34.9447 -2.4198 44 160 44
-2.6604 -35.2208 -2.4864 44 160 44
-2.6415 -35.3975 -2.5435 44 160 44
-2.6415 -35.508 -2.5436 44 160 44
-2.6383 -37.6395 -2.5533 44 160 44
-2.632 -37.4959 -2.5723 44 160 44
-2.6162 -37.3965 -2.6199 44 160 44
-2.6098 -35.5521 -2.6387 44 160 44
-2.6067 -37.2529 -2.6484 44 160 44
-2.5972 -37.4628 -2.677 44 160 44
-2.594 -37.3302 -2.6864 44 160 44
-2.6959 -35.9706 -1.803 44 160 44
-2.6801 -36.8541 -1.8507 44 160 44
-2.6769 -35.8491 -1.8601 44 160 44
-2.6737 -36.7547 -1.8697 44 160 44
-2.6674 -36.2356 -1.8887 44 160 44
-2.6674 -36.9535 -1.8888 44 160 44
-2.6643 -36.0368 -1.8982 44 160 44
-2.6643 -36.3792 -1.8982 44 160 44
-2.4936 -35.0096 -2.4116 44 160 44
-2.4904 -34.9102 -2.4211 44 160 44
-2.4746 -35.1753 -2.4687 44 160 44
-2.4683 -35.0538 -2.4877 44 160 44
-2.4588 -35.3189 -2.5163 44 160 44
-2.4429 -37.605 -2.5642 44 160 44
-2.4334 -37.4725 -2.5927 44 160 44
-2.424 -35.4182 -2.6209 44 160 44
-2.4176 -37.362 -2.6402 44 160 44
-2.4145 -35.5066 -2.6495 44 160 44
-2.4113 -37.2626 -2.6592 44 160 44
-2.3986 -37.4283 -2.6973 44 160 44
-2.6083 -35.7369 -1.776 44 160 44
-2.5988 -35.9026 -1.8045 44 160 44
-2.5925 -36.245 -1.8236 44 160 44
-2.5861 -35.8032 -1.8426 44 160 44
-2.5862 -36.8966 -1.8428 44 160 44
-2.583 -36.002 -1.8521 44 160 44
-2.583 -36.1124 -1.8521 44 160 44
-2.5798 -36.3996 -1.8617 44 160 44
-2.5735 -36.3112 -1.8807 44 160 44
-2.5735 -36.5652 -1.8808 44 160 44
-2.5735 -36.6867 -1.8808 44 160 44
-2.564 -36.2008 -1.9092 44 160 44
-2.564 -36.8193 -1.9093 44 160 44
-2.564 -36.9628 -1.9094 44 160 44
-2.4059 -35.0411 -2.3846 44 160 44
-2.3932 -34.8975 -2.4226 44 160 44
-2.39 -35.1294 -2.4321 44 160 44
-2.3679 -35.3171 -2.4987 44 160 44
-2.3616 -35.1183 -2.5177 44 160 44
-2.3553 -37.5702 -2.5372 44 160 44
-2.3426 -35.4607 -2.5749 44 160 44
-2.3332 -37.6585 -2.6038 44 160 44
-2.3237 -37.5039 -2.6323 44 160 44
-2.3205 -37.3824 -2.6418 44 160 44
-2.3174 -37.2057 -2.6513 44 160 44
-2.3047 -37.283 -2.6893 44 160 44
-2.5131 -35.7362 -1.7783 44 160 44
-2.5131 -35.9571 -1.7783 44 160 44
-2.5037 -36.2442 -1.8069 44 160 44
-2.4942 -35.8687 -1.8354 44 160 44
-2.4942 -36.5976 -1.8356 44 160 44
-2.4879 -36.7743 -1.8546 44 160 44
-2.4847 -35.9902 -1.8639 44 160 44
-2.4848 -36.8848 -1.8642 44 160 44
-2.4815 -36.0896 -1.8735 44 160 44
-2.4816 -36.686 -1.8736 44 160 44
-2.4784 -36.189 -1.883 44 160 44
-2.4784 -36.2994 -1.883 44 160 44
-2.4689 -36.3878 -1.9116 44 160 44
-2.4689 -36.5645 -1.9116 44 160 44
-2.3075 -34.9851 -2.3963 44 160 44
-2.3012 -35.0734 -2.4154 44 160 44
-2.298 -34.8746 -2.4248 44 160 44
-2.2727 -35.2611 -2.501 44 160 44
-2.2603 -37.5583 -2.5396 44 160 44
-2.2475 -35.5151 -2.5772 44 160 44
-2.2413 -37.4368 -2.5967 44 160 44
-2.238 -35.3384 -2.6056 44 160 44
-2.2382 -37.6356 -2.6062 44 160 44
-2.2316 -35.4378 -2.6247 44 160 44
-2.2318 -37.1276 -2.6251 44 160 44
-2.2286 -37.238 -2.6346 44 160 44
-2.216 -37.3595 -2.6727 44 160 44
-2.2065 -37.1828 -2.7012 44 160 44
-2.4134 -35.9789 -1.7766 44 160 44
-2.4102 -35.7248 -1.7861 44 160 44
-2.4007 -35.8905 -1.8147 44 160 44
-2.3976 -36.6746 -1.8243 44 160 44
-2.3976 -36.9176 -1.8243 44 160 44
-2.3912 -36.52 -1.8433 44 160 44
-2.3912 -36.763 -1.8433 44 160 44
-2.3849 -36.0341 -1.8622 44 160 44
-2.3786 -36.1887 -1.8813 44 160 44
-2.3754 -36.8403 -1.8909 44 160 44
-2.2172 -34.9627 -2.3661 44 160 44
-2.2014 -35.0731 -2.4137 44 160 44
-2.1919 -34.9075 -2.4422 44 160 44
-2.1824 -35.2057 -2.4708 44 160 44
-2.1635 -35.294 -2.5279 44 160 44
-2.1603 -37.5691 -2.5378 44 160 44
-2.154 -35.4928 -2.5564 44 160 44
-2.154 -37.6685 -2.5568 44 160 44
-2.1477 -37.4697 -2.5758 44 160 44
-2.1318 -35.4265 -2.623 44 160 44
-2.1255 -35.5149 -2.642 44 160 44
-2.1224 -37.4145 -2.6519 44 160 44
-2.1192 -37.1936 -2.6613 44 160 44
-2.1129 -37.3151 -2.6804 44 160 44
-2.327 -35.9392 -1.7459 44 160 44
-2.3238 -35.7294 -1.7554 44 160 44
-2.3049 -35.8729 -1.8125 44 160 44
-2.3017 -36.7123 -1.822 44 160 44
-2.2985 -36.8006 -1.8316 44 160 44
-2.2953 -36.6239 -1.8411 44 160 44
-2.2922 -36.0276 -1.8506 44 160 44
-2.2922 -36.9111 -1.8506 44 160 44
-2.1215 -34.9452 -2.3641 44 160 44
-2.112 -35.0335 -2.3926 44 160 44
-2.1057 -35.1219 -2.4117 44 160 44
-2.0803 -35.2323 -2.4878 44 160 44
-2.0772 -35.3207 -2.4973 44 160 44
-2.0676 -37.6289 -2.5259 44 160 44
-2.0644 -37.4964 -2.5354 44 160 44
-2.0582 -35.4864 -2.5543 44 160 44
-2.0423 -37.3859 -2.602 44 160 44
-2.0423 -37.5627 -2.602 44 160 44
-2.036 -37.2203 -2.621 44 160 44
-2.0266 -35.4974 -2.6495 44 160 44
-2.017 -37.2976 -2.6781 44 160 44
-2.2322 -35.8269 -1.7382 44 160 44
-2.229 -35.9263 -1.7477 44 160 44
-2.2036 -36.3238 -1.8239 44 160 44
-2.2035 -36.854 -1.824 44 160 44
-2.2004 -36.9644 -1.8335 44 160 44
-2.1972 -36.6883 -1.843 44 160 44
-2.1877 -36.7767 -1.8715 44 160 44
-2.1783 -36.3459 -1.9 44 160 44
-2.1751 -36.4343 -1.9095 44 160 44
-2.0172 -35.0316 -2.3848 44 160 44
-1.9982 -35.1641 -2.4419 44 160 44
-1.9792 -35.0868 -2.4989 44 160 44
-1.9761 -35.2855 -2.5085 44 160 44
-1.9725 -37.5717 -2.5184 44 160 44
-1.9634 -35.4181 -2.5466 44 160 44
-1.9631 -37.4723 -2.5469 44 160 44
-1.963 -37.66 -2.5469 44 160 44
-1.9473 -37.3729 -2.5944 44 160 44
-1.9441 -37.5606 -2.604 44 160 44
-1.9378 -37.2735 -2.6229 44 160 44
-1.9349 -35.4733 -2.6322 44 160 44
-2.0237 -36.5324 -1.8057 44 160 44
-2.0237 -36.8637 -1.8058 44 160 44
-2.0205 -36.3557 -1.8152 44 160 44
-2.0205 -36.9741 -1.8154 44 160 44
-2.0174 -36.6759 -1.8248 44 160 44
-2.0142 -36.19 -1.8342 44 160 44
-2.011 -36.444 -1.8437 44 160 44
-2.0079 -36.0022 -1.8531 44 160 44
-2.0047 -36.2783 -1.8627 44 160 44
-1.9984 -36.8416 -1.8819 44 160 44
-1.8245 -35.0744 -2.4045 44 160 44
-1.8181 -34.9639 -2.4235 44 160 44
-1.8055 -35.1958 -2.4616 44 160 44
-1.796 -35.3063 -2.4902 44 160 44
-1.7928 -35.0964 -2.4996 44 160 44
-1.7865 -37.5703 -2.5193 44 160 44
-1.777 -35.4498 -2.5473 44 160 44
-1.7738 -37.4488 -2.5574 44 160 44
-1.7675 -37.6366 -2.5764 44 160 44
-1.7644 -37.2058 -2.5858 44 160 44
-1.7644 -37.3163 -2.5858 44 160 44
-1.758 -37.5482 -2.6049 44 160 44
-1.7486 -35.4719 -2.6329 44 160 44
-1.7454 -37.3936 -2.6429 44 160 44
-1.9336 -35.8622 -1.795 44 160 44
-1.9337 -36.8893 -1.7952 44 160 44
-1.9304 -36.2708 -1.8046 44 160 44
-1.9272 -35.9726 -1.8141 44 160 44
-1.9242 -36.7788 -1.8237 44 160 44
-1.9178 -36.6794 -1.8427 44 160 44
-1.9147 -36.9666 -1.8523 44 160 44
-1.9051 -36.2377 -1.8807 44 160 44
-1.9052 -36.8672 -1.8808 44 160 44
-1.75 -34.9454 -2.3465 44 160 44
-1.7374 -35.0338 -2.3845 44 160 44
-1.7216 -35.1221 -2.4321 44 160 44
-1.7121 -35.2546 -2.4607 44 160 44
-1.6966 -37.5518 -2.5086 44 160 44
-1.6966 -37.6512 -2.5087 44 160 44
-1.6868 -35.5087 -2.5368 44 160 44
-1.6871 -37.4635 -2.5372 44 160 44
-1.6744 -37.353 -2.5752 44 160 44
-1.6712 -37.2426 -2.5847 44 160 44
-1.6681 -37.5297 -2.5942 44 160 44
-1.6615 -35.4755 -2.6129 44 160 44
-1.6586 -37.1653 -2.6227 44 160 44
-1.6586 -37.4303 -2.6227 44 160 44
-1.7586 -35.783 -1.7389 44 160 44
-1.7367 -36.9426 -1.8058 44 160 44
-1.7333 -35.8493 -1.815 44 160 44
-1.7334 -36.2248 -1.8151 44 160 44
-1.7335 -36.6665 -1.8152 44 160 44
-1.7304 -36.788 -1.8248 44 160 44
-1.5529 -34.9988 -2.3569 44 160 44
-1.5434 -34.9104 -2.3854 44 160 44
-1.5276 -35.076 -2.433 44 160 44
-1.5119 -35.3411 -2.4806 44 160 44
-1.5029 -37.5389 -2.5098 44 160 44
-1.4992 -35.1533 -2.5186 44 160 44
-1.4834 -35.4073 -2.5663 44 160 44
-1.4839 -37.6604 -2.5669 44 160 44
-1.4775 -37.2075 -2.5858 44 160 44
-1.4744 -37.329 -2.5953 44 160 44
-1.6583 -35.7733 -1.7465 44 160 44
-1.6458 -36.8556 -1.7847 44 160 44
-1.6425 -35.9168 -1.7941 44 160 44
-1.6394 -36.3807 -1.8037 44 160 44
-1.6394 -36.6236 -1.8037 44 160 44
-1.6394 -36.723 -1.8037 44 160 44
-1.6299 -36.2702 -1.8322 44 160 44
-1.63 -36.9881 -1.8323 44 160 44
-1.6204 -36.1487 -1.8607 44 160 44
-1.6205 -36.8777 -1.8608 44 160 44
-1.4559 -34.989 -2.355 44 160 44
-1.4401 -34.9117 -2.4026 44 160 44
-1.437 -35.1326 -2.4121 44 160 44
-1.4117 -35.1105 -2.4882 44 160 44
-1.4085 -35.4087 -2.4978 44 160 44
-1.4087 -37.6396 -2.4983 44 160 44
-1.4024 -37.5402 -2.5173 44 160 44
-1.3959 -35.486 -2.5359 44 160 44
-1.3961 -37.4408 -2.5363 44 160 44
-1.3834 -37.3524 -2.5743 44 160 44
-1.3644 -37.2199 -2.6313 44 160 44
-1.5808 -35.7288 -1.6998 44 160 44
-1.5808 -35.8613 -1.6998 44 160 44
-1.5745 -35.9718 -1.7189 44 160 44
-1.5556 -36.7007 -1.7761 44 160 44
-1.5556 -36.8442 -1.7761 44 160 44
-1.5524 -36.5902 -1.7856 44 160 44
-1.5493 -36.9657 -1.7951 44 160 44
-1.5334 -36.7669 -1.8427 44 160 44
-1.5303 -36.6565 -1.8522 44 160 44
-1.5303 -36.8884 -1.8522 44 160 44
-1.3783 -35.0329 -2.3084 44 160 44
-1.372 -34.9225 -2.3274 44 160 44
-1.3531 -35.066 -2.3845 44 160 44
-1.3373 -35.2206 -2.4321 44 160 44
-1.3122 -37.4847 -2.5086 44 160 44
-1.2962 -35.4746 -2.5558 44 160 44
-1.29 -37.308 -2.5751 44 160 44
-1.29 -37.4294 -2.5752 44 160 44
-1.2869 -37.2086 -2.5846 44 160 44
-1.4851 -35.7089 -1.6982 44 160 44
-1.4819 -35.8635 -1.7077 44 160 44
-1.4631 -36.6697 -1.7649 44 160 44
-1.4631 -36.9016 -1.765 44 160 44
-1.4599 -36.7802 -1.7744 44 160 44
-1.444 -36.0733 -1.8219 44 160 44
-1.4315 -36.9789 -1.8601 44 160 44
-1.2731 -35.002 -2.3353 44 160 44
-1.2668 -34.9136 -2.3543 44 160 44
-1.251 -35.2118 -2.4019 44 160 44
-1.226 -37.5973 -2.4784 44 160 44
-1.2226 -35.3775 -2.4875 44 160 44
-1.2004 -35.4548 -2.5541 44 160 44
-1.1943 -37.2108 -2.5735 44 160 44
-1.1849 -37.4206 -2.602 44 160 44
-1.1722 -37.3212 -2.64 44 160 44
-1.394 -35.7881 -1.6876 44 160 44
-1.3909 -35.6887 -1.6971 44 160 44
-1.3689 -36.8373 -1.7637 44 160 44
-1.3626 -36.9477 -1.7827 44 160 44
-1.3593 -35.9869 -1.7922 44 160 44
-1.3594 -36.6716 -1.7922 44 160 44
-1.3562 -36.76 -1.8017 44 160 44
-1.1884 -34.9156 -2.3058 44 160 44
-1.1758 -35.004 -2.3439 44 160 44
-1.1632 -35.1696 -2.3819 44 160 44
-1.1474 -35.3463 -2.4295 44 160 44
-1.1442 -35.1034 -2.439 44 160 44
-1.1347 -35.1917 -2.4675 44 160 44
-1.1316 -35.4568 -2.477 44 160 44
-1.1318 -37.5331 -2.477 44 160 44
-1.1255 -37.6325 -2.496 44 160 44
-1.1189 -35.3574 -2.5151 44 160 44
-1.1128 -37.3674 -2.5341 44 160 44
-1.097 -37.4779 -2.5816 44 160 44
-1.0939 -37.2349 -2.5912 44 160 44
-1.0844 -37.3453 -2.6197 44 160 44
-1.2943 -35.8185 -1.6957 44 160 44
-1.2911 -35.6749 -1.7052 44 160 44
-1.2754 -36.4259 -1.7528 44 160 44
-1.2723 -36.7793 -1.7623 44 160 44
-1.2595 -35.9289 -1.8003 44 160 44
-1.2596 -36.8566 -1.8004 44 160 44
-1.2565 -36.702 -1.8099 44 160 44
-1.2565 -36.945 -1.8099 44 160 44
-1.2438 -36.3927 -1.8479 44 160 44
-1.0919 -35.0343 -2.3043 44 160 44
-1.076 -34.9018 -2.3519 44 160 44
-1.0666 -35.1337 -2.3804 44 160 44
-1.0571 -35.2662 -2.409 44 160 44
-1.0381 -35.1779 -2.466 44 160 44
-1.016 -35.4429 -2.5326 44 160 44
-1.0162 -37.3425 -2.5328 44 160 44
-1.0163 -37.6076 -2.5328 44 160 44
-1.0036 -37.4198 -2.5708 44 160 44
-1.0004 -37.221 -2.5803 44 160 44
-0.9909 -37.3094 -2.6089 44 160 44
-1.2022 -35.7296 -1.68 44 160 44
-1.1801 -35.8069 -1.7466 44 160 44
-1.1738 -36.7567 -1.7657 44 160 44
-1.1674 -35.9063 -1.7847 44 160 44
-1.158 -36.8561 -1.8133 44 160 44
-1.1548 -36.9555 -1.8228 44 160 44
-0.9998 -34.9123 -2.2886 44 160 44
-0.9745 -35.1 -2.3648 44 160 44
-0.9492 -35.4314 -2.4409 44 160 44
-0.9462 -37.585 -2.4507 44 160 44
-0.9397 -35.2215 -2.4694 44 160 44
-0.924 -37.3751 -2.5172 44 160 44
-0.9208 -35.4755 -2.5265 44 160 44
-0.9209 -37.4856 -2.5267 44 160 44
-0.9177 -37.2095 -2.5362 44 160 44
-0.8924 -37.3089 -2.6123 44 160 44
-1.1024 -35.805 -1.6804 44 160 44
-1.1024 -35.8933 -1.6805 44 160 44
-1.0961 -35.7056 -1.6994 44 160 44
-1.0708 -35.9485 -1.7756 44 160 44
-0.9064 -34.9655 -2.27 44 160 44
-0.8938 -34.8661 -2.308 44 160 44
-0.8906 -35.0649 -2.3176 44 160 44
-0.8621 -35.1974 -2.4032 44 160 44
-0.8495 -35.4183 -2.4413 44 160 44
-0.8462 -37.5167 -2.4512 44 160 44
-0.843 -37.6271 -2.4607 44 160 44
-0.8368 -35.2858 -2.4793 44 160 44
-0.8272 -37.4283 -2.5082 44 160 44
-0.821 -35.4845 -2.5269 44 160 44
-0.8209 -37.3179 -2.5272 44 160 44
-0.8114 -37.1743 -2.5557 44 160 44
-0.9056 -35.8036 -1.7011 44 160 44
-0.8898 -35.8809 -1.7487 44 160 44
-0.7094 -34.8648 -2.2906 44 160 44
-0.7094 -34.9973 -2.2906 44 160 44
-0.6778 -35.2182 -2.3857 44 160 44
-0.6526 -37.5153 -2.4623 44 160 44
-0.6368 -37.6368 -2.5099 44 160 44
-0.6147 -37.0735 -2.5764 44 160 44
-0.6052 -37.2613 -2.6049 44 160 44
-0.6214 -34.9635 -2.2714 44 160 44
-0.5992 -35.0187 -2.338 44 160 44
-0.5929 -35.1402 -2.357 44 160 44
-0.574 -35.339 -2.4141 44 160 44
-0.5709 -37.592 -2.424 44 160 44
-0.5676 -35.4605 -2.4332 44 160 44
-0.5645 -35.2396 -2.4426 44 160 44
-0.5582 -37.4595 -2.462 44 160 44
-0.555 -35.604 -2.4712 44 160 44
-0.5456 -37.5699 -2.5001 44 160 44
-0.5424 -37.2717 -2.5095 44 160 44
-0.5329 -37.3821 -2.5381 44 160 44
-0.5203 -37.1502 -2.5761 44 160 44
-0.5171 -37.0398 -2.5856 44 160 44
-0.5171 -37.2385 -2.5856 44 160 44
-0.521 -34.9059 -2.2725 44 160 44
-0.521 -35.0164 -2.2725 44 160 44
-0.4989 -34.9611 -2.3391 44 160 44
-0.4957 -35.0826 -2.3487 44 160 44
-0.4863 -35.2372 -2.3772 44 160 44
-0.4673 -35.3145 -2.4343 44 160 44
-0.4673 -35.4912 -2.4344 44 160 44
-0.4452 -36.1207 -2.5011 44 160 44
-0.4452 -37.5344 -2.5015 44 160 44
-0.4357 -37.1036 -2.5299 44 160 44
-0.4326 -36.9932 -2.5394 44 160 44
-0.4326 -37.3024 -2.5395 44 160 44
-0.4262 -37.192 -2.5585 44 160 44
-0.4211 -35.02 -2.2898 44 160 44
-0.418 -34.9316 -2.2993 44 160 44
-0.4053 -35.1635 -2.3374 44 160 44
-0.3863 -35.3955 -2.3945 44 160 44
-0.38 -35.2629 -2.4135 44 160 44
-0.38 -35.5611 -2.4135 44 160 44
-0.3736 -35.9256 -2.4326 44 160 44
-0.3704 -36.29 -2.4421 44 160 44
-0.3673 -36.0802 -2.4516 44 160 44
-0.3609 -36.4667 -2.4707 44 160 44
-0.3577 -37.3503 -2.4803 44 160 44
-0.3547 -35.6715 -2.4896 44 160 44
-0.3545 -37.4717 -2.4898 44 160 44
-0.3515 -36.0029 -2.4992 44 160 44
-0.3514 -36.5661 -2.4992 44 160 44
-0.3514 -36.7428 -2.4993 44 160 44
-0.3483 -35.8814 -2.5087 44 160 44
-0.3483 -36.1464 -2.5087 44 160 44
-0.3483 -36.2348 -2.5087 44 160 44
-0.342 -36.3894 -2.5278 44 160 44
-0.3387 -37.0521 -2.5373 44 160 44
-0.3387 -37.2177 -2.5374 44 160 44
-0.3356 -36.6655 -2.5468 44 160 44
-0.3261 -36.787 -2.5754 44 160 44
-5.196 -36.5117 -2.873 44 160 44
-5.2009 -36.4103 -2.876 44 160 44
-5.2255 -36.5776 -2.9577 44 160 44
-5.1903 -36.1765 -2.8249 44 160 44
-5.2266 -36.3157 -2.9351 44 160 44
-5.2235 -36.2136 -2.9167 44 160 44
-5.2079 -36.0811 -2.8625 44 160 44
-5.2015 -35.9835 -2.8359 44 160 44
-5.1118 -36.565 -2.9111 44 160 44
-5.0919 -36.403 -2.8425 44 160 44
-5.1199 -36.459 -2.9224 44 160 44
-5.1013 -36.2244 -2.8499 44 160 44
-5.1248 -36.3576 -2.9255 44 160 44
-5.0892 -35.9807 -2.794 44 160 44
-5.133 -36.2516 -2.9369 44 160 44
-5.1088 -36.0602 -2.8539 44 160 44
-5.1218 -36.1487 -2.8971 44 160 44
-4.9961 -36.5766 -2.8501 44 160 44
-4.996 -36.3874 -2.8314 44 160 44
-5.0189 -36.4623 -2.8996 44 160 44
-5.0078 -36.2527 -2.8498 44 160 44
-5.0227 -36.3268 -2.8965 44 160 44
-4.9964 -36.0673 -2.8013 44 160 44
-5.0236 -36.1717 -2.8839 44 160 44
-5.0159 -35.9575 -2.8424 44 160 44
-4.8136 -36.8167 -2.8908 44 160 44
-4.8185 -36.7153 -2.8939 44 160 44
-4.7936 -36.4655 -2.8035 44 160 44
-4.8194 -36.5601 -2.8813 44 160 44
-4.828 -36.43 -2.8914 44 160 44
-4.8281 -36.3232 -2.8813 44 160 44
-4.8348 -36.2075 -2.8879 44 160 44
-4.8201 -36.0266 -2.8312 44 160 44
-4.8316 -36.1053 -2.8696 44 160 44
-4.8231 -35.9395 -2.8308 44 160 44
-4.7035 -36.9723 -2.8747 44 160 44
-4.7037 -36.8656 -2.8647 44 160 44
-4.7166 -36.7649 -2.8892 44 160 44
-4.7026 -36.5356 -2.8298 44 160 44
-4.6944 -36.4524 -2.7996 44 160 44
-4.7223 -36.6151 -2.8896 44 160 44
-4.7225 -36.4016 -2.8696 44 160 44
-4.7208 -36.3093 -2.856 44 160 44
-4.7319 -36.223 -2.877 44 160 44
-4.7273 -36.111 -2.8539 44 160 44
-4.7307 -35.9998 -2.8522 44 160 44
-4.7276 -35.8976 -2.8338 44 160 44
-4.7248 -35.7712 -2.8142 44 160 44
-4.5783 -37.0711 -2.8062 44 160 44
-4.6086 -37.0885 -2.8883 44 160 44
-4.5978 -36.9614 -2.8473 44 160 44
-4.598 -36.8547 -2.8373 44 160 44
-4.6142 -36.7495 -2.8701 44 160 44
-4.5987 -36.617 -2.8159 44 160 44
-4.5992 -36.4861 -2.8046 44 160 44
-4.6169 -36.3908 -2.8422 44 160 44
-4.5974 -36.2046 -2.7723 44 160 44
-4.6104 -36.2931 -2.8155 44 160 44
-4.6049 -36.0404 -2.7763 44 160 44
-4.6245 -36.1198 -2.8361 44 160 44
-4.6001 -35.8459 -2.7444 44 160 44
-4.6277 -35.9261 -2.8257 44 160 44
-4.6239 -35.7656 -2.7999 44 160 44
-4.6255 -35.6688 -2.7947 44 160 44
-4.6157 -35.5757 -2.7597 44 160 44
-4.5041 -37.017 -2.8612 44 160 44
-4.4962 -36.9095 -2.8298 44 160 44
-4.5139 -36.8141 -2.8674 44 160 44
-4.5173 -36.7029 -2.8657 44 160 44
-4.5222 -36.6015 -2.8688 44 160 44
-4.5205 -36.5091 -2.8552 44 160 44
-4.4963 -36.3177 -2.7722 44 160 44
-4.5188 -36.4168 -2.8417 44 160 44
-4.5253 -36.2185 -2.8396 44 160 44
-4.5127 -36.1058 -2.795 44 160 44
-4.5045 -35.9158 -2.7549 44 160 44
-4.5322 -35.996 -2.8361 44 160 44
-4.5298 -35.8454 -2.8152 44 160 44
-4.5085 -35.6736 -2.7418 44 160 44
-4.5281 -35.7531 -2.8017 44 160 44
-4.5182 -35.5775 -2.758 44 160 44
-4.3931 -37.0249 -2.8259 44 160 44
-4.3867 -36.9273 -2.7993 44 160 44
-4.4141 -37.1142 -2.8906 44 160 44
-4.4148 -36.8765 -2.8692 44 160 44
-4.4212 -36.785 -2.8771 44 160 44
-4.4244 -36.5912 -2.8666 44 160 44
-4.4183 -36.4694 -2.8387 44 160 44
-4.3974 -36.2734 -2.764 44 160 44
-4.4258 -36.3052 -2.8427 44 160 44
-4.4216 -36.1689 -2.8182 44 160 44
-4.4189 -36.0425 -2.7986 44 160 44
-4.4333 -35.9517 -2.8279 44 160 44
-4.4099 -35.7118 -2.7423 44 160 44
-4.4301 -35.8496 -2.8095 44 160 44
-4.4332 -35.7625 -2.8091 44 160 44
-4.4351 -35.6414 -2.8026 44 160 44
-4.4171 -35.4651 -2.7375 44 160 44
-4.2853 -37.1487 -2.8028 44 160 44
-4.3086 -37.1994 -2.8697 44 160 44
-4.3011 -37.0677 -2.8369 44 160 44
-4.2899 -36.9648 -2.7971 44 160 44
-4.3202 -36.9822 -2.8793 44 160 44
-4.3113 -36.8407 -2.8418 44 160 44
-4.3002 -36.631 -2.792 44 160 44
-4.3227 -36.7302 -2.8615 44 160 44
-4.2979 -36.4804 -2.771 44 160 44
-4.3273 -36.5463 -2.8558 44 160 44
-4.3006 -36.3109 -2.7619 44 160 44
-4.3217 -36.4002 -2.8266 44 160 44
-4.3183 -36.2155 -2.7995 44 160 44
-4.3299 -36.2943 -2.838 44 160 44
-4.3215 -36.0218 -2.7891 44 160 44
-4.3345 -36.1103 -2.8323 44 160 44
-4.3125 -35.8803 -2.7515 44 160 44
-4.3373 -35.9408 -2.8232 44 160 44
-4.3436 -35.8492 -2.8311 44 160 44
-4.3241 -35.6631 -2.7612 44 160 44
-4.3419 -35.7569 -2.8175 44 160 44
-4.337 -35.5624 -2.7857 44 160 44
-4.3306 -35.4648 -2.759 44 160 44
-4.203 -37.2716 -2.8514 44 160 44
-4.2035 -37.1407 -2.8401 44 160 44
-4.2018 -37.0484 -2.8266 44 160 44
-4.1951 -36.8683 -2.7912 44 160 44
-4.2223 -36.9727 -2.8738 44 160 44
-4.2226 -36.7593 -2.8537 44 160 44
-4.2241 -36.6624 -2.8485 44 160 44
-4.2272 -36.5754 -2.8481 44 160 44
-4.2255 -36.483 -2.8346 44 160 44
-4.219 -36.3854 -2.808 44 160 44
-4.2319 -36.2848 -2.8325 44 160 44
-4.2118 -36.0403 -2.7552 44 160 44
-4.2335 -36.1879 -2.8272 44 160 44
-4.2351 -36.091 -2.822 44 160 44
-4.2418 -35.9752 -2.8286 44 160 44
-4.2419 -35.8685 -2.8186 44 160 44
-4.222 -35.7066 -2.75 44 160 44
-4.2203 -35.6142 -2.7365 44 160 44
-4.2468 -35.7671 -2.8217 44 160 44
-4.2495 -35.5976 -2.8126 44 160 44
-4.2325 -35.4553 -2.7536 44 160 44
-4.1135 -37.3607 -2.8729 44 160 44
-4.1052 -37.2775 -2.8428 44 160 44
-4.1258 -37.2018 -2.89 44 160 44
-4.1252 -37.0368 -2.8726 44 160 44
-4.109 -36.8461 -2.811 44 160 44
-4.1272 -36.9157 -2.8661 44 160 44
-4.107 -36.6713 -2.7888 44 160 44
-4.1248 -36.7651 -2.8451 44 160 44
-4.1247 -36.5759 -2.8264 44 160 44
-4.1168 -36.4685 -2.7949 44 160 44
-4.1206 -36.333 -2.7919 44 160 44
-4.1339 -36.2081 -2.8151 44 160 44
-4.142 -36.1022 -2.8265 44 160 44
-4.12 -35.8721 -2.7458 44 160 44
-4.143 -35.947 -2.8139 44 160 44
-4.1195 -35.7071 -2.7283 44 160 44
-4.1453 -35.8017 -2.8061 44 160 44
-4.1277 -35.6012 -2.7397 44 160 44
-4.1491 -35.6662 -2.8031 44 160 44
-4.1323 -35.4172 -2.7341 44 160 44
-4.1453 -35.5058 -2.7773 44 160 44
-4.1229 -35.2999 -2.6979 44 160 44
-4.1146 -35.2167 -2.6677 44 160 44
-3.9824 -37.4131 -2.7974 44 160 44
-4.0091 -37.3526 -2.8626 44 160 44
-3.9933 -37.1376 -2.7997 44 160 44
-4.0206 -37.2421 -2.8823 44 160 44
-4.0236 -37.155 -2.8818 44 160 44
-4.0266 -37.068 -2.8814 44 160 44
-4.0282 -36.9711 -2.8762 44 160 44
-4.0273 -36.8304 -2.8601 44 160 44
-4.0147 -36.7176 -2.8155 44 160 44
-4.0257 -36.6313 -2.8365 44 160 44
-4.0277 -36.5102 -2.83 44 160 44
-4.0326 -36.4088 -2.833 44 160 44
-4.0342 -36.312 -2.8278 44 160 44
-4.0355 -36.1326 -2.8139 44 160 44
-4.0404 -36.0312 -2.8169 44 160 44
-4.0264 -35.8019 -2.7575 44 160 44
-4.0427 -35.8859 -2.8091 44 160 44
-4.0492 -35.6876 -2.807 44 160 44
-3.9964 -35.2752 -2.6265 44 160 44
-4.046 -35.5854 -2.7886 44 160 44
-4.0429 -35.4833 -2.7703 44 160 44
-4.0303 -35.3705 -2.7257 44 160 44
-4.0285 -35.2782 -2.7122 44 160 44
-3.885 -37.4634 -2.7972 44 160 44
-3.9013 -37.5474 -2.8488 44 160 44
-3.9084 -37.4074 -2.8541 44 160 44
-3.9242 -37.3264 -2.8882 44 160 44
-3.9167 -37.1947 -2.8555 44 160 44
-3.93 -37.0698 -2.8787 44 160 44
-3.8979 -36.7709 -2.7642 44 160 44
-3.9283 -36.9775 -2.8652 44 160 44
-3.9266 -36.8852 -2.8516 44 160 44
-3.9261 -36.7202 -2.8342 44 160 44
-3.9211 -36.6324 -2.8124 44 160 44
-3.9169 -36.4962 -2.7879 44 160 44
-3.9083 -36.3305 -2.7491 44 160 44
-3.9084 -36.2237 -2.7391 44 160 44
-3.9349 -36.3766 -2.8243 44 160 44
-3.9383 -36.2654 -2.8225 44 160 44
-3.9352 -36.1632 -2.8042 44 160 44
-3.939 -36.0277 -2.8012 44 160 44
-3.9461 -35.8877 -2.8065 44 160 44
-3.9223 -35.672 -2.7222 44 160 44
-3.9452 -35.7469 -2.7904 44 160 44
-3.9494 -35.5873 -2.786 44 160 44
-3.9423 -35.4314 -2.752 44 160 44
-3.9377 -35.3194 -2.7289 44 160 44
-3.9331 -35.2074 -2.7057 44 160 44
-3.7927 -37.5553 -2.81 44 160 44
-3.7977 -37.3472 -2.8031 44 160 44
-3.8158 -37.4168 -2.8582 44 160 44
-3.803 -37.2215 -2.8049 44 160 44
-3.8244 -37.2866 -2.8682 44 160 44
-3.8239 -37.1216 -2.8508 44 160 44
-3.8281 -36.962 -2.8465 44 160 44
-3.8254 -36.8356 -2.8268 44 160 44
-3.8358 -36.691 -2.8404 44 160 44
-3.8167 -36.4806 -2.7692 44 160 44
-3.8381 -36.5457 -2.8326 44 160 44
-3.8184 -36.2771 -2.754 44 160 44
-3.8343 -36.3853 -2.8069 44 160 44
-3.835 -36.1476 -2.7855 44 160 44
-3.8493 -36.0568 -2.8148 44 160 44
-3.8367 -35.9441 -2.7703 44 160 44
-3.8347 -35.7692 -2.748 44 160 44
-3.8478 -35.8578 -2.7913 44 160 44
-3.8212 -35.5157 -2.6873 44 160 44
-3.8538 -35.6837 -2.7904 44 160 44
-3.8548 -35.5286 -2.7778 44 160 44
-3.8433 -35.3432 -2.7293 44 160 44
-3.8304 -35.1479 -2.6761 44 160 44
-3.8192 -35.045 -2.6363 44 160 44
-3.7003 -37.6477 -2.8262 44 160 44
-3.6906 -37.5546 -2.7912 44 160 44
-3.7049 -37.4638 -2.8206 44 160 44
-3.7259 -37.3639 -2.8665 44 160 44
-3.7209 -37.2761 -2.8446 44 160 44
-3.7076 -37.1051 -2.7927 44 160 44
-3.7272 -37.1845 -2.8525 44 160 44
-3.7343 -37.0445 -2.8578 44 160 44
-3.7239 -36.8932 -2.8155 44 160 44
-3.7143 -36.6934 -2.7705 44 160 44
-3.7409 -36.7395 -2.8457 44 160 44
-3.7363 -36.6275 -2.8225 44 160 44
-3.751 -36.5125 -2.8505 44 160 44
-3.7377 -36.3414 -2.7986 44 160 44
-3.7526 -36.4156 -2.8453 44 160 44
-3.7354 -36.1908 -2.7776 44 160 44
-3.7355 -36.0841 -2.7676 44 160 44
-3.7648 -36.2567 -2.8624 44 160 44
-3.7654 -36.1257 -2.8511 44 160 44
-3.7397 -35.9244 -2.7633 44 160 44
-3.7365 -35.8223 -2.7449 44 160 44
-3.767 -36.0289 -2.8459 44 160 44
-3.7396 -35.7352 -2.7445 44 160 44
-3.7668 -35.8397 -2.8271 44 160 44
-3.738 -35.5362 -2.721 44 160 44
-3.7667 -35.6505 -2.8084 44 160 44
-3.7687 -35.5294 -2.8018 44 160 44
-3.743 -35.3281 -2.714 44 160 44
-3.7622 -35.4318 -2.7752 44 160 44
-3.7239 -35.1177 -2.6428 44 160 44
-3.753 -35.2077 -2.7289 44 160 44
-3.4854 -37.6095 -2.7542 44 160 44
-3.5186 -37.6465 -2.846 44 160 44
-3.5122 -37.5489 -2.8194 44 160 44
-3.5269 -37.4339 -2.8474 44 160 44
-3.5117 -37.2772 -2.7919 44 160 44
-3.5464 -37.3241 -2.8885 44 160 44
-3.537 -37.2068 -2.8522 44 160 44
-3.5386 -37.1099 -2.847 44 160 44
-3.542 -36.9987 -2.8453 44 160 44
-3.5392 -36.8723 -2.8256 44 160 44
-3.5325 -36.6922 -2.7903 44 160 44
-3.5488 -36.7762 -2.8418 44 160 44
-3.5585 -35.283 -2.7228 44 160 44
-3.5409 -35.0825 -2.6564 44 160 44
-3.5297 -34.9796 -2.6167 44 160 44
-3.562 -35.1718 -2.7211 44 160 44
-3.3872 -37.6649 -2.7659 44 160 44
-3.4078 -37.5892 -2.8131 44 160 44
-3.4108 -37.5022 -2.8127 44 160 44
-3.4029 -37.3947 -2.7812 44 160 44
-3.4053 -37.2494 -2.7733 44 160 44
-3.4362 -37.3251 -2.8629 44 160 44
-3.4171 -37.1147 -2.7917 44 160 44
-3.4334 -37.1987 -2.8433 44 160 44
-3.4159 -36.8915 -2.7668 44 160 44
-3.4362 -37.0292 -2.8341 44 160 44
-3.4458 -36.933 -2.8503 44 160 44
-3.4474 -36.8362 -2.845 44 160 44
-3.4537 -36.7446 -2.8529 44 160 44
-3.4388 -35.1909 -2.6619 44 160 44
-3.4309 -35.0835 -2.6304 44 160 44
-3.4603 -35.256 -2.7253 44 160 44
-3.4263 -34.9715 -2.6072 44 160 44
-3.467 -35.1402 -2.7318 44 160 44
-3.4899 -35.2151 -2.8 44 160 44
-2.948 -36.9411 -2.0403 44 160 44
-2.9518 -36.8056 -2.0373 44 160 44
-2.9424 -36.6883 -2.001 44 160 44
-2.9619 -36.5786 -2.0421 44 160 44
-3.1857 -37.6425 -2.7409 44 160 44
-3.1859 -37.5358 -2.7309 44 160 44
-3.2193 -37.6553 -2.8314 44 160 44
-3.2143 -37.5675 -2.8095 44 160 44
-3.2039 -37.4162 -2.7672 44 160 44
-3.207 -37.3292 -2.7667 44 160 44
-3.2323 -37.448 -2.8458 44 160 44
-3.2372 -37.3465 -2.8489 44 160 44
-3.213 -37.1551 -2.7659 44 160 44
-3.2407 -37.2353 -2.8472 44 160 44
-3.2321 -37.0696 -2.8083 44 160 44
-3.2469 -36.9545 -2.8363 44 160 44
-3.2485 -36.8577 -2.8311 44 160 44
-3.2565 -35.1897 -2.6897 44 160 44
-3.2396 -35.0474 -2.6307 44 160 44
-3.2923 -35.1639 -2.7824 44 160 44
-2.839 -36.9698 -2.0126 44 160 44
-2.8278 -36.8669 -1.9728 44 160 44
-2.8535 -36.7723 -2.0318 44 160 44
-2.8489 -36.6603 -2.0087 44 160 44
-2.8538 -36.5589 -2.0118 44 160 44
-3.0914 -37.6629 -2.7512 44 160 44
-3.0824 -37.5214 -2.7136 44 160 44
-3.1105 -37.5774 -2.7936 44 160 44
-3.1219 -37.4669 -2.8133 44 160 44
-3.1111 -37.3398 -2.7722 44 160 44
-3.1255 -37.249 -2.8015 44 160 44
-3.1451 -37.3284 -2.8614 44 160 44
-3.1399 -37.1581 -2.8308 44 160 44
-3.1287 -37.0552 -2.7911 44 160 44
-3.1653 -36.981 -2.8812 44 160 44
-3.1367 -35.0913 -2.621 44 160 44
-3.1325 -34.9551 -2.5966 44 160 44
-3.1681 -35.1428 -2.7093 44 160 44
-2.7289 -36.8273 -1.954 44 160 44
-2.7261 -36.701 -1.9343 44 160 44
-2.7565 -36.9075 -2.0353 44 160 44
-2.756 -36.7426 -2.0178 44 160 44
-2.7514 -36.6306 -1.9947 44 160 44
-2.7581 -36.5148 -2.0013 44 160 44
-2.9925 -37.6233 -2.7323 44 160 44
-2.9916 -37.4826 -2.7162 44 160 44
-3.0163 -37.5431 -2.7879 44 160 44
-3.0259 -37.447 -2.8041 44 160 44
-3.018 -37.3395 -2.7726 44 160 44
-3.0291 -37.2533 -2.7936 44 160 44
-3.0465 -37.3713 -2.8513 44 160 44
-3.0344 -37.1276 -2.7954 44 160 44
-3.0331 -37.0111 -2.7806 44 160 44
-3.0447 -35.0184 -2.6175 44 160 44
-3.0693 -35.1857 -2.6992 44 160 44
-3.0709 -35.0888 -2.694 44 160 44
-2.6336 -36.9662 -1.9681 44 160 44
-2.6319 -36.8738 -1.9545 44 160 44
-2.6629 -36.9495 -2.0441 44 160 44
-2.659 -36.7891 -2.0184 44 160 44
-2.6479 -36.6862 -1.9786 44 160 44
-2.6492 -36.5068 -1.9647 44 160 44
-2.8973 -37.6554 -2.7364 44 160 44
-2.9209 -37.4927 -2.7832 44 160 44
-2.9226 -37.2891 -2.768 44 160 44
-2.9418 -37.3928 -2.8292 44 160 44
-2.9122 -37.1378 -2.7256 44 160 44
-2.9237 -37.0273 -2.7453 44 160 44
-2.9454 -37.1749 -2.8174 44 160 44
-2.9346 -35.0831 -2.5848 44 160 44
-2.9442 -34.987 -2.601 44 160 44
-2.982 -35.136 -2.7159 44 160 44
-2.5511 -36.9723 -2.0079 44 160 44
-2.5574 -36.8807 -2.0158 44 160 44
-2.5557 -36.7884 -2.0022 44 160 44
-2.5493 -36.6907 -1.9756 44 160 44
-2.5302 -36.4804 -1.9043 44 160 44
-2.5542 -36.5893 -1.9786 44 160 44
-2.7973 -37.6501 -2.7287 44 160 44
-2.8193 -37.5843 -2.7807 44 160 44
-2.5448 -35.691 -1.8659 44 160 44
-2.8212 -37.4632 -2.7742 44 160 44
-2.5747 -35.7326 -1.9494 44 160 44
-2.5625 -35.5957 -1.9035 44 160 44
-2.8422 -37.3633 -2.8201 44 160 44
-2.8101 -37.0644 -2.7055 44 160 44
-2.8446 -37.218 -2.8122 44 160 44
-2.8414 -37.1158 -2.7938 44 160 44
-2.843 -37.0189 -2.7886 44 160 44
-2.8332 -35.068 -2.5719 44 160 44
-2.8381 -34.9665 -2.575 44 160 44
-2.4407 -36.9839 -1.9806 44 160 44
-2.4494 -36.747 -1.9806 44 160 44
-2.4383 -36.6441 -1.9408 44 160 44
-2.4534 -36.5048 -1.9675 44 160 44
-2.465 -36.2876 -1.9771 44 160 44
-2.6828 -37.608 -2.6857 44 160 44
-2.4582 -35.9183 -1.923 44 160 44
-2.4427 -35.7859 -1.8688 44 160 44
-2.7124 -37.5672 -2.7604 44 160 44
-2.6984 -37.4446 -2.711 44 160 44
-2.4744 -35.8131 -1.9558 44 160 44
-2.4618 -35.7004 -1.9112 44 160 44
-2.4969 -35.9122 -2.0253 44 160 44
-2.7342 -37.4188 -2.8037 44 160 44
-2.7081 -37.0526 -2.6984 44 160 44
-2.7471 -37.3181 -2.8282 44 160 44
-2.7425 -37.2061 -2.805 44 160 44
-2.7328 -37.1131 -2.7701 44 160 44
-2.7442 -37.0026 -2.7898 44 160 44
-2.7496 -35.019 -2.6098 44 160 44
-2.3346 -36.9747 -1.9558 44 160 44
-2.3262 -36.7023 -1.9069 44 160 44
-2.3551 -36.899 -2.0031 44 160 44
-2.3534 -36.8067 -1.9895 44 160 44
-2.3239 -36.5517 -1.8859 44 160 44
-2.3453 -36.6168 -1.9493 44 160 44
-2.3569 -36.6955 -1.9878 44 160 44
-2.3549 -36.5206 -1.9655 44 160 44
-2.3602 -36.395 -1.9673 44 160 44
-2.3633 -36.308 -1.9668 44 160 44
-2.5808 -37.546 -2.6666 44 160 44
-2.6088 -37.6019 -2.7466 44 160 44
-2.364 -35.7745 -1.9166 44 160 44
-2.617 -37.496 -2.7579 44 160 44
-2.6105 -37.3984 -2.7313 44 160 44
-2.3784 -35.6836 -1.9459 44 160 44
-2.6055 -37.1214 -2.6907 44 160 44
-2.643 -37.3771 -2.8157 44 160 44
-2.6103 -37.02 -2.6937 44 160 44
-2.6483 -37.2515 -2.8174 44 160 44
-2.6217 -34.9691 -2.5231 44 160 44
-2.645 -35.0198 -2.5899 44 160 44
-2.2362 -36.873 -1.9375 44 160 44
-2.2338 -36.7224 -1.9165 44 160 44
-2.266 -36.9146 -2.021 44 160 44
-2.2571 -36.7731 -1.9834 44 160 44
-2.2414 -36.5581 -1.9205 44 160 44
-2.2558 -36.6565 -1.9686 44 160 44
-2.2707 -36.4348 -1.9865 44 160 44
-2.4848 -37.5948 -2.6692 44 160 44
-2.5194 -37.6417 -2.7658 44 160 44
-2.5014 -37.4653 -2.7007 44 160 44
-2.5162 -37.5395 -2.7475 44 160 44
-2.5161 -37.3503 -2.7287 44 160 44
-2.5376 -37.4154 -2.7921 44 160 44
-2.5117 -37.1316 -2.6955 44 160 44
-2.5371 -37.2504 -2.7746 44 160 44
-2.5486 -37.3291 -2.8131 44 160 44
-2.5401 -37.1634 -2.7742 44 160 44
-2.5261 -37.0408 -2.7248 44 160 44
-2.5488 -35.1753 -2.6026 44 160 44
-2.5384 -35.0239 -2.5602 44 160 44
-2.5772 -35.207 -2.6813 44 160 44
-2.5632 -35.0845 -2.6319 44 160 44
-2.5433 -34.9225 -2.5633 44 160 44
-2.1327 -36.8385 -1.9091 44 160 44
-2.1333 -36.7076 -1.8978 44 160 44
-2.1721 -36.8907 -2.0189 44 160 44
-2.1305 -36.5812 -1.8781 44 160 44
-2.1617 -36.7394 -1.9765 44 160 44
-2.1585 -36.6372 -1.9581 44 160 44
-2.169 -36.4927 -1.9717 44 160 44
-2.1315 -36.1302 -1.8367 44 160 44
-2.4053 -37.6693 -2.7151 44 160 44
-2.3927 -37.5566 -2.6705 44 160 44
-2.4238 -37.5255 -2.7501 44 160 44
-2.4204 -37.3409 -2.723 44 160 44
-2.4433 -37.4158 -2.7912 44 160 44
-2.43 -37.2447 -2.7392 44 160 44
-2.4178 -37.1078 -2.6933 44 160 44
-2.4514 -37.3098 -2.8026 44 160 44
-2.4505 -37.1691 -2.7864 44 160 44
-2.4369 -37.0222 -2.7357 44 160 44
-2.4504 -35.1219 -2.5861 44 160 44
-2.4514 -34.9668 -2.5734 44 160 44
-2.4836 -35.159 -2.6779 44 160 44
-2.0322 -36.7607 -1.8924 44 160 44
-2.0699 -36.9098 -2.0074 44 160 44
-2.0602 -36.8167 -1.9724 44 160 44
-2.0578 -36.6661 -1.9514 44 160 44
-2.0561 -36.5738 -1.9379 44 160 44
-2.0577 -36.4769 -1.9327 44 160 44
-2.2872 -37.5801 -2.6508 44 160 44
-2.3035 -37.6641 -2.7023 44 160 44
-2.3197 -37.5589 -2.7351 44 160 44
-2.3392 -37.4492 -2.7762 44 160 44
-2.3427 -37.3379 -2.7745 44 160 44
-2.3189 -37.1222 -2.6902 44 160 44
-2.345 -37.1926 -2.7667 44 160 44
-2.338 -37.0367 -2.7326 44 160 44
-2.3597 -35.0305 -2.5942 44 160 44
-2.3892 -35.0963 -2.679 44 160 44
-1.9609 -36.8031 -1.9538 44 160 44
-1.9331 -36.5337 -1.8537 44 160 44
-1.961 -36.6964 -1.9438 44 160 44
-1.9564 -36.5844 -1.9206 44 160 44
-1.9565 -36.4777 -1.9106 44 160 44
-2.2044 -37.5438 -2.6736 44 160 44
-1.9664 -35.8723 -1.8779 44 160 44
-2.2292 -37.6044 -2.7453 44 160 44
-2.2108 -37.4523 -2.6815 44 160 44
-1.9506 -35.6573 -1.815 44 160 44
-1.9845 -35.7527 -1.9142 44 160 44
-2.2451 -37.4167 -2.7694 44 160 44
-2.2401 -37.3289 -2.7475 44 160 44
-2.2559 -37.2479 -2.7817 44 160 44
-2.2528 -37.1457 -2.7633 44 160 44
-2.2401 -37.033 -2.7187 44 160 44
-1.8429 -36.9388 -1.9071 44 160 44
-1.8439 -36.7837 -1.8945 44 160 44
-1.8335 -36.6324 -1.8521 44 160 44
-1.8769 -36.9275 -1.9963 44 160 44
-1.8648 -36.6838 -1.9404 44 160 44
-1.8616 -36.5816 -1.922 44 160 44
-1.8552 -36.484 -1.8953 44 160 44
-1.8524 -36.3576 -1.8757 44 160 44
-1.8603 -35.8733 -1.8495 44 160 44
-1.8734 -35.9618 -1.8928 44 160 44
-2.1054 -37.5115 -2.6607 44 160 44
-2.1308 -37.6303 -2.7398 44 160 44
-1.8609 -35.7424 -1.8381 44 160 44
-2.1339 -37.5432 -2.7394 44 160 44
-1.8823 -35.8074 -1.9015 44 160 44
-1.9059 -35.9406 -1.9771 44 160 44
-1.8651 -35.5827 -1.8338 44 160 44
-2.1402 -37.4517 -2.7472 44 160 44
-2.1564 -37.3465 -2.78 44 160 44
-2.1518 -37.2345 -2.7569 44 160 44
-2.1439 -37.127 -2.7254 44 160 44
-2.1587 -34.9406 -2.5516 44 160 44
-1.7751 -36.9245 -1.9819 44 160 44
-1.7653 -36.8315 -1.947 44 160 44
-1.7574 -36.724 -1.9155 44 160 44
-1.741 -36.4508 -1.8452 44 160 44
-1.7646 -36.584 -1.9208 44 160 44
-1.7676 -36.497 -1.9204 44 160 44
-1.751 -36.3305 -1.8601 44 160 44
-1.7692 -36.4001 -1.9152 44 160 44
-1.7777 -36.2699 -1.9252 44 160 44
-2.0177 -37.6312 -2.6956 44 160 44
-2.0026 -37.4746 -2.6401 44 160 44
-1.7605 -35.7492 -1.8287 44 160 44
-2.024 -37.5397 -2.7035 44 160 44
-1.79 -35.8151 -1.9135 44 160 44
-2.0351 -37.4534 -2.7245 44 160 44
-2.0568 -37.305 -2.7678 44 160 44
-2.0282 -37.0841 -2.6704 44 160 44
-2.0265 -36.9917 -2.6568 44 160 44
-2.0555 -37.1885 -2.753 44 160 44
-1.654 -36.7669 -1.9041 44 160 44
-1.6772 -36.9243 -1.981 44 160 44
-1.6722 -36.8365 -1.9591 44 160 44
-1.6448 -36.5429 -1.8578 44 160 44
-1.664 -36.6466 -1.9189 44 160 44
-1.6694 -36.4143 -1.9107 44 160 44
-1.6871 -36.3189 -1.9483 44 160 44
-1.9064 -37.4599 -2.6428 44 160 44
-1.9242 -37.5538 -2.6991 44 160 44
-1.9274 -37.36 -2.6887 44 160 44
-1.6893 -35.6885 -1.8928 44 160 44
-1.6847 -35.5765 -1.8697 44 160 44
-1.9225 -37.1655 -2.6568 44 160 44
-1.9179 -37.0535 -2.6336 44 160 44
-1.9582 -37.2465 -2.7595 44 160 44
-1.9478 -37.0951 -2.7171 44 160 44
-1.9465 -36.9786 -2.7023 44 160 44
-1.4472 -36.8417 -1.8641 44 160 44
-1.4654 -36.9113 -1.9192 44 160 44
-1.4477 -36.7107 -1.8528 44 160 44
-1.4725 -36.7713 -1.9244 44 160 44
-1.496 -36.9044 -2 44 160 44
-1.4538 -36.5367 -1.852 44 160 44
-1.4734 -36.6161 -1.9118 44 160 44
-1.4794 -36.442 -1.911 44 160 44
-1.4743 -36.1651 -1.8704 44 160 44
-1.7372 -37.6013 -2.7089 44 160 44
-1.7359 -37.4848 -2.694 44 160 44
-1.7376 -37.2812 -2.6788 44 160 44
-1.7572 -37.3607 -2.7387 44 160 44
-1.7603 -37.1669 -2.7282 44 160 44
-1.7539 -37.0693 -2.7016 44 160 44
-1.3683 -36.9148 -1.9111 44 160 44
-1.3571 -36.8119 -1.8714 44 160 44
-1.3917 -36.8588 -1.968 44 160 44
-1.3588 -36.6083 -1.8561 44 160 44
-1.385 -36.6787 -1.9326 44 160 44
-1.3707 -36.4736 -1.8745 44 160 44
-1.3884 -36.5674 -1.9309 44 160 44
-1.3604 -36.2156 -1.8221 44 160 44
-1.3653 -36.1141 -1.8251 44 160 44
-1.3917 -36.267 -1.9103 44 160 44
-1.6307 -37.5942 -2.6747 44 160 44
-1.6403 -37.4981 -2.6909 44 160 44
-1.6358 -37.2794 -2.6577 44 160 44
-1.6546 -37.4073 -2.7202 44 160 44
-1.6657 -37.321 -2.7412 44 160 44
-1.6677 -37.1999 -2.7346 44 160 44
-1.6594 -37.1167 -2.7045 44 160 44
-1.6511 -37.0334 -2.6743 44 160 44
-1.2695 -36.8388 -1.8929 44 160 44
-1.2942 -36.8994 -1.9646 44 160 44
-1.2545 -36.5755 -1.8274 44 160 44
-1.2828 -36.714 -1.9161 44 160 44
-1.2843 -36.6171 -1.9109 44 160 44
-1.2736 -36.49 -1.8698 44 160 44
-1.512 -37.5456 -2.6066 44 160 44
-1.5298 -37.6394 -2.663 44 160 44
-1.5202 -37.4396 -2.618 44 160 44
-1.5431 -37.5145 -2.6862 44 160 44
-1.3004 -35.7309 -1.8674 44 160 44
-1.5506 -37.3503 -2.6901 44 160 44
-1.538 -37.2375 -2.6456 44 160 44
-1.5661 -37.1868 -2.7155 44 160 44
-1.5597 -37.0892 -2.6889 44 160 44
-1.1577 -36.7352 -1.8529 44 160 44
-1.174 -36.8192 -1.9044 44 160 44
-1.1937 -36.8987 -1.9643 44 160 44
-1.1347 -36.4711 -1.766 44 160 44
-1.1521 -36.5892 -1.8236 44 160 44
-1.1801 -36.6452 -1.9036 44 160 44
-1.1712 -36.5036 -1.8661 44 160 44
-1.4214 -37.5313 -2.6312 44 160 44
-1.4443 -37.6062 -2.6993 44 160 44
-1.4427 -37.4072 -2.6758 44 160 44
-1.191 -35.5887 -1.8296 44 160 44
-1.2098 -35.7166 -1.8921 44 160 44
-1.4432 -37.2763 -2.6645 44 160 44
-1.4361 -37.1204 -2.6304 44 160 44
-1.4282 -37.0129 -2.599 44 160 44
-1.4754 -37.2793 -2.7501 44 160 44
-1.4722 -37.1771 -2.7318 44 160 44
-1.4596 -37.0644 -2.6873 44 160 44
-1.4626 -36.9773 -2.6869 44 160 44
-1.4721 -35.0233 -2.5218 44 160 44
-1.0501 -36.7964 -1.829 44 160 44
-1.0821 -36.9061 -1.9247 44 160 44
-1.0544 -36.6367 -1.8247 44 160 44
-1.0787 -36.7215 -1.8977 44 160 44
-1.051 -36.452 -1.7976 44 160 44
-1.072 -36.5413 -1.8623 44 160 44
-1.0606 -36.3559 -1.8138 44 160 44
-1.082 -36.421 -1.8772 44 160 44
-1.0873 -36.2954 -1.879 44 160 44
-1.3206 -37.5591 -2.6227 44 160 44
-1.0636 -35.7838 -1.7658 44 160 44
-1.3421 -37.6242 -2.6861 44 160 44
-1.1036 -35.8943 -1.883 44 160 44
-1.0794 -35.7028 -1.8 44 160 44
-1.0939 -35.8012 -1.848 44 160 44
-1.3412 -37.4834 -2.6699 44 160 44
-1.0781 -35.5863 -1.7851 44 160 44
-1.3399 -37.3669 -2.6551 44 160 44
-1.3373 -37.1338 -2.6254 44 160 44
-1.329 -37.0506 -2.5953 44 160 44
-1.3717 -37.2874 -2.732 44 160 44
-1.3708 -37.1467 -2.7159 44 160 44
-1.3524 -36.9945 -2.6521 44 160 44
-1.3728 -34.9784 -2.5091 44 160 44
-0.9715 -36.8547 -1.8786 44 160 44
-0.9615 -36.6792 -1.8349 44 160 44
-0.9844 -36.7541 -1.9031 44 160 44
-0.9592 -36.5286 -1.814 44 160 44
-1.0073 -36.829 -1.9713 44 160 44
-0.9901 -36.6042 -1.9036 44 160 44
-0.9873 -36.4778 -1.8839 44 160 44
-0.9809 -36.3802 -1.8573 44 160 44
-0.9792 -36.2879 -1.8437 44 160 44
-0.9856 -36.1963 -1.8516 44 160 44
-0.9665 -35.9859 -1.7804 44 160 44
-0.9898 -36.0366 -1.8473 44 160 44
-1.2281 -37.5774 -2.6316 44 160 44
-0.9658 -35.7385 -1.7542 44 160 44
-0.9918 -35.9155 -1.8408 44 160 44
-0.9905 -35.799 -1.8259 44 160 44
-0.9707 -35.637 -1.7573 44 160 44
-1.2513 -37.4389 -2.6797 44 160 44
-1.2704 -37.3533 -2.7222 44 160 44
-1.2318 -37.0635 -2.5911 44 160 44
-1.2481 -37.1475 -2.6426 44 160 44
-1.264 -37.2557 -2.6955 44 160 44
-1.2798 -37.1747 -2.7296 44 160 44
-1.256 -36.959 -2.6453 44 160 44
-1.043 -37.6077 -2.6476 44 160 44
-1.0526 -37.5116 -2.6638 44 160 44
-1.0655 -37.4109 -2.6882 44 160 44
-1.056 -37.1044 -2.6332 44 160 44
-1.0419 -36.9818 -2.5839 44 160 44
-1.0868 -37.2868 -2.7329 44 160 44
-1.0822 -37.1748 -2.7097 44 160 44
-1.0752 -36.9122 -2.6656 44 160 44
-1.0681 -35.0875 -2.4688 44 160 44
-1.0777 -34.9914 -2.485 44 160 44
-1.1002 -35.0906 -2.5545 44 160 44
-0.9218 -37.579 -2.5817 44 160 44
-0.9536 -37.6062 -2.6687 44 160 44
-0.9526 -37.4654 -2.6525 44 160 44
-0.9443 -37.3822 -2.6224 44 160 44
-0.9787 -37.3466 -2.7102 44 160 44
-0.953 -37.1453 -2.6224 44 160 44
-0.942 -36.9357 -2.5726 44 160 44
-0.9844 -37.1968 -2.7107 44 160 44
-0.9696 -37.0159 -2.6539 44 160 44
-0.9749 -36.8903 -2.6557 44 160 44
-0.9701 -35.1095 -2.4699 44 160 44
-0.972 -34.9884 -2.4633 44 160 44
-1.0127 -35.1572 -2.5879 44 160 44
-0.8373 -37.6022 -2.6111 44 160 44
-0.8356 -37.5098 -2.5976 44 160 44
-0.8665 -37.5855 -2.6872 44 160 44
-0.847 -37.3993 -2.6173 44 160 44
-0.8781 -37.3683 -2.6968 44 160 44
-0.8648 -37.1973 -2.6449 44 160 44
-0.8859 -37.2865 -2.7095 44 160 44
-0.8403 -36.9233 -2.5531 44 160 44
-0.8519 -37.002 -2.5916 44 160 44
-0.8291 -36.8204 -2.5134 44 160 44
-0.8763 -37.0868 -2.6646 44 160 44
-0.8638 -36.8673 -2.61 44 160 44
-0.8475 -35.0078 -2.3858 44 160 44
-0.8591 -35.0865 -2.4243 44 160 44
-0.8975 -35.2939 -2.5466 44 160 44
-0.9157 -35.3635 -2.6016 44 160 44
-0.8811 -35.0207 -2.4763 44 160 44
-0.8728 -34.9375 -2.4462 44 160 44
-0.9133 -35.2129 -2.5807 44 160 44
-0.9036 -35.1198 -2.5458 44 160 44
-0.9562 -35.3431 -2.7074 44 160 44
-0.7219 -37.5644 -2.5645 44 160 44
-0.7452 -37.6151 -2.6314 44 160 44
-0.7411 -37.3722 -2.5969 44 160 44
-0.7542 -37.4607 -2.6402 44 160 44
-0.7606 -37.2624 -2.638 44 160 44
-0.7737 -37.351 -2.6813 44 160 44
-0.7655 -37.161 -2.6411 44 160 44
-0.7152 -36.7925 -2.4716 44 160 44
-0.7334 -36.8621 -2.5267 44 160 44
-0.7483 -36.9362 -2.5734 44 160 44
-0.7902 -37.2215 -2.7128 44 160 44
-0.7788 -37.0361 -2.6643 44 160 44
-0.7448 -36.7516 -2.5464 44 160 44
-0.7641 -36.8553 -2.6075 44 160 44
-0.7789 -36.9294 -2.6543 44 160 44
-0.7781 -36.6819 -2.6281 44 160 44
-0.7694 -35.1434 -2.4555 44 160 44
-0.8162 -35.434 -2.6079 44 160 44
-0.8097 -35.3363 -2.5813 44 160 44
-0.8012 -35.1706 -2.5425 44 160 44
-0.7871 -35.048 -2.4931 44 160 44
-0.8483 -35.437 -2.6936 44 160 44
-0.6403 -37.5467 -2.5948 44 160 44
-0.6291 -37.4438 -2.555 44 160 44
-0.67 -37.3991 -2.6595 44 160 44
-0.6746 -37.2152 -2.6539 44 160 44
-0.6928 -37.2849 -2.709 44 160 44
-0.6784 -37.0798 -2.6509 44 160 44
-0.6966 -37.1494 -2.7059 44 160 44
-0.6767 -36.9874 -2.6374 44 160 44
-0.6707 -36.8656 -2.6094 44 160 44
-0.6666 -36.6227 -2.575 44 160 44
-0.6811 -36.721 -2.623 44 160 44
-0.6649 -36.5303 -2.5615 44 160 44
-0.6916 -36.4698 -2.6266 44 160 44
-0.6983 -36.354 -2.6332 44 160 44
-0.6996 -36.1746 -2.6193 44 160 44
-0.6997 -36.0679 -2.6092 44 160 44
-0.734 -36.139 -2.7071 44 160 44
-0.702 -35.7334 -2.5827 44 160 44
-0.7315 -35.7992 -2.6675 44 160 44
-0.7087 -35.6176 -2.5893 44 160 44
-0.7012 -35.4859 -2.5565 44 160 44
-0.6634 -35.0409 -2.4129 44 160 44
-0.7054 -35.3262 -2.5522 44 160 44
-0.6863 -35.1159 -2.481 44 160 44
-0.7107 -35.2006 -2.554 44 160 44
-0.5319 -37.4907 -2.5608 44 160 44
-0.5516 -37.5701 -2.6207 44 160 44
-0.5679 -37.3582 -2.6435 44 160 44
-0.5943 -37.2152 -2.6999 44 160 44
-0.5666 -36.9458 -2.5999 44 160 44
-0.5887 -37.0691 -2.6706 44 160 44
-0.5634 -36.8436 -2.5815 44 160 44
-0.5918 -36.8754 -2.6602 44 160 44
-0.5676 -36.6839 -2.5772 44 160 44
-0.5612 -36.5863 -2.5505 44 160 44
-0.5887 -36.7732 -2.6419 44 160 44
-0.5654 -36.4266 -2.5462 44 160 44
-0.5914 -36.6037 -2.6327 44 160 44
-0.585 -36.506 -2.6061 44 160 44
-0.5935 -36.3759 -2.6161 44 160 44
-0.5871 -36.2782 -2.5895 44 160 44
-0.5855 -36.0792 -2.5659 44 160 44
-0.5985 -36.1678 -2.6092 44 160 44
-0.5749 -35.8454 -2.5148 44 160 44
-0.6116 -35.9604 -2.6237 44 160 44
-0.6033 -35.8771 -2.5935 44 160 44
-0.5972 -35.7553 -2.5656 44 160 44
-0.6068 -35.6592 -2.5817 44 160 44
-0.6051 -35.5669 -2.5682 44 160 44
-0.6034 -35.4745 -2.5547 44 160 44
-0.605 -35.3777 -2.5495 44 160 44
-0.6113 -35.2861 -2.5573 44 160 44
-0.5871 -35.0946 -2.4743 44 160 44
-0.6016 -35.193 -2.5224 44 160 44
-0.5633 -34.879 -2.39 44 160 44
-0.5839 -34.9925 -2.456 44 160 44
-0.4373 -37.4641 -2.559 44 160 44
-0.4676 -37.4815 -2.6411 44 160 44
-0.4578 -37.3884 -2.6062 44 160 44
-0.4754 -37.293 -2.6438 44 160 44
-0.4982 -37.1787 -2.6932 44 160 44
-0.4675 -36.8897 -2.5836 44 160 44
-0.4965 -37.0864 -2.6797 44 160 44
-0.5028 -36.9948 -2.6876 44 160 44
-0.4742 -36.7739 -2.5901 44 160 44
-0.499 -36.8344 -2.6618 44 160 44
-0.4726 -36.5748 -2.5666 44 160 44
-0.4976 -36.7178 -2.647 44 160 44
-0.4959 -36.6255 -2.6335 44 160 44
-0.4688 -36.4144 -2.5408 44 160 44
-0.4869 -36.484 -2.5959 44 160 44
-0.4686 -36.2252 -2.5221 44 160 44
-0.4998 -36.3833 -2.6204 44 160 44
-0.4901 -36.2903 -2.5854 44 160 44
-0.4968 -36.1745 -2.592 44 160 44
-0.4812 -36.042 -2.5378 44 160 44
-0.5065 -35.9716 -2.5982 44 160 44
-0.475 -35.731 -2.4911 44 160 44
-0.5033 -35.8695 -2.5798 44 160 44
-0.5016 -35.7771 -2.5663 44 160 44
-0.4843 -35.5524 -2.4986 44 160 44
-0.5054 -35.6417 -2.5633 44 160 44
-0.482 -35.4018 -2.4777 44 160 44
-0.5111 -35.4918 -2.5638 44 160 44
-0.5087 -35.3412 -2.5428 44 160 44
-0.4867 -35.1112 -2.462 44 160 44
-0.4581 -34.8902 -2.3646 44 160 44
-0.503 -35.1952 -2.5136 44 160 44
-0.4773 -34.9939 -2.4257 44 160 44
-0.3548 -37.378 -2.5831 44 160 44
-0.3738 -37.2925 -2.6256 44 160 44
-0.362 -37.1313 -2.5784 44 160 44
-0.3834 -37.1964 -2.6417 44 160 44
-0.3949 -37.0859 -2.6614 44 160 44
-0.3921 -36.9595 -2.6418 44 160 44
-0.4054 -36.8346 -2.665 44 160 44
-0.4026 -36.7082 -2.6453 44 160 44
-0.3947 -36.6008 -2.6138 44 160 44
-0.3882 -36.5032 -2.5872 44 160 44
-0.4011 -36.4025 -2.6117 44 160 44
-0.395 -36.2807 -2.5837 44 160 44
-0.3966 -36.1838 -2.5785 44 160 44
-0.3981 -36.0869 -2.5733 44 160 44
-0.4162 -35.9673 -2.6096 44 160 44
-0.4097 -35.8697 -2.5829 44 160 44
-0.4065 -35.7675 -2.5646 44 160 44
-0.3882 -35.5087 -2.4907 44 160 44
-0.4093 -35.598 -2.5554 44 160 44
-0.3938 -35.3589 -2.4912 44 160 44
-0.4087 -35.433 -2.538 44 160 44
-0.3729 -35.1629 -2.4165 44 160 44
-0.3562 -34.9964 -2.3562 44 160 44
-0.3744 -35.066 -2.4112 44 160 44
-0.4031 -35.1803 -2.4986 44 160 44
-0.383 -34.9359 -2.4213 44 160 44
-0.1829 -36.7935 -2.5829 44 160 44
-0.1915 -36.6634 -2.593 44 160 44
-0.2183 -36.792 -2.6769 44 160 44
-0.2217 -36.6807 -2.6752 44 160 44
-0.1617 -36.2191 -2.4707 44 160 44
-0.1879 -36.2895 -2.5471 44 160 44
-0.2408 -36.5952 -2.7176 44 160 44
-0.1917 -36.154 -2.5441 44 160 44
-0.198 -36.0625 -2.552 44 160 44
-0.1961 -35.8876 -2.5297 44 160 44
-0.2248 -36.0019 -2.6171 44 160 44
-0.2057 -35.7915 -2.5459 44 160 44
-0.2315 -35.8861 -2.6237 44 160 44
-0.2128 -35.6515 -2.5512 44 160 44
-0.2063 -35.5539 -2.5245 44 160 44
-0.1999 -35.4563 -2.4979 44 160 44
-0.1801 -35.1876 -2.4192 44 160 44
-0.2004 -35.3253 -2.4865 44 160 44
-0.1868 -35.0718 -2.4258 44 160 44
-0.1851 -34.9795 -2.4122 44 160 44
-0.0895 -35.6415 -2.4799 44 160 44
-0.0868 -35.5151 -2.4602 44 160 44
-0.0727 -35.3925 -2.4109 44 160 44
-0.121 -35.5862 -2.5582 44 160 44
-0.0714999 -35.1692 -2.386 44 160 44
-0.0994 -35.3319 -2.476 44 160 44
-0.0977 -35.2396 -2.4625 44 160 44
-0.1549 -35.5748 -2.6473 44 160 44
-0.0939 -35.0792 -2.4367 44 160 44
