ply
format ascii 1.0
comment Created by Open3D
element vertex 2561
property double x
property double y
property double z
property uchar red
property uchar green
property uchar blue
end_header
-5.1015 -36.5671 -2.684 255 187 120
-5.1015 -36.4732 -2.7431 255 187 120
-5.1015 -36.689 -2.6556 255 187 120
-5.1015 -36.6572 -2.7392 255 187 120
-5.0088 -36.1461 -2.7408 255 187 120
-5.0088 -36.2824 -2.7163 255 187 120
-5.0088 -36.0902 -2.8256 255 187 120
-5.0088 -36.4134 -2.7058 255 187 120
-5.0088 -36.231 -2.8101 255 187 120
-5.0089 -36.5254 -2.6824 255 187 120
-5.0089 -36.362 -2.7995 255 187 120
-5.0089 -36.6473 -2.654 255 187 120
-5.0089 -36.4884 -2.78 255 187 120
-5.0089 -36.6005 -2.7566 255 187 120
-5.0089 -36.6883 -2.7343 255 187 120
-5.0089 -36.767 -2.6942 255 187 120
-4.9136 -36.0143 -2.695 255 187 120
-4.9136 -36.115 -2.7224 255 187 120
-4.9136 -36.299 -2.7185 255 187 120
-4.9136 -36.3801 -2.7559 255 187 120
-4.9136 -36.6541 -2.6612 255 187 120
-4.9136 -36.5111 -2.7454 255 187 120
-4.9136 -36.7419 -2.6389 255 187 120
-4.9136 -36.6368 -2.7488 255 187 120
-4.9136 -36.8223 -2.6992 255 187 120
-4.8198 -35.8814 -2.6485 255 187 120
-4.8198 -36.0769 -2.7401 255 187 120
-4.8198 -36.1995 -2.6887 255 187 120
-4.8199 -36.3002 -2.7161 255 187 120
-4.8199 -36.4653 -2.6994 255 187 120
-4.8199 -36.5963 -2.6888 255 187 120
-4.8199 -36.7037 -2.6565 255 187 120
-4.8199 -36.8158 -2.6331 255 187 120
-4.8199 -36.8817 -2.6894 255 187 120
-4.7211 -35.8737 -2.7094 255 187 120
-4.7212 -36.0872 -2.6905 255 187 120
-4.7212 -36.2424 -2.6788 255 187 120
-4.7212 -36.3333 -2.7112 255 187 120
-4.7212 -36.4401 -2.7017 255 187 120
-4.7212 -36.6634 -2.6778 255 187 120
-4.7212 -36.5794 -2.7319 255 187 120
-4.7212 -36.7747 -2.6773 255 187 120
-4.7212 -36.8921 -2.6399 255 187 120
-4.7213 -36.9331 -2.7203 255 187 120
-4.6257 -35.8763 -2.7644 255 187 120
-4.6257 -36.0633 -2.669 255 187 120
-4.6257 -36.2662 -2.678 255 187 120
-4.6257 -36.3677 -2.6825 255 187 120
-4.6257 -36.3845 -2.764 255 187 120
-4.6257 -36.5805 -2.6865 255 187 120
-4.6257 -36.682 -2.6909 255 187 120
-4.6257 -36.8228 -2.6754 255 187 120
-4.5276 -35.6229 -2.6804 255 187 120
-4.5276 -35.7615 -2.7334 255 187 120
-4.5276 -35.9304 -2.7485 255 187 120
-4.5276 -36.0485 -2.6883 255 187 120
-4.5276 -36.184 -2.6866 255 187 120
-4.5276 -36.2651 -2.7241 255 187 120
-4.5276 -36.4227 -2.7899 255 187 120
-4.5276 -36.8618 -2.6785 255 187 120
-4.5276 -37.0079 -2.6489 255 187 120
-4.5276 -36.9474 -2.7248 255 187 120
-4.5276 -37.0837 -2.7003 255 187 120
-4.334 -35.6738 -2.6536 255 187 120
-4.334 -36.0427 -2.7692 255 187 120
-4.334 -36.1653 -2.7179 255 187 120
-4.334 -36.244 -2.6777 255 187 120
-4.334 -36.3796 -2.676 255 187 120
-4.334 -36.4796 -2.7263 255 187 120
-4.334 -36.8006 -2.675 255 187 120
-4.334 -36.9218 -2.6695 255 187 120
-4.334 -36.8416 -2.7554 255 187 120
-4.334 -37.0679 -2.6399 255 187 120
-4.2344 -35.6085 -2.6525 255 187 120
-4.2344 -35.7191 -2.6748 255 187 120
-4.2343 -36.3037 -2.7029 255 187 120
-4.2343 -36.4325 -2.7609 255 187 120
-4.2343 -36.9822 -2.6718 255 187 120
-4.2343 -37.1184 -2.6473 255 187 120
-4.2343 -37.248 -2.6824 255 187 120
-4.1412 -35.6803 -2.6605 255 187 120
-4.1412 -35.7062 -2.7598 255 187 120
-4.1412 -35.8046 -2.7096 255 187 120
-4.1412 -36.0718 -2.6744 255 187 120
-4.1412 -36.2369 -2.6577 255 187 120
-4.1412 -36.3232 -2.6812 255 187 120
-4.1412 -36.4619 -2.7342 255 187 120
-4.1412 -37.0456 -2.6388 255 187 120
-4.1412 -36.8829 -2.7331 255 187 120
-4.1412 -37.0041 -2.7276 255 187 120
-4.1412 -37.2644 -2.606 255 187 120
-4.1412 -37.1161 -2.7041 255 187 120
-4.1412 -37.213 -2.6997 255 187 120
-4.0441 -35.5202 -2.7225 255 187 120
-4.0441 -35.7843 -2.6328 255 187 120
-4.0441 -35.6747 -2.7337 255 187 120
-4.0441 -36.3205 -2.663 255 187 120
-4.0441 -36.2456 -2.735 255 187 120
-4.0441 -36.8574 -2.6704 255 187 120
-4.0441 -36.7734 -2.7245 255 187 120
-4.0442 -37.0505 -2.6844 255 187 120
-4.0442 -36.937 -2.7536 255 187 120
-4.0442 -37.2269 -2.6169 255 187 120
-4.0442 -37.1664 -2.6928 255 187 120
-4.0442 -37.3912 -2.6231 255 187 120
-4.0442 -37.2974 -2.6822 255 187 120
-3.9497 -35.1949 -2.6844 255 187 120
-3.9497 -35.288 -2.6481 255 187 120
-3.9497 -35.3842 -2.6666 255 187 120
-3.9497 -35.4652 -2.704 255 187 120
-3.9497 -35.5993 -2.7481 255 187 120
-3.9498 -35.7349 -2.7464 255 187 120
-3.9498 -35.8378 -2.7051 255 187 120
-3.9498 -35.9575 -2.7453 255 187 120
-3.9498 -36.0491 -2.7548 255 187 120
-3.9498 -36.2936 -2.6751 255 187 120
-3.9498 -36.1506 -2.7593 255 187 120
-3.9498 -36.2475 -2.7548 255 187 120
-3.9498 -36.3445 -2.7504 255 187 120
-3.9499 -36.6571 -2.6584 255 187 120
-3.9499 -36.5678 -2.7264 255 187 120
-3.9499 -36.8017 -2.6746 255 187 120
-3.9499 -36.9812 -2.6618 255 187 120
-3.9499 -36.9018 -2.7248 255 187 120
-3.9499 -37.1076 -2.6423 255 187 120
-3.95 -37.1985 -2.6746 255 187 120
-3.95 -37.2871 -2.6295 255 187 120
-3.95 -37.409 -2.601 255 187 120
-3.8549 -35.1243 -2.574 255 187 120
-3.855 -35.2893 -2.5573 255 187 120
-3.855 -35.4318 -2.6421 255 187 120
-3.855 -35.5129 -2.6795 255 187 120
-3.855 -35.6477 -2.7007 255 187 120
-3.855 -35.8233 -2.6561 255 187 120
-3.855 -35.7727 -2.727 255 187 120
-3.8551 -35.8938 -2.7214 255 187 120
-3.8551 -36.0097 -2.7298 255 187 120
-3.8551 -36.2928 -2.6529 255 187 120
-3.8551 -36.2414 -2.7466 255 187 120
-3.8551 -36.5783 -2.6535 255 187 120
-3.8552 -36.7577 -2.6407 255 187 120
-3.8552 -36.6783 -2.7038 255 187 120
-3.8552 -36.8578 -2.691 255 187 120
-3.8552 -36.9554 -2.6637 255 187 120
-3.8552 -37.184 -2.6258 255 187 120
-3.8552 -37.3438 -2.623 255 187 120
-3.8553 -37.4604 -2.6085 255 187 120
-3.7561 -35.2198 -2.5715 255 187 120
-3.7561 -35.3107 -2.6039 255 187 120
-3.7561 -35.4691 -2.6469 255 187 120
-3.7561 -35.404 -2.7138 255 187 120
-3.7561 -35.5705 -2.6514 255 187 120
-3.7562 -35.6917 -2.6458 255 187 120
-3.7562 -35.7841 -2.6325 255 187 120
-3.7562 -35.6358 -2.7306 255 187 120
-3.7562 -35.8711 -2.6331 255 187 120
-3.7562 -35.7857 -2.7329 255 187 120
-3.7562 -35.8826 -2.7285 255 187 120
-3.7562 -36.0204 -2.6582 255 187 120
-3.7562 -36.0856 -2.7374 255 187 120
-3.7562 -36.2627 -2.6471 255 187 120
-3.7562 -36.1969 -2.7369 255 187 120
-3.7562 -36.3279 -2.7263 255 187 120
-3.7562 -36.4407 -2.6801 255 187 120
-3.7562 -36.5921 -2.6366 255 187 120
-3.7562 -36.5747 -2.7242 255 187 120
-3.7563 -36.683 -2.6689 255 187 120
-3.7563 -36.7981 -2.7002 255 187 120
-3.7563 -36.9109 -2.6539 255 187 120
-3.7563 -37.0116 -2.6813 255 187 120
-3.7563 -37.1047 -2.6451 255 187 120
-3.7563 -36.942 -2.7393 255 187 120
-3.7563 -37.2698 -2.6284 255 187 120
-3.7563 -37.1556 -2.7204 255 187 120
-3.7563 -37.3305 -2.6987 255 187 120
-3.7563 -37.5174 -2.6033 255 187 120
-3.7563 -37.4235 -2.6624 255 187 120
-3.7563 -37.5387 -2.6937 255 187 120
-3.7564 -37.6265 -2.6714 255 187 120
-3.6621 -35.0979 -2.5775 255 187 120
-3.6621 -35.0283 -2.6355 255 187 120
-3.6621 -35.1903 -2.5642 255 187 120
-3.6621 -35.2714 -2.6016 255 187 120
-3.6621 -35.2207 -2.6724 255 187 120
-3.6622 -35.4131 -2.7093 255 187 120
-3.6622 -35.5487 -2.7077 255 187 120
-3.6622 -35.6909 -2.6463 255 187 120
-3.6622 -35.6592 -2.73 255 187 120
-3.6622 -35.8159 -2.6726 255 187 120
-3.6622 -35.8946 -2.6324 255 187 120
-3.6622 -36.0203 -2.6358 255 187 120
-3.6623 -36.4217 -2.6449 255 187 120
-3.6623 -36.5959 -2.646 255 187 120
-3.6623 -36.7026 -2.6366 255 187 120
-3.6623 -36.8094 -2.6271 255 187 120
-3.6623 -36.9063 -2.6227 255 187 120
-3.6623 -37.0032 -2.6183 255 187 120
-3.6624 -37.1388 -2.6166 255 187 120
-3.6624 -37.2501 -2.6161 255 187 120
-3.6624 -37.3614 -2.6156 255 187 120
-3.6624 -37.4636 -2.5972 255 187 120
-3.6624 -37.5802 -2.5827 255 187 120
-3.6624 -37.6771 -2.5783 255 187 120
-3.6624 -37.5341 -2.6625 255 187 120
-3.4752 -34.9785 -2.5583 255 187 120
-3.4753 -35.1656 -2.6091 255 187 120
-3.4753 -35.2603 -2.6733 255 187 120
-3.4753 -35.614 -2.6617 255 187 120
-3.4754 -35.6746 -2.732 255 187 120
-3.4754 -35.7912 -2.7175 255 187 120
-3.4754 -35.9215 -2.7299 255 187 120
-3.4754 -36.0381 -2.7154 255 187 120
-3.4754 -36.1214 -2.6842 255 187 120
-3.4754 -36.2924 -2.6306 255 187 120
-3.4754 -36.2024 -2.7216 255 187 120
-3.4755 -36.7619 -2.6274 255 187 120
-3.4755 -36.6326 -2.7384 255 187 120
-3.4755 -36.9558 -2.6185 255 187 120
-3.4755 -36.8619 -2.6777 255 187 120
-3.4755 -37.0474 -2.628 255 187 120
-3.4756 -37.217 -2.6203 255 187 120
-3.4756 -37.1126 -2.7073 255 187 120
-3.4756 -37.3132 -2.6387 255 187 120
-3.4756 -37.6009 -2.5707 255 187 120
-3.4756 -37.3988 -2.685 255 187 120
-3.4756 -37.7009 -2.621 255 187 120
-3.3767 -34.9184 -2.6344 255 187 120
-3.3766 -35.0168 -2.5842 255 187 120
-3.3766 -35.1432 -2.5647 255 187 120
-3.3767 -35.1926 -2.6858 255 187 120
-3.3767 -35.3539 -2.6373 255 187 120
-3.3767 -35.2881 -2.7271 255 187 120
-3.3767 -35.4675 -2.7143 255 187 120
-3.3767 -35.5554 -2.692 255 187 120
-3.3767 -35.6432 -2.6697 255 187 120
-3.3767 -35.809 -2.6302 255 187 120
-3.3767 -35.7477 -2.7289 255 187 120
-3.3767 -35.8742 -2.7094 255 187 120
-3.3767 -35.9718 -2.6821 255 187 120
-3.3767 -36.1762 -2.6453 255 187 120
-3.3767 -36.0915 -2.7223 255 187 120
-3.3767 -36.2784 -2.6269 255 187 120
-3.3767 -36.3754 -2.6225 255 187 120
-3.3767 -36.1832 -2.7318 255 187 120
-3.3767 -36.2952 -2.7084 255 187 120
-3.3767 -36.4648 -2.7006 255 187 120
-3.3767 -36.6412 -2.6331 255 187 120
-3.3767 -36.5709 -2.714 255 187 120
-3.3767 -36.7427 -2.6376 255 187 120
-3.3767 -36.6913 -2.7314 255 187 120
-3.3767 -36.9274 -2.6109 255 187 120
-3.3767 -36.8328 -2.6929 255 187 120
-3.3767 -37.0176 -2.6662 255 187 120
-3.3767 -37.2455 -2.6511 255 187 120
-3.3767 -37.3484 -2.6099 255 187 120
-3.3767 -37.4408 -2.5965 255 187 120
-3.3767 -37.5967 -2.5619 255 187 120
-3.3767 -37.6891 -2.5486 255 187 120
-3.2809 -34.9266 -2.5964 255 187 120
-3.2809 -35.1008 -2.5976 255 187 120
-3.2809 -35.219 -2.6835 255 187 120
-3.2809 -35.4234 -2.6467 255 187 120
-3.2809 -35.3342 -2.7148 255 187 120
-3.2809 -35.4894 -2.7031 255 187 120
-3.2808 -35.6468 -2.6228 255 187 120
-3.2809 -35.5765 -2.7037 255 187 120
-3.2808 -35.7581 -2.6223 255 187 120
-3.2809 -35.712 -2.702 255 187 120
-3.2809 -35.8089 -2.6976 255 187 120
-3.2808 -35.8975 -2.6524 255 187 120
-3.2808 -36.0337 -2.6279 255 187 120
-3.2808 -36.1352 -2.6324 255 187 120
-3.2809 -35.9824 -2.7216 255 187 120
-3.2808 -36.0793 -2.7172 255 187 120
-3.2808 -36.3048 -2.6246 255 187 120
-3.2808 -36.2201 -2.7016 255 187 120
-3.2808 -36.4639 -2.6447 255 187 120
-3.2808 -36.3988 -2.7117 255 187 120
-3.2808 -36.5344 -2.71 255 187 120
-3.2808 -36.6412 -2.7006 255 187 120
-3.2808 -36.7887 -2.6253 255 187 120
-3.2808 -36.8856 -2.6208 255 187 120
-3.2808 -36.7472 -2.714 255 187 120
-3.2808 -36.8539 -2.7045 255 187 120
-3.2808 -36.9713 -2.6672 255 187 120
-3.2807 -37.412 -2.6561 255 187 120
-3.2807 -37.6277 -2.5685 255 187 120
-3.2807 -37.733 -2.6048 255 187 120
-3.1894 -34.8733 -2.6113 255 187 120
-3.1894 -35.0974 -2.5645 255 187 120
-3.1894 -35.1982 -2.5918 255 187 120
-3.1895 -35.2536 -2.6761 255 187 120
-3.1895 -35.3603 -2.6666 255 187 120
-3.1895 -35.486 -2.67 255 187 120
-3.1894 -35.7108 -2.6003 255 187 120
-3.1895 -35.6458 -2.6673 255 187 120
-3.1894 -35.7919 -2.6377 255 187 120
-3.1895 -35.8996 -2.7516 255 187 120
-3.1895 -36.0004 -2.7789 255 187 120
-3.1894 -37.4821 -2.5968 255 187 120
-3.1894 -37.585 -2.5555 255 187 120
-3.1895 -37.4125 -2.6548 255 187 120
-3.1894 -37.6865 -2.56 255 187 120
-3.1894 -37.5677 -2.6431 255 187 120
-3.0942 -34.9293 -2.5479 255 187 120
-3.0942 -35.055 -2.5513 255 187 120
-3.0942 -35.1723 -2.5139 255 187 120
-3.0943 -35.2618 -2.5921 255 187 120
-3.0943 -35.3899 -2.673 255 187 120
-3.0943 -35.4784 -2.6278 255 187 120
-3.0943 -35.5662 -2.6055 255 187 120
-3.0943 -35.6836 -2.5681 255 187 120
-3.0943 -35.7094 -2.6675 255 187 120
-3.0943 -35.7353 -2.7668 255 187 120
-3.0944 -37.532 -2.5701 255 187 120
-3.0944 -37.4715 -2.646 255 187 120
-3.0944 -37.6925 -2.5444 255 187 120
-3.0944 -37.651 -2.6331 255 187 120
-2.8987 -35.8017 -1.9437 255 187 120
-2.8987 -35.9039 -1.9253 255 187 120
-2.8987 -36.0054 -1.9297 255 187 120
-2.8987 -36.1333 -1.8645 255 187 120
-2.8989 -34.8864 -2.5797 255 187 120
-2.8989 -34.9991 -2.5334 255 187 120
-2.8987 -36.2182 -1.9337 255 187 120
-2.8987 -36.3681 -1.9359 255 187 120
-2.8988 -35.5948 -2.3644 255 187 120
-2.8988 -35.5253 -2.4224 255 187 120
-2.8989 -35.2038 -2.6427 255 187 120
-2.8988 -35.6502 -2.4486 255 187 120
-2.8989 -35.555 -2.5535 255 187 120
-2.8989 -35.3628 -2.6628 255 187 120
-2.8989 -35.49 -2.6204 255 187 120
-2.8986 -36.9921 -1.9437 255 187 120
-2.8989 -35.7059 -2.679 255 187 120
-2.8989 -35.7363 -2.7873 255 187 120
-2.8988 -37.5702 -2.639 255 187 120
-2.8038 -35.6772 -1.8273 255 187 120
-2.8038 -35.7643 -1.8279 255 187 120
-2.8038 -35.8454 -1.8653 255 187 120
-2.8039 -35.592 -2.0734 255 187 120
-2.8039 -35.956 -1.8876 255 187 120
-2.8039 -36.0884 -1.8313 255 187 120
-2.8039 -35.6784 -2.0968 255 187 120
-2.8039 -35.5747 -2.1609 255 187 120
-2.8039 -36.2089 -1.8486 255 187 120
-2.8039 -34.9588 -2.509 255 187 120
-2.8039 -36.2952 -1.872 255 187 120
-2.8039 -34.9029 -2.5938 255 187 120
-2.8039 -35.0732 -2.5632 255 187 120
-2.8039 -35.4706 -2.3942 255 187 120
-2.8039 -35.5689 -2.344 255 187 120
-2.8039 -35.4866 -2.4985 255 187 120
-2.804 -35.2445 -2.6558 255 187 120
-2.804 -35.3369 -2.6424 255 187 120
-2.804 -35.6056 -2.5616 255 187 120
-2.804 -37.001 -1.8944 255 187 120
-2.804 -35.6715 -2.6179 255 187 120
-2.804 -36.9739 -1.9871 255 187 120
-2.804 -37.1063 -1.9307 255 187 120
-2.709 -35.6104 -1.8385 255 187 120
-2.709 -35.612 -1.9389 255 187 120
-2.7091 -35.9398 -1.8279 255 187 120
-2.7091 -35.6137 -2.0394 255 187 120
-2.7091 -35.5101 -2.1035 255 187 120
-2.7091 -36.1003 -1.8023 255 187 120
-2.7091 -36.0496 -1.8731 255 187 120
-2.709 -34.8822 -2.5253 255 187 120
-2.7091 -36.2624 -1.877 255 187 120
-2.7092 -36.4342 -1.8006 255 187 120
-2.7091 -35.4793 -2.3105 255 187 120
-2.7091 -35.0261 -2.5644 255 187 120
-2.7091 -35.1146 -2.5192 255 187 120
-2.7092 -36.5606 -1.7811 255 187 120
-2.7091 -35.4037 -2.4054 255 187 120
-2.7091 -35.4961 -2.392 255 187 120
-2.7091 -35.4387 -2.5225 255 187 120
-2.7091 -35.2314 -2.6509 255 187 120
-2.7092 -35.3473 -2.6592 255 187 120
-2.6103 -35.5797 -1.8769 255 187 120
-2.6102 -35.7417 -1.8055 255 187 120
-2.6103 -35.6767 -1.8725 255 187 120
-2.6103 -35.8772 -1.8039 255 187 120
-2.6103 -36.0831 -1.7213 255 187 120
-2.6103 -35.6155 -1.9712 255 187 120
-2.6103 -35.7971 -1.8898 255 187 120
-2.6103 -36.0219 -1.8201 255 187 120
-2.6103 -35.9379 -1.8742 255 187 120
-2.6103 -35.4892 -2.1369 255 187 120
-2.6103 -35.5823 -2.1007 255 187 120
-2.6103 -36.1726 -1.7994 255 187 120
-2.6104 -34.9309 -2.5006 255 187 120
-2.6104 -35.0377 -2.4911 255 187 120
-2.6104 -34.875 -2.5854 255 187 120
-2.6103 -35.5288 -2.263 255 187 120
-2.6103 -36.2666 -1.8865 255 187 120
-2.6103 -36.5322 -1.7509 255 187 120
-2.6103 -36.4475 -1.8279 255 187 120
-2.6104 -35.1634 -2.4945 255 187 120
-2.6104 -35.4767 -2.3796 255 187 120
-2.6103 -36.5981 -1.8073 255 187 120
-2.6104 -35.3973 -2.4427 255 187 120
-2.6103 -36.4052 -1.9395 255 187 120
-2.6104 -35.3929 -2.5799 255 187 120
-2.5162 -35.5455 -1.8823 255 187 120
-2.5162 -35.6523 -1.8729 255 187 120
-2.5162 -35.7545 -1.8545 255 187 120
-2.5162 -36.0489 -1.7267 255 187 120
-2.5162 -35.5419 -1.9967 255 187 120
-2.5162 -35.8567 -1.8361 255 187 120
-2.5162 -36.1595 -1.7491 255 187 120
-2.5163 -35.5489 -2.0832 255 187 120
-2.5163 -36.0846 -1.821 255 187 120
-2.5163 -35.4982 -2.1541 255 187 120
-2.5163 -36.2398 -1.8093 255 187 120
-2.5163 -34.8573 -2.5261 255 187 120
-2.5163 -34.9778 -2.5434 255 187 120
-2.5163 -35.3955 -2.3415 255 187 120
-2.5163 -35.0898 -2.52 255 187 120
-2.5163 -35.1784 -2.4748 255 187 120
-2.5163 -35.503 -2.3092 255 187 120
-2.5164 -35.1898 -2.5702 255 187 120
-2.5163 -35.2882 -2.52 255 187 120
-2.5164 -35.395 -2.5106 255 187 120
-2.5164 -35.3095 -2.6104 255 187 120
-2.5164 -37.0063 -1.9021 255 187 120
-2.5164 -36.9458 -1.9779 255 187 120
-2.5166 -37.5927 -2.6381 255 187 120
-2.4204 -35.6459 -1.8093 255 187 120
-2.4204 -35.5953 -1.8802 255 187 120
-2.4204 -35.7905 -1.8255 255 187 120
-2.4205 -35.7066 -1.8796 255 187 120
-2.4205 -35.5681 -1.9728 255 187 120
-2.4205 -36.0888 -1.7295 255 187 120
-2.4205 -35.5122 -2.0576 255 187 120
-2.4205 -35.8663 -1.8768 255 187 120
-2.4205 -36.0957 -1.816 255 187 120
-2.4205 -36.1835 -1.7937 255 187 120
-2.4205 -35.4995 -2.1541 255 187 120
-2.4205 -34.9328 -2.4771 255 187 120
-2.4205 -34.8723 -2.553 255 187 120
-2.4205 -35.0343 -2.4816 255 187 120
-2.4205 -35.5208 -2.2445 255 187 120
-2.4205 -35.427 -2.3036 255 187 120
-2.4205 -36.2533 -1.8819 255 187 120
-2.4205 -35.1456 -2.481 255 187 120
-2.4205 -35.3848 -2.4152 255 187 120
-2.4206 -35.1715 -2.5803 255 187 120
-2.4206 -35.2744 -2.5391 255 187 120
-2.4206 -35.4159 -2.5006 255 187 120
-2.4206 -35.3843 -2.5843 255 187 120
-2.4206 -36.9605 -1.8585 255 187 120
-2.4206 -37.115 -1.8697 255 187 120
-2.3252 -35.5595 -1.8429 255 187 120
-2.3252 -35.6504 -1.8753 255 187 120
-2.3252 -35.7859 -1.8736 255 187 120
-2.3252 -35.5052 -2.0281 255 187 120
-2.3252 -35.5839 -1.988 255 187 120
-2.3253 -35.926 -1.8809 255 187 120
-2.3253 -36.1024 -1.8134 255 187 120
-2.3253 -35.5265 -2.1185 255 187 120
-2.3253 -36.1902 -1.7911 255 187 120
-2.3253 -34.8849 -2.5134 255 187 120
-2.3253 -36.2818 -1.8006 255 187 120
-2.3253 -34.978 -2.4772 255 187 120
-2.3253 -35.479 -2.244 255 187 120
-2.3253 -36.3864 -1.8598 255 187 120
-2.3253 -35.3875 -2.3807 255 187 120
-2.3253 -36.5234 -1.8124 255 187 120
-2.3253 -35.4852 -2.3534 255 187 120
-2.3253 -35.4036 -2.4851 255 187 120
-2.3254 -36.6038 -1.8726 255 187 120
-2.3253 -35.2008 -2.6223 255 187 120
-2.3254 -35.3167 -2.6307 255 187 120
-2.3254 -36.9831 -1.8141 255 187 120
-2.3254 -36.9271 -1.8989 255 187 120
-2.3254 -37.0483 -1.8933 255 187 120
-2.2299 -35.5964 -1.7892 255 187 120
-2.2299 -35.5488 -1.9148 255 187 120
-2.2299 -35.6858 -1.8673 255 187 120
-2.2299 -35.8365 -1.8467 255 187 120
-2.2299 -36.0181 -1.7653 255 187 120
-2.2299 -36.1256 -1.7329 255 187 120
-2.2299 -35.5301 -2.0481 255 187 120
-2.23 -35.4734 -2.1558 255 187 120
-2.23 -36.2151 -1.8111 255 187 120
-2.23 -34.9984 -2.4883 255 187 120
-2.23 -36.3756 -1.7854 255 187 120
-2.23 -36.306 -1.8434 255 187 120
-2.23 -34.9333 -2.5552 255 187 120
-2.23 -35.4986 -2.278 255 187 120
-2.23 -35.3851 -2.3471 255 187 120
-2.23 -36.4567 -1.8228 255 187 120
-2.23 -35.0984 -2.5385 255 187 120
-2.23 -35.3709 -2.4894 255 187 120
-2.2301 -35.2507 -2.6183 255 187 120
-2.2301 -35.3673 -2.6038 255 187 120
-2.2301 -36.846 -1.9054 255 187 120
-2.2301 -37.0473 -1.814 255 187 120
-2.2301 -37.0012 -1.8937 255 187 120
-2.1254 -35.5566 -1.8112 255 187 120
-2.1254 -35.7178 -1.7627 255 187 120
-2.1254 -35.6574 -1.8385 255 187 120
-2.1255 -35.5825 -1.9105 255 187 120
-2.1255 -35.5175 -1.9774 255 187 120
-2.1254 -36.0578 -1.7242 255 187 120
-2.1254 -35.9837 -1.7733 255 187 120
-2.1255 -35.5191 -2.0779 255 187 120
-2.1254 -36.1525 -1.7884 255 187 120
-2.1254 -36.2639 -1.7879 255 187 120
-2.1255 -35.4709 -2.2263 255 187 120
-2.1256 -34.895 -2.5314 255 187 120
-2.1256 -35.051 -2.4968 255 187 120
-2.1254 -36.4918 -1.7728 255 187 120
-2.1254 -36.3094 -1.8771 255 187 120
-2.1255 -35.4725 -2.3267 255 187 120
-2.1254 -36.4215 -1.8537 255 187 120
-2.1256 -35.4159 -2.4344 255 187 120
-2.1256 -35.198 -2.5906 255 187 120
-2.1256 -35.3259 -2.5253 255 187 120
-2.0348 -35.6386 -1.7902 255 187 120
-2.0348 -35.5577 -1.899 255 187 120
-2.0348 -35.9157 -1.75 255 187 120
-2.0348 -36.1587 -1.716 255 187 120
-2.0349 -35.5632 -2.0312 255 187 120
-2.0349 -35.4739 -2.0993 255 187 120
-2.0348 -36.0589 -1.8119 255 187 120
-2.0349 -34.8861 -2.4781 255 187 120
-2.035 -34.9619 -2.5294 255 187 120
-2.0349 -35.5128 -2.2482 255 187 120
-2.0349 -36.526 -1.731 255 187 120
-2.035 -35.0497 -2.5071 255 187 120
-2.0349 -35.394 -2.3314 255 187 120
-2.035 -35.1361 -2.5305 255 187 120
-2.0349 -36.5132 -1.8276 255 187 120
-2.0349 -36.6214 -1.7723 255 187 120
-2.035 -35.3897 -2.4686 255 187 120
-2.035 -35.2119 -2.5819 255 187 120
-2.035 -35.2983 -2.6053 255 187 120
-1.9367 -35.5689 -1.7825 255 187 120
-1.9367 -35.6651 -1.8009 255 187 120
-1.9367 -35.5849 -1.8868 255 187 120
-1.9367 -35.8393 -1.8021 255 187 120
-1.9368 -35.9815 -1.7407 255 187 120
-1.9368 -36.089 -1.7084 255 187 120
-1.9368 -35.5866 -1.9873 255 187 120
-1.9368 -35.9446 -1.8383 255 187 120
-1.9368 -36.0566 -1.8149 255 187 120
-1.9368 -35.53 -2.095 255 187 120
-1.9368 -36.1891 -1.7586 255 187 120
-1.9368 -34.9224 -2.4838 255 187 120
-1.9368 -35.5074 -2.1965 255 187 120
-1.9368 -35.4325 -2.2685 255 187 120
-1.9368 -36.554 -1.6961 255 187 120
-1.9368 -35.1223 -2.438 255 187 120
-1.9368 -35.0383 -2.4922 255 187 120
-1.9368 -36.445 -1.7742 255 187 120
-1.9368 -36.5412 -1.7927 255 187 120
-1.9368 -35.4243 -2.3739 255 187 120
-1.9368 -36.6343 -1.7564 255 187 120
-1.9368 -35.2679 -2.5775 255 187 120
-1.9369 -37.0085 -1.858 255 187 120
-1.9369 -36.9572 -1.9517 255 187 120
-1.8422 -35.5766 -1.7785 255 187 120
-1.8422 -35.7273 -1.7578 255 187 120
-1.8422 -35.6471 -1.8438 255 187 120
-1.8422 -35.8439 -1.7434 255 187 120
-1.8422 -35.5768 -1.9246 255 187 120
-1.8422 -35.5065 -2.0055 255 187 120
-1.8422 -35.9492 -1.7796 255 187 120
-1.8423 -36.1248 -1.735 255 187 120
-1.8423 -36.0545 -1.8159 255 187 120
-1.8422 -35.4688 -2.126 255 187 120
-1.8423 -36.19 -1.8143 255 187 120
-1.8421 -34.8567 -2.5059 255 187 120
-1.8421 -34.9354 -2.4657 255 187 120
-1.8422 -35.4009 -2.2845 255 187 120
-1.8421 -35.0112 -2.5171 255 187 120
-1.8422 -35.4978 -2.28 255 187 120
-1.8421 -35.1777 -2.4546 255 187 120
-1.8422 -35.3881 -2.381 255 187 120
-1.8422 -35.3655 -2.4825 255 187 120
-1.8422 -35.2225 -2.5668 255 187 120
-1.8422 -35.3339 -2.5662 255 187 120
-1.8425 -36.9436 -1.8574 255 187 120
-1.8425 -37.064 -1.8747 255 187 120
-1.7421 -35.6722 -1.7541 255 187 120
-1.7421 -35.6549 -1.8417 255 187 120
-1.7421 -35.5407 -1.9337 255 187 120
-1.7421 -35.9728 -1.7358 255 187 120
-1.7421 -35.4584 -2.0883 255 187 120
-1.7421 -35.5416 -2.0571 255 187 120
-1.7421 -36.1069 -1.7799 255 187 120
-1.7421 -36.2243 -1.7425 255 187 120
-1.7421 -35.479 -2.2015 255 187 120
-1.742 -34.8637 -2.5267 255 187 120
-1.7421 -36.3689 -1.7587 255 187 120
-1.742 -34.9614 -2.4994 255 187 120
-1.7422 -36.4658 -1.7543 255 187 120
-1.7421 -35.4405 -2.3449 255 187 120
-1.7422 -36.5462 -1.8146 255 187 120
-1.7421 -35.393 -2.4705 255 187 120
-1.7421 -35.2394 -2.5826 255 187 120
-1.7421 -35.3613 -2.5541 255 187 120
-1.7422 -36.8158 -1.857 255 187 120
-1.7422 -37.0066 -1.7935 255 187 120
-1.7422 -36.7645 -1.9508 255 187 120
-1.7422 -37.0725 -1.8498 255 187 120
-1.6478 -35.5608 -1.798 255 187 120
-1.6478 -35.548 -1.8945 255 187 120
-1.6478 -35.7002 -1.8282 255 187 120
-1.6479 -35.9742 -1.7334 255 187 120
-1.6478 -35.4967 -1.9883 255 187 120
-1.6478 -35.8311 -1.8176 255 187 120
-1.6479 -36.0862 -1.71 255 187 120
-1.6478 -35.5838 -1.9888 255 187 120
-1.6478 -35.4695 -2.0809 255 187 120
-1.6477 -34.9407 -2.4295 255 187 120
-1.6479 -36.2983 -1.7368 255 187 120
-1.6478 -35.5144 -2.193 255 187 120
-1.6479 -36.3997 -1.7413 255 187 120
-1.6477 -35.027 -2.4529 255 187 120
-1.6477 -34.9135 -2.5221 255 187 120
-1.6478 -35.4296 -2.27 255 187 120
-1.6477 -35.1489 -2.4245 255 187 120
-1.6479 -36.3491 -1.8121 255 187 120
-1.648 -36.4959 -1.7597 255 187 120
-1.6478 -35.3737 -2.3548 255 187 120
-1.6477 -35.1506 -2.5249 255 187 120
-1.6477 -35.2293 -2.4848 255 187 120
-1.6478 -35.3898 -2.4591 255 187 120
-1.6478 -35.2748 -2.5741 255 187 120
-1.6478 -35.377 -2.5557 255 187 120
-1.648 -36.821 -1.8864 255 187 120
-1.648 -36.9337 -1.8401 255 187 120
-1.6481 -37.0746 -1.8245 255 187 120
-1.4601 -35.5826 -1.7634 255 187 120
-1.4601 -35.5896 -1.8498 255 187 120
-1.4602 -35.741 -1.8063 255 187 120
-1.4601 -35.5723 -1.9374 255 187 120
-1.4602 -35.8909 -1.8086 255 187 120
-1.4602 -36.0876 -1.7082 255 187 120
-1.46 -34.8983 -2.439 255 187 120
-1.46 -34.8666 -2.5227 255 187 120
-1.4601 -35.3925 -2.2655 255 187 120
-1.4601 -35.3889 -2.3799 255 187 120
-1.4601 -35.268 -2.5316 255 187 120
-1.4604 -36.97 -1.8092 255 187 120
-1.4604 -36.905 -1.8762 255 187 120
-1.4605 -37.0458 -1.8606 255 187 120
-1.2624 -35.5664 -1.749 255 187 120
-1.2624 -35.6936 -1.7066 255 187 120
-1.2624 -35.5818 -1.8762 255 187 120
-1.2624 -35.749 -1.7908 255 187 120
-1.2624 -35.9359 -1.6954 255 187 120
-1.2624 -36.0374 -1.6999 255 187 120
-1.2625 -35.4661 -2.014 255 187 120
-1.2625 -35.5592 -1.9777 255 187 120
-1.2624 -36.1441 -1.6904 255 187 120
-1.2625 -34.8632 -2.4118 255 187 120
-1.2625 -35.486 -2.1501 255 187 120
-1.2624 -36.2329 -1.7914 255 187 120
-1.2625 -34.8603 -2.5033 255 187 120
-1.2625 -35.1252 -2.3906 255 187 120
-1.2625 -35.0117 -2.4598 255 187 120
-1.2625 -35.4195 -2.2628 255 187 120
-1.2625 -35.5028 -2.2316 255 187 120
-1.2625 -35.4167 -2.3543 255 187 120
-1.2625 -35.4282 -2.4497 255 187 120
-1.2625 -35.3291 -2.5228 255 187 120
-1.1708 -35.9786 -1.6851 255 187 120
-1.1708 -35.5784 -1.9457 255 187 120
-1.1708 -36.0393 -1.7554 255 187 120
-1.1708 -35.4779 -2.0645 255 187 120
-1.1708 -36.1749 -1.7538 255 187 120
-1.1708 -36.5132 -1.6149 255 187 120
-1.1709 -34.85 -2.4863 255 187 120
-1.1708 -36.4436 -1.6729 255 187 120
-1.1709 -34.9719 -2.4578 255 187 120
-1.1709 -35.4978 -2.2006 255 187 120
-1.1709 -35.0976 -2.4612 255 187 120
-1.1709 -35.4563 -2.2894 255 187 120
-1.1709 -35.4066 -2.4835 255 187 120
-1.1708 -35.5427 -1.8514 255 187 120
-1.1708 -35.887 -1.6756 255 187 120
-1.1708 -35.4815 -1.9501 255 187 120
-1.1708 -36.1012 -1.6338 255 187 120
-1.1708 -36.2065 -1.6701 255 187 120
-1.1709 -34.843 -2.3998 255 187 120
-1.1709 -34.9263 -2.3685 255 187 120
-1.1709 -35.0671 -2.3529 255 187 120
-1.1709 -35.3646 -2.2799 255 187 120
-1.1709 -35.177 -2.3981 255 187 120
-1.1709 -35.2725 -2.4394 255 187 120
-1.1709 -35.3852 -2.3931 255 187 120
-0.9785 -35.601 -1.6993 255 187 120
-0.9785 -35.7176 -1.6848 255 187 120
-0.9786 -35.5451 -1.7841 255 187 120
-0.9786 -35.5664 -1.8745 255 187 120
-0.9786 -35.9789 -1.6865 255 187 120
-0.9786 -35.9138 -1.7535 255 187 120
-0.9786 -36.125 -1.657 255 187 120
-0.9786 -35.534 -1.9811 255 187 120
-0.9786 -36.0645 -1.7329 255 187 120
-0.9786 -36.2166 -1.6665 255 187 120
-0.9786 -35.4682 -2.0709 255 187 120
-0.9787 -34.9113 -2.3888 255 187 120
-0.9787 -34.8372 -2.4379 255 187 120
-0.9786 -36.2871 -1.7318 255 187 120
-0.9787 -35.4646 -2.1853 255 187 120
-0.9787 -35.3754 -2.2533 255 187 120
-0.9787 -35.1704 -2.4592 255 187 120
-0.9787 -35.3945 -2.4123 255 187 120
-0.882 -35.568 -1.737 255 187 120
-0.882 -35.6664 -1.6868 255 187 120
-0.882 -35.7588 -1.6734 255 187 120
-0.882 -35.8746 -1.6818 255 187 120
-0.882 -35.5985 -1.8453 255 187 120
-0.882 -35.5334 -1.9122 255 187 120
-0.882 -36.0056 -1.6713 255 187 120
-0.8821 -35.4638 -1.9702 255 187 120
-0.882 -36.0973 -1.6808 255 187 120
-0.882 -35.949 -1.7789 255 187 120
-0.882 -36.2381 -1.6652 255 187 120
-0.882 -36.0656 -1.7645 255 187 120
-0.882 -36.1678 -1.7461 255 187 120
-0.882 -36.3343 -1.6836 255 187 120
-0.8822 -34.8625 -2.4683 255 187 120
-0.8822 -35.1652 -2.3813 255 187 120
-0.8821 -35.4006 -2.2837 255 187 120
-0.8822 -35.3636 -2.3814 255 187 120
-0.8822 -35.2055 -2.4846 255 187 120
-0.8822 -37.5016 -2.5621 255 187 120
-0.882 -35.6635 -1.7783 255 187 120
-0.882 -35.7657 -1.7599 255 187 120
-0.882 -35.8573 -1.7694 255 187 120
-0.882 -35.7083 -1.8905 255 187 120
-0.8821 -35.5986 -1.9914 255 187 120
-0.8822 -35.0357 -2.3462 255 187 120
-0.882 -36.3314 -1.7751 255 187 120
-0.8821 -35.4944 -2.2246 255 187 120
-0.8822 -35.2516 -2.4048 255 187 120
-0.8822 -37.4152 -2.5386 255 187 120
-0.8822 -37.665 -2.445 255 187 120
-0.6949 -34.9346 -2.3624 255 187 120
-0.6949 -35.0708 -2.3379 255 187 120
-0.6949 -34.9029 -2.4461 255 187 120
-0.6949 -35.0149 -2.4227 255 187 120
-0.6949 -35.4509 -2.2564 255 187 120
-0.6949 -35.6083 -2.1761 255 187 120
-0.6949 -35.6961 -2.1538 255 187 120
-0.6949 -35.1641 -2.4478 255 187 120
-0.6949 -35.5478 -2.252 255 187 120
-0.6949 -35.2906 -2.4283 255 187 120
-0.6949 -35.4768 -2.3558 255 187 120
-0.6949 -35.7272 -2.2392 255 187 120
-0.6949 -35.2445 -2.508 255 187 120
-0.6949 -35.4019 -2.4277 255 187 120
-0.6953 -37.3844 -2.4737 255 187 120
-0.6953 -37.2021 -2.578 255 187 120
-0.6953 -37.2854 -2.5467 255 187 120
-0.6953 -37.4821 -2.4463 255 187 120
-0.6953 -37.5805 -2.3961 255 187 120
-0.6953 -37.3861 -2.5741 255 187 120
-0.6953 -37.2333 -2.6634 255 187 120
-0.6953 -37.6116 -2.4815 255 187 120
-0.6953 -37.7002 -2.4363 255 187 120
-0.5979 -34.9239 -2.3693 255 187 120
-0.5979 -35.1117 -2.3972 255 187 120
-0.5979 -35.7135 -2.1915 255 187 120
-0.598 -35.3367 -2.4737 255 187 120
-0.598 -35.8286 -2.2227 255 187 120
-0.598 -35.5169 -2.438 255 187 120
-0.598 -35.6676 -2.4174 255 187 120
-0.5982 -37.2284 -2.4875 255 187 120
-0.5983 -37.1725 -2.5723 255 187 120
-0.5983 -37.4282 -2.4418 255 187 120
-0.5983 -37.5508 -2.3905 255 187 120
-0.5983 -37.6161 -2.4697 255 187 120
-0.4998 -34.9147 -2.3735 255 187 120
-0.4998 -35.0654 -2.3529 255 187 120
-0.4998 -34.8876 -2.4661 255 187 120
-0.4998 -35.1608 -2.3942 255 187 120
-0.4997 -35.693 -2.2464 255 187 120
-0.4998 -35.2155 -2.5013 255 187 120
-0.4997 -35.7846 -2.2559 255 187 120
-0.4998 -35.5039 -2.4104 255 187 120
-0.4998 -35.2966 -2.5387 255 187 120
-0.4998 -35.429 -2.4823 255 187 120
-0.4998 -35.6001 -2.4288 255 187 120
-0.4998 -35.7409 -2.4132 255 187 120
-0.4998 -36.7542 -2.5038 255 187 120
-0.4998 -36.6045 -2.6477 255 187 120
-0.4998 -36.8648 -2.5261 255 187 120
-0.4998 -36.9776 -2.4798 255 187 120
-0.4998 -37.0647 -2.4804 255 187 120
-0.4998 -37.176 -2.4798 255 187 120
-0.4998 -37.2782 -2.4614 255 187 120
-0.4998 -37.4341 -2.4269 255 187 120
-0.4998 -37.5757 -2.3884 255 187 120
-0.4998 -37.4025 -2.5105 255 187 120
-0.4998 -37.5486 -2.481 255 187 120
-0.4998 -37.6561 -2.4487 255 187 120
-0.4043 -35.0062 -2.3605 255 187 120
-0.4043 -34.8927 -2.4296 255 187 120
-0.4043 -35.1304 -2.4096 255 187 120
-0.4043 -35.2381 -2.5234 255 187 120
-0.4044 -35.6083 -2.4471 255 187 120
-0.4044 -35.7007 -2.4337 255 187 120
-0.4044 -35.8165 -2.4421 255 187 120
-0.4044 -35.9142 -2.4148 255 187 120
-0.4044 -35.9453 -2.5001 255 187 120
-0.4044 -36.0672 -2.4717 255 187 120
-0.4044 -36.1989 -2.4382 255 187 120
-0.4044 -36.3299 -2.4277 255 187 120
-0.4044 -36.2649 -2.4946 255 187 120
-0.4044 -36.4269 -2.4232 255 187 120
-0.4044 -36.5374 -2.4455 255 187 120
-0.4044 -36.4724 -2.5125 255 187 120
-0.4044 -36.6291 -2.455 255 187 120
-0.4045 -36.8184 -2.4372 255 187 120
-0.4045 -36.7147 -2.5014 255 187 120
-0.4045 -36.9153 -2.4328 255 187 120
-0.4045 -37.1228 -2.4507 255 187 120
-0.4045 -37.0434 -2.5137 255 187 120
-0.4045 -37.2197 -2.4462 255 187 120
-0.4045 -37.3757 -2.4116 255 187 120
-0.4045 -37.3061 -2.4697 255 187 120
-0.4045 -37.6089 -2.3827 255 187 120
-0.4045 -37.5249 -2.4368 255 187 120
-0.31 -34.9003 -2.3467 255 187 120
-0.31 -35.0699 -2.3389 255 187 120
-0.31 -35.1246 -2.446 255 187 120
-0.31 -35.2177 -2.4098 255 187 120
-0.3101 -35.3957 -2.4427 255 187 120
-0.3101 -35.2966 -2.5158 255 187 120
-0.3101 -35.5456 -2.445 255 187 120
-0.3101 -35.4654 -2.5309 255 187 120
-0.3101 -35.6524 -2.4355 255 187 120
-0.3101 -35.8076 -2.4238 255 187 120
-0.3101 -35.9143 -2.4144 255 187 120
-0.3101 -36.0302 -2.4227 255 187 120
-0.3101 -35.9697 -2.4986 255 187 120
-0.3101 -36.1317 -2.4272 255 187 120
-0.3101 -36.2725 -2.4116 255 187 120
-0.3102 -36.3233 -2.487 255 187 120
-0.3102 -36.4119 -2.4418 255 187 120
-0.3102 -36.5376 -2.4451 255 187 120
-0.3102 -36.6225 -2.5143 255 187 120
-0.3102 -36.7996 -2.424 255 187 120
-0.3102 -36.73 -2.482 255 187 120
-0.3102 -36.8965 -2.4195 255 187 120
-0.3102 -36.9927 -2.438 255 187 120
-0.3102 -37.0889 -2.4564 255 187 120
-0.3103 -37.2645 -2.4118 255 187 120
-0.3103 -37.1904 -2.4609 255 187 120
-0.3103 -37.3622 -2.3845 255 187 120
-0.3103 -37.4833 -2.3789 255 187 120
-0.3103 -37.3252 -2.4821 255 187 120
-0.3103 -37.4327 -2.4498 255 187 120
-0.3103 -37.5985 -2.4102 255 187 120
-0.2115 -34.9279 -2.4 255 187 120
-0.2115 -35.0164 -2.3548 255 187 120
-0.2115 -35.0968 -2.415 255 187 120
-0.2115 -35.3513 -2.4765 255 187 120
-0.2115 -35.4732 -2.448 255 187 120
-0.2115 -35.8079 -2.4235 255 187 120
-0.2115 -35.901 -2.3873 255 187 120
-0.2115 -36.1864 -2.3879 255 187 120
-0.2115 -36.1123 -2.437 255 187 120
-0.2115 -36.3174 -2.3773 255 187 120
-0.2115 -36.453 -2.3756 255 187 120
-0.2116 -36.3584 -2.4576 255 187 120
-0.2115 -36.5492 -2.3941 255 187 120
-0.2115 -36.6507 -2.3985 255 187 120
-0.2115 -36.7718 -2.393 255 187 120
-0.2115 -36.9467 -2.3712 255 187 120
-0.2116 -37.1201 -2.3953 255 187 120
-0.2116 -37.0263 -2.4544 255 187 120
-0.2115 -37.3677 -2.3702 255 187 120
-0.2116 -37.2542 -2.4394 255 187 120
-0.2116 -37.4534 -2.4165 255 187 120
-0.2116 -37.5541 -2.4439 255 187 120
-0.1143 -35.0284 -2.407 255 187 120
-0.1143 -35.1465 -2.3467 255 187 120
-0.1143 -35.2918 -2.3401 255 187 120
-0.1143 -35.2223 -2.3981 255 187 120
-0.1143 -35.382 -2.3953 255 187 120
-0.1143 -35.485 -2.3541 255 187 120
-0.1144 -35.5305 -2.4433 255 187 120
-0.1143 -35.8856 -2.386 255 187 120
-0.1143 -36.0461 -2.3603 255 187 120
-0.1144 -35.8539 -2.4696 255 187 120
-0.1143 -35.9614 -2.4373 255 187 120
-0.1143 -36.1862 -2.3676 255 187 120
-0.1143 -36.3021 -2.376 255 187 120
-0.1143 -36.8435 -2.3923 255 187 120
-0.1143 -36.7595 -2.4464 255 187 120
-0.1143 -36.8505 -2.4788 255 187 120
-0.1143 -36.9829 -2.4225 255 187 120
-0.1143 -37.1971 -2.3807 255 187 120
-0.1143 -37.0875 -2.4816 255 187 120
-0.1143 -37.2283 -2.466 255 187 120
-0.1143 -37.326 -2.4387 255 187 120
-5.4043 -36.0874 -2.6689 255 187 120
-5.4012 -36.1868 -2.6785 255 187 120
-5.3885 -36.2862 -2.7166 255 187 120
-5.3822 -35.999 -2.7355 255 187 120
-5.3727 -36.1647 -2.7641 255 187 120
-5.3664 -36.3745 -2.7832 255 187 120
-5.2226 -35.963 -2.6438 255 187 120
-5.2068 -36.1066 -2.6914 255 187 120
-5.2036 -36.3164 -2.701 255 187 120
-5.2036 -36.46 -2.701 255 187 120
-5.1973 -36.5483 -2.7201 255 187 120
-5.1941 -36.0072 -2.7294 255 187 120
-5.1941 -36.6477 -2.7296 255 187 120
-5.1878 -36.2391 -2.7485 255 187 120
-5.1846 -36.3827 -2.7581 255 187 120
-5.2194 -36.703 -2.6536 255 187 120
-5.2004 -35.8747 -2.7103 255 187 120
-5.1973 -36.7913 -2.7202 255 187 120
-5.1298 -35.8443 -2.6336 255 187 120
-5.114 -35.9548 -2.6812 255 187 120
-5.1108 -36.0873 -2.6907 255 187 120
-5.1077 -36.3303 -2.7003 255 187 120
-5.1045 -36.1867 -2.7098 255 187 120
-5.0855 -36.1204 -2.7668 255 187 120
-5.0855 -36.264 -2.7669 255 187 120
-5.0856 -36.3855 -2.7669 255 187 120
-4.8418 -35.7829 -2.64 255 187 120
-4.8165 -35.9706 -2.7161 255 187 120
-4.8005 -36.821 -2.7639 255 187 120
-4.7942 -36.6885 -2.7829 255 187 120
-4.7426 -35.7706 -2.6503 255 187 120
-4.7331 -35.9583 -2.6789 255 187 120
-4.7078 -36.0025 -2.755 255 187 120
-4.7046 -36.124 -2.7645 255 187 120
-4.7014 -36.6651 -2.7742 255 187 120
-4.7014 -36.8529 -2.7742 255 187 120
-4.6659 -35.5932 -2.5944 255 187 120
-4.6596 -35.7146 -2.6135 255 187 120
-4.6469 -35.8803 -2.6515 255 187 120
-4.6468 -37.0841 -2.6519 255 187 120
-4.6406 -35.9686 -2.6706 255 187 120
-4.6406 -36.1564 -2.6707 255 187 120
-4.6343 -35.7919 -2.6896 255 187 120
-4.6342 -36.9626 -2.6899 255 187 120
-4.6279 -36.4766 -2.7088 255 187 120
-4.6184 -36.7638 -2.7374 255 187 120
-4.6121 -36.1122 -2.7562 255 187 120
-4.6058 -36.5539 -2.7754 255 187 120
-4.6057 -36.8521 -2.7755 255 187 120
-4.579 -35.4726 -2.5761 255 187 120
-4.579 -35.572 -2.5761 255 187 120
-4.5696 -35.6603 -2.6046 255 187 120
-4.5538 -35.7376 -2.6522 255 187 120
-4.5538 -35.8591 -2.6523 255 187 120
-4.5537 -37.1513 -2.6526 255 187 120
-4.5474 -35.9585 -2.6713 255 187 120
-4.5379 -36.3451 -2.6999 255 187 120
-4.5316 -36.4886 -2.719 255 187 120
-4.5316 -36.588 -2.719 255 187 120
-4.5221 -36.7205 -2.7476 255 187 120
-4.5158 -36.8199 -2.7667 255 187 120
-4.4534 -35.7169 -2.6531 255 187 120
-4.4534 -35.8936 -2.6531 255 187 120
-4.4439 -35.5954 -2.6816 255 187 120
-4.4439 -35.8053 -2.6816 255 187 120
-4.444 -36.3354 -2.6818 255 187 120
-4.4408 -36.0703 -2.6912 255 187 120
-4.4408 -36.5011 -2.6913 255 187 120
-4.4408 -36.7219 -2.6914 255 187 120
-4.4377 -36.998 -2.7009 255 187 120
-4.4313 -36.1587 -2.7197 255 187 120
-4.425 -35.993 -2.7387 255 187 120
-4.425 -36.9207 -2.739 255 187 120
-4.4218 -36.2691 -2.7483 255 187 120
-4.4218 -36.4017 -2.7483 255 187 120
-4.4219 -36.6446 -2.7484 255 187 120
-4.4219 -36.7882 -2.7484 255 187 120
-4.4092 -37.0312 -2.7866 255 187 120
-4.3874 -35.3962 -2.5663 255 187 120
-4.378 -35.5066 -2.5949 255 187 120
-4.3622 -35.5839 -2.6424 255 187 120
-4.359 -35.7937 -2.652 255 187 120
-4.3527 -35.9815 -2.6711 255 187 120
-4.3527 -36.0919 -2.6711 255 187 120
-4.3496 -36.6883 -2.6808 255 187 120
-4.3465 -36.5889 -2.6903 255 187 120
-4.3401 -35.8821 -2.7091 255 187 120
-4.3339 -37.0086 -2.7284 255 187 120
-4.3244 -37.1963 -2.757 255 187 120
-4.3212 -36.7435 -2.7664 255 187 120
-4.3212 -37.0969 -2.7665 255 187 120
-4.2919 -35.4484 -2.5679 255 187 120
-4.2666 -35.371 -2.644 255 187 120
-4.2634 -35.8128 -2.6537 255 187 120
-4.2602 -35.4815 -2.6631 255 187 120
-4.254 -35.9564 -2.6823 255 187 120
-4.254 -36.0668 -2.6823 255 187 120
-4.254 -36.4644 -2.6825 255 187 120
-4.2541 -36.7074 -2.6826 255 187 120
-4.2509 -36.5528 -2.692 255 187 120
-4.2477 -36.1662 -2.7014 255 187 120
-4.2477 -36.862 -2.7017 255 187 120
-4.2256 -37.0939 -2.7683 255 187 120
-4.2225 -36.9945 -2.7778 255 187 120
-4.2225 -37.1933 -2.7779 255 187 120
-4.2002 -35.3574 -2.5496 255 187 120
-4.1876 -35.2138 -2.5875 255 187 120
-4.1781 -35.3022 -2.6161 255 187 120
-4.1781 -35.512 -2.6162 255 187 120
-4.1686 -35.4015 -2.6447 255 187 120
-4.1655 -35.8764 -2.6544 255 187 120
-4.1656 -37.3564 -2.6551 255 187 120
-4.1623 -36.4066 -2.6642 255 187 120
-4.1592 -36.517 -2.6737 255 187 120
-4.1592 -36.6495 -2.6738 255 187 120
-4.156 -36.782 -2.6834 255 187 120
-4.1497 -35.5893 -2.7018 255 187 120
-4.1497 -35.9648 -2.702 255 187 120
-4.1465 -36.1525 -2.7116 255 187 120
-4.1466 -37.4447 -2.7122 255 187 120
-4.137 -36.2519 -2.7402 255 187 120
-4.1371 -37.3011 -2.7407 255 187 120
-4.1339 -36.5832 -2.7498 255 187 120
-4.1087 -35.2817 -2.5479 255 187 120
-4.1024 -35.3811 -2.567 255 187 120
-4.0803 -35.3258 -2.6335 255 187 120
-4.0803 -35.4473 -2.6336 255 187 120
-4.0803 -35.5909 -2.6336 255 187 120
-4.0708 -35.9111 -2.6623 255 187 120
-4.0646 -36.6842 -2.6815 255 187 120
-4.0614 -36.5296 -2.691 255 187 120
-4.0582 -36.4192 -2.7005 255 187 120
-4.055 -35.8338 -2.7098 255 187 120
-4.0551 -36.1431 -2.7099 255 187 120
-4.0519 -35.9995 -2.7194 255 187 120
-4.052 -37.4131 -2.7198 255 187 120
-4.0456 -36.6069 -2.7386 255 187 120
-4.0393 -36.8499 -2.7577 255 187 120
-4.0362 -37.2585 -2.7674 255 187 120
-4.0089 -34.9842 -2.5578 255 187 120
-3.9994 -35.1057 -2.5864 255 187 120
-3.9994 -35.2161 -2.5864 255 187 120
-3.9963 -35.3707 -2.596 255 187 120
-3.99 -35.5253 -2.6151 255 187 120
-3.9868 -35.6579 -2.6246 255 187 120
-3.9806 -35.945 -2.6437 255 187 120
-3.9742 -35.7352 -2.6627 255 187 120
-3.9742 -36.0444 -2.6628 255 187 120
-3.9743 -36.2101 -2.6628 255 187 120
-3.9743 -36.3757 -2.6629 255 187 120
-3.9743 -36.4641 -2.6629 255 187 120
-3.9744 -37.4691 -2.6633 255 187 120
-3.9681 -37.3697 -2.6822 255 187 120
-3.965 -37.5795 -2.6918 255 187 120
-3.949 -36.4309 -2.739 255 187 120
-3.9491 -37.1046 -2.7392 255 187 120
-3.9491 -37.2924 -2.7393 255 187 120
-3.9459 -36.6849 -2.7486 255 187 120
-3.9364 -36.8175 -2.7772 255 187 120
-3.9364 -37.0052 -2.7772 255 187 120
-3.9365 -37.193 -2.7773 255 187 120
-3.9244 -35.1299 -2.5171 255 187 120
-3.9086 -35.0305 -2.5646 255 187 120
-3.8992 -35.5054 -2.5933 255 187 120
-3.896 -35.1962 -2.6027 255 187 120
-3.8868 -37.5596 -2.6317 255 187 120
-3.8834 -35.5827 -2.6408 255 187 120
-3.8834 -35.9472 -2.6409 255 187 120
-3.8802 -35.7153 -2.6504 255 187 120
-3.8771 -36.2012 -2.66 255 187 120
-3.8739 -35.3398 -2.6693 255 187 120
-3.8708 -36.411 -2.6791 255 187 120
-3.8645 -36.1128 -2.698 255 187 120
-3.8583 -37.0737 -2.7172 255 187 120
-3.8583 -37.2393 -2.7173 255 187 120
-3.855 -36.4994 -2.7266 255 187 120
-3.8552 -37.4602 -2.7268 255 187 120
-3.8552 -37.6148 -2.7269 255 187 120
-3.8519 -36.3337 -2.7361 255 187 120
-3.852 -37.3387 -2.7363 255 187 120
-3.8487 -36.5877 -2.7457 255 187 120
-3.8425 -36.9411 -2.7648 255 187 120
-3.8393 -37.1399 -2.7743 255 187 120
-3.7366 -35.1201 -2.4976 255 187 120
-3.7239 -35.0097 -2.5356 255 187 120
-3.705 -35.3962 -2.5928 255 187 120
-3.7049 -35.5066 -2.5928 255 187 120
-3.686 -36.1582 -2.65 255 187 120
-3.6828 -36.3349 -2.6595 255 187 120
-3.6797 -35.3299 -2.6688 255 187 120
-3.6764 -37.4504 -2.6788 255 187 120
-3.6701 -37.0749 -2.6977 255 187 120
-3.6701 -37.1853 -2.6977 255 187 120
-3.6701 -37.6161 -2.6978 255 187 120
-3.6638 -35.9263 -2.7165 255 187 120
-3.6607 -36.0478 -2.726 255 187 120
-3.6606 -36.5006 -2.7261 255 187 120
-3.6606 -37.3068 -2.7263 255 187 120
-3.6575 -36.2687 -2.7356 255 187 120
-3.6575 -36.3902 -2.7356 255 187 120
-3.6575 -36.7546 -2.7357 255 187 120
-3.6575 -36.9092 -2.7357 255 187 120
-3.6543 -36.611 -2.7452 255 187 120
-3.6448 -36.8319 -2.7738 255 187 120
-3.6451 -34.9648 -2.4782 255 187 120
-3.642 -35.0753 -2.4878 255 187 120
-3.6071 -35.4728 -2.5925 255 187 120
-3.6039 -35.7489 -2.602 255 187 120
-3.6009 -35.1525 -2.6114 255 187 120
-3.6008 -35.3845 -2.6115 255 187 120
-3.5976 -35.6054 -2.621 255 187 120
-3.5976 -35.9588 -2.6211 255 187 120
-3.5976 -36.0913 -2.6211 255 187 120
-3.5944 -36.2349 -2.6307 255 187 120
-3.5942 -37.5712 -2.6309 255 187 120
-3.588 -36.6545 -2.6498 255 187 120
-3.5849 -36.3563 -2.6592 255 187 120
-3.5849 -36.4668 -2.6592 255 187 120
-3.5819 -35.3182 -2.6685 255 187 120
-3.5817 -36.7539 -2.6688 255 187 120
-3.5816 -37.4387 -2.669 255 187 120
-3.5787 -35.4397 -2.6781 255 187 120
-3.5787 -35.5391 -2.6781 255 187 120
-3.5786 -35.7931 -2.6781 255 187 120
-3.5785 -36.9638 -2.6784 255 187 120
-3.5755 -35.7047 -2.6876 255 187 120
-3.5755 -35.8814 -2.6877 255 187 120
-3.5754 -36.025 -2.6877 255 187 120
-3.5753 -37.273 -2.6879 255 187 120
-3.5723 -36.1244 -2.6972 255 187 120
-3.5722 -36.5772 -2.6973 255 187 120
-3.5721 -37.6264 -2.6975 255 187 120
-3.5689 -37.527 -2.707 255 187 120
-3.5659 -36.279 -2.7163 255 187 120
-3.5658 -37.0632 -2.7164 255 187 120
-3.5627 -36.8312 -2.7259 255 187 120
-3.5627 -37.1957 -2.726 255 187 120
-3.5626 -37.3503 -2.726 255 187 120
-3.5596 -36.6877 -2.7354 255 187 120
-3.5493 -35.002 -2.4849 255 187 120
-3.5429 -35.1014 -2.5039 255 187 120
-3.524 -35.2339 -2.561 255 187 120
-3.5145 -35.3554 -2.5895 255 187 120
-3.5144 -35.5652 -2.5895 255 187 120
-3.5081 -35.4548 -2.6085 255 187 120
-3.5081 -36.0401 -2.6085 255 187 120
-3.5081 -36.1616 -2.6085 255 187 120
-3.505 -35.6867 -2.618 255 187 120
-3.5049 -35.8524 -2.618 255 187 120
-3.4986 -35.9518 -2.6371 255 187 120
-3.4986 -36.4377 -2.6371 255 187 120
-3.4985 -37.5201 -2.6371 255 187 120
-3.4954 -36.6365 -2.6466 255 187 120
-3.486 -35.5321 -2.6751 255 187 120
-3.4796 -36.5261 -2.6941 255 187 120
-3.4763 -37.6305 -2.7037 255 187 120
-3.4733 -36.3052 -2.7132 255 187 120
-3.4733 -36.3935 -2.7132 255 187 120
-3.4732 -37.012 -2.7132 255 187 120
-3.47 -37.266 -2.7227 255 187 120
-3.4669 -36.747 -2.7322 255 187 120
-3.4578 -34.9583 -2.4731 255 187 120
-3.4451 -35.1018 -2.5112 255 187 120
-3.4325 -35.2564 -2.5492 255 187 120
-3.4292 -35.6099 -2.5587 255 187 120
-3.4261 -35.4 -2.5682 255 187 120
-3.4198 -35.4994 -2.5873 255 187 120
-3.4134 -35.7203 -2.6063 255 187 120
-3.4068 -37.5205 -2.6253 255 187 120
-3.4005 -37.1339 -2.6443 255 187 120
-3.3973 -37.6088 -2.6538 255 187 120
-3.3815 -37.3217 -2.7014 255 187 120
-3.3815 -37.4874 -2.7014 255 187 120
-3.3752 -37.0898 -2.7204 255 187 120
-3.3707 -34.9796 -2.4547 255 187 120
-3.3612 -35.068 -2.4832 255 187 120
-3.3486 -34.9134 -2.5212 255 187 120
-3.3391 -35.333 -2.5498 255 187 120
-3.3391 -35.4324 -2.5498 255 187 120
-3.3233 -35.2557 -2.5973 255 187 120
-3.3232 -37.5198 -2.5973 255 187 120
-3.317 -35.5208 -2.6163 255 187 120
-3.3137 -37.1111 -2.6258 255 187 120
-3.301 -37.6302 -2.6638 255 187 120
-3.2916 -37.1995 -2.6924 255 187 120
-3.2853 -37.321 -2.7114 255 187 120
-3.2782 -35.005 -2.4352 255 187 120
-3.2561 -34.9388 -2.5018 255 187 120
-3.2561 -35.0713 -2.5018 255 187 120
-3.2497 -35.1707 -2.5208 255 187 120
-3.2402 -35.4247 -2.5493 255 187 120
-3.2339 -35.3253 -2.5683 255 187 120
-3.2307 -35.5793 -2.5778 255 187 120
-3.218 -37.1586 -2.6157 255 187 120
-3.2117 -37.0372 -2.6348 255 187 120
-3.2085 -37.2912 -2.6443 255 187 120
-3.2053 -37.6556 -2.6537 255 187 120
-3.1927 -37.2028 -2.6918 255 187 120
-3.1895 -36.9709 -2.7013 255 187 120
-3.1895 -37.1034 -2.7013 255 187 120
-3.1756 -34.8947 -2.4544 255 187 120
-3.1755 -35.0825 -2.4544 255 187 120
-3.1629 -34.9831 -2.4925 255 187 120
-3.1439 -35.469 -2.5495 255 187 120
-3.1344 -35.3586 -2.5781 255 187 120
-3.1025 -37.2692 -2.6731 255 187 120
-3.0994 -37.3797 -2.6826 255 187 120
-3.0931 -37.1588 -2.7017 255 187 120
-3.087 -35.5463 -2.7207 255 187 120
-3.1808 -36.1181 -1.8657 255 187 120
-3.1808 -36.2175 -1.8657 255 187 120
-3.1744 -36.4826 -1.8848 255 187 120
-3.1586 -36.3279 -1.9323 255 187 120
-3.1555 -36.4163 -1.9418 255 187 120
-3.1523 -36.1071 -1.9513 255 187 120
-2.9911 -35.0578 -2.4364 255 187 120
-2.988 -34.9032 -2.4459 255 187 120
-2.9753 -34.9805 -2.4839 255 187 120
-2.9753 -35.1351 -2.4839 255 187 120
-2.9627 -35.0578 -2.522 255 187 120
-2.9563 -35.2566 -2.541 255 187 120
-2.9563 -35.3892 -2.541 255 187 120
-2.9532 -35.4775 -2.5505 255 187 120
-2.9437 -35.1351 -2.5791 255 187 120
-2.931 -35.2898 -2.6171 255 187 120
-2.931 -37.4876 -2.6172 255 187 120
-2.9278 -37.6643 -2.6267 255 187 120
-2.9215 -37.1894 -2.6457 255 187 120
-2.9215 -37.3108 -2.6457 255 187 120
-2.8963 -35.5438 -2.7217 255 187 120
-3.1063 -35.8087 -1.8094 255 187 120
-3.1032 -35.9633 -1.8189 255 187 120
-3.0968 -36.2063 -1.8379 255 187 120
-3.0969 -36.3278 -1.8379 255 187 120
-3.0937 -36.1179 -1.8474 255 187 120
-3.0873 -35.7093 -1.8664 255 187 120
-3.0874 -36.5376 -1.8665 255 187 120
-3.0874 -36.7695 -1.8665 255 187 120
-3.0874 -36.8689 -1.8665 255 187 120
-3.0779 -35.8529 -1.895 255 187 120
-3.0715 -36.0075 -1.914 255 187 120
-3.0716 -36.2505 -1.914 255 187 120
-3.0716 -36.6922 -1.914 255 187 120
-2.9071 -34.9583 -2.4086 255 187 120
-2.8944 -35.0908 -2.4466 255 187 120
-2.8818 -34.892 -2.4846 255 187 120
-2.8786 -35.1902 -2.4942 255 187 120
-2.8565 -35.2896 -2.5608 255 187 120
-2.8566 -37.5978 -2.5608 255 187 120
-2.8502 -35.4111 -2.5798 255 187 120
-2.8408 -37.4211 -2.6084 255 187 120
-2.8282 -37.2886 -2.6464 255 187 120
-2.8219 -37.5205 -2.6655 255 187 120
-2.8186 -35.4663 -2.6749 255 187 120
-2.8155 -37.2002 -2.6845 255 187 120
-2.8092 -37.3549 -2.7035 255 187 120
-2.7997 -37.1008 -2.732 255 187 120
-3.0087 -35.7936 -1.8131 255 187 120
-2.9992 -36.1912 -1.8417 255 187 120
-2.996 -36.3237 -1.8512 255 187 120
-2.9897 -35.7163 -1.8701 255 187 120
-2.9897 -35.9482 -1.8702 255 187 120
-2.9897 -36.0697 -1.8702 255 187 120
-2.9866 -36.6772 -1.8798 255 187 120
-2.9866 -36.8759 -1.8798 255 187 120
-2.9834 -36.4563 -1.8893 255 187 120
-2.9802 -35.8378 -1.8987 255 187 120
-2.9771 -36.2575 -1.9083 255 187 120
-2.9739 -36.147 -1.9178 255 187 120
-2.8094 -34.9984 -2.4121 255 187 120
-2.8063 -34.8769 -2.4216 255 187 120
-2.7936 -35.1088 -2.4597 255 187 120
-2.7557 -35.1861 -2.5739 255 187 120
-2.7557 -35.2855 -2.5739 255 187 120
-2.7526 -35.3849 -2.5834 255 187 120
-2.7526 -35.4843 -2.5834 255 187 120
-2.7464 -37.6379 -2.6029 255 187 120
-2.7432 -37.4391 -2.6123 255 187 120
-2.7337 -37.5495 -2.6409 255 187 120
-2.7306 -37.3065 -2.6504 255 187 120
-2.7209 -35.4511 -2.6786 255 187 120
-2.7116 -37.2182 -2.7074 255 187 120
-2.7116 -37.3949 -2.7074 255 187 120
-2.6926 -37.1298 -2.7645 255 187 120
-2.9125 -35.8703 -1.8116 255 187 120
-2.9125 -36.0028 -1.8116 255 187 120
-2.9094 -35.7267 -1.8211 255 187 120
-2.8967 -36.2899 -1.8592 255 187 120
-2.8841 -36.8974 -1.8973 255 187 120
-2.8746 -36.6433 -1.9258 255 187 120
-2.7133 -34.9204 -2.4106 255 187 120
-2.7038 -35.0529 -2.4392 255 187 120
-2.688 -34.9756 -2.4867 255 187 120
-2.6754 -35.2517 -2.5248 255 187 120
-2.6629 -37.5268 -2.5632 255 187 120
-2.6532 -35.1633 -2.5914 255 187 120
-2.6501 -35.4947 -2.601 255 187 120
-2.6438 -35.2959 -2.6199 255 187 120
-2.6376 -37.3611 -2.6393 255 187 120
-2.6376 -37.6151 -2.6393 255 187 120
-2.6344 -37.2617 -2.6488 255 187 120
-2.6313 -37.4605 -2.6583 255 187 120
-2.6248 -35.4615 -2.677 255 187 120
-2.6218 -37.1623 -2.6868 255 187 120
-2.5933 -37.1071 -2.7724 255 187 120
-2.7081 -36.7097 -1.8417 255 187 120
-2.7017 -35.8372 -1.8605 255 187 120
-2.7017 -36.6214 -1.8607 255 187 120
-2.6922 -36.7981 -1.8893 255 187 120
-2.5214 -35.0199 -2.4025 255 187 120
-2.5151 -34.8653 -2.4215 255 187 120
-2.5024 -34.9536 -2.4596 255 187 120
-2.4773 -37.5821 -2.5362 255 187 120
-2.4678 -37.4937 -2.5647 255 187 120
-2.4583 -37.4054 -2.5932 255 187 120
-2.4551 -37.6373 -2.6028 255 187 120
-2.4488 -37.2287 -2.6217 255 187 120
-2.4488 -37.317 -2.6217 255 187 120
-2.4361 -37.1072 -2.6597 255 187 120
-2.7302 -35.771 -1.7749 255 187 120
-2.7302 -35.8593 -1.7749 255 187 120
-2.7238 -36.2901 -1.7941 255 187 120
-2.7207 -36.1907 -1.8035 255 187 120
-2.7112 -36.8754 -1.8322 255 187 120
-2.708 -35.7047 -1.8415 255 187 120
-2.6922 -36.1686 -1.8891 255 187 120
-2.6923 -36.9527 -1.8893 255 187 120
-2.5445 -35.7913 -1.7569 255 187 120
-2.5445 -35.9018 -1.757 255 187 120
-2.535 -35.6478 -1.7855 255 187 120
-2.5257 -36.8074 -1.8142 255 187 120
-2.5192 -35.957 -1.8331 255 187 120
-2.513 -36.6749 -1.8522 255 187 120
-2.5004 -36.7632 -1.8903 255 187 120
-2.5004 -36.8847 -1.8903 255 187 120
-2.3358 -35.0402 -2.3845 255 187 120
-2.3073 -35.1728 -2.4702 255 187 120
-2.3041 -35.0734 -2.4797 255 187 120
-2.2883 -35.2942 -2.5273 255 187 120
-2.2886 -37.5804 -2.5277 255 187 120
-2.282 -35.2059 -2.5463 255 187 120
-2.2757 -35.4489 -2.5653 255 187 120
-2.2696 -37.2049 -2.5847 255 187 120
-2.2696 -37.4589 -2.5847 255 187 120
-2.2601 -37.5804 -2.6133 255 187 120
-2.2443 -37.3926 -2.6608 255 187 120
-2.4442 -35.7265 -1.7663 255 187 120
-2.441 -35.8921 -1.7758 255 187 120
-2.4347 -36.0026 -1.7949 255 187 120
-2.4252 -36.853 -1.8236 255 187 120
-2.4063 -36.0357 -1.8805 255 187 120
-2.4063 -36.6763 -1.8806 255 187 120
-2.4063 -36.7757 -1.8806 255 187 120
-2.2292 -35.0527 -2.4129 255 187 120
-2.226 -34.9312 -2.4224 255 187 120
-2.2134 -35.141 -2.4605 255 187 120
-2.2007 -35.2183 -2.4986 255 187 120
-2.1849 -37.5376 -2.5465 255 187 120
-2.1786 -35.4613 -2.5652 255 187 120
-2.1723 -37.637 -2.5846 255 187 120
-2.1691 -37.383 -2.5941 255 187 120
-2.1596 -37.1289 -2.6225 255 187 120
-2.1565 -37.2283 -2.6321 255 187 120
-2.1438 -37.3388 -2.6701 255 187 120
-2.3465 -35.8052 -1.7668 255 187 120
-2.3433 -35.6726 -1.7763 255 187 120
-2.3433 -35.9598 -1.7763 255 187 120
-2.3275 -36.8433 -1.824 255 187 120
-2.3243 -36.6997 -1.8335 255 187 120
-2.3054 -36.0481 -1.8905 255 187 120
-2.3022 -36.1917 -1.9 255 187 120
-2.3022 -36.2911 -1.9 255 187 120
-2.1346 -34.9878 -2.404 255 187 120
-2.1314 -35.0762 -2.4135 255 187 120
-2.1251 -34.8553 -2.4325 255 187 120
-2.1156 -35.1535 -2.461 255 187 120
-2.0998 -35.2308 -2.5086 255 187 120
-2.0903 -35.4185 -2.5372 255 187 120
-2.0903 -37.5059 -2.5374 255 187 120
-2.0745 -37.2077 -2.5849 255 187 120
-2.0745 -37.6053 -2.585 255 187 120
-2.065 -37.296 -2.6135 255 187 120
-2.065 -37.3844 -2.6135 255 187 120
-2.0619 -35.4517 -2.6228 255 187 120
-2.2517 -35.8723 -1.756 255 187 120
-2.2485 -35.7398 -1.7655 255 187 120
-2.2263 -36.546 -1.8322 255 187 120
-2.2263 -36.6785 -1.8322 255 187 120
-2.2262 -36.7779 -1.8322 255 187 120
-2.2231 -36.9215 -1.8417 255 187 120
-2.2169 -35.9827 -1.8607 255 187 120
-2.2137 -36.1042 -1.8702 255 187 120
-2.0431 -34.9224 -2.3837 255 187 120
-2.0336 -35.066 -2.4122 255 187 120
-2.0209 -34.9887 -2.4502 255 187 120
-2.0082 -35.2427 -2.4883 255 187 120
-1.9956 -35.32 -2.5264 255 187 120
-1.9826 -37.5178 -2.5646 255 187 120
-1.9797 -35.3973 -2.5739 255 187 120
-1.9795 -37.4294 -2.5741 255 187 120
-1.9794 -37.6393 -2.5741 255 187 120
-1.9668 -37.2527 -2.6121 255 187 120
-1.9668 -37.3521 -2.6122 255 187 120
-1.9352 -37.1754 -2.7072 255 187 120
-2.1598 -35.9032 -1.7575 255 187 120
-2.1407 -36.7867 -1.8148 255 187 120
-2.1376 -36.6984 -1.8242 255 187 120
-2.1345 -35.7927 -1.8336 255 187 120
-2.1313 -35.9363 -1.8431 255 187 120
-2.1313 -36.599 -1.8433 255 187 120
-2.1281 -36.864 -1.8528 255 187 120
-2.125 -36.0357 -1.8622 255 187 120
-1.9512 -34.9864 -2.3851 255 187 120
-1.9164 -35.3177 -2.4898 255 187 120
-1.9133 -35.2183 -2.4993 255 187 120
-1.9101 -35.4171 -2.5088 255 187 120
-1.9004 -37.4934 -2.5377 255 187 120
-1.8975 -35.1189 -2.5468 255 187 120
-1.8877 -37.3829 -2.5758 255 187 120
-1.8846 -37.2062 -2.5852 255 187 120
-1.8814 -37.5817 -2.5948 255 187 120
-1.8785 -35.4281 -2.6039 255 187 120
-1.8719 -37.3056 -2.6233 255 187 120
-1.8719 -37.4713 -2.6233 255 187 120
-2.0643 -35.7913 -1.748 255 187 120
-2.0548 -36.3656 -1.7767 255 187 120
-2.0515 -36.8295 -1.7863 255 187 120
-2.0452 -36.7411 -1.8053 255 187 120
-2.0422 -35.7251 -1.8146 255 187 120
-2.0421 -36.222 -1.8147 255 187 120
-2.0358 -35.8134 -1.8336 255 187 120
-2.0327 -35.9128 -1.8431 255 187 120
-2.0326 -36.4208 -1.8433 255 187 120
-2.0295 -36.3104 -1.8528 255 187 120
-2.0294 -36.9289 -1.8529 255 187 120
-1.8557 -34.9518 -2.3755 255 187 120
-1.8462 -35.0512 -2.4041 255 187 120
-1.8209 -35.2831 -2.4802 255 187 120
-1.8111 -37.5361 -2.5094 255 187 120
-1.8082 -35.4598 -2.5183 255 187 120
-1.8051 -35.1284 -2.5277 255 187 120
-1.8016 -37.4477 -2.5379 255 187 120
-1.7953 -37.6134 -2.5569 255 187 120
-1.789 -37.3594 -2.5759 255 187 120
-1.7797 -35.4487 -2.6039 255 187 120
-1.7732 -37.4477 -2.6235 255 187 120
-1.7669 -37.2378 -2.6424 255 187 120
-1.7606 -37.3262 -2.6615 255 187 120
-1.7542 -37.1495 -2.6805 255 187 120
-1.9682 -35.7478 -1.7581 255 187 120
-1.9587 -36.3 -1.7868 255 187 120
-1.9524 -36.9295 -1.8059 255 187 120
-1.9492 -36.7196 -1.8154 255 187 120
-1.9397 -36.2337 -1.8438 255 187 120
-1.9334 -36.4435 -1.8629 255 187 120
-1.9334 -36.8522 -1.863 255 187 120
-1.7594 -35.0298 -2.3857 255 187 120
-1.7563 -34.9414 -2.3951 255 187 120
-1.7436 -35.1071 -2.4332 255 187 120
-1.731 -35.2396 -2.4713 255 187 120
-1.7152 -35.0849 -2.5188 255 187 120
-1.7152 -37.5257 -2.5194 255 187 120
-1.7026 -37.6141 -2.5575 255 187 120
-1.693 -35.4825 -2.5855 255 187 120
-1.6931 -37.2496 -2.5859 255 187 120
-1.6899 -37.3821 -2.5955 255 187 120
-1.6867 -37.1502 -2.6049 255 187 120
-1.6868 -37.4926 -2.605 255 187 120
-1.7647 -36.887 -1.7872 255 187 120
-1.7614 -36.2906 -1.7966 255 187 120
-1.7582 -35.7826 -1.806 255 187 120
-1.7583 -36.7324 -1.8062 255 187 120
-1.7519 -35.9814 -1.825 255 187 120
-1.7487 -35.893 -1.8345 255 187 120
-1.7392 -36.1801 -1.8631 255 187 120
-1.5746 -34.9762 -2.3574 255 187 120
-1.5588 -35.0646 -2.405 255 187 120
-1.5556 -34.8989 -2.4144 255 187 120
-1.5429 -34.9873 -2.4525 255 187 120
-1.5398 -35.2081 -2.4621 255 187 120
-1.5271 -35.0866 -2.5001 255 187 120
-1.5272 -35.3738 -2.5002 255 187 120
-1.5244 -37.6047 -2.5102 255 187 120
-1.5117 -37.4059 -2.5482 255 187 120
-1.5054 -37.5053 -2.5673 255 187 120
-1.499 -37.2071 -2.5862 255 187 120
-1.4927 -37.3286 -2.6053 255 187 120
-1.4674 -37.1408 -2.6813 255 187 120
-1.6899 -35.8492 -1.7205 255 187 120
-1.6773 -35.7608 -1.7585 255 187 120
-1.6678 -36.0369 -1.7871 255 187 120
-1.6679 -36.7768 -1.7873 255 187 120
-1.6647 -36.6112 -1.7968 255 187 120
-1.6615 -36.1694 -1.8062 255 187 120
-1.6552 -35.9596 -1.8251 255 187 120
-1.6489 -36.6995 -1.8443 255 187 120
-1.6457 -36.0921 -1.8537 255 187 120
-1.6457 -36.2578 -1.8537 255 187 120
-1.4811 -34.8992 -2.348 255 187 120
-1.4622 -35.098 -2.4051 255 187 120
-1.4527 -34.9876 -2.4336 255 187 120
-1.4495 -35.2305 -2.4432 255 187 120
-1.4369 -35.352 -2.4812 255 187 120
-1.4276 -37.5498 -2.5103 255 187 120
-1.4242 -35.1642 -2.5192 255 187 120
-1.4181 -37.4393 -2.5388 255 187 120
-1.4084 -35.3741 -2.5668 255 187 120
-1.4023 -37.2405 -2.5863 255 187 120
-1.3833 -37.3841 -2.6434 255 187 120
-1.602 -35.752 -1.7005 255 187 120
-1.5925 -35.8956 -1.7291 255 187 120
-1.5831 -36.1827 -1.7577 255 187 120
-1.5767 -35.6416 -1.7766 255 187 120
-1.5768 -36.6355 -1.7768 255 187 120
-1.5735 -35.7851 -1.7862 255 187 120
-1.5736 -36.0281 -1.7862 255 187 120
-1.5736 -36.4588 -1.7863 255 187 120
-1.5736 -36.5472 -1.7863 255 187 120
-1.5736 -36.8233 -1.7864 255 187 120
-1.5704 -36.2821 -1.7958 255 187 120
-1.5705 -36.9116 -1.7959 255 187 120
-1.5672 -35.9397 -1.8052 255 187 120
-1.5609 -36.1164 -1.8243 255 187 120
-1.561 -36.7349 -1.8244 255 187 120
-1.5578 -36.3815 -1.8338 255 187 120
-1.5484 -36.9668 -1.8625 255 187 120
-1.39 -35.0119 -2.3376 255 187 120
-1.3711 -34.9015 -2.3947 255 187 120
-1.3584 -35.023 -2.4327 255 187 120
-1.3584 -35.1334 -2.4328 255 187 120
-1.349 -35.2549 -2.4613 255 187 120
-1.3426 -35.3432 -2.4804 255 187 120
-1.3331 -35.1776 -2.5089 255 187 120
-1.3268 -35.4205 -2.5279 255 187 120
-1.3271 -37.5852 -2.5284 255 187 120
-1.3112 -37.3422 -2.5759 255 187 120
-1.3081 -37.4968 -2.5855 255 187 120
-1.3017 -37.1655 -2.6044 255 187 120
-1.2954 -37.2649 -2.6235 255 187 120
-1.5027 -35.6749 -1.7074 255 187 120
-1.4996 -35.8295 -1.717 255 187 120
-1.4996 -35.9731 -1.717 255 187 120
-1.4838 -36.5143 -1.7647 255 187 120
-1.4807 -36.702 -1.7742 255 187 120
-1.4775 -36.8456 -1.7837 255 187 120
-1.4616 -36.0614 -1.8312 255 187 120
-1.4585 -36.6136 -1.8408 255 187 120
-1.4585 -36.7683 -1.8408 255 187 120
-1.2939 -34.9459 -2.335 255 187 120
-1.2844 -35.0342 -2.3636 255 187 120
-1.2591 -35.2441 -2.4397 255 187 120
-1.253 -37.5633 -2.4591 255 187 120
-1.237 -35.1778 -2.5063 255 187 120
-1.2309 -37.4419 -2.5257 255 187 120
-1.2212 -35.4208 -2.5539 255 187 120
-1.2214 -37.3535 -2.5542 255 187 120
-1.2182 -37.5523 -2.5638 255 187 120
-1.2119 -37.2099 -2.5827 255 187 120
-1.1929 -37.3093 -2.6398 255 187 120
-1.1803 -37.1657 -2.6778 255 187 120
-1.4105 -35.7632 -1.7005 255 187 120
-1.4073 -35.8847 -1.71 255 187 120
-1.3915 -36.6799 -1.7577 255 187 120
-1.3851 -35.6638 -1.7765 255 187 120
-1.3852 -36.1056 -1.7766 255 187 120
-1.3852 -36.7793 -1.7767 255 187 120
-1.3852 -36.8677 -1.7767 255 187 120
-1.382 -35.8185 -1.7861 255 187 120
-1.382 -35.962 -1.7861 255 187 120
-1.3726 -36.6136 -1.8147 255 187 120
-1.3663 -36.945 -1.8338 255 187 120
-1.1479 -35.1889 -2.4898 255 187 120
-1.1481 -37.5081 -2.4901 255 187 120
-1.1384 -35.3324 -2.5183 255 187 120
-1.1322 -37.3866 -2.5376 255 187 120
-1.1322 -37.6186 -2.5377 255 187 120
-1.1226 -35.4208 -2.5659 255 187 120
-1.1196 -37.2762 -2.5757 255 187 120
-1.1196 -37.475 -2.5757 255 187 120
-1.1101 -37.1768 -2.6042 255 187 120
-1.3127 -35.8071 -1.6988 255 187 120
-1.2906 -36.4587 -1.7654 255 187 120
-1.2906 -36.6243 -1.7654 255 187 120
-1.2906 -36.7348 -1.7654 255 187 120
-1.2874 -36.8894 -1.7749 255 187 120
-1.2842 -35.8844 -1.7844 255 187 120
-1.2811 -35.9948 -1.7939 255 187 120
-1.2779 -36.1053 -1.8034 255 187 120
-1.2716 -36.8121 -1.8225 255 187 120
-1.2653 -36.9446 -1.8415 255 187 120
-1.1038 -34.9677 -2.3264 255 187 120
-1.0975 -34.8794 -2.3455 255 187 120
-1.0785 -35.0119 -2.4025 255 187 120
-1.0754 -35.2438 -2.412 255 187 120
-1.0722 -35.1334 -2.4215 255 187 120
-1.0691 -35.3432 -2.4311 255 187 120
-1.0597 -37.5631 -2.4597 255 187 120
-1.0534 -37.4526 -2.4787 255 187 120
-1.0501 -35.4205 -2.4881 255 187 120
-1.0374 -35.3322 -2.5262 255 187 120
-1.0344 -37.5962 -2.5358 255 187 120
-1.0312 -37.3864 -2.5453 255 187 120
-1.0249 -37.298 -2.5643 255 187 120
-1.0186 -37.1544 -2.5833 255 187 120
-1.2051 -36.3033 -1.7365 255 187 120
-1.202 -35.6517 -1.746 255 187 120
-1.202 -35.8174 -1.746 255 187 120
-1.1988 -36.458 -1.7556 255 187 120
-1.1956 -36.8003 -1.7651 255 187 120
-1.1956 -36.8997 -1.7651 255 187 120
-1.1893 -36.6015 -1.7841 255 187 120
-1.1893 -36.712 -1.7841 255 187 120
-1.183 -35.9389 -1.8031 255 187 120
-1.1798 -36.2592 -1.8126 255 187 120
-1.1798 -36.3696 -1.8126 255 187 120
-1.1735 -36.9549 -1.8317 255 187 120
-1.0122 -34.9559 -2.3166 255 187 120
-0.9964 -35.0995 -2.3642 255 187 120
-0.9585 -35.2872 -2.4783 255 187 120
-0.9585 -37.5734 -2.4785 255 187 120
-0.9521 -37.474 -2.4975 255 187 120
-0.9458 -35.3866 -2.5164 255 187 120
-0.93 -37.1978 -2.5641 255 187 120
-0.9237 -37.3304 -2.5831 255 187 120
-1.1271 -35.7501 -1.6793 255 187 120
-1.1082 -35.6507 -1.7364 255 187 120
-1.1081 -35.8274 -1.7364 255 187 120
-1.1081 -35.9268 -1.7364 255 187 120
-1.0954 -36.7109 -1.7746 255 187 120
-1.0923 -36.8103 -1.7841 255 187 120
-1.0891 -36.9318 -1.7936 255 187 120
-1.0733 -36.6557 -1.8411 255 187 120
-0.8901 -34.9327 -2.3926 255 187 120
-0.8711 -35.0652 -2.4496 255 187 120
-0.8616 -35.3192 -2.4782 255 187 120
-0.8614 -37.506 -2.4785 255 187 120
-0.8551 -37.5943 -2.4975 255 187 120
-0.8426 -35.4076 -2.5353 255 187 120
-0.8298 -37.1857 -2.5736 255 187 120
-0.8266 -37.2851 -2.5831 255 187 120
-0.8235 -37.3845 -2.5926 255 187 120
-1.0161 -35.8373 -1.7276 255 187 120
-0.8233 -34.9205 -2.3077 255 187 120
-0.7917 -34.9868 -2.4028 255 187 120
-0.7917 -35.2187 -2.4028 255 187 120
-0.7885 -35.1082 -2.4123 255 187 120
-0.7822 -35.3402 -2.4314 255 187 120
-0.7664 -35.4506 -2.479 255 187 120
-0.763 -37.4386 -2.4888 255 187 120
-0.763 -37.549 -2.4888 255 187 120
-0.7537 -35.3622 -2.517 255 187 120
-0.7346 -37.1183 -2.5743 255 187 120
-0.703 -37.0851 -2.6694 255 187 120
-0.6342 -34.9762 -2.3085 255 187 120
-0.6279 -34.8547 -2.3275 255 187 120
-0.6057 -35.2412 -2.3941 255 187 120
-0.5962 -35.418 -2.4227 255 187 120
-0.5741 -37.3507 -2.4895 255 187 120
-0.5709 -37.4832 -2.499 255 187 120
-0.5488 -36.9973 -2.5655 255 187 120
-0.5456 -37.2513 -2.5751 255 187 120
-0.533 -37.1077 -2.6131 255 187 120
-0.5804 -35.5947 -2.4703 255 187 120
-0.5614 -37.0967 -2.5275 255 187 120
-0.4535 -34.9196 -2.2714 255 187 120
-0.4282 -34.8533 -2.3475 255 187 120
-0.4123 -35.3613 -2.3952 255 187 120
-0.4091 -35.527 -2.4047 255 187 120
-0.3902 -35.4496 -2.4618 255 187 120
-0.3773 -37.3934 -2.5002 255 187 120
-0.3741 -37.6143 -2.5097 255 187 120
-0.371 -36.9295 -2.5191 255 187 120
-0.3679 -36.554 -2.5285 255 187 120
-0.3679 -36.8301 -2.5286 255 187 120
-0.3647 -37.1504 -2.5382 255 187 120
-0.3553 -35.8582 -2.5665 255 187 120
-0.2612 -34.9195 -2.2702 255 187 120
-0.2612 -35.0079 -2.2702 255 187 120
-0.2486 -35.1515 -2.3083 255 187 120
-0.2359 -35.273 -2.3464 255 187 120
-0.2328 -35.3834 -2.3559 255 187 120
-0.2296 -35.5049 -2.3654 255 187 120
-0.2265 -35.7258 -2.375 255 187 120
-0.2201 -35.5932 -2.394 255 187 120
-0.217 -36.0239 -2.4035 255 187 120
-0.2043 -36.8633 -2.4417 255 187 120
-0.1885 -36.4326 -2.4892 255 187 120
-0.1854 -37.3161 -2.4988 255 187 120
-0.1854 -37.4045 -2.4988 255 187 120
-0.1822 -36.289 -2.5082 255 187 120
-0.1822 -36.543 -2.5082 255 187 120
-0.1822 -36.7749 -2.5083 255 187 120
-0.179 -36.6535 -2.5177 255 187 120
-0.179 -36.9296 -2.5178 255 187 120
-0.179 -37.1725 -2.5178 255 187 120
-0.1148 -36.1221 -2.434 255 187 120
-0.1116 -36.2325 -2.4435 255 187 120
-0.1053 -36.354 -2.4626 255 187 120
-5.4864 -36.5685 -2.8815 255 187 120
-5.468 -36.4164 -2.8178 255 187 120
-5.4663 -36.3241 -2.8042 255 187 120
-5.4927 -36.477 -2.8894 255 187 120
-5.4683 -36.203 -2.7977 255 187 120
-5.4961 -36.3657 -2.8877 255 187 120
-5.4944 -36.2734 -2.8742 255 187 120
-5.2744 -36.5631 -2.8248 255 187 120
-5.2787 -36.4034 -2.8204 255 187 120
-5.277 -36.3111 -2.8069 255 187 120
-5.3067 -36.4594 -2.9004 255 187 120
-5.2903 -36.1862 -2.8301 255 187 120
-5.2748 -36.0538 -2.7759 255 187 120
-5.308 -36.2801 -2.8864 255 187 120
-5.2687 -35.932 -2.7479 255 187 120
-5.3079 -36.0909 -2.8677 255 187 120
-5.2986 -35.9736 -2.8314 255 187 120
-5.2878 -35.8464 -2.7904 255 187 120
-5.1483 -36.871 -2.7858 255 187 120
-5.1659 -36.7756 -2.8234 255 187 120
-5.1804 -36.874 -2.8715 255 187 120
-5.1788 -36.675 -2.8479 255 187 120
-5.1765 -36.5244 -2.827 255 187 120
-5.1795 -36.4373 -2.8266 255 187 120
-5.1801 -36.3064 -2.8152 255 187 120
-5.1715 -36.1407 -2.7764 255 187 120
-5.2062 -36.3768 -2.8917 255 187 120
-5.2039 -36.2262 -2.8708 255 187 120
-5.1906 -36.0551 -2.8188 255 187 120
-5.1911 -35.9242 -2.8074 255 187 120
-5.184 -35.7683 -2.7734 255 187 120
-5.048 -36.8722 -2.7629 255 187 120
-5.0855 -36.9387 -2.8691 255 187 120
-5.0627 -36.7571 -2.7909 255 187 120
-5.079 -36.8411 -2.8425 255 187 120
-5.0942 -36.7018 -2.8692 255 187 120
-5.0758 -36.5497 -2.8054 255 187 120
-5.1005 -36.6103 -2.877 255 187 120
-5.1014 -36.4551 -2.8644 255 187 120
-5.1071 -36.3053 -2.8649 255 187 120
-5.0779 -36.026 -2.76 255 187 120
-5.1095 -36.16 -2.857 255 187 120
-5.1045 -36.0722 -2.8352 255 187 120
-5.0644 -35.7725 -2.6993 255 187 120
-5.0821 -35.8664 -2.7557 255 187 120
-5.1032 -35.9556 -2.8204 255 187 120
-5.0725 -35.6666 -2.7107 255 187 120
-5.094 -35.7316 -2.7741 255 187 120
-4.8569 -36.9576 -2.7633 255 187 120
-4.8784 -37.0227 -2.8267 255 187 120
-4.887 -36.8925 -2.8367 255 187 120
-4.8784 -36.7268 -2.7978 255 187 120
-4.905 -36.7729 -2.873 255 187 120
-4.907 -36.6518 -2.8665 255 187 120
-4.909 -36.5307 -2.8599 255 187 120
-4.8926 -36.2575 -2.7896 255 187 120
-4.9157 -36.4149 -2.8665 255 187 120
-4.9173 -36.3181 -2.8613 255 187 120
-4.9236 -36.2265 -2.8692 255 187 120
-4.9186 -36.1387 -2.8473 255 187 120
-4.8959 -35.9571 -2.7691 255 187 120
-4.8851 -35.83 -2.728 255 187 120
-4.9155 -36.0366 -2.829 255 187 120
-4.8765 -35.6642 -2.6891 255 187 120
-4.9197 -35.8769 -2.8246 255 187 120
-4.9147 -35.7891 -2.8028 255 187 120
-4.905 -35.696 -2.7678 255 187 120
-4.8923 -35.5833 -2.7232 255 187 120
-4.7537 -37.0041 -2.7521 255 187 120
-4.7832 -37.07 -2.8369 255 187 120
-4.7885 -36.9443 -2.8387 255 187 120
-4.8051 -36.8149 -2.8702 255 187 120
-4.8081 -36.7279 -2.8698 255 187 120
-4.7952 -36.5326 -2.8165 255 187 120
-4.8111 -36.6408 -2.8694 255 187 120
-4.7844 -36.4055 -2.7755 255 187 120
-4.8128 -36.4373 -2.8541 255 187 120
-4.7996 -36.2662 -2.8022 255 187 120
-4.8144 -36.3404 -2.8489 255 187 120
-4.8059 -36.1747 -2.8101 255 187 120
-4.8217 -36.0937 -2.8442 255 187 120
-4.8167 -36.0059 -2.8224 255 187 120
-4.7802 -35.6774 -2.6935 255 187 120
-4.7998 -35.7569 -2.7534 255 187 120
-4.8158 -35.8651 -2.8062 255 187 120
-4.7836 -35.5662 -2.6918 255 187 120
-4.8098 -35.6366 -2.7683 255 187 120
-4.6653 -37.0631 -2.778 255 187 120
-4.6933 -37.119 -2.8579 255 187 120
-4.6953 -36.998 -2.8514 255 187 120
-4.6832 -36.7543 -2.7956 255 187 120
-4.7068 -36.8875 -2.8711 255 187 120
-4.7131 -36.7959 -2.879 255 187 120
-4.701 -36.5522 -2.8231 255 187 120
-4.714 -36.6407 -2.8664 255 187 120
-4.7092 -36.4462 -2.8345 255 187 120
-4.7009 -36.363 -2.8044 255 187 120
-4.6938 -36.2071 -2.7704 255 187 120
-4.7167 -36.282 -2.8385 255 187 120
-4.7246 -36.0936 -2.8412 255 187 120
-4.7227 -35.9188 -2.819 255 187 120
-4.6902 -35.644 -2.7058 255 187 120
-4.7261 -35.8075 -2.8173 255 187 120
-4.7182 -35.7 -2.7858 255 187 120
-4.6992 -35.4897 -2.7146 255 187 120
-4.7107 -35.5684 -2.7531 255 187 120
-4.5593 -37.1324 -2.7655 255 187 120
-4.5958 -37.1649 -2.8656 255 187 120
-4.5745 -36.9931 -2.7922 255 187 120
-4.5908 -37.0771 -2.8438 255 187 120
-4.603 -36.9182 -2.8609 255 187 120
-4.6021 -36.7774 -2.8447 255 187 120
-4.5946 -36.6457 -2.8119 255 187 120
-4.6116 -36.4921 -2.8421 255 187 120
-4.5919 -36.2234 -2.7635 255 187 120
-4.6148 -36.2984 -2.8317 255 187 120
-4.5904 -36.0244 -2.7399 255 187 120
-4.6186 -35.9737 -2.8099 255 187 120
-4.5912 -35.6801 -2.7085 255 187 120
-4.5885 -35.5537 -2.6889 255 187 120
-4.6225 -35.7315 -2.7968 255 187 120
-4.6341 -35.8102 -2.8353 255 187 120
-4.6184 -35.5953 -2.7724 255 187 120
-4.5999 -35.4432 -2.7086 255 187 120
-4.4753 -37.1479 -2.8032 255 187 120
-4.4968 -37.213 -2.8666 255 187 120
-4.4796 -36.9882 -2.7988 255 187 120
-4.501 -37.0533 -2.8622 255 187 120
-4.4954 -36.9072 -2.833 255 187 120
-4.5116 -36.802 -2.8658 255 187 120
-4.4922 -36.6159 -2.7958 255 187 120
-4.5103 -36.6855 -2.8509 255 187 120
-4.5113 -36.5303 -2.8383 255 187 120
-4.5068 -36.3116 -2.8051 255 187 120
-4.4958 -36.102 -2.7553 255 187 120
-4.5202 -36.1867 -2.8283 255 187 120
-4.5226 -36.0414 -2.8204 255 187 120
-4.5323 -35.8386 -2.8266 255 187 120
-4.4945 -35.5003 -2.6929 255 187 120
-4.5242 -35.6487 -2.7864 255 187 120
-4.5277 -35.5374 -2.7847 255 187 120
-4.5206 -35.3815 -2.7506 255 187 120
-4.3876 -37.2559 -2.8338 255 187 120
-4.398 -37.1113 -2.8474 255 187 120
-4.4096 -37.19 -2.8858 255 187 120
-4.3987 -36.8737 -2.826 255 187 120
-4.4131 -36.9721 -2.8741 255 187 120
-4.4109 -36.7148 -2.8431 255 187 120
-4.4115 -36.5839 -2.8318 255 187 120
-4.4164 -36.4824 -2.8348 255 187 120
-4.434 -36.3871 -2.8725 255 187 120
-4.4243 -36.294 -2.8375 255 187 120
-4.4179 -36.1964 -2.8109 255 187 120
-4.4194 -36.0995 -2.8056 255 187 120
-4.4263 -35.877 -2.8022 255 187 120
-4.4137 -35.7642 -2.7576 255 187 120
-4.3969 -35.5153 -2.6886 255 187 120
-4.4219 -35.6583 -2.769 255 187 120
-4.3974 -35.3843 -2.6773 255 187 120
-4.4279 -35.4842 -2.7682 255 187 120
-4.4045 -35.2443 -2.6826 255 187 120
-4.2802 -37.3948 -2.8071 255 187 120
-4.2723 -37.2874 -2.7756 255 187 120
-4.3042 -37.2079 -2.8526 255 187 120
-4.2896 -36.9203 -2.7858 255 187 120
-4.307 -37.0384 -2.8434 255 187 120
-4.2911 -36.6342 -2.7618 255 187 120
-4.3186 -36.8212 -2.8531 255 187 120
-4.3144 -36.6849 -2.8287 255 187 120
-4.3219 -36.5207 -2.8326 255 187 120
-4.2991 -36.3391 -2.7544 255 187 120
-4.3224 -36.3898 -2.8213 255 187 120
-4.3211 -36.2732 -2.8065 255 187 120
-4.326 -36.1718 -2.8096 255 187 120
-4.3362 -35.9448 -2.8144 255 187 120
-4.3119 -35.7533 -2.7314 255 187 120
-4.3363 -35.8381 -2.8044 255 187 120
-4.3137 -35.5497 -2.7162 255 187 120
-4.3267 -35.6383 -2.7594 255 187 120
-4.2896 -35.2516 -2.6231 255 187 120
-4.3176 -35.3076 -2.7031 255 187 120
-4.3336 -35.4158 -2.756 255 187 120
-4.1767 -37.3807 -2.789 255 187 120
-4.1897 -37.4692 -2.8322 255 187 120
-4.2071 -37.2914 -2.8611 255 187 120
-4.219 -37.1567 -2.8795 255 187 120
-4.2206 -37.0598 -2.8743 255 187 120
-4.2221 -36.9629 -2.8691 255 187 120
-4.195 -36.7518 -2.7765 255 187 120
-4.2095 -36.8502 -2.8245 255 187 120
-4.1933 -36.6595 -2.7629 255 187 120
-4.2236 -36.6768 -2.8451 255 187 120
-4.219 -36.5648 -2.822 255 187 120
-4.2295 -36.3136 -2.8255 255 187 120
-4.2264 -36.2114 -2.8072 255 187 120
-4.2306 -36.0517 -2.8028 255 187 120
-4.2126 -35.8754 -2.7377 255 187 120
-4.2355 -35.9503 -2.8059 255 187 120
-4.2411 -35.8005 -2.8064 255 187 120
-4.2322 -35.659 -2.7688 255 187 120
-4.2305 -35.5666 -2.7553 255 187 120
-4.2325 -35.4455 -2.7488 255 187 120
-4.2177 -35.2647 -2.692 255 187 120
-4.2308 -35.3532 -2.7352 255 187 120
-4.2226 -35.1633 -2.6951 255 187 120
-4.0769 -37.4589 -2.7855 255 187 120
-4.0885 -37.5376 -2.824 255 187 120
-4.0803 -37.3476 -2.7838 255 187 120
-4.1036 -37.3983 -2.8507 255 187 120
-4.094 -37.1985 -2.8057 255 187 120
-4.1085 -37.2969 -2.8538 255 187 120
-4.0909 -37.0964 -2.7874 255 187 120
-4.1009 -36.976 -2.8023 255 187 120
-4.1223 -37.0411 -2.8656 255 187 120
-4.1069 -36.802 -2.8014 255 187 120
-4.1214 -36.9003 -2.8495 255 187 120
-4.1136 -36.6862 -2.808 255 187 120
-4.1288 -36.5469 -2.8347 255 187 120
-4.1111 -36.3464 -2.7683 255 187 120
-4.1271 -36.4546 -2.8212 255 187 120
-4.135 -36.2661 -2.8239 255 187 120
-4.1285 -36.1685 -2.7972 255 187 120
-4.1309 -36.0232 -2.7894 255 187 120
-4.1391 -35.9172 -2.8008 255 187 120
-4.1291 -35.4458 -2.7283 255 187 120
-4.1468 -35.5396 -2.7847 255 187 120
-4.1114 -35.2452 -2.662 255 187 120
-4.1064 -35.1574 -2.6401 255 187 120
-4.1329 -35.3103 -2.7253 255 187 120
-4.1284 -35.0916 -2.6922 255 187 120
-3.9831 -37.5788 -2.8129 255 187 120
-3.9742 -37.4373 -2.7754 255 187 120
-4.0042 -37.3722 -2.8488 255 187 120
-4.0138 -37.2761 -2.865 255 187 120
-4.0055 -37.1928 -2.8349 255 187 120
-4.0166 -37.1066 -2.8559 255 187 120
-4.0116 -37.0188 -2.8341 255 187 120
-4.0274 -36.9378 -2.8682 255 187 120
-4.0209 -36.8402 -2.8416 255 187 120
-4.0145 -36.7425 -2.8149 255 187 120
-4.0249 -36.598 -2.8285 255 187 120
-4.0108 -36.4754 -2.7792 255 187 120
-4.0365 -36.3808 -2.8382 255 187 120
-4.0399 -36.2695 -2.8365 255 187 120
-4.0335 -36.1719 -2.8098 255 187 120
-4.0336 -36.0652 -2.7998 255 187 120
-4.04 -35.9736 -2.8077 255 187 120
-4.0317 -35.8904 -2.7776 255 187 120
-4.0431 -35.7799 -2.7973 255 187 120
-4.043 -35.5907 -2.7785 255 187 120
-4.0349 -35.4007 -2.7384 255 187 120
-4.0266 -35.3175 -2.7082 255 187 120
-4.0329 -35.2259 -2.7161 255 187 120
-4.0258 -35.07 -2.6821 255 187 120
-4.0226 -34.9678 -2.6638 255 187 120
-3.7844 -37.6373 -2.7989 255 187 120
-3.7813 -37.5351 -2.7806 255 187 120
-3.7771 -37.3989 -2.7561 255 187 120
-3.8073 -37.4163 -2.8383 255 187 120
-3.7977 -37.2165 -2.7933 255 187 120
-3.8206 -37.2914 -2.8615 255 187 120
-3.7976 -37.0273 -2.7746 255 187 120
-3.8238 -37.0977 -2.8511 255 187 120
-3.8287 -36.9963 -2.8542 255 187 120
-3.8244 -36.86 -2.8297 255 187 120
-3.8133 -36.7571 -2.79 255 187 120
-3.8295 -36.6519 -2.8228 255 187 120
-3.8314 -36.5308 -2.8162 255 187 120
-3.847 -36.0714 -2.8129 255 187 120
-3.8717 -36.132 -2.8845 255 187 120
-3.8526 -35.9216 -2.8133 255 187 120
-3.877 -36.0064 -2.8863 255 187 120
-3.8527 -35.8149 -2.8033 255 187 120
-3.8467 -35.6931 -2.7754 255 187 120
-3.8406 -35.5712 -2.7474 255 187 120
-3.8845 -35.8421 -2.8903 255 187 120
-3.8813 -35.74 -2.872 255 187 120
-3.8397 -35.4304 -2.7313 255 187 120
-3.8672 -35.6174 -2.8226 255 187 120
-3.8217 -35.2541 -2.6662 255 187 120
-3.8007 -35.0581 -2.5915 255 187 120
-3.8681 -35.4622 -2.81 255 187 120
-3.8602 -35.3548 -2.7785 255 187 120
-3.8013 -34.9272 -2.5802 255 187 120
-3.8317 -35.1338 -2.6811 255 187 120
-3.8519 -35.2715 -2.7484 255 187 120
-3.6843 -37.6455 -2.7836 255 187 120
-3.6812 -37.5433 -2.7652 255 187 120
-3.6832 -37.4222 -2.7587 255 187 120
-3.7138 -37.4154 -2.8396 255 187 120
-3.7024 -37.23 -2.7911 255 187 120
-3.722 -37.3094 -2.851 255 187 120
-3.712 -37.1339 -2.8073 255 187 120
-3.7059 -37.012 -2.7794 255 187 120
-3.7358 -37.0536 -2.8628 255 187 120
-3.736 -36.9469 -2.8528 255 187 120
-3.7248 -36.844 -2.8131 255 187 120
-3.7198 -36.7562 -2.7912 255 187 120
-3.7228 -36.6692 -2.7908 255 187 120
-3.7452 -36.5791 -2.8415 255 187 120
-3.7625 -36.1054 -2.8417 255 187 120
-3.755 -35.9737 -2.8089 255 187 120
-3.7835 -36.0055 -2.8876 255 187 120
-3.7747 -35.7572 -2.84 255 187 120
-3.7906 -35.8654 -2.8929 255 187 120
-3.7516 -35.4931 -2.7531 255 187 120
-3.7752 -35.6263 -2.8287 255 187 120
-3.7199 -35.17 -2.6373 255 187 120
-3.7577 -35.319 -2.7522 255 187 120
-3.7498 -35.2116 -2.7208 255 187 120
-3.7342 -35.0792 -2.6666 255 187 120
-3.7201 -34.9566 -2.6173 255 187 120
-3.5042 -37.6299 -2.8103 255 187 120
-3.493 -37.527 -2.7706 255 187 120
-3.5143 -37.4029 -2.8152 255 187 120
-3.5243 -37.2825 -2.83 255 187 120
-3.5295 -37.1569 -2.8318 255 187 120
-3.5297 -37.0502 -2.8218 255 187 120
-3.5251 -36.9382 -2.7986 255 187 120
-3.5347 -36.8421 -2.8148 255 187 120
-3.5628 -36.7914 -2.8847 255 187 120
-3.5189 -35.0409 -2.5978 255 187 120
-3.5421 -35.1983 -2.6747 255 187 120
-3.5404 -35.106 -2.6612 255 187 120
-3.5256 -34.9251 -2.6044 255 187 120
-3.5688 -35.1378 -2.7398 255 187 120
-3.5866 -35.2316 -2.7962 255 187 120
-3.1336 -36.9311 -2.0145 255 187 120
-3.1181 -36.7987 -1.9604 255 187 120
-3.1147 -36.614 -1.9333 255 187 120
-3.1498 -36.8259 -2.0473 255 187 120
-3.1452 -36.7139 -2.0242 255 187 120
-3.1385 -36.5338 -1.9888 255 187 120
-3.1576 -36.4483 -2.0312 255 187 120
-3.3989 -37.6302 -2.7877 255 187 120
-3.4078 -37.4758 -2.7965 255 187 120
-3.4065 -37.3593 -2.7816 255 187 120
-3.4031 -37.1746 -2.7546 255 187 120
-3.4293 -37.245 -2.831 255 187 120
-3.4226 -37.0649 -2.7957 255 187 120
-3.4184 -36.9287 -2.7712 255 187 120
-3.4523 -36.9173 -2.8604 255 187 120
-3.4243 -35.0859 -2.6076 255 187 120
-3.4549 -35.079 -2.6885 255 187 120
-3.4694 -35.1774 -2.7366 255 187 120
-3.0307 -36.9263 -2.0023 255 187 120
-3.0141 -36.7598 -1.942 255 187 120
-3.0389 -36.8204 -2.0137 255 187 120
-3.0155 -36.5805 -1.9281 255 187 120
-3.0431 -36.6607 -2.0093 255 187 120
-3.044 -36.5055 -1.9967 255 187 120
-3.2691 -37.4969 -2.6915 255 187 120
-3.2872 -37.5665 -2.7465 255 187 120
-3.3138 -37.6126 -2.8217 255 187 120
-3.3057 -37.4227 -2.7816 255 187 120
-3.3215 -37.3417 -2.8157 255 187 120
-3.2904 -37.0768 -2.7073 255 187 120
-3.3245 -37.2547 -2.8153 255 187 120
-3.3203 -37.1184 -2.7908 255 187 120
-3.3146 -36.9724 -2.7616 255 187 120
-3.3492 -35.0546 -2.6668 255 187 120
-3.382 -35.1159 -2.7599 255 187 120
-2.9366 -36.9331 -2.0079 255 187 120
-2.9254 -36.8302 -1.9681 255 187 120
-2.9127 -36.5283 -1.9048 255 187 120
-2.9401 -36.7152 -1.9961 255 187 120
-2.9417 -36.6183 -1.9909 255 187 120
-3.1904 -37.636 -2.7514 255 187 120
-3.1782 -37.499 -2.7055 255 187 120
-2.9387 -35.6284 -1.886 255 187 120
-3.1977 -37.3892 -2.7466 255 187 120
-2.962 -35.6791 -1.9529 255 187 120
-3.2095 -37.2545 -2.765 255 187 120
-3.2244 -37.3287 -2.8118 255 187 120
-3.2228 -37.1296 -2.7882 255 187 120
-3.2197 -37.0275 -2.7698 255 187 120
-3.224 -35.0099 -2.5837 255 187 120
-3.2695 -35.0772 -2.7114 255 187 120
-2.82 -36.8541 -1.9485 255 187 120
-2.8216 -36.7573 -1.9432 255 187 120
-2.8499 -36.8957 -2.0319 255 187 120
-2.8167 -36.5628 -1.9113 255 187 120
-2.8436 -36.6914 -1.9952 255 187 120
-2.8405 -36.4825 -1.9669 255 187 120
-3.0738 -37.557 -2.6919 255 187 120
-3.1117 -37.5994 -2.7968 255 187 120
-3.1094 -37.4488 -2.7759 255 187 120
-2.8613 -35.7083 -1.9464 255 187 120
-2.8515 -35.6153 -1.9115 255 187 120
-3.1093 -37.2596 -2.7571 255 187 120
-3.1274 -37.3292 -2.8122 255 187 120
-3.0935 -37.0447 -2.6942 255 187 120
-3.1298 -37.1839 -2.8043 255 187 120
-3.1201 -37.0908 -2.7694 255 187 120
-3.1282 -36.9848 -2.7807 255 187 120
-3.1489 -35.1337 -2.6551 255 187 120
-3.1484 -34.9687 -2.6376 255 187 120
-2.7259 -36.9353 -1.9637 255 187 120
-2.7262 -36.7219 -1.9437 255 187 120
-2.7421 -36.8301 -1.9965 255 187 120
-2.7057 -36.5017 -1.8677 255 187 120
-2.7391 -36.6212 -1.9682 255 187 120
-2.7157 -36.3813 -1.8826 255 187 120
-2.7461 -36.292 -1.9547 255 187 120
-2.9862 -37.6292 -2.7238 255 187 120
-2.9162 -37.0987 -2.4856 255 187 120
-2.9771 -37.4052 -2.6775 255 187 120
-2.9948 -37.499 -2.7338 255 187 120
-2.9258 -37.0026 -2.5018 255 187 120
-2.9483 -37.1017 -2.5713 255 187 120
-2.7519 -35.7396 -1.9164 255 187 120
-2.9955 -37.2614 -2.7125 255 187 120
-3.0162 -37.3749 -2.7785 255 187 120
-2.9899 -37.1153 -2.6832 255 187 120
-3.0241 -37.1865 -2.7811 255 187 120
-2.628 -36.8933 -1.9475 255 187 120
-2.618 -36.7177 -1.9038 255 187 120
-2.6442 -36.7881 -1.9803 255 187 120
-2.6214 -36.6065 -1.9021 255 187 120
-2.6462 -36.667 -1.9738 255 187 120
-2.6141 -36.3681 -1.8593 255 187 120
-2.6376 -36.5013 -1.9349 255 187 120
-2.647 -36.3226 -1.9423 255 187 120
-2.8202 -37.0422 -2.4729 255 187 120
-2.9002 -37.559 -2.736 255 187 120
-2.6636 -35.8973 -1.945 255 187 120
-2.8464 -37.1126 -2.5494 255 187 120
-2.9102 -37.4387 -2.7509 255 187 120
-2.6732 -35.8012 -1.9612 255 187 120
-2.9103 -37.332 -2.7409 255 187 120
-2.902 -37.2487 -2.7107 255 187 120
-2.9178 -37.1677 -2.7448 255 187 120
-2.9341 -37.2517 -2.7964 255 187 120
-2.9227 -37.0663 -2.7479 255 187 120
-2.4287 -36.9219 -1.9401 255 187 120
-2.4398 -36.8356 -1.9611 255 187 120
-2.4215 -36.5768 -1.8873 255 187 120
-2.4527 -36.7349 -1.9856 255 187 120
-2.4462 -36.6373 -1.959 255 187 120
-2.4338 -36.4179 -1.9043 255 187 120
-2.4519 -36.4875 -1.9594 255 187 120
-2.4619 -36.3671 -1.9743 255 187 120
-2.7033 -37.6316 -2.7395 255 187 120
-2.7067 -37.5203 -2.7378 255 187 120
-2.4819 -35.6414 -1.9565 255 187 120
-2.7048 -37.0496 -2.6867 255 187 120
-2.7395 -37.2857 -2.8021 255 187 120
-2.7257 -36.9497 -2.7327 255 187 120
-2.7526 -35.1137 -2.625 255 187 120
-2.7565 -34.9783 -2.622 255 187 120
-2.7833 -35.1069 -2.7059 255 187 120
-2.3263 -36.8203 -1.922 255 187 120
-2.351 -36.8809 -1.9937 255 187 120
-2.3447 -36.6765 -1.957 255 187 120
-2.3409 -36.5161 -1.9313 255 187 120
-2.3619 -36.4162 -1.9772 255 187 120
-2.5781 -37.5376 -2.662 255 187 120
-2.6065 -37.5694 -2.7407 255 187 120
-2.6058 -37.3219 -2.7145 255 187 120
-2.6239 -37.3915 -2.7696 255 187 120
-2.5974 -37.0495 -2.6656 255 187 120
-2.6329 -37.2372 -2.7784 255 187 120
-2.6365 -35.0788 -2.5763 255 187 120
-2.6512 -34.9638 -2.6043 255 187 120
-2.6718 -35.0773 -2.6703 255 187 120
-2.2504 -36.9246 -1.981 255 187 120
-2.2347 -36.7097 -1.9181 255 187 120
-2.2528 -36.7793 -1.9732 255 187 120
-2.2377 -36.6226 -1.9177 255 187 120
-2.2387 -36.4675 -1.905 255 187 120
-2.2568 -36.5371 -1.9601 255 187 120
-2.2654 -36.4069 -1.9702 255 187 120
-2.5122 -37.6283 -2.7459 255 187 120
-2.5061 -37.5064 -2.7179 255 187 120
-2.5016 -37.3944 -2.6948 255 187 120
-2.5149 -37.2696 -2.718 255 187 120
-2.5056 -37.1523 -2.6817 255 187 120
-2.5345 -37.349 -2.7778 255 187 120
-2.5358 -37.1697 -2.7639 255 187 120
-2.5261 -37.0766 -2.7289 255 187 120
-2.5621 -35.0862 -2.6301 255 187 120
-2.5608 -34.9696 -2.6152 255 187 120
-2.146 -36.905 -1.9497 255 187 120
-2.1341 -36.7438 -1.9026 255 187 120
-2.1556 -36.8089 -1.9659 255 187 120
-2.1533 -36.6583 -1.945 255 187 120
-2.1553 -36.5372 -1.9385 255 187 120
-2.3979 -37.6224 -2.6896 255 187 120
-2.3838 -37.4998 -2.6403 255 187 120
-2.4019 -37.3802 -2.6766 255 187 120
-2.4149 -37.4687 -2.7198 255 187 120
-2.4133 -37.2697 -2.6963 255 187 120
-2.4381 -37.3302 -2.768 255 187 120
-2.4325 -37.1842 -2.7387 255 187 120
-2.4479 -35.0803 -2.5739 255 187 120
-2.4759 -35.1363 -2.6539 255 187 120
-2.4714 -35.0243 -2.6308 255 187 120
-2.0414 -36.8297 -1.926 255 187 120
-2.0306 -36.7026 -1.885 255 187 120
-2.0741 -36.891 -2.0191 255 187 120
-2.0605 -36.7442 -1.9685 255 187 120
-2.0563 -36.608 -1.944 255 187 120
-2.0539 -36.4574 -1.923 255 187 120
-2.2941 -37.4986 -2.6634 255 187 120
-2.3155 -37.5636 -2.7268 255 187 120
-2.3208 -37.438 -2.7286 255 187 120
-2.3162 -37.326 -2.7054 255 187 120
-2.3109 -37.1557 -2.6748 255 187 120
-2.3324 -37.2208 -2.7382 255 187 120
-2.3267 -37.0747 -2.7089 255 187 120
-2.3484 -35.0685 -2.5706 255 187 120
-2.3599 -34.958 -2.5903 255 187 120
-2.39 -35.0821 -2.6825 255 187 120
-1.969 -36.8712 -1.986 255 187 120
-1.9423 -36.6359 -1.8921 255 187 120
-1.9633 -36.7251 -1.9568 255 187 120
-1.9424 -36.5291 -1.8821 255 187 120
-1.95 -36.3649 -1.886 255 187 120
-1.9643 -36.2741 -1.9153 255 187 120
-2.2027 -37.6256 -2.6809 255 187 120
-2.189 -37.4788 -2.6302 255 187 120
-2.2137 -37.5394 -2.7019 255 187 120
-1.9741 -35.7754 -1.8927 255 187 120
-1.9757 -35.6785 -1.8875 255 187 120
-2.213 -37.2919 -2.6757 255 187 120
-2.241 -37.3479 -2.7557 255 187 120
-2.2411 -37.2412 -2.7457 255 187 120
-2.2202 -37.0452 -2.671 255 187 120
-2.2347 -37.1435 -2.719 255 187 120
-1.8478 -36.8268 -1.911 255 187 120
-1.8447 -36.7246 -1.8927 255 187 120
-1.8353 -36.6073 -1.8564 255 187 120
-1.8759 -36.8828 -1.991 255 187 120
-1.8388 -36.4961 -1.8547 255 187 120
-1.8652 -36.6489 -1.9399 255 187 120
-1.8327 -36.3742 -1.8268 255 187 120
-1.8635 -36.5566 -1.9264 255 187 120
-1.8593 -36.4204 -1.9019 255 187 120
-1.8749 -36.2569 -1.9273 255 187 120
-2.1065 -37.535 -2.6675 255 187 120
-2.1228 -37.619 -2.7191 255 187 120
-1.8762 -35.7816 -1.8846 255 187 120
-2.1344 -37.4018 -2.7288 255 187 120
-1.8873 -35.6954 -1.9056 255 187 120
-2.1473 -37.3012 -2.7533 255 187 120
-2.1441 -37.199 -2.7349 255 187 120
-2.141 -37.0968 -2.7166 255 187 120
-1.7553 -36.9308 -1.9283 255 187 120
-1.7516 -36.6636 -1.8925 255 187 120
-1.7584 -36.5478 -1.8991 255 187 120
-1.7571 -36.4313 -1.8842 255 187 120
-1.7624 -36.3057 -1.886 255 187 120
-2.0009 -37.5505 -2.6415 255 187 120
-2.0242 -37.6012 -2.7083 255 187 120
-2.012 -37.4643 -2.6625 255 187 120
-1.7615 -35.5731 -1.8123 255 187 120
-1.7913 -35.7214 -1.9059 255 187 120
-2.041 -37.3651 -2.7298 255 187 120
-2.0124 -37.1441 -2.6324 255 187 120
-2.0298 -37.2622 -2.6901 255 187 120
-2.0474 -37.1668 -2.7277 255 187 120
-2.0377 -37.0737 -2.6927 255 187 120
-1.5207 -36.1338 -1.488 255 187 120
-1.6657 -36.9041 -1.9487 255 187 120
-1.5594 -36.1277 -1.5903 255 187 120
-1.6637 -36.7293 -1.9264 255 187 120
-1.658 -36.5832 -1.8971 255 187 120
-1.6491 -36.4417 -1.8596 255 187 120
-1.924 -37.5298 -2.6965 255 187 120
-1.9395 -37.3663 -2.7219 255 187 120
-1.9041 -37.0719 -2.5991 255 187 120
-1.9411 -37.2694 -2.7166 255 187 120
-1.5475 -36.8315 -1.8801 255 187 120
-1.4408 -36.0793 -1.5232 255 187 120
-1.5704 -36.9064 -1.9483 255 187 120
-1.4744 -36.0922 -1.6137 255 187 120
-1.5684 -36.7316 -1.9261 255 187 120
-1.5572 -36.6287 -1.8863 255 187 120
-1.5559 -36.5122 -1.8715 255 187 120
-1.7947 -37.5436 -2.6069 255 187 120
-1.8312 -37.5761 -2.707 255 187 120
-1.8311 -37.3869 -2.6883 255 187 120
-1.839 -37.1985 -2.6909 255 187 120
-1.852 -37.287 -2.7342 255 187 120
-1.8359 -37.0963 -2.6726 255 187 120
-1.3476 -36.7373 -1.8466 255 187 120
-1.3672 -36.8168 -1.9064 255 187 120
-1.3854 -36.8864 -1.9615 255 187 120
-1.3366 -36.5277 -1.7968 255 187 120
-1.382 -36.7017 -1.9344 255 187 120
-1.3712 -36.5746 -1.8934 255 187 120
-1.3651 -36.4527 -1.8654 255 187 120
-1.6075 -37.5621 -2.618 255 187 120
-1.6062 -37.4455 -2.6031 255 187 120
-1.6411 -37.5749 -2.7084 255 187 120
-1.6328 -37.4917 -2.6783 255 187 120
-1.6181 -37.3108 -2.6215 255 187 120
-1.6439 -37.4054 -2.6993 255 187 120
-1.399 -35.6604 -1.8782 255 187 120
-1.3849 -35.5378 -1.8289 255 187 120
-1.614 -37.0679 -2.587 255 187 120
-1.6615 -37.31 -2.7369 255 187 120
-1.6569 -37.198 -2.7138 255 187 120
-1.6465 -37.0467 -2.6714 255 187 120
-1.2912 -36.8864 -1.9595 255 187 120
-1.2424 -36.5277 -1.7947 255 187 120
-1.2678 -36.6465 -1.8738 255 187 120
-1.2823 -36.7448 -1.9219 255 187 120
-1.2727 -36.5451 -1.8769 255 187 120
-1.2695 -36.4429 -1.8586 255 187 120
-1.5149 -37.5719 -2.6207 255 187 120
-1.5451 -37.5893 -2.7029 255 187 120
-1.5347 -37.4379 -2.6605 255 187 120
-1.276 -35.6528 -1.7988 255 187 120
-1.5458 -37.3516 -2.6815 255 187 120
-1.3059 -35.6944 -1.8823 255 187 120
-1.5449 -37.2109 -2.6653 255 187 120
-1.5236 -37.0391 -2.5919 255 187 120
-1.5678 -37.2858 -2.7335 255 187 120
-1.5535 -37.0807 -2.6754 255 187 120
-1.1505 -36.8651 -1.8438 255 187 120
-1.1785 -36.9211 -1.9238 255 187 120
-1.14 -36.5246 -1.7827 255 187 120
-1.1776 -36.7803 -1.9076 255 187 120
-1.1697 -36.6729 -1.8762 255 187 120
-1.1717 -36.5518 -1.8697 255 187 120
-1.4138 -37.5787 -2.6134 255 187 120
-1.1799 -35.854 -1.8235 255 187 120
-1.43 -37.4735 -2.6462 255 187 120
-1.1667 -35.5763 -1.7615 255 187 120
-1.1855 -35.7042 -1.824 255 187 120
-1.2095 -35.8131 -1.8983 255 187 120
-1.459 -37.3743 -2.7135 255 187 120
-1.425 -37.0898 -2.5956 255 187 120
-1.461 -37.2533 -2.707 255 187 120
-1.0705 -36.8844 -1.8967 255 187 120
-1.0458 -36.5279 -1.7962 255 187 120
-1.0809 -36.7398 -1.9103 255 187 120
-1.0489 -36.4409 -1.7958 255 187 120
-1.079 -36.565 -1.888 255 187 120
-1.057 -36.3349 -1.8072 255 187 120
-1.0785 -36.4 -1.8706 255 187 120
-1.0631 -36.1609 -1.8064 255 187 120
-1.0809 -36.2547 -1.8627 255 187 120
-1.0783 -36.0216 -1.833 255 187 120
-1.0927 -36.12 -1.8811 255 187 120
-1.0897 -35.9111 -1.8527 255 187 120
-1.3422 -37.5744 -2.6865 255 187 120
-1.0837 -35.7893 -1.8248 255 187 120
-1.3362 -37.4526 -2.6586 255 187 120
-1.0853 -35.6924 -1.8196 255 187 120
-1.0774 -35.585 -1.7881 255 187 120
-1.3246 -37.078 -2.5913 255 187 120
-1.3626 -37.3095 -2.715 255 187 120
-1.357 -37.1635 -2.6857 255 187 120
-1.3357 -36.9917 -2.6123 255 187 120
-1.3553 -37.0711 -2.6722 255 187 120
-0.9765 -36.7398 -1.8842 255 187 120
-0.9713 -36.5695 -1.8536 255 187 120
-1.0107 -36.8109 -1.9821 255 187 120
-0.9656 -36.4234 -1.8244 255 187 120
-1.0076 -36.7087 -1.9637 255 187 120
-0.9937 -36.4794 -1.9043 255 187 120
-1.0081 -36.5778 -1.9524 255 187 120
-0.9804 -36.3084 -1.8524 255 187 120
-0.9678 -36.1956 -1.8078 255 187 120
-0.9953 -36.3826 -1.8991 255 187 120
-0.9825 -36.0806 -1.8358 255 187 120
-0.9845 -35.9595 -1.8293 255 187 120
-0.9731 -35.7741 -1.7808 255 187 120
-1.2295 -37.4912 -2.6302 255 187 120
-0.9913 -35.8437 -1.8359 255 187 120
-1.2458 -37.5752 -2.6817 255 187 120
-0.9875 -35.6833 -1.8101 255 187 120
-1.2453 -37.4102 -2.6643 255 187 120
-1.2254 -37.0591 -2.5769 255 187 120
-1.2644 -37.3247 -2.7067 255 187 120
-1.2241 -36.9425 -2.5621 255 187 120
-1.266 -37.2278 -2.7015 255 187 120
-1.26 -37.106 -2.6735 255 187 120
-1.2473 -36.9932 -2.629 255 187 120
-1.0172 -37.4742 -2.5717 255 187 120
-1.0505 -37.4046 -2.6535 255 187 120
-1.0536 -37.3175 -2.6531 255 187 120
-1.0209 -36.9603 -2.5312 255 187 120
-1.0339 -37.0489 -2.5744 255 187 120
-1.0741 -37.2418 -2.7003 255 187 120
-1.0685 -37.0958 -2.671 255 187 120
-1.0577 -36.9687 -2.63 255 187 120
-1.0436 -36.8461 -2.5806 255 187 120
-1.0944 -35.2257 -2.5574 255 187 120
-1.0807 -35.0789 -2.5067 255 187 120
-1.058 -34.8973 -2.4285 255 187 120
-1.1159 -35.2908 -2.6207 255 187 120
-1.0809 -34.9722 -2.4967 255 187 120
-1.1055 -35.1395 -2.5784 255 187 120
-1.1459 -35.2257 -2.6942 255 187 120
-0.9329 -37.5657 -2.6057 255 187 120
-0.9495 -37.4363 -2.6372 255 187 120
-0.9588 -37.2577 -2.6447 255 187 120
-0.9718 -37.3462 -2.6879 255 187 120
-0.947 -37.0965 -2.5975 255 187 120
-0.9387 -37.0132 -2.5674 255 187 120
-0.9717 -37.157 -2.6692 255 187 120
-0.9454 -36.8974 -2.5739 255 187 120
-0.9751 -37.0457 -2.6675 255 187 120
-0.9982 -35.2385 -2.5529 255 187 120
-0.9701 -34.9933 -2.4542 255 187 120
-0.9831 -35.0819 -2.4974 255 187 120
-1.0126 -35.1477 -2.5822 255 187 120
-1.0361 -35.2809 -2.6578 255 187 120
-0.8256 -37.5813 -2.5813 255 187 120
-0.8577 -37.5843 -2.6669 255 187 120
-0.8498 -37.4768 -2.6355 255 187 120
-0.8645 -37.3618 -2.6635 255 187 120
-0.7842 -36.7624 -2.3918 255 187 120
-0.8035 -36.8661 -2.4529 255 187 120
-0.8474 -37.0303 -2.5858 255 187 120
-0.8391 -36.9471 -2.5556 255 187 120
-0.8637 -37.1143 -2.6373 255 187 120
-0.8844 -37.2278 -2.7033 255 187 120
-0.8196 -36.7609 -2.4858 255 187 120
-0.8454 -36.8555 -2.5635 255 187 120
-0.8712 -36.9501 -2.6413 255 187 120
-0.9027 -35.1194 -2.547 255 187 120
-0.9215 -35.2473 -2.6095 255 187 120
-0.8857 -34.9771 -2.488 255 187 120
-0.957 -35.2458 -2.7035 255 187 120
-0.7267 -37.4727 -2.5724 255 187 120
-0.7577 -37.5484 -2.662 255 187 120
-0.7572 -37.3834 -2.6445 255 187 120
-0.7734 -37.2782 -2.6773 255 187 120
-0.7518 -37.0239 -2.5952 255 187 120
-0.7468 -36.9361 -2.5734 255 187 120
-0.7815 -37.1722 -2.6887 255 187 120
-0.7382 -36.7704 -2.5346 255 187 120
-0.7825 -37.0171 -2.6761 255 187 120
-0.7739 -36.8514 -2.6373 255 187 120
-0.7895 -35.5043 -2.5476 255 187 120
-0.7807 -35.256 -2.5 255 187 120
-0.813 -35.4482 -2.6045 255 187 120
-0.8311 -35.5179 -2.6595 255 187 120
-0.8055 -35.3166 -2.5717 255 187 120
-0.7969 -35.1508 -2.5329 255 187 120
-0.7923 -35.0388 -2.5097 255 187 120
-0.7782 -34.9162 -2.4604 255 187 120
-0.5421 -37.4381 -2.5875 255 187 120
-0.5598 -37.5319 -2.6439 255 187 120
-0.5597 -37.3427 -2.6251 255 187 120
-0.5803 -37.2671 -2.6724 255 187 120
-0.5785 -37.1747 -2.6588 255 187 120
-0.5824 -37.0393 -2.6558 255 187 120
-0.5586 -36.8236 -2.5715 255 187 120
-0.5819 -36.8743 -2.6383 255 187 120
-0.5661 -36.6594 -2.5754 255 187 120
-0.5805 -36.7577 -2.6235 255 187 120
-0.5975 -36.6041 -2.6537 255 187 120
-0.5766 -36.4081 -2.579 255 187 120
-0.5911 -36.5065 -2.6271 255 187 120
-0.5804 -36.2726 -2.576 255 187 120
-0.5675 -36.0774 -2.5227 255 187 120
-0.6085 -36.3286 -2.656 255 187 120
-0.5648 -35.951 -2.503 255 187 120
-0.6057 -36.2022 -2.6363 255 187 120
-0.596 -36.1092 -2.6014 255 187 120
-0.5895 -36.0115 -2.5747 255 187 120
-0.5944 -35.9101 -2.5778 255 187 120
-0.588 -35.8125 -2.5512 255 187 120
-0.5977 -35.6097 -2.5573 255 187 120
-0.5927 -35.5219 -2.5355 255 187 120
-0.6071 -35.4311 -2.5648 255 187 120
-0.6364 -35.6036 -2.6596 255 187 120
-0.5789 -35.1859 -2.4661 255 187 120
-0.5693 -34.9861 -2.4211 255 187 120
-0.6069 -35.2419 -2.546 255 187 120
-0.5926 -35.0368 -2.4879 255 187 120
-0.6042 -35.1155 -2.5264 255 187 120
-0.5826 -34.8612 -2.4443 255 187 120
-0.4496 -37.4832 -2.5998 255 187 120
-0.4359 -37.3364 -2.5492 255 187 120
-0.4309 -37.2486 -2.5273 255 187 120
-0.4591 -37.1979 -2.5973 255 187 120
-0.4494 -37.1048 -2.5623 255 187 120
-0.4761 -37.0442 -2.6275 255 187 120
-0.4762 -36.9375 -2.6175 255 187 120
-0.463 -36.6598 -2.5555 255 187 120
-0.4866 -36.793 -2.6311 255 187 120
-0.4679 -36.5584 -2.5586 255 187 120
-0.4914 -36.6915 -2.6341 255 187 120
-0.4855 -36.463 -2.5962 255 187 120
-0.4676 -36.18 -2.5211 255 187 120
-0.4922 -36.3472 -2.6028 255 187 120
-0.4956 -36.2359 -2.6011 255 187 120
-0.4928 -36.1096 -2.5814 255 187 120
-0.4944 -36.0127 -2.5762 255 187 120
-0.4847 -35.9196 -2.5413 255 187 120
-0.4753 -35.8023 -2.505 255 187 120
-0.4995 -35.6979 -2.5592 255 187 120
-0.5019 -35.5526 -2.5514 255 187 120
-0.4748 -35.3414 -2.4588 255 187 120
-0.465 -35.2483 -2.4239 255 187 120
-0.4784 -35.0167 -2.437 255 187 120
-0.4929 -35.1151 -2.4851 255 187 120
-0.3287 -37.4692 -2.5293 255 187 120
-0.3634 -37.4094 -2.6159 255 187 120
-0.353 -37.258 -2.5735 255 187 120
-0.3784 -37.0809 -2.6238 255 187 120
-0.3833 -36.9795 -2.6269 255 187 120
-0.3848 -36.8827 -2.6217 255 187 120
-0.3773 -36.751 -2.589 255 187 120
-0.3917 -36.6601 -2.6183 255 187 120
-0.3932 -36.5633 -2.613 255 187 120
-0.3778 -36.3241 -2.5489 255 187 120
-0.3952 -36.4422 -2.6065 255 187 120
-0.3958 -36.2046 -2.5852 255 187 120
-0.3894 -36.1069 -2.5585 255 187 120
-0.3975 -36.001 -2.5699 255 187 120
-0.4033 -35.7444 -2.5604 255 187 120
-0.4001 -35.6422 -2.5421 255 187 120
-0.3937 -35.5446 -2.5154 255 187 120
-0.3754 -35.2858 -2.4416 255 187 120
-0.3997 -35.3706 -2.5146 255 187 120
-0.3807 -35.0535 -2.4334 255 187 120
-0.2499 -37.2629 -2.5447 255 187 120
-0.2842 -37.334 -2.6426 255 187 120
-0.2611 -37.0699 -2.5557 255 187 120
-0.2756 -37.1683 -2.6038 255 187 120
-0.2653 -36.9102 -2.5514 255 187 120
-0.2882 -36.9851 -2.6195 255 187 120
-0.2761 -36.7414 -2.5637 255 187 120
-0.2891 -36.83 -2.6069 255 187 120
-0.2966 -36.6657 -2.6109 255 187 120
-0.2862 -36.5144 -2.5685 255 187 120
-0.2749 -36.2223 -2.51 255 187 120
-0.3123 -36.3956 -2.6262 255 187 120
-0.2896 -36.1072 -2.538 255 187 120
-0.3074 -36.2011 -2.5944 255 187 120
-0.319 -36.2798 -2.6328 255 187 120
-0.2822 -35.8688 -2.4952 255 187 120
-0.2988 -35.7394 -2.5267 255 187 120
-0.3055 -35.6236 -2.5333 255 187 120
-0.2752 -35.3103 -2.4223 255 187 120
-0.2865 -35.0106 -2.4233 255 187 120
-0.179 -36.1612 -2.5097 255 187 120
-0.1858 -36.0454 -2.5163 255 187 120
-0.1925 -35.9296 -2.5229 255 187 120
-0.232 -36.171 -2.6513 255 187 120
-0.1908 -35.8373 -2.5093 255 187 120
-0.1891 -35.7449 -2.4958 255 187 120
-0.1892 -35.6382 -2.4858 255 187 120
-0.1922 -35.5512 -2.4854 255 187 120
-0.1721 -35.3068 -2.4081 255 187 120
-0.1897 -35.2114 -2.4457 255 187 120
-0.1143 -35.5611 -2.5338 255 187 120
-0.1054 -35.4196 -2.4962 255 187 120
-0.0993 -35.2977 -2.4683 255 187 120
-0.1458 -35.5058 -2.6121 255 187 120
-0.1031 -35.1623 -2.4653 255 187 120
-0.1738 -35.5618 -2.6921 255 187 120
