ply
format ascii 1.0
comment Created by Open3D
element vertex 2172
property double x
property double y
property double z
property uchar red
property uchar green
property uchar blue
end_header
-4.8455 -36.5738 -2.8485 174 199 232
-4.8455 -36.7056 -2.8151 174 199 232
-4.8455 -36.7888 -2.7838 174 199 232
-4.8455 -36.6542 -2.9088 174 199 232
-4.8456 -36.8449 -2.8452 174 199 232
-4.7474 -36.6376 -2.8275 174 199 232
-4.7474 -36.7784 -2.812 174 199 232
-4.7474 -36.5612 -2.9452 174 199 232
-4.7474 -36.6687 -2.9129 174 199 232
-4.7475 -36.8822 -2.894 174 199 232
-4.6501 -36.6817 -2.8605 174 199 232
-4.6501 -36.7604 -2.8204 174 199 232
-4.6502 -36.5924 -2.9286 174 199 232
-4.6502 -36.8264 -2.8767 174 199 232
-4.5524 -36.165 -2.8426 174 199 232
-4.5524 -36.3316 -2.7801 174 199 232
-4.5524 -36.808 -2.8634 174 199 232
-4.5524 -36.9056 -2.836 174 199 232
-4.5524 -37.0412 -2.8344 174 199 232
-4.4586 -36.0428 -2.8026 174 199 232
-4.4587 -36.1972 -2.8138 174 199 232
-4.4587 -36.7516 -2.8797 174 199 232
-4.4587 -36.9575 -2.7972 174 199 232
-4.4587 -36.8879 -2.8552 174 199 232
-4.4587 -37.0508 -2.9072 174 199 232
-4.3589 -36.015 -2.7955 174 199 232
-4.3589 -36.1067 -2.8051 174 199 232
-4.3589 -36.2096 -2.7638 174 199 232
-4.3589 -36.3399 -2.7761 174 199 232
-4.3589 -36.8504 -2.8532 174 199 232
-4.3589 -36.9662 -2.8616 174 199 232
-4.3589 -37.079 -2.8153 174 199 232
-4.3589 -37.1896 -2.8377 174 199 232
-4.2587 -35.8923 -2.892 174 199 232
-4.2587 -36.2109 -2.7632 174 199 232
-4.2587 -36.1459 -2.8301 174 199 232
-4.2587 -36.2716 -2.8335 174 199 232
-4.2587 -36.4086 -2.7861 174 199 232
-4.2586 -36.9668 -2.8839 174 199 232
-4.2586 -37.1628 -2.8064 174 199 232
-4.2586 -37.0834 -2.8694 174 199 232
-4.2586 -37.2499 -2.807 174 199 232
-4.2586 -37.2182 -2.8906 174 199 232
-4.2586 -37.3355 -2.8533 174 199 232
-4.2585 -37.932 -2.6615 174 199 232
-4.2585 -38.0373 -2.6978 174 199 232
-4.2585 -37.948 -2.7658 174 199 232
-4.1658 -35.9111 -2.8829 174 199 232
-4.1658 -36.3525 -2.8489 174 199 232
-4.1658 -36.6918 -2.8334 174 199 232
-4.1658 -36.9947 -2.8926 174 199 232
-4.1658 -37.1356 -2.877 174 199 232
-4.1658 -37.234 -2.8268 174 199 232
-4.1658 -37.321 -2.8274 174 199 232
-4.1659 -37.3378 -2.9089 174 199 232
-4.1659 -37.9804 -2.6373 174 199 232
-4.1659 -37.91 -2.7182 174 199 232
-4.1659 -38.0017 -2.7277 174 199 232
-4.0675 -35.7004 -2.7304 174 199 232
-4.0675 -35.8412 -2.7148 174 199 232
-4.0675 -35.7663 -2.7868 174 199 232
-4.0675 -36.0048 -2.7439 174 199 232
-4.0675 -36.2018 -2.7897 174 199 232
-4.0675 -36.304 -2.7713 174 199 232
-4.0675 -36.4402 -2.7468 174 199 232
-4.0675 -36.7197 -2.7842 174 199 232
-4.0675 -36.8409 -2.7786 174 199 232
-4.0675 -36.9567 -2.787 174 199 232
-4.0675 -37.0174 -2.8573 174 199 232
-4.0675 -37.1446 -2.815 174 199 232
-4.0675 -37.3149 -2.7843 174 199 232
-4.0676 -37.2393 -2.8791 174 199 232
-4.0676 -37.3506 -2.8786 174 199 232
-4.0675 -37.4588 -2.8234 174 199 232
-4.0675 -37.9447 -2.6092 174 199 232
-4.0675 -37.8653 -2.6723 174 199 232
-4.0675 -38.0711 -2.5897 174 199 232
-4.0675 -38.0205 -2.6606 174 199 232
-4.0675 -37.7988 -2.785 174 199 232
-3.9734 -35.7389 -2.7565 174 199 232
-3.9734 -35.8305 -2.766 174 199 232
-3.9734 -35.966 -2.7644 174 199 232
-3.9734 -36.0531 -2.7649 174 199 232
-3.9735 -36.2909 -2.7449 174 199 232
-3.9735 -36.216 -2.8169 174 199 232
-3.9735 -36.5735 -2.837 174 199 232
-3.9735 -36.728 -2.8482 174 199 232
-3.9735 -36.8558 -2.7829 174 199 232
-3.9735 -37.0346 -2.793 174 199 232
-3.9735 -36.9741 -2.8689 174 199 232
-3.9735 -37.1195 -2.8622 174 199 232
-3.9735 -37.2512 -2.8288 174 199 232
-3.9735 -37.3496 -2.7786 174 199 232
-3.9736 -37.405 -2.8628 174 199 232
-3.9736 -37.9014 -2.6208 174 199 232
-3.9736 -38.0043 -2.5795 174 199 232
-3.9736 -37.8068 -2.7028 174 199 232
-3.9736 -38.1156 -2.579 174 199 232
-3.9736 -37.8932 -2.7262 174 199 232
-3.9736 -37.9719 -2.6861 174 199 232
-3.9736 -38.065 -2.6498 174 199 232
-3.9736 -37.8183 -2.7982 174 199 232
-3.8794 -35.4078 -2.6431 174 199 232
-3.8794 -35.5025 -2.7073 174 199 232
-3.8794 -35.6146 -2.6839 174 199 232
-3.8794 -35.7335 -2.747 174 199 232
-3.8794 -35.8305 -2.7425 174 199 232
-3.8794 -35.9327 -2.7241 174 199 232
-3.8794 -36.0682 -2.7225 174 199 232
-3.8795 -36.2659 -2.7454 174 199 232
-3.8795 -36.4067 -2.7298 174 199 232
-3.8795 -36.5605 -2.7639 174 199 232
-3.8795 -36.6106 -2.8621 174 199 232
-3.8795 -36.8793 -2.7812 174 199 232
-3.8795 -36.9709 -2.7908 174 199 232
-3.8795 -36.9249 -2.8705 174 199 232
-3.8795 -37.052 -2.8282 174 199 232
-3.8795 -37.1785 -2.8086 174 199 232
-3.8795 -37.2785 -2.8589 174 199 232
-3.8795 -37.3769 -2.8087 174 199 232
-3.8795 -37.5328 -2.7741 174 199 232
-3.8795 -37.7327 -2.7284 174 199 232
-3.8795 -37.4958 -2.8718 174 199 232
-3.8795 -37.6184 -2.8205 174 199 232
-3.8796 -37.7101 -2.83 174 199 232
-3.8796 -37.7933 -2.7987 174 199 232
-3.7815 -35.3894 -2.6301 174 199 232
-3.7815 -35.4909 -2.6346 174 199 232
-3.7816 -35.5023 -2.73 174 199 232
-3.7816 -35.5894 -2.7306 174 199 232
-3.7816 -35.7151 -2.734 174 199 232
-3.7816 -35.7909 -2.7853 174 199 232
-3.7816 -36.1196 -2.7976 174 199 232
-3.7816 -36.2815 -2.7262 174 199 232
-3.7816 -36.7966 -2.8122 174 199 232
-3.7816 -36.8928 -2.8307 174 199 232
-3.7816 -37.1653 -2.7816 174 199 232
-3.7816 -37.2759 -2.8039 174 199 232
-3.7816 -37.3683 -2.7906 174 199 232
-3.7816 -37.5046 -2.766 174 199 232
-3.7816 -37.6212 -2.7515 174 199 232
-3.7816 -37.7483 -2.7092 174 199 232
-3.7816 -37.5698 -2.8453 174 199 232
-3.7816 -37.7015 -2.8118 174 199 232
-3.7816 -37.834 -2.7555 174 199 232
-3.6888 -35.3431 -2.643 174 199 232
-3.6888 -35.4491 -2.6564 174 199 232
-3.6888 -35.5098 -2.7267 174 199 232
-3.6888 -35.6544 -2.743 174 199 232
-3.6888 -35.9104 -2.7587 174 199 232
-3.6888 -36.0982 -2.7866 174 199 232
-3.6889 -36.33 -2.8034 174 199 232
-3.6889 -36.4602 -2.8157 174 199 232
-3.6889 -36.5617 -2.8202 174 199 232
-3.6889 -36.8563 -2.8387 174 199 232
-3.6889 -37.013 -2.7813 174 199 232
-3.6889 -36.9479 -2.8482 174 199 232
-3.6889 -37.1288 -2.7897 174 199 232
-3.6889 -37.2955 -2.8734 174 199 232
-3.6889 -37.4765 -2.8149 174 199 232
-3.6889 -37.5847 -2.7596 174 199 232
-3.6889 -37.7164 -2.7262 174 199 232
-3.6889 -37.5674 -2.8472 174 199 232
-3.6889 -37.6749 -2.8149 174 199 232
-3.6889 -37.7915 -2.8004 174 199 232
-3.5966 -35.2862 -2.569 174 199 232
-3.5967 -35.2113 -2.641 174 199 232
-3.5967 -35.4181 -2.6818 174 199 232
-3.5967 -35.5143 -2.7002 174 199 232
-3.5967 -35.6098 -2.7415 174 199 232
-3.5967 -35.7377 -2.6762 174 199 232
-3.5968 -35.7688 -2.7616 174 199 232
-3.5968 -36.1678 -2.693 174 199 232
-3.5968 -36.0733 -2.775 174 199 232
-3.5968 -36.2882 -2.7103 174 199 232
-3.5969 -36.5147 -2.741 174 199 232
-3.5969 -36.5603 -2.8303 174 199 232
-3.5969 -36.8191 -2.7544 174 199 232
-3.5969 -36.7488 -2.8353 174 199 232
-3.5969 -36.9206 -2.7589 174 199 232
-3.5969 -36.87 -2.8297 174 199 232
-3.5969 -37.007 -2.7823 174 199 232
-3.597 -37.2054 -2.7823 174 199 232
-3.597 -37.3068 -2.7868 174 199 232
-3.597 -37.2608 -2.8666 174 199 232
-3.597 -37.3985 -2.7963 174 199 232
-3.597 -37.3524 -2.8761 174 199 232
-3.597 -37.5393 -2.7807 174 199 232
-3.597 -37.6521 -2.7344 174 199 232
-3.597 -37.7694 -2.697 174 199 232
-3.597 -37.8625 -2.6607 174 199 232
-3.597 -37.5069 -2.8872 174 199 232
-3.597 -37.6393 -2.8309 174 199 232
-3.597 -37.7423 -2.7896 174 199 232
-3.597 -37.8399 -2.7623 174 199 232
-3.597 -37.9186 -2.7221 174 199 232
-3.5016 -35.1934 -2.5839 174 199 232
-3.5016 -35.2911 -2.5566 174 199 232
-3.5017 -35.4033 -2.6794 174 199 232
-3.5017 -35.4791 -2.7307 174 199 232
-3.5017 -35.576 -2.7263 174 199 232
-3.5017 -35.6631 -2.7268 174 199 232
-3.5017 -35.7857 -2.6755 174 199 232
-3.5017 -35.851 -2.7548 174 199 232
-3.5017 -35.957 -2.7682 174 199 232
-3.5017 -36.2257 -2.6873 174 199 232
-3.5018 -36.2857 -2.7805 174 199 232
-3.5018 -36.503 -2.7934 174 199 232
-3.5018 -36.5894 -2.8168 174 199 232
-3.5018 -36.7643 -2.7951 174 199 232
-3.5018 -37.0845 -2.7667 174 199 232
-3.5019 -37.1762 -2.7762 174 199 232
-3.5019 -37.4012 -2.8527 174 199 232
-3.5019 -37.632 -2.7462 174 199 232
-3.5019 -37.7206 -2.701 174 199 232
-3.5019 -37.5185 -2.8153 174 199 232
-3.5019 -37.8136 -2.6648 174 199 232
-3.5019 -37.698 -2.8025 174 199 232
-3.5019 -37.7963 -2.7524 174 199 232
-3.5019 -37.8993 -2.7111 174 199 232
-3.4005 -35.143 -2.5081 174 199 232
-3.4005 -35.2589 -2.5165 174 199 232
-3.4005 -35.2703 -2.6119 174 199 232
-3.4005 -35.4174 -2.7057 174 199 232
-3.4005 -35.5666 -2.7308 174 199 232
-3.4005 -35.6544 -2.7085 174 199 232
-3.4005 -35.8907 -2.7342 174 199 232
-3.4005 -36.1829 -2.6751 174 199 232
-3.4005 -36.3391 -2.7867 174 199 232
-3.4005 -36.5996 -2.8113 174 199 232
-3.4005 -36.6972 -2.784 174 199 232
-3.4005 -36.9115 -2.7422 174 199 232
-3.4005 -36.8268 -2.8192 174 199 232
-3.4005 -37.0274 -2.7506 174 199 232
-3.4005 -37.1842 -2.8393 174 199 232
-3.4005 -37.5688 -2.7669 174 199 232
-3.4005 -37.6967 -2.7016 174 199 232
-3.4005 -37.475 -2.826 174 199 232
-3.4005 -37.8587 -2.6302 174 199 232
-3.4005 -37.827 -2.7139 174 199 232
-3.4005 -37.7036 -2.7881 174 199 232
-3.4005 -37.9345 -2.6816 174 199 232
-3.3058 -35.0616 -2.5823 174 199 232
-3.3058 -35.2137 -2.5159 174 199 232
-3.3058 -35.3768 -2.714 174 199 232
-3.3058 -35.4828 -2.7274 174 199 232
-3.3058 -35.5706 -2.7051 174 199 232
-3.3058 -35.657 -2.7285 174 199 232
-3.3058 -35.7721 -2.7598 174 199 232
-3.3058 -35.9432 -2.7062 174 199 232
-3.3058 -35.8736 -2.7642 174 199 232
-3.3058 -36.0092 -2.7626 174 199 232
-3.3058 -36.3741 -2.7001 174 199 232
-3.3058 -36.4098 -2.7944 174 199 232
-3.3058 -36.5446 -2.8156 174 199 232
-3.3058 -36.7164 -2.7392 174 199 232
-3.3058 -36.6415 -2.8112 174 199 232
-3.3058 -36.762 -2.8285 174 199 232
-3.3058 -36.8596 -2.8011 174 199 232
-3.3058 -37.1444 -2.8246 174 199 232
-3.3057 -37.8128 -2.6522 174 199 232
-3.3057 -37.9006 -2.6299 174 199 232
-3.3058 -37.6244 -2.7934 174 199 232
-3.3058 -37.7607 -2.7688 174 199 232
-3.3057 -37.8977 -2.7214 174 199 232
-3.2126 -35.058 -2.5502 174 199 232
-3.2126 -35.1852 -2.5078 174 199 232
-3.2127 -35.3353 -2.6562 174 199 232
-3.2127 -35.4641 -2.7142 174 199 232
-3.2127 -35.6246 -2.6886 174 199 232
-3.2127 -35.5505 -2.7377 174 199 232
-3.2127 -35.7004 -2.7399 174 199 232
-3.2127 -35.7981 -2.7126 174 199 232
-3.2127 -35.8739 -2.7639 174 199 232
-3.2127 -35.9866 -2.7176 174 199 232
-3.2127 -36.0768 -2.7729 174 199 232
-3.2127 -36.2117 -2.7941 174 199 232
-3.2127 -36.4221 -2.7205 174 199 232
-3.2127 -36.3518 -2.8014 174 199 232
-3.2128 -36.4775 -2.8047 174 199 232
-3.2128 -36.5698 -2.7913 174 199 232
-3.2128 -36.6615 -2.8008 174 199 232
-3.2128 -36.8191 -2.8667 174 199 232
-3.2128 -37.2173 -2.821 174 199 232
-3.2128 -37.8569 -2.6408 174 199 232
-3.2128 -37.6792 -2.754 174 199 232
-3.2128 -37.7965 -2.7167 174 199 232
-3.2128 -37.9433 -2.6642 174 199 232
-3.2128 -37.5052 -2.8991 174 199 232
-3.2128 -37.7451 -2.8104 174 199 232
-3.116 -35.0438 -2.5801 174 199 232
-3.116 -35.2587 -2.5154 174 199 232
-3.1161 -35.4173 -2.7046 174 199 232
-3.1161 -35.5036 -2.728 174 199 232
-3.1161 -35.7291 -2.6354 174 199 232
-3.1161 -35.6634 -2.7253 174 199 232
-3.1161 -35.7505 -2.7258 174 199 232
-3.1161 -35.9163 -2.6862 174 199 232
-3.1161 -35.8421 -2.7353 174 199 232
-3.1161 -35.9769 -2.7566 174 199 232
-3.1161 -37.7496 -2.7071 174 199 232
-3.1162 -37.7316 -2.8176 174 199 232
-3.1162 -37.8398 -2.7624 174 199 232
-3.1162 -37.656 -2.9125 174 199 232
-2.9225 -35.1077 -2.4781 174 199 232
-2.9225 -35.2084 -2.5054 174 199 232
-2.9225 -35.4783 -2.694 174 199 232
-2.9225 -35.5759 -2.6667 174 199 232
-2.9225 -35.7273 -2.6231 174 199 232
-2.9225 -35.6812 -2.7029 174 199 232
-2.9225 -35.8077 -2.6834 174 199 232
-2.8258 -35.0377 -2.4914 174 199 232
-2.8258 -35.1385 -2.5187 174 199 232
-2.8258 -35.2316 -2.4825 174 199 232
-2.8258 -35.3278 -2.5009 174 199 232
-2.8258 -35.328 -2.6471 174 199 232
-2.8258 -35.4407 -2.6008 174 199 232
-2.8258 -35.7337 -2.5188 174 199 232
-2.8258 -35.5612 -2.6181 174 199 232
-2.8258 -35.6399 -2.5779 174 199 232
-2.8258 -35.4378 -2.6923 174 199 232
-2.8258 -35.5295 -2.7018 174 199 232
-2.8258 -35.6173 -2.6795 174 199 232
-2.8258 -35.8035 -2.6069 174 199 232
-2.6385 -35.1641 -2.4694 174 199 232
-2.6386 -35.0899 -2.5185 174 199 232
-2.6386 -35.3847 -2.6831 174 199 232
-2.6386 -35.6693 -2.5604 174 199 232
-2.6386 -35.7616 -2.547 174 199 232
-2.6387 -35.5392 -2.6943 174 199 232
-2.6387 -35.7928 -2.6323 174 199 232
-2.6386 -35.2655 -2.4738 174 199 232
-2.6386 -35.3975 -2.5866 174 199 232
-2.4448 -35.8379 -1.8673 255 127 14
-2.4448 -35.9401 -1.8489 255 127 14
-2.4449 -35.8108 -1.9599 255 127 14
-2.4449 -35.894 -1.9287 255 127 14
-2.4449 -36.0243 -1.941 255 127 14
-2.4449 -36.1325 -1.8857 255 127 14
-2.4449 -35.8518 -2.0403 255 127 14
-2.4449 -35.7762 -2.1351 255 127 14
-2.4449 -36.1394 -1.9722 255 127 14
-2.445 -35.037 -2.5575 255 127 14
-2.4449 -36.2364 -1.9678 255 127 14
-2.445 -35.2081 -2.5039 255 127 14
-2.445 -35.2913 -2.4727 255 127 14
-2.445 -35.7484 -2.2506 255 127 14
-2.445 -35.6349 -2.3198 255 127 14
-2.445 -35.6032 -2.4035 255 127 14
-2.445 -35.3467 -2.5569 255 127 14
-2.445 -35.7008 -2.3762 255 127 14
-2.4449 -36.6936 -1.8919 255 127 14
-2.445 -35.6488 -2.4928 255 127 14
-2.445 -35.3628 -2.6613 255 127 14
-2.4451 -35.4688 -2.6747 255 127 14
-2.4451 -35.5717 -2.6334 255 127 14
-2.35 -35.873 -1.8161 255 127 14
-2.35 -35.9783 -1.8524 255 127 14
-2.35 -35.796 -1.9567 255 127 14
-2.35 -35.9042 -1.9015 255 127 14
-2.35 -36.0745 -1.8708 255 127 14
-2.35 -35.7341 -2.0784 255 127 14
-2.35 -35.8272 -2.0421 255 127 14
-2.35 -36.1911 -1.8563 255 127 14
-2.35 -35.0395 -2.4667 255 127 14
-2.35 -36.1155 -1.9512 255 127 14
-2.35 -35.141 -2.4711 255 127 14
-2.35 -35.6964 -2.1989 255 127 14
-2.35 -36.2268 -1.9506 255 127 14
-2.3501 -35.0903 -2.542 255 127 14
-2.3501 -36.3238 -1.9461 255 127 14
-2.3501 -35.2364 -2.5124 255 127 14
-2.3501 -35.6141 -2.3534 255 127 14
-2.3501 -35.7223 -2.2982 255 127 14
-2.3501 -35.3463 -2.5576 255 127 14
-2.3501 -35.6249 -2.4717 255 127 14
-2.3501 -35.348 -2.658 255 127 14
-2.3501 -35.5545 -2.5526 255 127 14
-2.3501 -35.6416 -2.5532 255 127 14
-2.3501 -35.4691 -2.6525 255 127 14
-2.2532 -35.8049 -1.8509 255 127 14
-2.2532 -35.7922 -1.9474 255 127 14
-2.2532 -35.9201 -1.8821 255 127 14
-2.2532 -36.0662 -1.8526 255 127 14
-2.2533 -35.7114 -2.0562 255 127 14
-2.2532 -36.0156 -1.9234 255 127 14
-2.2533 -35.8037 -2.0428 255 127 14
-2.2533 -35.7327 -2.1466 255 127 14
-2.2533 -36.1799 -1.9296 255 127 14
-2.2534 -35.1713 -2.4557 255 127 14
-2.2534 -35.0911 -2.5416 255 127 14
-2.2533 -35.6163 -2.3073 255 127 14
-2.2533 -35.7442 -2.242 255 127 14
-2.2534 -35.3001 -2.5137 255 127 14
-2.2534 -35.7027 -2.3307 255 127 14
-2.2534 -35.5938 -2.4088 255 127 14
-2.2534 -35.3502 -2.6119 255 127 14
-2.2534 -35.6341 -2.512 255 127 14
-2.2534 -35.426 -2.6632 255 127 14
-2.2534 -35.5683 -2.6019 255 127 14
-2.1526 -35.8538 -1.804 255 127 14
-2.1526 -35.9409 -1.8046 255 127 14
-2.1526 -35.8509 -1.8955 255 127 14
-2.1527 -35.7609 -1.9864 255 127 14
-2.1526 -35.938 -1.8961 255 127 14
-2.1526 -36.0258 -1.8737 255 127 14
-2.1526 -36.147 -1.8682 255 127 14
-2.1527 -35.6892 -2.1131 255 127 14
-2.1527 -35.7725 -2.0818 255 127 14
-2.1528 -35.0786 -2.4473 255 127 14
-2.1526 -36.0819 -1.9351 255 127 14
-2.1528 -35.0318 -2.5499 255 127 14
-2.1526 -36.2811 -1.9123 255 127 14
-2.1526 -36.4037 -1.8609 255 127 14
-2.1528 -35.2914 -2.4512 255 127 14
-2.1528 -35.1582 -2.5304 255 127 14
-2.1527 -35.7235 -2.2531 255 127 14
-2.1528 -35.5843 -2.3692 255 127 14
-2.1527 -35.682 -2.3418 255 127 14
-2.1526 -36.4833 -1.9441 255 127 14
-2.1528 -35.3317 -2.5544 255 127 14
-2.1526 -36.5704 -1.9446 255 127 14
-2.1528 -35.6148 -2.4774 255 127 14
-2.1528 -35.437 -2.5907 255 127 14
-2.1528 -35.372 -2.6576 255 127 14
-2.1528 -35.5536 -2.5762 255 127 14
-2.0555 -35.8618 -1.8237 255 127 14
-2.0555 -35.7922 -1.8818 255 127 14
-2.0555 -35.9875 -1.8271 255 127 14
-2.0555 -35.9225 -1.894 255 127 14
-2.0555 -35.8136 -1.9721 255 127 14
-2.0555 -35.6842 -2.0832 255 127 14
-2.0555 -36.0134 -1.9264 255 127 14
-2.0555 -35.7713 -2.0837 255 127 14
-2.0555 -36.1156 -1.908 255 127 14
-2.0555 -35.6813 -2.1747 255 127 14
-2.0555 -36.3253 -1.8573 255 127 14
-2.0556 -35.1691 -2.4586 255 127 14
-2.0555 -36.2164 -1.9354 255 127 14
-2.0555 -36.4268 -1.8617 255 127 14
-2.0556 -35.7072 -2.274 255 127 14
-2.0556 -35.5771 -2.4079 255 127 14
-2.0556 -35.6702 -2.3716 255 127 14
-2.0555 -36.6079 -1.9494 255 127 14
-2.0556 -35.5932 -2.5122 255 127 14
-2.0556 -35.4835 -2.6132 255 127 14
-2.0556 -35.5949 -2.6126 255 127 14
-1.9603 -35.8342 -1.8154 255 127 14
-1.9603 -35.9508 -1.8009 255 127 14
-1.9603 -35.8359 -1.9159 255 127 14
-1.9603 -35.9191 -1.8846 255 127 14
-1.9603 -36.1091 -1.8439 255 127 14
-1.9603 -35.7792 -2.0235 255 127 14
-1.9603 -35.6801 -2.0966 255 127 14
-1.9603 -36.0532 -1.9287 255 127 14
-1.9603 -36.2348 -1.8473 255 127 14
-1.9603 -36.1698 -1.9142 255 127 14
-1.9604 -35.0234 -2.5105 255 127 14
-1.9604 -35.2293 -2.428 255 127 14
-1.9603 -35.7098 -2.2277 255 127 14
-1.9603 -36.3636 -1.9053 255 127 14
-1.9604 -35.6153 -2.3097 255 127 14
-1.9603 -36.4613 -1.878 255 127 14
-1.9604 -35.2998 -2.4933 255 127 14
-1.9604 -35.6026 -2.4063 255 127 14
-1.9604 -35.5059 -2.5569 255 127 14
-1.9604 -35.4499 -2.6417 255 127 14
-1.9604 -35.6172 -2.5563 255 127 14
-1.8654 -35.8562 -1.7797 255 127 14
-1.8654 -35.7911 -1.8467 255 127 14
-1.8654 -35.991 -1.8009 255 127 14
-1.8654 -35.9116 -1.864 255 127 14
-1.8654 -35.7187 -1.9962 255 127 14
-1.8654 -35.817 -1.946 255 127 14
-1.8655 -36.15 -1.821 255 127 14
-1.8655 -36.0366 -1.8902 255 127 14
-1.8655 -36.306 -1.7864 255 127 14
-1.8655 -35.7302 -2.0916 255 127 14
-1.8654 -35.1438 -2.4247 255 127 14
-1.8655 -35.6652 -2.1586 255 127 14
-1.8655 -35.0833 -2.5006 255 127 14
-1.8655 -35.2407 -2.4202 255 127 14
-1.8655 -36.2834 -1.888 255 127 14
-1.8655 -36.4099 -1.8684 255 127 14
-1.8655 -35.3014 -2.4905 255 127 14
-1.8655 -35.5867 -2.3449 255 127 14
-1.8655 -35.6851 -2.2947 255 127 14
-1.8655 -36.6786 -1.7875 255 127 14
-1.8655 -36.5939 -1.8645 255 127 14
-1.8655 -36.7702 -1.797 255 127 14
-1.8655 -35.3372 -2.5848 255 127 14
-1.8655 -35.5929 -2.4543 255 127 14
-1.8655 -35.537 -2.5391 255 127 14
-1.8655 -35.4326 -2.6261 255 127 14
-1.7694 -35.8563 -1.7802 255 127 14
-1.7694 -35.9676 -1.7797 255 127 14
-1.7695 -35.8193 -1.8779 255 127 14
-1.7695 -35.7339 -1.9777 255 127 14
-1.7695 -36.0729 -1.8159 255 127 14
-1.7695 -35.9889 -1.8701 255 127 14
-1.7695 -35.821 -1.9783 255 127 14
-1.7695 -36.2833 -1.7423 255 127 14
-1.7695 -36.1986 -1.8193 255 127 14
-1.7695 -36.3756 -1.7289 255 127 14
-1.7695 -35.7454 -2.0731 255 127 14
-1.7695 -36.1381 -1.8952 255 127 14
-1.7695 -36.3046 -1.8327 255 127 14
-1.7695 -35.0887 -2.4871 255 127 14
-1.7695 -35.225 -2.4626 255 127 14
-1.7695 -35.707 -2.2165 255 127 14
-1.7695 -35.6079 -2.2896 255 127 14
-1.7695 -35.3174 -2.4492 255 127 14
-1.7695 -35.6331 -2.4118 255 127 14
-1.7696 -35.5333 -2.5078 255 127 14
-1.7696 -35.6249 -2.5173 255 127 14
-1.6716 -35.9022 -1.781 255 127 14
-1.6716 -35.788 -1.873 255 127 14
-1.6716 -36.0022 -1.8312 255 127 14
-1.6716 -35.7457 -1.9846 255 127 14
-1.6716 -36.0999 -1.8039 255 127 14
-1.6716 -36.1961 -1.8223 255 127 14
-1.6716 -35.6891 -2.0923 255 127 14
-1.6716 -36.299 -1.781 255 127 14
-1.6716 -36.1212 -1.8943 255 127 14
-1.6717 -35.161 -2.418 255 127 14
-1.6716 -36.2764 -1.8826 255 127 14
-1.6716 -36.3846 -1.8274 255 127 14
-1.6716 -35.6809 -2.1977 255 127 14
-1.6717 -35.3056 -2.4342 255 127 14
-1.6717 -35.6523 -2.3361 255 127 14
-1.6717 -35.6252 -2.4287 255 127 14
-1.6717 -35.5201 -2.5386 255 127 14
-1.6717 -35.6223 -2.5202 255 127 14
-1.5777 -35.8805 -1.7574 255 127 14
-1.5777 -35.8011 -1.8205 255 127 14
-1.5777 -35.9911 -1.7797 255 127 14
-1.5777 -35.9117 -1.8428 255 127 14
-1.5777 -35.8315 -1.9287 255 127 14
-1.5777 -36.1547 -1.8088 255 127 14
-1.5777 -35.6871 -2.0587 255 127 14
-1.5777 -36.051 -1.8729 255 127 14
-1.5777 -35.7794 -2.0453 255 127 14
-1.5777 -36.3296 -1.787 255 127 14
-1.5777 -36.2502 -1.8501 255 127 14
-1.5778 -35.7182 -2.1441 255 127 14
-1.5778 -35.2249 -2.4409 255 127 14
-1.5778 -35.141 -2.495 255 127 14
-1.5778 -35.6525 -2.2339 255 127 14
-1.5777 -36.4047 -1.8612 255 127 14
-1.5778 -35.6004 -2.3505 255 127 14
-1.5778 -35.5824 -2.461 255 127 14
-1.5778 -35.5742 -2.5664 255 127 14
-1.4831 -35.8726 -1.7615 255 127 14
-1.4832 -35.8402 -1.868 255 127 14
-1.4831 -36.0316 -1.7815 255 127 14
-1.4832 -35.7555 -1.945 255 127 14
-1.4832 -35.9522 -1.8446 255 127 14
-1.4832 -36.1763 -1.7977 255 127 14
-1.4832 -36.087 -1.8658 255 127 14
-1.4832 -35.7368 -2.0784 255 127 14
-1.4832 -35.0278 -2.4628 255 127 14
-1.4832 -35.1156 -2.4405 255 127 14
-1.4832 -36.3353 -1.8178 255 127 14
-1.4832 -36.2415 -1.877 255 127 14
-1.4832 -35.2859 -2.4098 255 127 14
-1.4833 -35.202 -2.4639 255 127 14
-1.4832 -36.4361 -1.8452 255 127 14
-1.4832 -35.7226 -2.2206 255 127 14
-1.4832 -35.5993 -2.2948 255 127 14
-1.4832 -35.6909 -2.3043 255 127 14
-1.4833 -35.648 -2.4388 255 127 14
-1.4833 -35.3476 -2.6034 255 127 14
-1.4833 -35.5292 -2.5219 255 127 14
-1.4833 -35.6208 -2.5314 255 127 14
-1.3875 -35.8108 -1.7942 255 127 14
-1.3875 -35.9092 -1.744 255 127 14
-1.3875 -35.9449 -1.8383 255 127 14
-1.3875 -36.063 -1.778 255 127 14
-1.3876 -35.8307 -1.9303 255 127 14
-1.3876 -36.1887 -1.7814 255 127 14
-1.3876 -35.681 -2.0742 255 127 14
-1.3876 -35.7794 -2.024 255 127 14
-1.3876 -36.1184 -1.8623 255 127 14
-1.3876 -36.3046 -1.7897 255 127 14
-1.3876 -35.1771 -2.3989 255 127 14
-1.3876 -36.2441 -1.8656 255 127 14
-1.3876 -35.0387 -2.4921 255 127 14
-1.3876 -35.6774 -2.1886 255 127 14
-1.3876 -35.131 -2.4787 255 127 14
-1.3876 -35.2635 -2.4223 255 127 14
-1.3876 -36.3895 -1.8589 255 127 14
-1.3876 -35.5965 -2.2974 255 127 14
-1.3876 -36.4917 -1.8405 255 127 14
-1.3876 -35.3294 -2.4787 255 127 14
-1.3876 -35.6836 -2.298 255 127 14
-1.3876 -35.6178 -2.3878 255 127 14
-1.3877 -35.3652 -2.573 255 127 14
-1.3877 -35.5945 -2.5122 255 127 14
-1.2882 -35.8742 -1.7724 255 127 14
-1.2882 -35.9764 -1.754 255 127 14
-1.2883 -35.8085 -1.8622 255 127 14
-1.2882 -36.0969 -1.7713 255 127 14
-1.2883 -35.7374 -1.966 255 127 14
-1.2883 -35.8298 -1.9526 255 127 14
-1.2883 -35.6868 -2.0368 255 127 14
-1.2883 -36.0508 -1.8511 255 127 14
-1.2882 -36.2566 -1.7685 255 127 14
-1.2883 -35.718 -2.1222 255 127 14
-1.2882 -36.4111 -1.7797 255 127 14
-1.2884 -35.2542 -2.4039 255 127 14
-1.2884 -35.6023 -2.26 255 127 14
-1.2883 -35.7098 -2.2276 255 127 14
-1.2882 -36.4869 -1.831 255 127 14
-1.2884 -35.3165 -2.5746 255 127 14
-1.2884 -35.4096 -2.5384 255 127 14
-1.2884 -35.626 -2.4279 255 127 14
-1.2884 -35.5368 -2.496 255 127 14
-1.2884 -35.49 -2.5986 255 127 14
-1.1908 -35.8505 -1.7505 255 127 14
-1.1908 -35.986 -1.7488 255 127 14
-1.1908 -35.8423 -1.8559 255 127 14
-1.1908 -35.7629 -1.919 255 127 14
-1.1908 -35.9543 -1.8325 255 127 14
-1.1908 -36.0724 -1.7723 255 127 14
-1.1908 -36.2473 -1.7505 255 127 14
-1.1908 -36.0793 -1.8588 255 127 14
-1.1908 -35.7592 -2.0334 255 127 14
-1.1908 -36.3495 -1.7321 255 127 14
-1.1909 -35.6753 -2.0875 255 127 14
-1.1909 -35.0533 -2.4724 255 127 14
-1.1909 -35.6966 -2.1779 255 127 14
-1.1909 -35.229 -2.4278 255 127 14
-1.1909 -35.6172 -2.2409 255 127 14
-1.1907 -36.7727 -1.6625 255 127 14
-1.1908 -36.4473 -1.851 255 127 14
-1.1908 -36.6623 -1.7863 255 127 14
-1.1909 -35.6143 -2.3324 255 127 14
-1.1907 -36.7645 -1.7679 255 127 14
-1.191 -35.2738 -2.5399 255 127 14
-1.1909 -35.5819 -2.439 255 127 14
-1.191 -35.4026 -2.598 255 127 14
-1.1909 -35.5737 -2.5444 255 127 14
-1.0964 -35.9643 -1.7603 255 127 14
-1.0964 -35.8705 -1.8194 255 127 14
-1.0964 -36.09 -1.7636 255 127 14
-1.0964 -35.7253 -1.9723 255 127 14
-1.0964 -35.8138 -1.9271 255 127 14
-1.0964 -36.1824 -1.7503 255 127 14
-1.0964 -36.0394 -1.8345 255 127 14
-1.0964 -36.3141 -1.7168 255 127 14
-1.0965 -35.6694 -2.0571 255 127 14
-1.0964 -36.1553 -1.8429 255 127 14
-1.0964 -36.2627 -1.8105 255 127 14
-1.0965 -35.2041 -2.3845 255 127 14
-1.0965 -35.7006 -2.1424 255 127 14
-1.0965 -35.0997 -2.4715 255 127 14
-1.0964 -36.4028 -1.8178 255 127 14
-1.0965 -35.5856 -2.2573 255 127 14
-1.0965 -35.6976 -2.2339 255 127 14
-1.0965 -35.6055 -2.3935 255 127 14
-1.0965 -35.3483 -2.5697 255 127 14
-1.0965 -35.4754 -2.5274 255 127 14
-1.0965 -35.6124 -2.48 255 127 14
-1.0022 -35.8501 -1.7294 255 127 14
-1.0022 -35.9372 -1.73 255 127 14
-1.0022 -35.7942 -1.8142 255 127 14
-1.0022 -35.8956 -1.8187 255 127 14
-1.0022 -36.0372 -1.7802 255 127 14
-1.0023 -35.6974 -1.9648 255 127 14
-1.0023 -35.786 -1.9197 255 127 14
-1.0022 -36.1492 -1.7568 255 127 14
-1.0023 -35.6945 -2.0564 255 127 14
-1.0022 -36.2946 -1.7501 255 127 14
-1.0024 -35.1278 -2.3793 255 127 14
-1.0022 -36.2243 -1.831 255 127 14
-1.0024 -35.0287 -2.4524 255 127 14
-1.0022 -36.4151 -1.7674 255 127 14
-1.0024 -35.2634 -2.3777 255 127 14
-1.0023 -35.7159 -2.1467 255 127 14
-1.0023 -35.6168 -2.2198 255 127 14
-1.0023 -35.5896 -2.3124 255 127 14
-1.0023 -35.6729 -2.2812 255 127 14
-1.0024 -35.2969 -2.5406 255 127 14
-1.0024 -35.4437 -2.4882 255 127 14
-1.0024 -35.6398 -2.4106 255 127 14
-1.0024 -35.5308 -2.4887 255 127 14
-1.0024 -35.4264 -2.5758 255 127 14
-0.8103 -35.8844 -1.745 255 127 14
-0.8104 -35.8913 -1.8314 255 127 14
-0.8104 -35.9746 -1.8002 255 127 14
-0.8103 -36.0729 -1.75 255 127 14
-0.8104 -35.6833 -1.9826 255 127 14
-0.8104 -35.821 -1.9123 255 127 14
-0.8106 -35.0666 -2.3536 255 127 14
-0.8104 -35.7795 -2.001 255 127 14
-0.8104 -36.1866 -1.827 255 127 14
-0.8103 -36.3145 -1.7618 255 127 14
-0.8106 -35.2211 -2.3647 255 127 14
-0.8105 -35.7176 -2.1227 255 127 14
-0.8104 -36.2828 -1.8454 255 127 14
-0.8105 -35.6177 -2.2186 255 127 14
-0.8103 -36.3752 -1.8321 255 127 14
-0.8106 -35.2969 -2.4161 255 127 14
-0.8105 -35.6338 -2.323 255 127 14
-0.8106 -35.2979 -2.5394 255 127 14
-0.8106 -35.5083 -2.4658 255 127 14
-0.8106 -35.6302 -2.4373 255 127 14
-0.8106 -35.3933 -2.5807 255 127 14
-0.8106 -35.5886 -2.526 255 127 14
-0.716 -35.0263 -2.3964 255 127 14
-0.716 -35.1293 -2.3551 255 127 14
-0.716 -35.2406 -2.3545 255 127 14
-0.716 -35.1703 -2.4354 255 127 14
-0.7159 -35.7847 -2.1331 255 127 14
-0.7159 -35.6955 -2.2012 255 127 14
-0.7159 -35.6206 -2.2731 255 127 14
-0.716 -35.2847 -2.4896 255 127 14
-0.7159 -35.8159 -2.2185 255 127 14
-0.716 -35.6662 -2.3624 255 127 14
-0.716 -35.3946 -2.5348 255 127 14
-0.716 -35.5755 -2.4762 255 127 14
-0.716 -35.4953 -2.5621 255 127 14
-0.6212 -35.0454 -2.3413 255 127 14
-0.6212 -35.1855 -2.3485 255 127 14
-0.6212 -35.2666 -2.3859 255 127 14
-0.6213 -35.2955 -2.5399 255 127 14
-0.6213 -35.5393 -2.4831 255 127 14
-0.6213 -35.6573 -2.4228 255 127 14
-0.6213 -35.7497 -2.4095 255 127 14
-0.6213 -35.6302 -2.5155 255 127 14
-0.6216 -37.7241 -2.5611 255 127 14
-0.6216 -37.6734 -2.6319 255 127 14
-0.6216 -37.7802 -2.6225 255 127 14
-0.6216 -37.6175 -2.7167 255 127 14
-0.6216 -37.5184 -2.7898 255 127 14
-0.4255 -35.0808 -2.335 255 127 14
-0.4255 -35.1119 -2.4203 255 127 14
-0.4255 -35.1998 -2.398 255 127 14
-0.4255 -35.2921 -2.3847 255 127 14
-0.4255 -35.2748 -2.4723 255 127 14
-0.4255 -35.3703 -2.5136 255 127 14
-0.4255 -35.5262 -2.479 255 127 14
-0.4255 -35.4703 -2.5638 255 127 14
-0.4255 -35.6815 -2.4673 255 127 14
-0.4255 -35.7837 -2.4489 255 127 14
-0.4255 -35.5816 -2.5633 255 127 14
-0.4255 -35.7421 -2.5376 255 127 14
-0.4255 -35.8436 -2.5421 255 127 14
-0.4256 -37.7261 -2.5379 255 127 14
-0.4256 -37.593 -2.6171 255 127 14
-0.4256 -37.6839 -2.6495 255 127 14
-0.4256 -37.5212 -2.7438 255 127 14
-0.4256 -37.6143 -2.7075 255 127 14
-0.4256 -37.8451 -2.601 255 127 14
-0.3316 -35.1602 -2.3499 255 127 14
-0.3316 -35.2571 -2.3455 255 127 14
-0.3316 -35.3178 -2.4158 255 127 14
-0.3316 -35.3338 -2.5201 255 127 14
-0.3316 -35.4254 -2.5296 255 127 14
-0.3316 -35.5814 -2.4951 255 127 14
-0.3316 -35.5209 -2.571 255 127 14
-0.3316 -35.6625 -2.5325 255 127 14
-0.3316 -35.7752 -2.4862 255 127 14
-0.3317 -35.9199 -2.5024 255 127 14
-0.3317 -35.8397 -2.5883 255 127 14
-0.3318 -37.5126 -2.635 255 127 14
-0.3318 -37.6995 -2.5397 255 127 14
-0.3318 -37.8441 -2.5559 255 127 14
-0.3319 -37.7011 -2.6401 255 127 14
-0.3319 -37.6171 -2.6942 255 127 14
-0.3319 -37.4249 -2.8035 255 127 14
-0.2351 -35.2385 -2.3351 255 127 14
-0.2352 -35.1538 -2.4121 255 127 14
-0.2352 -35.4887 -2.5338 255 127 14
-0.2352 -35.5961 -2.5015 255 127 14
-0.2352 -35.6885 -2.4881 255 127 14
-0.2353 -35.759 -2.5534 255 127 14
-0.2353 -35.8672 -2.4982 255 127 14
-0.2353 -36.0217 -2.5094 255 127 14
-0.2353 -36.0778 -2.5708 255 127 14
-0.2353 -36.1695 -2.5803 255 127 14
-0.2354 -36.7361 -2.7188 255 127 14
-0.2354 -37.0866 -2.6525 255 127 14
-0.2354 -36.9141 -2.7518 255 127 14
-0.2354 -37.0072 -2.7156 255 127 14
-0.2355 -37.715 -2.5232 255 127 14
-0.2355 -37.6053 -2.6242 255 127 14
-0.2355 -37.5311 -2.6733 255 127 14
-0.2355 -37.7022 -2.6198 255 127 14
-0.2355 -37.7809 -2.5796 255 127 14
-0.1384 -35.1908 -2.3359 255 127 14
-0.1384 -35.1015 -2.4039 255 127 14
-0.1384 -35.2968 -2.3493 255 127 14
-0.1384 -35.3325 -2.4436 255 127 14
-0.1385 -35.4409 -2.5346 255 127 14
-0.1385 -35.6075 -2.4721 255 127 14
-0.1385 -35.5614 -2.5519 255 127 14
-0.1385 -35.6931 -2.5184 255 127 14
-0.1385 -35.8234 -2.5307 255 127 14
-0.1385 -35.9498 -2.5112 255 127 14
-0.1385 -36.0505 -2.5386 255 127 14
-0.1385 -36.1573 -2.5291 255 127 14
-0.1385 -36.2686 -2.5286 255 127 14
-0.1385 -36.355 -2.5521 255 127 14
-0.1385 -36.4466 -2.5616 255 127 14
-0.1385 -36.5625 -2.57 255 127 14
-0.1386 -36.6383 -2.6213 255 127 14
-0.1386 -36.9252 -2.5762 255 127 14
-0.1386 -37.0252 -2.6264 255 127 14
-0.1386 -37.5878 -2.5869 255 127 14
-0.1386 -37.5948 -2.6734 255 127 14
-0.1386 -37.7363 -2.6349 255 127 14
-0.0415 -35.1636 -2.3259 255 127 14
-0.0415 -35.2651 -2.3304 255 127 14
-0.0415 -35.3099 -2.4426 255 127 14
-0.0415 -35.6295 -2.437 255 127 14
-0.0415 -35.5205 -2.5151 255 127 14
-0.0415 -35.725 -2.4783 255 127 14
-0.0415 -35.8226 -2.451 255 127 14
-0.0415 -35.9385 -2.4594 255 127 14
-0.0415 -35.9984 -2.5526 255 127 14
-0.0415 -36.1112 -2.5063 255 127 14
-0.0415 -36.2854 -2.5074 255 127 14
-0.0415 -36.2105 -2.5794 255 127 14
-0.0415 -36.3861 -2.5348 255 127 14
-0.0415 -36.3165 -2.5928 255 127 14
-0.0415 -36.4732 -2.5353 255 127 14
-0.0415 -36.5641 -2.5677 255 127 14
-0.0415 -36.49 -2.6168 255 127 14
-0.0415 -36.6188 -2.6749 255 127 14
-0.0415 -36.7112 -2.6615 255 127 14
-0.0415 -36.9875 -2.6442 255 127 14
-0.0415 -37.345 -2.6643 255 127 14
-0.0415 -37.28 -2.7313 255 127 14
-4.7452 -36.2931 -2.7823 174 199 232
-4.7452 -36.4146 -2.7824 174 199 232
-4.7389 -36.5361 -2.8014 174 199 232
-4.7168 -36.4588 -2.868 174 199 232
-4.6554 -36.2049 -2.7647 174 199 232
-4.6428 -36.5693 -2.8028 174 199 232
-4.6396 -36.1276 -2.8123 174 199 232
-4.6365 -36.3374 -2.8218 174 199 232
-4.6364 -36.4368 -2.8218 174 199 232
-4.6206 -36.5141 -2.8694 174 199 232
-4.5693 -36.1461 -2.7448 174 199 232
-4.5693 -36.2455 -2.7448 174 199 232
-4.5662 -36.0467 -2.7542 174 199 232
-4.563 -36.4332 -2.7638 174 199 232
-4.5599 -36.6099 -2.7734 174 199 232
-4.5504 -36.5215 -2.8019 174 199 232
-4.5472 -36.7314 -2.8115 174 199 232
-4.4843 -36.0278 -2.7158 174 199 232
-4.4748 -36.1493 -2.7443 174 199 232
-4.4748 -36.2707 -2.7443 174 199 232
-4.4717 -35.9394 -2.7538 174 199 232
-4.4654 -36.6573 -2.7729 174 199 232
-4.4622 -36.5468 -2.7824 174 199 232
-4.459 -36.8229 -2.7919 174 199 232
-4.4559 -36.4033 -2.8014 174 199 232
-4.3841 -35.827 -2.7183 174 199 232
-4.3841 -35.9927 -2.7183 174 199 232
-4.3841 -36.0921 -2.7183 174 199 232
-4.3683 -35.9043 -2.7659 174 199 232
-4.3683 -36.4786 -2.766 174 199 232
-4.3651 -36.6111 -2.7755 174 199 232
-4.362 -36.7437 -2.785 174 199 232
-4.3065 -35.7015 -2.6719 174 199 232
-4.2907 -35.9886 -2.7196 174 199 232
-4.2907 -36.088 -2.7196 174 199 232
-4.2875 -35.7898 -2.729 174 199 232
-4.2812 -36.2978 -2.7482 174 199 232
-4.2812 -36.4856 -2.7483 174 199 232
-4.278 -35.9002 -2.7576 174 199 232
-4.2781 -36.5739 -2.7578 174 199 232
-4.2686 -36.839 -2.7864 174 199 232
-4.2654 -36.9494 -2.796 174 199 232
-4.2623 -36.6843 -2.8054 174 199 232
-4.1971 -35.8662 -2.7008 174 199 232
-4.1908 -35.9988 -2.7198 174 199 232
-4.1908 -36.1202 -2.7199 174 199 232
-4.1876 -35.7668 -2.7293 174 199 232
-4.1877 -36.2528 -2.7295 174 199 232
-4.1814 -36.3522 -2.7485 174 199 232
-4.1814 -36.4957 -2.7486 174 199 232
-4.1782 -36.6393 -2.7581 174 199 232
-4.1719 -36.7608 -2.7772 174 199 232
-4.1687 -36.8712 -2.7868 174 199 232
-4.1688 -37.0038 -2.7868 174 199 232
-4.1655 -36.1754 -2.796 174 199 232
-4.0176 -35.7355 -2.672 174 199 232
-4.0082 -35.9233 -2.7006 174 199 232
-4.0051 -36.111 -2.7102 174 199 232
-4.0019 -36.1994 -2.7197 174 199 232
-3.9925 -36.5307 -2.7484 174 199 232
-3.9894 -36.6411 -2.7579 174 199 232
-3.9862 -36.7736 -2.7674 174 199 232
-3.9831 -36.9393 -2.777 174 199 232
-3.9798 -36.376 -2.7864 174 199 232
-3.8418 -35.5598 -2.6232 174 199 232
-3.8292 -35.7034 -2.6613 174 199 232
-3.8292 -35.8249 -2.6613 174 199 232
-3.8134 -36.0016 -2.7089 174 199 232
-3.8134 -36.1452 -2.7089 174 199 232
-3.8039 -35.8801 -2.7374 174 199 232
-3.8008 -36.7084 -2.7471 174 199 232
-3.7913 -36.4875 -2.7756 174 199 232
-3.7913 -36.9735 -2.7757 174 199 232
-3.7881 -36.3771 -2.7851 174 199 232
-3.7818 -36.609 -2.8042 174 199 232
-3.7755 -37.0728 -2.8233 174 199 232
-3.7393 -35.5721 -2.6301 174 199 232
-3.7329 -35.6604 -2.6491 174 199 232
-3.7235 -35.9144 -2.6777 174 199 232
-3.7203 -36.0359 -2.6872 174 199 232
-3.714 -36.1905 -2.7063 174 199 232
-3.7108 -36.3451 -2.7158 174 199 232
-3.7077 -35.7819 -2.7252 174 199 232
-3.7076 -36.4445 -2.7254 174 199 232
-3.7076 -36.566 -2.7254 174 199 232
-3.6982 -36.8532 -2.754 174 199 232
-3.6855 -37.3391 -2.7921 174 199 232
-3.6824 -36.6544 -2.8015 174 199 232
-3.6823 -37.2397 -2.8016 174 199 232
-3.6792 -36.7648 -2.811 174 199 232
-3.6634 -37.0519 -2.8586 174 199 232
-3.6571 -37.1955 -2.8777 174 199 232
-3.6472 -35.5628 -2.621 174 199 232
-3.6345 -35.6511 -2.6591 174 199 232
-3.6124 -35.8609 -2.7257 174 199 232
-3.6124 -35.9935 -2.7257 174 199 232
-3.6092 -36.6119 -2.7353 174 199 232
-3.6061 -36.4242 -2.7448 174 199 232
-3.6029 -36.7224 -2.7544 174 199 232
-3.5934 -36.2143 -2.7828 174 199 232
-3.5871 -36.3358 -2.8019 174 199 232
-3.5839 -37.1089 -2.8115 174 199 232
-3.5808 -36.4573 -2.8209 174 199 232
-3.565 -37.0426 -2.8685 174 199 232
-3.5636 -35.4868 -2.5811 174 199 232
-3.5572 -35.3874 -2.6001 174 199 232
-3.5414 -35.5862 -2.6477 174 199 232
-3.5414 -35.6745 -2.6477 174 199 232
-3.5383 -35.31 -2.6572 174 199 232
-3.5382 -35.9175 -2.6573 174 199 232
-3.5319 -36.0279 -2.6763 174 199 232
-3.5288 -36.1163 -2.6858 174 199 232
-3.5161 -36.558 -2.7239 174 199 232
-3.5066 -36.6464 -2.7524 174 199 232
-3.5066 -36.8783 -2.7525 174 199 232
-3.5035 -36.0942 -2.7619 174 199 232
-3.5035 -36.1825 -2.7619 174 199 232
-3.5034 -36.3924 -2.7619 174 199 232
-3.5003 -36.9777 -2.7715 174 199 232
-3.5002 -37.4416 -2.7715 174 199 232
-3.4971 -37.298 -2.781 174 199 232
-3.475 -37.044 -2.8476 174 199 232
-3.4615 -35.4665 -2.6075 174 199 232
-3.4583 -35.356 -2.617 174 199 232
-3.4552 -35.6542 -2.6266 174 199 232
-3.4488 -35.5548 -2.6456 174 199 232
-3.4457 -35.9414 -2.6551 174 199 232
-3.4425 -35.853 -2.6646 174 199 232
-3.4425 -36.0849 -2.6646 174 199 232
-3.4299 -36.3389 -2.7027 174 199 232
-3.4299 -36.4715 -2.7027 174 199 232
-3.4267 -36.5598 -2.7122 174 199 232
-3.4236 -35.7426 -2.7217 174 199 232
-3.4204 -35.9966 -2.7312 174 199 232
-3.4204 -36.7807 -2.7312 174 199 232
-3.4141 -36.1291 -2.7502 174 199 232
-3.4109 -36.2285 -2.7597 174 199 232
-3.4109 -37.1231 -2.7598 174 199 232
-3.4046 -36.4383 -2.7788 174 199 232
-3.4046 -37.3771 -2.7788 174 199 232
-3.3983 -37.2777 -2.7978 174 199 232
-3.3856 -37.0458 -2.8358 174 199 232
-3.3734 -35.4096 -2.5899 174 199 232
-3.3703 -35.1887 -2.5994 174 199 232
-3.3639 -35.509 -2.6184 174 199 232
-3.3608 -35.6084 -2.628 174 199 232
-3.3576 -35.9949 -2.6375 174 199 232
-3.3545 -35.3323 -2.647 174 199 232
-3.3544 -35.7078 -2.647 174 199 232
-3.3513 -35.8293 -2.6565 174 199 232
-3.3354 -36.4809 -2.7041 174 199 232
-3.3323 -36.8122 -2.7137 174 199 232
-3.3291 -36.6244 -2.7232 174 199 232
-3.326 -36.1054 -2.7326 174 199 232
-3.3228 -37.1104 -2.7422 174 199 232
-3.3197 -36.26 -2.7517 174 199 232
-3.3196 -37.2208 -2.7518 174 199 232
-3.3196 -37.3423 -2.7518 174 199 232
-3.3164 -37.4969 -2.7613 174 199 232
-3.3133 -36.9558 -2.7708 174 199 232
-3.3007 -37.0441 -2.8088 174 199 232
-3.2975 -37.4196 -2.8184 174 199 232
-3.2943 -37.2981 -2.8279 174 199 232
-3.3093 -35.0689 -2.4851 174 199 232
-3.2745 -35.2787 -2.5897 174 199 232
-3.265 -35.1462 -2.6183 174 199 232
-3.265 -35.6211 -2.6183 174 199 232
-3.2618 -35.5106 -2.6278 174 199 232
-3.2586 -35.9634 -2.6373 174 199 232
-3.2586 -36.0518 -2.6373 174 199 232
-3.2555 -35.4112 -2.6468 174 199 232
-3.2555 -35.7425 -2.6468 174 199 232
-3.2555 -35.8751 -2.6468 174 199 232
-3.2428 -36.2174 -2.6848 174 199 232
-3.2365 -36.1291 -2.7039 174 199 232
-3.2364 -36.5267 -2.7039 174 199 232
-3.2333 -36.3058 -2.7134 174 199 232
-3.2333 -36.6261 -2.7134 174 199 232
-3.2332 -36.869 -2.7134 174 199 232
-3.2269 -36.9684 -2.7324 174 199 232
-3.2269 -37.2114 -2.7324 174 199 232
-3.2206 -36.7807 -2.7514 174 199 232
-3.2206 -37.3329 -2.7514 174 199 232
-3.2205 -37.5759 -2.7514 174 199 232
-3.2174 -37.1231 -2.761 174 199 232
-3.2174 -37.4765 -2.761 174 199 232
-3.2016 -37.0347 -2.8085 174 199 232
-3.1921 -37.4323 -2.8371 174 199 232
-3.1814 -35.3234 -2.5701 174 199 232
-3.1782 -35.1357 -2.5796 174 199 232
-3.1782 -35.4339 -2.5796 174 199 232
-3.1687 -35.5443 -2.6081 174 199 232
-3.1655 -35.6437 -2.6176 174 199 232
-3.1623 -35.964 -2.6272 174 199 232
-3.1592 -35.2461 -2.6367 174 199 232
-3.1592 -35.8315 -2.6367 174 199 232
-3.1529 -35.478 -2.6557 174 199 232
-3.1528 -36.1628 -2.6557 174 199 232
-3.1402 -36.0634 -2.6937 174 199 232
-3.1338 -36.7923 -2.7128 174 199 232
-3.1338 -36.8806 -2.7128 174 199 232
-3.1275 -36.5383 -2.7318 174 199 232
-3.1243 -37.3335 -2.7413 174 199 232
-3.1243 -37.5102 -2.7413 174 199 232
-3.1243 -37.6096 -2.7413 174 199 232
-3.118 -37.1126 -2.7603 174 199 232
-3.118 -37.2341 -2.7603 174 199 232
-3.1117 -36.4389 -2.7793 174 199 232
-3.1116 -37.0132 -2.7794 174 199 232
-3.1085 -36.8144 -2.7889 174 199 232
-3.1053 -36.9138 -2.7984 174 199 232
-3.1021 -37.4218 -2.8079 174 199 232
-3.116 -35.0807 -2.4867 174 199 232
-3.0906 -35.3679 -2.5628 174 199 232
-3.0875 -35.158 -2.5723 174 199 232
-3.078 -35.4673 -2.6008 174 199 232
-3.0748 -35.6329 -2.6104 174 199 232
-3.0653 -35.3016 -2.6389 174 199 232
-3.0653 -35.3899 -2.6389 174 199 232
-3.0527 -35.5446 -2.6769 174 199 232
-3.0463 -35.7102 -2.696 174 199 232
-3.0335 -37.168 -2.7341 174 199 232
-3.0335 -37.4441 -2.7341 174 199 232
-3.0334 -37.6871 -2.7341 174 199 232
-3.0303 -37.0576 -2.7436 174 199 232
-3.0303 -37.3448 -2.7436 174 199 232
-3.0303 -37.5435 -2.7436 174 199 232
-3.0113 -37.2453 -2.8006 174 199 232
-3.0082 -37.411 -2.8102 174 199 232
-3.0198 -35.1241 -2.4952 174 199 232
-2.9977 -35.0358 -2.5617 174 199 232
-2.9977 -35.2456 -2.5618 174 199 232
-2.9914 -35.4334 -2.5808 174 199 232
-2.9882 -35.1462 -2.5903 174 199 232
-2.9882 -35.5217 -2.5903 174 199 232
-2.9788 -35.6432 -2.6188 174 199 232
-2.9724 -35.2898 -2.6378 174 199 232
-2.9661 -35.3892 -2.6569 174 199 232
-2.9441 -37.6091 -2.7235 174 199 232
-2.9377 -37.1121 -2.7425 174 199 232
-2.9377 -37.2336 -2.7425 174 199 232
-2.9346 -37.344 -2.7521 174 199 232
-2.9314 -37.4434 -2.7616 174 199 232
-2.9314 -37.5317 -2.7616 174 199 232
-2.918 -35.013 -2.5227 174 199 232
-2.9085 -35.3333 -2.5513 174 199 232
-2.8927 -35.1345 -2.5988 174 199 232
-2.8927 -35.51 -2.5988 174 199 232
-2.8864 -35.2449 -2.6178 174 199 232
-2.8517 -37.6636 -2.7226 174 199 232
-2.8453 -37.2108 -2.7416 174 199 232
-2.8453 -37.3102 -2.7416 174 199 232
-2.8232 -37.5531 -2.8082 174 199 232
-2.8201 -37.4206 -2.8177 174 199 232
-2.8169 -37.1776 -2.8272 174 199 232
-2.7412 -35.0571 -2.4677 174 199 232
-2.7254 -35.1344 -2.5152 174 199 232
-2.7159 -35.024 -2.5437 174 199 232
-2.7128 -35.3332 -2.5533 174 199 232
-2.7034 -35.521 -2.5818 174 199 232
-2.697 -35.1676 -2.6008 174 199 232
-2.6907 -35.2559 -2.6199 174 199 232
-2.6844 -35.4547 -2.6389 174 199 232
-2.6844 -35.5983 -2.6389 174 199 232
-2.6594 -37.6746 -2.7152 174 199 232
-2.6467 -37.3764 -2.7532 174 199 232
-2.6467 -37.4647 -2.7532 174 199 232
-2.6435 -37.277 -2.7627 174 199 232
-2.6308 -37.1997 -2.8007 174 199 232
-2.6214 -37.3543 -2.8293 174 199 232
-2.6104 -35.2431 -2.5608 174 199 232
-2.6072 -35.475 -2.5704 174 199 232
-2.604 -35.1437 -2.5799 174 199 232
-2.6009 -35.5634 -2.5894 174 199 232
-2.5882 -35.3094 -2.6274 174 199 232
-2.5693 -35.6186 -2.6845 174 199 232
-2.5631 -37.5955 -2.7037 174 199 232
-2.5504 -37.463 -2.7417 174 199 232
-2.5378 -37.6728 -2.7798 174 199 232
-2.522 -37.2642 -2.8273 174 199 232
-2.6388 -35.0112 -2.4752 174 199 232
-2.5787 -35.4529 -2.656 174 199 232
-2.5536 -37.3636 -2.7322 174 199 232
-2.5504 -37.22 -2.7417 174 199 232
-2.4561 -35.0302 -2.4603 255 127 14
-2.4561 -35.1296 -2.4603 255 127 14
-2.4214 -35.4388 -2.565 255 127 14
-2.4182 -35.1627 -2.5745 255 127 14
-2.4087 -35.2732 -2.603 255 127 14
-2.3834 -35.6155 -2.6792 255 127 14
-2.3804 -37.6035 -2.6891 255 127 14
-2.3709 -37.3384 -2.7176 255 127 14
-2.3677 -37.5151 -2.7272 255 127 14
-2.3646 -37.6808 -2.7367 255 127 14
-2.3614 -37.2279 -2.7461 255 127 14
-2.3487 -37.4157 -2.7842 255 127 14
-2.3424 -37.3052 -2.8032 255 127 14
-2.4567 -36.8064 -1.8917 255 127 14
-2.4504 -37.0052 -1.9108 255 127 14
-2.4441 -36.3535 -1.9296 255 127 14
-2.4378 -36.9057 -1.9488 255 127 14
-2.2449 -35.2158 -2.5285 255 127 14
-2.2038 -35.4919 -2.6522 255 127 14
-2.1943 -35.6023 -2.6808 255 127 14
-2.1944 -37.5792 -2.6815 255 127 14
-2.1881 -37.4909 -2.7005 255 127 14
-2.185 -37.4025 -2.7099 255 127 14
-2.1786 -37.3031 -2.7289 255 127 14
-2.1755 -37.6896 -2.7386 255 127 14
-2.4725 -36.3204 -1.844 255 127 14
-2.4662 -36.4088 -1.8631 255 127 14
-2.463 -36.2321 -1.8725 255 127 14
-2.4377 -36.4529 -1.9487 255 127 14
-2.2544 -34.9949 -2.4999 255 127 14
-2.2354 -35.4588 -2.5571 255 127 14
-2.2196 -35.1495 -2.6046 255 127 14
-2.2196 -35.2379 -2.6046 255 127 14
-2.1755 -37.2037 -2.7384 255 127 14
-2.2696 -36.2889 -1.8628 255 127 14
-2.2632 -36.9405 -1.8819 255 127 14
-2.2569 -36.819 -1.9009 255 127 14
-2.2443 -36.3331 -1.9389 255 127 14
-2.2411 -36.9957 -1.9485 255 127 14
-2.0484 -35.0628 -2.5283 255 127 14
-2.0484 -35.2837 -2.5284 255 127 14
-2.0421 -35.4273 -2.5474 255 127 14
-2.0326 -35.1622 -2.5759 255 127 14
-2.02 -35.3721 -2.614 255 127 14
-1.9978 -35.5598 -2.6806 255 127 14
-1.9944 -37.5257 -2.6905 255 127 14
-1.985 -37.3158 -2.719 255 127 14
-1.985 -37.4263 -2.719 255 127 14
-1.9849 -37.6803 -2.7191 255 127 14
-1.9787 -37.2275 -2.738 255 127 14
-2.1646 -36.7322 -1.8832 255 127 14
-2.1646 -36.931 -1.8833 255 127 14
-2.1488 -37.0193 -1.9308 255 127 14
-2.1456 -36.8316 -1.9403 255 127 14
-1.9814 -35.0755 -2.4345 255 127 14
-1.9592 -35.1527 -2.5011 255 127 14
-1.9529 -35.3957 -2.5202 255 127 14
-1.9339 -35.2632 -2.5772 255 127 14
-1.9054 -35.5282 -2.6629 255 127 14
-1.9052 -37.6045 -2.6633 255 127 14
-1.8862 -37.6708 -2.7204 255 127 14
-1.8831 -37.24 -2.7298 255 127 14
-1.8831 -37.4609 -2.7299 255 127 14
-1.8768 -37.3284 -2.7489 255 127 14
-2.0722 -36.8963 -1.8719 255 127 14
-2.0627 -36.7196 -1.9004 255 127 14
-2.0564 -36.808 -1.9195 255 127 14
-2.05 -36.9847 -1.9385 255 127 14
-1.8698 -34.9855 -2.4802 255 127 14
-1.854 -35.4383 -2.5278 255 127 14
-1.8413 -35.1843 -2.5658 255 127 14
-1.8224 -35.5819 -2.623 255 127 14
-1.8001 -37.5588 -2.69 255 127 14
-1.8001 -37.6471 -2.6901 255 127 14
-1.7906 -37.3489 -2.7185 255 127 14
-1.778 -37.2606 -2.7565 255 127 14
-1.7748 -37.4262 -2.7661 255 127 14
-1.9808 -36.775 -1.8627 255 127 14
-1.9808 -36.9517 -1.8627 255 127 14
-1.9619 -36.8523 -1.9198 255 127 14
-1.9619 -37.0401 -1.9198 255 127 14
-1.7689 -34.9747 -2.4995 255 127 14
-1.7626 -35.4385 -2.5186 255 127 14
-1.7531 -35.3502 -2.5471 255 127 14
-1.7499 -35.1624 -2.5566 255 127 14
-1.7468 -35.2618 -2.5661 255 127 14
-1.731 -35.4716 -2.6138 255 127 14
-1.7247 -35.571 -2.6328 255 127 14
-1.712 -37.5921 -2.6713 255 127 14
-1.7089 -37.3712 -2.6808 255 127 14
-1.6867 -37.3049 -2.7474 255 127 14
-1.6867 -37.5369 -2.7474 255 127 14
-1.6836 -37.4264 -2.7569 255 127 14
-1.8844 -36.6994 -1.8722 255 127 14
-1.8844 -36.8871 -1.8723 255 127 14
-1.8654 -36.7656 -1.9293 255 127 14
-1.8623 -36.9975 -1.9389 255 127 14
-1.6977 -35.0758 -2.4331 255 127 14
-1.6756 -35.0205 -2.4996 255 127 14
-1.6693 -35.3408 -2.5187 255 127 14
-1.6661 -35.2414 -2.5282 255 127 14
-1.6598 -35.131 -2.5472 255 127 14
-1.644 -35.385 -2.5948 255 127 14
-1.6408 -35.4733 -2.6044 255 127 14
-1.6219 -35.5396 -2.6614 255 127 14
-1.6126 -37.5717 -2.6904 255 127 14
-1.6094 -37.2735 -2.6998 255 127 14
-1.6094 -37.4834 -2.6999 255 127 14
-1.6031 -37.395 -2.7189 255 127 14
-1.5968 -37.6601 -2.7379 255 127 14
-1.7974 -36.8094 -1.8439 255 127 14
-1.7974 -36.9088 -1.844 255 127 14
-1.791 -36.699 -1.8629 255 127 14
-1.7816 -37.0193 -1.8915 255 127 14
-1.7721 -36.9309 -1.9201 255 127 14
-1.6011 -35.0644 -2.4333 255 127 14
-1.5758 -35.3294 -2.5094 255 127 14
-1.5727 -35.4509 -2.519 255 127 14
-1.5695 -34.9981 -2.5284 255 127 14
-1.56 -35.219 -2.557 255 127 14
-1.5537 -35.3846 -2.576 255 127 14
-1.5411 -35.4951 -2.6141 255 127 14
-1.5288 -37.6045 -2.6526 255 127 14
-1.5192 -37.4388 -2.6811 255 127 14
-1.5161 -37.3063 -2.6906 255 127 14
-1.5161 -37.5272 -2.6906 255 127 14
-1.5098 -37.6707 -2.7097 255 127 14
-1.4939 -37.3836 -2.7572 255 127 14
-1.4908 -37.2621 -2.7666 255 127 14
-1.7045 -36.9351 -1.8321 255 127 14
-1.6981 -36.7584 -1.8511 255 127 14
-1.6918 -37.0234 -1.8702 255 127 14
-1.6855 -36.8357 -1.8892 255 127 14
-1.4829 -35.3888 -2.4977 255 127 14
-1.4766 -35.2784 -2.5167 255 127 14
-1.4513 -35.4551 -2.5929 255 127 14
-1.4387 -35.5655 -2.6309 255 127 14
-1.4295 -37.5314 -2.6597 255 127 14
-1.42 -37.2442 -2.6882 255 127 14
-1.42 -37.3436 -2.6882 255 127 14
-1.4074 -37.6308 -2.7263 255 127 14
-1.4042 -37.432 -2.7358 255 127 14
-1.6153 -36.9106 -1.8138 255 127 14
-1.6058 -36.7891 -1.8423 255 127 14
-1.59 -36.8664 -1.8899 255 127 14
-1.59 -36.9768 -1.8899 255 127 14
-1.419 -35.0551 -2.4031 255 127 14
-1.3843 -35.4526 -2.5078 255 127 14
-1.3811 -35.2097 -2.5173 255 127 14
-1.3558 -35.552 -2.5934 255 127 14
-1.3435 -37.4737 -2.6319 255 127 14
-1.3404 -37.3743 -2.6414 255 127 14
-1.3404 -37.6504 -2.6414 255 127 14
-1.3246 -37.551 -2.689 255 127 14
-1.3151 -37.4516 -2.7175 255 127 14
-1.3119 -37.2528 -2.727 255 127 14
-1.3119 -37.3522 -2.727 255 127 14
-1.5152 -36.8575 -1.8225 255 127 14
-1.5152 -36.99 -1.8225 255 127 14
-1.4899 -36.8133 -1.8986 255 127 14
-1.4899 -36.9238 -1.8986 255 127 14
-1.4899 -37.0121 -1.8986 255 127 14
-1.3222 -35.0793 -2.4024 255 127 14
-1.3 -35.002 -2.469 255 127 14
-1.3 -35.1566 -2.469 255 127 14
-1.2937 -35.3333 -2.488 255 127 14
-1.2874 -35.245 -2.507 255 127 14
-1.2495 -35.5652 -2.6212 255 127 14
-1.2465 -37.498 -2.631 255 127 14
-1.2465 -37.6084 -2.631 255 127 14
-1.237 -37.2992 -2.6595 255 127 14
-1.2244 -37.5532 -2.6976 255 127 14
-1.2244 -37.6636 -2.6976 255 127 14
-1.218 -37.3986 -2.7166 255 127 14
-1.4195 -36.8897 -1.8212 255 127 14
-1.4195 -36.9781 -1.8212 255 127 14
-1.4164 -36.7903 -1.8307 255 127 14
-1.3942 -37.0112 -1.8973 255 127 14
-1.2264 -35.0011 -2.4011 255 127 14
-1.2264 -35.1336 -2.4011 255 127 14
-1.2074 -35.3103 -2.4582 255 127 14
-1.198 -35.4208 -2.4868 255 127 14
-1.1948 -35.1447 -2.4962 255 127 14
-1.1664 -35.487 -2.5819 255 127 14
-1.1537 -35.5643 -2.6199 255 127 14
-1.1476 -37.3645 -2.6392 255 127 14
-1.1477 -37.6407 -2.6392 255 127 14
-1.1445 -37.4639 -2.6487 255 127 14
-1.1382 -37.5523 -2.6677 255 127 14
-1.1255 -37.2762 -2.7057 255 127 14
-1.1223 -37.3977 -2.7153 255 127 14
-1.325 -36.7567 -1.8228 255 127 14
-1.325 -36.8561 -1.8228 255 127 14
-1.3251 -36.9886 -1.8228 255 127 14
-1.138 -35.1001 -2.3838 255 127 14
-1.1159 -34.9896 -2.4503 255 127 14
-1.1128 -35.2878 -2.4599 255 127 14
-1.1065 -35.3872 -2.4789 255 127 14
-1.1032 -35.1884 -2.4884 255 127 14
-1.0591 -35.5639 -2.6216 255 127 14
-1.0563 -37.5077 -2.6313 255 127 14
-1.05 -37.2979 -2.6503 255 127 14
-1.0436 -37.2095 -2.6693 255 127 14
-1.0437 -37.6071 -2.6693 255 127 14
-1.0342 -37.4525 -2.6979 255 127 14
-1.031 -37.3641 -2.7074 255 127 14
-1.2244 -36.877 -1.8317 255 127 14
-1.2213 -36.9764 -1.8412 255 127 14
-1.2181 -36.7887 -1.8507 255 127 14
-1.0504 -35.0215 -2.3545 255 127 14
-1.0156 -35.3639 -2.4592 255 127 14
-1.0124 -35.2535 -2.4687 255 127 14
-0.9998 -35.1761 -2.5067 255 127 14
-0.962 -37.5506 -2.6212 255 127 14
-0.9588 -37.2745 -2.6306 255 127 14
-0.9525 -37.4402 -2.6497 255 127 14
-0.9494 -37.65 -2.6592 255 127 14
-0.9462 -37.1972 -2.6687 255 127 14
-0.9367 -37.5175 -2.6973 255 127 14
-0.9336 -37.3408 -2.7067 255 127 14
-1.1349 -36.8655 -1.8038 255 127 14
-1.1223 -36.7772 -1.8419 255 127 14
-1.1223 -36.987 -1.8419 255 127 14
-1.1065 -36.8876 -1.8894 255 127 14
-0.9515 -35.0652 -2.3552 255 127 14
-0.9389 -34.9879 -2.3933 255 127 14
-0.9262 -35.1867 -2.4313 255 127 14
-0.9168 -35.0763 -2.4599 255 127 14
-0.9104 -35.2751 -2.4789 255 127 14
-0.9073 -35.4076 -2.4884 255 127 14
-0.8883 -35.3413 -2.5455 255 127 14
-0.882 -35.4739 -2.5645 255 127 14
-0.8629 -37.5391 -2.6219 255 127 14
-0.8566 -37.3514 -2.6409 255 127 14
-0.8503 -37.6385 -2.6599 255 127 14
-0.8471 -37.1746 -2.6694 255 127 14
-0.8376 -37.4507 -2.698 255 127 14
-0.8313 -37.2961 -2.717 255 127 14
-1.0386 -36.8422 -1.8051 255 127 14
-1.0386 -36.9636 -1.8051 255 127 14
-1.0259 -36.7648 -1.8431 255 127 14
-1.0133 -36.9415 -1.8812 255 127 14
-0.8362 -35.1412 -2.4135 255 127 14
-0.8331 -35.0197 -2.423 255 127 14
-0.8141 -35.3731 -2.4801 255 127 14
-0.8078 -35.2185 -2.4991 255 127 14
-0.7792 -37.6372 -2.5852 255 127 14
-0.7729 -37.5267 -2.6042 255 127 14
-0.7666 -37.4163 -2.6232 255 127 14
-0.7539 -37.1733 -2.6612 255 127 14
-0.7539 -37.2727 -2.6612 255 127 14
-0.7444 -37.5046 -2.6898 255 127 14
-0.8545 -36.8081 -1.795 255 127 14
-0.8545 -36.9185 -1.795 255 127 14
-0.8387 -37.0069 -1.8426 255 127 14
-0.8229 -36.797 -1.8901 255 127 14
-0.6457 -35.0961 -2.4224 255 127 14
-0.6331 -35.1955 -2.4605 255 127 14
-0.6299 -35.3943 -2.4701 255 127 14
-0.5983 -35.4937 -2.5652 255 127 14
-0.5984 -37.6031 -2.5656 255 127 14
-0.5858 -37.3712 -2.6036 255 127 14
-0.5858 -37.4816 -2.6036 255 127 14
-0.5826 -37.2718 -2.6131 255 127 14
-0.5605 -37.4595 -2.6797 255 127 14
-0.5573 -37.3491 -2.6892 255 127 14
-0.7501 -36.7522 -1.8269 255 127 14
-0.7501 -36.8958 -1.827 255 127 14
-0.7343 -36.9951 -1.8745 255 127 14
-0.5635 -35.1286 -2.3878 255 127 14
-0.5571 -35.0181 -2.4068 255 127 14
-0.5413 -35.1838 -2.4544 255 127 14
-0.535 -35.2722 -2.4734 255 127 14
-0.5319 -35.5041 -2.483 255 127 14
-0.5287 -35.3826 -2.4925 255 127 14
-0.5035 -37.6025 -2.569 255 127 14
-0.4908 -37.4147 -2.607 255 127 14
-0.4908 -37.5031 -2.607 255 127 14
-0.4877 -37.2932 -2.6165 255 127 14
-0.4656 -37.3926 -2.6831 255 127 14
-0.4592 -37.2269 -2.7021 255 127 14
-0.3616 -35.0285 -2.3974 255 127 14
-0.3521 -35.415 -2.426 255 127 14
-0.3426 -35.1058 -2.4545 255 127 14
-0.3363 -35.2162 -2.4735 255 127 14
-0.3363 -35.4923 -2.4736 255 127 14
-0.3044 -37.5796 -2.5691 255 127 14
-0.2918 -37.2925 -2.6071 255 127 14
-0.2918 -37.4029 -2.6071 255 127 14
-0.2887 -37.171 -2.6166 255 127 14
-0.2817 -35.0504 -2.348 255 127 14
-0.2437 -35.4038 -2.4622 255 127 14
-0.2405 -35.2934 -2.4717 255 127 14
-0.2055 -37.5022 -2.5768 255 127 14
-0.1961 -37.1708 -2.6053 255 127 14
-0.1961 -37.2813 -2.6053 255 127 14
-0.1961 -37.4138 -2.6053 255 127 14
-0.1708 -37.3586 -2.6814 255 127 14
-0.1708 -37.469 -2.6814 255 127 14
-0.1676 -37.1377 -2.6909 255 127 14
-0.1947 -35.1074 -2.3287 255 127 14
-0.1852 -35.019 -2.3572 255 127 14
-0.1726 -35.4056 -2.3953 255 127 14
-0.1631 -35.2399 -2.4238 255 127 14
-0.1631 -35.505 -2.4238 255 127 14
-0.1409 -37.5481 -2.4907 255 127 14
-0.1251 -37.6585 -2.5383 255 127 14
-0.1219 -37.3051 -2.5477 255 127 14
-0.1219 -37.4045 -2.5477 255 127 14
-0.1188 -37.0953 -2.5572 255 127 14
-0.1125 -36.7198 -2.5762 255 127 14
-0.1125 -36.8192 -2.5762 255 127 14
-0.1093 -37.4929 -2.5858 255 127 14
-0.0935 -37.2057 -2.6333 255 127 14
-0.1139 -34.9737 -2.3018 255 127 14
-0.1108 -35.0731 -2.3113 255 127 14
-0.0729 -35.5259 -2.4256 255 127 14
-0.0697 -35.4375 -2.4351 255 127 14
-0.0634 -35.2166 -2.454 255 127 14
-0.0382 -35.6142 -2.5302 255 127 14
-0.0383 -36.8401 -2.5305 255 127 14
-0.035 -35.8903 -2.5398 255 127 14
-0.0352 -37.2266 -2.5401 255 127 14
-0.032 -36.9505 -2.5496 255 127 14
-0.032 -37.3371 -2.5496 255 127 14
-0.0256 -36.6523 -2.5685 255 127 14
-0.0192 -36.078 -2.5874 255 127 14
-0.0162 -36.7628 -2.5971 255 127 14
-0.0162 -37.1162 -2.5971 255 127 14
-0.0099 -36.8953 -2.6161 255 127 14
0.0154 -37.0389 -2.6922 255 127 14
-0.01 -35.0846 -2.3097 255 127 14
0.0058 -35.0073 -2.3572 255 127 14
0.0153 -35.1398 -2.3858 255 127 14
0.0153 -35.2282 -2.3858 255 127 14
0.0184 -35.3718 -2.3953 255 127 14
0.0216 -35.5153 -2.4048 255 127 14
0.0406 -35.2613 -2.4619 255 127 14
0.0469 -35.427 -2.4809 255 127 14
0.0469 -36.0344 -2.481 255 127 14
0.0595 -35.5926 -2.519 255 127 14
0.0658 -36.7191 -2.5382 255 127 14
0.0657 -37.2051 -2.5382 255 127 14
0.0689 -36.929 -2.5477 255 127 14
0.0753 -35.9902 -2.5666 255 127 14
0.0847 -37.2934 -2.5953 255 127 14
0.0879 -36.8185 -2.6048 255 127 14
0.0911 -36.697 -2.6143 255 127 14
0.091 -37.1388 -2.6143 255 127 14
0.0942 -36.9069 -2.6238 255 127 14
0.0942 -37.3928 -2.6239 255 127 14
0.11 -36.9952 -2.6714 255 127 14
-4.7939 -36.5064 -2.8573 174 199 232
-4.8422 -36.7002 -3.0045 174 199 232
-4.7963 -36.3611 -2.8494 174 199 232
-4.8159 -36.4406 -2.9093 174 199 232
-4.8248 -36.2862 -2.9181 174 199 232
-4.8268 -36.1651 -2.9116 174 199 232
-4.7965 -36.7395 -2.8869 174 199 232
-4.8179 -36.8046 -2.9503 174 199 232
-4.7953 -36.2204 -2.8333 174 199 232
-4.7973 -36.0993 -2.8268 174 199 232
-4.5183 -36.8955 -2.9197 174 199 232
-4.5029 -36.6564 -2.8555 174 199 232
-4.5468 -36.9273 -2.9984 174 199 232
-4.5341 -36.8146 -2.9538 174 199 232
-4.5328 -36.698 -2.939 174 199 232
-4.5235 -36.5807 -2.9027 174 199 232
-4.5262 -36.4112 -2.8936 174 199 232
-4.5154 -36.2841 -2.8525 174 199 232
-4.514 -35.9783 -2.8189 174 199 232
-4.5079 -35.8565 -2.791 174 199 232
-4.5387 -36.0388 -2.8906 174 199 232
-4.4783 -35.6015 -2.6874 174 199 232
-4.4928 -35.6998 -2.7355 174 199 232
-4.5374 -35.9223 -2.8758 174 199 232
-4.5086 -35.6188 -2.7696 174 199 232
-4.5347 -35.7959 -2.8561 174 199 232
-4.5268 -35.6885 -2.8247 174 199 232
-4.434 -36.976 -2.9596 174 199 232
-4.4308 -36.8738 -2.9413 174 199 232
-4.4055 -36.6483 -2.8522 174 199 232
-4.434 -36.6801 -2.9308 174 199 232
-4.4308 -36.5779 -2.9125 174 199 232
-4.4243 -36.4803 -2.8859 174 199 232
-4.4133 -36.2707 -2.8361 174 199 232
-4.4329 -36.3501 -2.896 174 199 232
-4.4393 -36.1518 -2.8939 174 199 232
-4.3939 -35.6819 -2.7274 174 199 232
-4.4431 -36.0164 -2.8908 174 199 232
-4.4334 -35.9233 -2.8559 174 199 232
-4.4259 -35.7916 -2.8231 174 199 232
-4.4242 -35.6993 -2.8096 174 199 232
-4.4072 -35.557 -2.7507 174 199 232
-4.3301 -37.0571 -2.9458 174 199 232
-4.3023 -36.7877 -2.8457 174 199 232
-4.3329 -36.8876 -2.9366 174 199 232
-4.367 -37.0654 -3.0446 174 199 232
-4.3316 -36.7711 -2.9218 174 199 232
-4.3089 -36.4828 -2.8336 174 199 232
-4.3383 -36.6553 -2.9284 174 199 232
-4.3271 -36.5524 -2.8886 174 199 232
-4.3266 -36.3874 -2.8712 174 199 232
-4.3296 -36.3004 -2.8707 174 199 232
-4.3359 -36.2088 -2.8786 174 199 232
-4.329 -35.9462 -2.8345 174 199 232
-4.342 -36.0347 -2.8778 174 199 232
-4.3338 -35.8448 -2.8376 174 199 232
-4.3133 -35.6245 -2.7616 174 199 232
-4.3391 -35.7191 -2.8394 174 199 232
-4.3091 -35.4883 -2.7371 174 199 232
-4.2202 -36.886 -2.8941 174 199 232
-4.2441 -36.9949 -2.9684 174 199 232
-4.2637 -37.0744 -3.0282 174 199 232
-4.225 -36.7846 -2.8972 174 199 232
-4.2093 -36.5696 -2.8343 174 199 232
-4.2373 -36.6256 -2.9142 174 199 232
-4.2317 -36.4796 -2.885 174 199 232
-4.2297 -36.0089 -2.8339 174 199 232
-4.2288 -35.8681 -2.8178 174 199 232
-4.2207 -35.6781 -2.7776 174 199 232
-4.2399 -35.7818 -2.8388 174 199 232
-4.2128 -35.5707 -2.7462 174 199 232
-4.2078 -35.4829 -2.7243 174 199 232
-4.1362 -37.2475 -2.964 174 199 232
-4.1378 -37.1507 -2.9587 174 199 232
-4.1097 -36.9055 -2.86 174 199 232
-4.1408 -37.0636 -2.9583 174 199 232
-4.1084 -36.7889 -2.8452 174 199 232
-4.1349 -36.8351 -2.9204 174 199 232
-4.1021 -36.5846 -2.8085 174 199 232
-4.1365 -36.7382 -2.9151 174 199 232
-4.1301 -36.6406 -2.8885 174 199 232
-4.1317 -36.5437 -2.8833 174 199 232
-4.122 -36.4506 -2.8483 174 199 232
-4.1167 -36.0912 -2.799 174 199 232
-4.1383 -36.2387 -2.8711 174 199 232
-4.1465 -36.1328 -2.8825 174 199 232
-4.1227 -35.9171 -2.7982 174 199 232
-4.1481 -36.0359 -2.8773 174 199 232
-4.1404 -35.8217 -2.8358 174 199 232
-4.1209 -35.6356 -2.7659 174 199 232
-4.1225 -35.5387 -2.7607 174 199 232
-4.1128 -35.4456 -2.7257 174 199 232
-4.1541 -35.6726 -2.8577 174 199 232
-4.151 -35.5705 -2.8393 174 199 232
-4.1257 -35.345 -2.7502 174 199 232
-4.1478 -35.4683 -2.821 174 199 232
-4.04 -37.2895 -2.9766 174 199 232
-4.0358 -37.1532 -2.9522 174 199 232
-4.0128 -36.8891 -2.8652 174 199 232
-4.0407 -37.0518 -2.9552 174 199 232
-4.0455 -36.9504 -2.9583 174 199 232
-4.038 -36.8187 -2.9256 174 199 232
-4.0324 -36.6727 -2.8963 174 199 232
-4.0152 -36.4479 -2.8286 174 199 232
-4.0385 -36.4986 -2.8955 174 199 232
-4.0405 -36.3775 -2.889 174 199 232
-4.0373 -36.2753 -2.8706 174 199 232
-4.0292 -36.0854 -2.8305 174 199 232
-4.0455 -36.1694 -2.882 174 199 232
-4.0367 -35.9212 -2.8344 174 199 232
-4.053 -36.0052 -2.886 174 199 232
-4.0316 -35.6442 -2.7939 174 199 232
-4.062 -35.8508 -2.8948 174 199 232
-4.0289 -35.5178 -2.7742 174 199 232
-4.0621 -35.7441 -2.8848 174 199 232
-4.0162 -35.405 -2.7297 174 199 232
-4.0521 -35.5685 -2.8411 174 199 232
-3.9328 -37.3718 -2.9403 174 199 232
-3.9391 -37.2802 -2.9482 174 199 232
-3.9393 -37.1735 -2.9382 174 199 232
-3.9445 -37.0479 -2.94 174 199 232
-3.9116 -36.7974 -2.8282 174 199 232
-3.9037 -36.69 -2.7967 174 199 232
-3.9397 -36.8534 -2.9081 174 199 232
-3.9215 -36.4879 -2.8243 174 199 232
-3.9439 -36.3978 -2.875 174 199 232
-3.9139 -36.167 -2.7728 174 199 232
-3.9455 -36.3009 -2.8698 174 199 232
-3.9435 -36.1261 -2.8476 174 199 232
-3.9484 -36.0247 -2.8507 174 199 232
-3.9452 -35.9225 -2.8324 174 199 232
-3.9563 -35.8363 -2.8534 174 199 232
-3.9335 -35.6546 -2.7752 174 199 232
-3.9579 -35.7394 -2.8481 174 199 232
-3.9229 -35.4208 -2.7241 174 199 232
-3.9045 -35.2687 -2.6603 174 199 232
-3.9574 -35.5744 -2.8307 174 199 232
-3.9343 -35.3103 -2.7438 174 199 232
-3.9575 -35.4677 -2.8207 174 199 232
-3.8019 -37.4299 -2.8552 174 199 232
-3.8244 -37.5291 -2.9247 174 199 232
-3.8115 -37.3338 -2.8714 174 199 232
-3.8348 -37.3845 -2.9382 174 199 232
-3.8135 -37.2127 -2.8648 174 199 232
-3.8382 -37.2733 -2.9365 174 199 232
-3.8416 -37.162 -2.9348 174 199 232
-3.8203 -36.9902 -2.8614 174 199 232
-3.8418 -37.0553 -2.9248 174 199 232
-3.842 -36.8419 -2.9047 174 199 232
-3.8221 -36.68 -2.8361 174 199 232
-3.8436 -36.745 -2.8995 174 199 232
-3.8471 -36.5271 -2.8877 174 199 232
-3.852 -36.4257 -2.8908 174 199 232
-3.8379 -36.3031 -2.8414 174 199 232
-3.8432 -36.1774 -2.8432 174 199 232
-3.8328 -36.0261 -2.8009 174 199 232
-3.8457 -35.9254 -2.8254 174 199 232
-3.8325 -35.6477 -2.7634 174 199 232
-3.8586 -35.8248 -2.8499 174 199 232
-3.8591 -35.6938 -2.8385 174 199 232
-3.828 -35.429 -2.7302 174 199 232
-3.856 -35.5917 -2.8202 174 199 232
-3.8234 -35.317 -2.707 174 199 232
-3.8598 -35.4562 -2.8172 174 199 232
-3.8533 -35.3586 -2.7905 174 199 232
-3.8367 -35.1921 -2.7302 174 199 232
-3.8516 -35.2662 -2.777 174 199 232
-3.71 -37.3783 -2.8614 174 199 232
-3.7274 -37.4964 -2.9191 174 199 232
-3.7422 -37.2746 -2.9371 174 199 232
-3.7314 -37.1475 -2.896 174 199 232
-3.7462 -37.0324 -2.924 174 199 232
-3.7477 -36.9356 -2.9188 174 199 232
-3.746 -36.8432 -2.9053 174 199 232
-3.7436 -36.6926 -2.8844 174 199 232
-3.7511 -36.5284 -2.8883 174 199 232
-3.7285 -36.2401 -2.8001 174 199 232
-3.7553 -36.3687 -2.884 174 199 232
-3.7342 -35.9835 -2.7906 174 199 232
-3.7457 -35.873 -2.8103 174 199 232
-3.755 -35.6944 -2.8178 174 199 232
-3.758 -35.6074 -2.8174 174 199 232
-3.7324 -35.4061 -2.7296 174 199 232
-3.7611 -35.5203 -2.8169 174 199 232
-3.7595 -35.3213 -2.7934 174 199 232
-3.4918 -37.6082 -2.8275 174 199 232
-3.5151 -37.6589 -2.8943 174 199 232
-3.5199 -37.5574 -2.8974 174 199 232
-3.5192 -37.31 -2.8712 174 199 232
-3.5409 -37.4575 -2.9433 174 199 232
-3.5226 -37.1987 -2.8695 174 199 232
-3.5458 -37.3561 -2.9464 174 199 232
-3.5431 -37.123 -2.9168 174 199 232
-3.5193 -36.9074 -2.8325 174 199 232
-3.5459 -36.9535 -2.9076 174 199 232
-3.5309 -36.6902 -2.8421 174 199 232
-3.5519 -36.7794 -2.9068 174 199 232
-3.5638 -36.6447 -2.9252 174 199 232
-3.5645 -35.8153 -2.8463 174 199 232
-3.5613 -35.7131 -2.828 174 199 232
-3.5593 -35.5383 -2.8058 174 199 232
-3.5533 -35.4164 -2.7778 174 199 232
-3.587 -35.6185 -2.887 174 199 232
-3.5164 -35.1122 -2.6503 174 199 232
-3.5516 -35.3241 -2.7643 174 199 232
-3.5118 -35.0002 -2.6271 174 199 232
-3.5426 -35.1826 -2.7267 174 199 232
-3.585 -35.4437 -2.8648 174 199 232
-3.4093 -37.6628 -2.8625 174 199 232
-3.4288 -37.553 -2.9036 174 199 232
-3.4483 -37.4433 -2.9447 174 199 232
-3.4386 -37.3502 -2.9098 174 199 232
-3.4482 -37.2541 -2.926 174 199 232
-3.4208 -36.9604 -2.8247 174 199 232
-3.4454 -37.1277 -2.9064 174 199 232
-3.4525 -36.9877 -2.9116 174 199 232
-3.4475 -36.8999 -2.8898 174 199 232
-3.455 -36.7357 -2.8938 174 199 232
-3.4617 -36.6199 -2.9004 174 199 232
-3.466 -35.7616 -2.8285 174 199 232
-3.4632 -35.6353 -2.8088 174 199 232
-3.4988 -35.8229 -2.9216 174 199 232
-3.4634 -35.5286 -2.7988 174 199 232
-3.4015 -35.0813 -2.5909 174 199 232
-3.4931 -35.6769 -2.8923 174 199 232
-3.4312 -35.2296 -2.6844 174 199 232
-3.4519 -35.3431 -2.7504 174 199 232
-3.49 -35.5747 -2.874 174 199 232
-3.4173 -35.0003 -2.625 174 199 232
-3.4376 -35.1381 -2.6923 174 199 232
-3.4767 -35.4037 -2.822 174 199 232
-3.4696 -35.2478 -2.788 174 199 232
-3.3186 -37.6666 -2.8797 174 199 232
-3.3144 -37.5304 -2.8552 174 199 232
-3.343 -37.4555 -2.9238 174 199 232
-3.3398 -37.3533 -2.9055 174 199 232
-3.3469 -37.2133 -2.9108 174 199 232
-3.3489 -37.0922 -2.9043 174 199 232
-3.3418 -36.9363 -2.8702 174 199 232
-3.373 -36.7985 -2.9397 174 199 232
-3.3405 -35.2335 -2.7014 174 199 232
-3.3601 -35.313 -2.7613 174 199 232
-3.3342 -35.0292 -2.6647 174 199 232
-3.3487 -35.1276 -2.7128 174 199 232
-3.373 -35.2123 -2.7858 174 199 232
-3.3985 -35.3311 -2.8649 174 199 232
-3.4347 -35.2811 -2.9562 174 199 232
-3.223 -37.6139 -2.8651 174 199 232
-3.2382 -37.368 -2.8818 174 199 232
-3.2548 -37.2385 -2.9132 174 199 232
-3.251 -37.0781 -2.8875 174 199 232
-3.2358 -36.9215 -2.832 174 199 232
-3.2573 -36.9865 -2.8954 174 199 232
-3.2506 -35.2202 -2.7059 174 199 232
-3.2352 -34.9811 -2.6417 174 199 232
-3.2497 -35.0794 -2.6897 174 199 232
-3.2805 -35.2618 -2.7894 174 199 232
-3.2711 -35.1445 -2.7531 174 199 232
-3.3163 -35.236 -2.882 174 199 232
-3.1133 -37.6204 -2.8278 174 199 232
-3.1244 -37.5341 -2.8488 174 199 232
-3.1359 -37.3169 -2.8584 174 199 232
-3.1584 -37.416 -2.9279 174 199 232
-3.155 -37.2313 -2.9009 174 199 232
-3.1551 -37.1246 -2.8908 174 199 232
-3.1702 -36.9854 -2.9175 174 199 232
-3.1443 -35.1154 -2.6668 174 199 232
-3.1606 -35.1994 -2.7184 174 199 232
-3.1619 -35.02 -2.7044 174 199 232
-3.1764 -35.1184 -2.7525 174 199 232
-3.1927 -35.2024 -2.804 174 199 232
-3.0225 -37.6705 -2.8486 174 199 232
-3.0226 -37.5638 -2.8386 174 199 232
-3.0417 -37.4782 -2.881 174 199 232
-3.0313 -37.3269 -2.8386 174 199 232
-3.0579 -37.373 -2.9138 174 199 232
-3.0381 -37.1044 -2.8352 174 199 232
-3.0555 -37.2224 -2.8928 174 199 232
-3.0667 -37.0294 -2.9038 174 199 232
-2.9235 -37.6148 -2.8404 174 199 232
-2.9316 -37.5089 -2.8518 174 199 232
-2.954 -37.4188 -2.9026 174 199 232
-2.9385 -37.2864 -2.8484 174 199 232
-2.9452 -37.1706 -2.855 174 199 232
-2.9406 -37.0586 -2.8319 174 199 232
-2.9764 -37.0328 -2.9245 174 199 232
-2.4372 -36.9754 -2.0036 255 127 14
-2.4338 -36.7907 -1.9766 255 127 14
-2.4693 -36.9784 -2.0893 255 127 14
-2.4552 -36.8558 -2.04 255 127 14
-2.4318 -36.6159 -1.9543 255 127 14
-2.4558 -36.7249 -2.0286 255 127 14
-2.4633 -36.5606 -2.0326 255 127 14
-2.7006 -37.5822 -2.7633 174 199 232
-2.7282 -37.6624 -2.8445 174 199 232
-2.7252 -37.4535 -2.8162 174 199 232
-2.75 -37.5141 -2.8878 174 199 232
-2.7274 -37.2257 -2.7996 174 199 232
-2.7563 -37.4225 -2.8957 174 199 232
-2.7593 -37.3355 -2.8953 174 199 232
-2.737 -37.1296 -2.8158 174 199 232
-2.7576 -37.2431 -2.8818 174 199 232
-2.7594 -37.0395 -2.8665 174 199 232
-2.3327 -36.9742 -1.9837 255 127 14
-2.3268 -36.7456 -1.9457 255 127 14
-2.3441 -36.8637 -2.0034 255 127 14
-2.3681 -36.9727 -2.0777 255 127 14
-2.3255 -36.6291 -1.9309 255 127 14
-2.3552 -36.7774 -2.0244 255 127 14
-2.3416 -36.5239 -1.9637 255 127 14
-2.3576 -36.6321 -2.0165 255 127 14
-2.3659 -36.4195 -2.0179 255 127 14
-2.6074 -37.5772 -2.773 174 199 232
-2.6223 -37.6514 -2.8198 174 199 232
-2.6366 -37.5606 -2.8491 174 199 232
-2.658 -37.4364 -2.8937 174 199 232
-2.6643 -37.3449 -2.9016 174 199 232
-2.6423 -37.1148 -2.8208 174 199 232
-2.6597 -37.2329 -2.8785 174 199 232
-2.6752 -37.0694 -2.9038 174 199 232
-2.2527 -36.9296 -2.0158 255 127 14
-2.2425 -36.6715 -1.9633 255 127 14
-2.2598 -36.7896 -2.021 255 127 14
-2.2331 -36.5542 -1.9271 255 127 14
-2.2598 -36.4937 -1.9922 255 127 14
-2.2662 -36.4021 -2.0001 255 127 14
-2.5209 -37.5416 -2.7885 174 199 232
-2.5391 -37.6112 -2.8436 174 199 232
-2.5437 -37.4273 -2.838 174 199 232
-2.56 -37.5113 -2.8895 174 199 232
-2.5277 -37.1299 -2.7663 174 199 232
-2.5698 -37.3085 -2.8957 174 199 232
-2.5575 -37.1715 -2.8498 174 199 232
-2.5496 -37.0641 -2.8183 174 199 232
-2.5822 -37.0428 -2.9027 174 199 232
-2.0461 -36.876 -1.9789 255 127 14
-2.0704 -36.9608 -2.0519 255 127 14
-2.0652 -36.7905 -2.0213 255 127 14
-2.0602 -36.7027 -1.9995 255 127 14
-2.0393 -36.5067 -1.9248 255 127 14
-2.0679 -36.4318 -1.9934 255 127 14
-2.0728 -36.3304 -1.9965 255 127 14
-2.3122 -37.6092 -2.7582 255 127 14
-2.3404 -37.5585 -2.8282 255 127 14
-2.3646 -37.454 -2.8824 255 127 14
-2.3399 -37.0976 -2.7819 255 127 14
-2.3732 -37.3239 -2.8925 255 127 14
-2.3639 -37.2066 -2.8562 255 127 14
-1.9524 -36.9378 -1.9993 255 127 14
-1.961 -36.8076 -2.0093 255 127 14
-1.9411 -36.6457 -1.9407 255 127 14
-1.9593 -36.7153 -1.9958 255 127 14
-1.9668 -36.5511 -1.9998 255 127 14
-2.219 -37.5401 -2.7672 255 127 14
-2.2386 -37.6195 -2.8271 255 127 14
-2.2367 -37.4447 -2.8049 255 127 14
-2.253 -37.5287 -2.8564 255 127 14
-2.2383 -37.3478 -2.7996 255 127 14
-2.2446 -37.2563 -2.8075 255 127 14
-2.2675 -37.3312 -2.8757 255 127 14
-2.2462 -37.1594 -2.8023 255 127 14
-2.2676 -37.0353 -2.8469 255 127 14
-1.83 -36.8437 -1.9211 255 127 14
-1.8533 -36.8944 -1.988 255 127 14
-1.8747 -36.9595 -2.0514 255 127 14
-1.8569 -36.6765 -1.9762 255 127 14
-1.8603 -36.5652 -1.9745 255 127 14
-1.8554 -36.1815 -1.9238 255 127 14
-2.1224 -37.5406 -2.7669 255 127 14
-2.1387 -37.6246 -2.8184 255 127 14
-2.1368 -37.4498 -2.7962 255 127 14
-2.1633 -37.4959 -2.8714 255 127 14
-2.1573 -37.3741 -2.8434 255 127 14
-2.148 -37.2568 -2.8071 255 127 14
-2.1362 -37.0956 -2.76 255 127 14
-2.1576 -37.1607 -2.8233 255 127 14
-2.1753 -37.0653 -2.8609 255 127 14
-1.7426 -36.7691 -1.9254 255 127 14
-1.7814 -36.9523 -2.0465 255 127 14
-1.734 -36.6034 -1.8865 255 127 14
-1.7673 -36.8297 -1.9971 255 127 14
-1.7631 -36.6934 -1.9726 255 127 14
-1.7678 -36.5095 -1.967 255 127 14
-2.0324 -37.5288 -2.7702 255 127 14
-2.044 -37.6075 -2.8087 255 127 14
-2.0461 -37.3797 -2.7921 255 127 14
-2.0606 -37.4781 -2.8402 255 127 14
-2.0448 -37.2632 -2.7773 255 127 14
-2.0431 -37.1709 -2.7637 255 127 14
-2.0764 -37.3971 -2.8743 255 127 14
-2.0747 -37.3048 -2.8608 255 127 14
-2.048 -37.0694 -2.7668 255 127 14
-2.0728 -37.13 -2.8385 255 127 14
-2.0824 -37.0339 -2.8547 255 127 14
-1.6535 -36.9684 -1.9695 255 127 14
-1.6414 -36.7247 -1.9136 255 127 14
-1.6274 -36.6021 -1.8642 255 127 14
-1.6693 -36.8874 -2.0036 255 127 14
-1.6629 -36.7898 -1.977 255 127 14
-1.6228 -36.4901 -1.8411 255 127 14
-1.6494 -36.5362 -1.9163 255 127 14
-1.6609 -36.6149 -1.9547 255 127 14
-1.6623 -36.4356 -1.9408 255 127 14
-1.9358 -37.5964 -2.7816 255 127 14
-1.9582 -37.5063 -2.8323 255 127 14
-1.9499 -37.4231 -2.8022 255 127 14
-1.9463 -37.1559 -2.7664 255 127 14
-1.9767 -37.3625 -2.8673 255 127 14
-1.9659 -37.2354 -2.8262 255 127 14
-1.9716 -37.0856 -2.8267 255 127 14
-1.5445 -36.7195 -1.9009 255 127 14
-1.5825 -36.951 -2.0246 255 127 14
-1.5417 -36.5931 -1.8813 255 127 14
-1.575 -36.8193 -1.9918 255 127 14
-1.5683 -36.6392 -1.9564 255 127 14
-1.5637 -36.5272 -1.9333 255 127 14
-1.57 -36.4356 -1.9412 255 127 14
-1.5811 -36.3494 -1.9622 255 127 14
-1.5846 -35.9422 -1.9316 255 127 14
-1.8477 -37.6501 -2.7977 255 127 14
-1.6144 -35.9838 -2.0151 255 127 14
-1.608 -35.8862 -1.9885 255 127 14
-1.8544 -37.5343 -2.8043 255 127 14
-1.8772 -37.4201 -2.8537 255 127 14
-1.8476 -37.165 -2.7502 255 127 14
-1.8824 -37.2944 -2.8555 255 127 14
-1.8793 -37.1923 -2.8372 255 127 14
-1.8751 -37.056 -2.8127 255 127 14
-1.4674 -36.9794 -1.9739 255 127 14
-1.4785 -36.8931 -1.9949 255 127 14
-1.4431 -36.5988 -1.8721 255 127 14
-1.4757 -36.7668 -1.9753 255 127 14
-1.4707 -36.679 -1.9534 255 127 14
-1.4541 -36.5125 -1.8932 255 127 14
-1.4756 -36.5776 -1.9565 255 127 14
-1.4761 -36.4466 -1.9452 255 127 14
-1.4697 -36.349 -1.9185 255 127 14
-1.7297 -37.6589 -2.7374 255 127 14
-1.7609 -37.5211 -2.807 255 127 14
-1.7819 -37.4212 -2.8529 255 127 14
-1.749 -37.1707 -2.741 255 127 14
-1.7849 -37.3342 -2.8525 255 127 14
-1.7854 -37.2033 -2.8411 255 127 14
-1.787 -37.1064 -2.8359 255 127 14
-1.3537 -36.8859 -1.9171 255 127 14
-1.352 -36.7936 -1.9035 255 127 14
-1.3814 -36.9661 -1.9983 255 127 14
-1.3493 -36.6672 -1.8839 255 127 14
-1.3787 -36.733 -1.9687 255 127 14
-1.3731 -36.587 -1.9394 255 127 14
-1.3813 -36.481 -1.9508 255 127 14
-1.654 -37.6078 -2.7854 255 127 14
-1.6823 -37.4504 -2.8454 255 127 14
-1.656 -37.1908 -2.7501 255 127 14
-1.6824 -37.3437 -2.8353 255 127 14
-1.6826 -37.237 -2.8253 255 127 14
-1.6751 -37.1053 -2.7925 255 127 14
-1.2621 -36.9581 -1.9436 255 127 14
-1.2577 -36.7394 -1.9104 255 127 14
-1.2787 -36.8287 -1.9751 255 127 14
-1.2487 -36.5979 -1.8729 255 127 14
-1.2772 -36.6297 -1.9515 255 127 14
-1.2678 -36.5124 -1.9153 255 127 14
-1.2422 -36.3111 -1.8275 255 127 14
-1.238 -36.1749 -1.803 255 127 14
-1.2841 -36.3005 -1.938 255 127 14
-1.5478 -37.5815 -2.764 255 127 14
-1.5494 -37.4847 -2.7588 255 127 14
-1.5773 -37.3514 -2.82 255 127 14
-1.5666 -37.2243 -2.779 255 127 14
-1.5591 -37.0926 -2.7462 255 127 14
-1.5916 -37.0714 -2.8306 255 127 14
-1.0844 -36.9548 -1.9731 255 127 14
-1.0613 -36.6907 -1.8862 255 127 14
-1.0871 -36.7853 -1.964 255 127 14
-1.0619 -36.5598 -1.8749 255 127 14
-1.0833 -36.6248 -1.9382 255 127 14
-1.3691 -37.5442 -2.7874 255 127 14
-1.3882 -37.4587 -2.8298 255 127 14
-1.3575 -37.1696 -2.7202 255 127 14
-1.3901 -37.3376 -2.8233 255 127 14
-1.387 -37.2354 -2.8049 255 127 14
-1.3755 -37.05 -2.7565 255 127 14
-1.3918 -37.134 -2.808 255 127 14
-0.9596 -36.8166 -1.8843 255 127 14
-0.9597 -36.7098 -1.8743 255 127 14
-0.9971 -36.8831 -1.9905 255 127 14
-0.9708 -36.6236 -1.8953 255 127 14
-0.99 -36.7272 -1.9564 255 127 14
-0.9644 -36.5259 -1.8686 255 127 14
-0.9958 -36.4707 -1.9469 255 127 14
-1.2587 -37.611 -2.7566 255 127 14
-1.265 -37.5194 -2.7645 255 127 14
-1.2855 -37.4438 -2.8118 255 127 14
-1.2926 -37.3037 -2.817 255 127 14
-1.2822 -37.1524 -2.7747 255 127 14
-1.2776 -37.0404 -2.7515 255 127 14
-0.8766 -36.8868 -1.9144 255 127 14
-0.8637 -36.6915 -1.8611 255 127 14
-0.9032 -36.9329 -1.9895 255 127 14
-0.862 -36.5992 -1.8476 255 127 14
-0.8903 -36.7377 -1.9363 255 127 14
-0.8531 -36.4577 -1.81 255 127 14
-0.8919 -36.6408 -1.931 255 127 14
-0.8815 -36.4894 -1.8887 255 127 14
-0.8919 -36.3449 -1.9023 255 127 14
-0.9034 -35.9385 -1.8932 255 127 14
-0.8936 -35.8454 -1.8583 255 127 14
-1.1608 -37.6071 -2.7399 255 127 14
-0.9113 -35.75 -1.8959 255 127 14
-1.169 -37.5012 -2.7513 255 127 14
-1.1895 -37.4255 -2.7985 255 127 14
-1.1632 -37.1659 -2.7033 255 127 14
-1.1896 -37.3188 -2.7885 255 127 14
-1.1931 -37.2075 -2.7868 255 127 14
-1.1761 -37.0653 -2.7278 255 127 14
-0.6622 -36.9098 -1.8733 255 127 14
-0.6605 -36.8175 -1.8597 255 127 14
-0.6925 -36.9272 -1.9554 255 127 14
-0.6908 -36.8349 -1.9419 255 127 14
-0.6641 -36.5995 -1.848 255 127 14
-0.6833 -36.7032 -1.9092 255 127 14
-0.6952 -36.5685 -1.9276 255 127 14
-0.6855 -36.4754 -1.8926 255 127 14
-0.6784 -36.3195 -1.8586 255 127 14
-0.6998 -36.3846 -1.9219 255 127 14
-0.6717 -36.1394 -1.8232 255 127 14
-0.688 -36.2234 -1.8748 255 127 14
-0.6733 -36.0425 -1.818 255 127 14
-0.6757 -35.8972 -1.8101 255 127 14
-0.7033 -35.9774 -1.8914 255 127 14
-0.6824 -35.7814 -1.8167 255 127 14
-0.7039 -35.8465 -1.8801 255 127 14
-0.9761 -37.4826 -2.7635 255 127 14
-0.9923 -37.3774 -2.7964 255 127 14
-0.9801 -37.2405 -2.7505 255 127 14
-0.966 -37.1179 -2.7011 255 127 14
-0.722 -36.212 -1.9639 255 127 14
-0.9693 -37.5984 -2.757 255 127 14
-0.7544 -37.6183 -2.6968 255 127 14
-0.7838 -37.4949 -2.7629 255 127 14
-0.7934 -37.3988 -2.7791 255 127 14
-0.8011 -37.317 -2.7918 255 127 14
-0.7759 -37.0915 -2.7026 255 127 14
-0.7695 -36.9939 -2.676 255 127 14
-0.8046 -37.2058 -2.79 255 127 14
-0.8016 -36.9969 -2.7617 255 127 14
-0.7909 -35.0943 -2.5479 255 127 14
-0.8305 -35.229 -2.6663 255 127 14
-0.81 -35.0088 -2.5903 255 127 14
-0.8259 -35.117 -2.6432 255 127 14
-0.6445 -37.5211 -2.6481 255 127 14
-0.6724 -37.3879 -2.7094 255 127 14
-0.7005 -37.4439 -2.7894 255 127 14
-0.6748 -37.2426 -2.7015 255 127 14
-0.6663 -37.0768 -2.6627 255 127 14
-0.7047 -37.2842 -2.785 255 127 14
-0.6953 -37.1669 -2.7488 255 127 14
-0.6682 -36.9558 -2.6562 255 127 14
-0.693 -37.0163 -2.7278 255 127 14
-0.6812 -35.0797 -2.508 255 127 14
-0.7081 -35.2083 -2.5919 255 127 14
-0.7225 -35.3067 -2.6399 255 127 14
-0.721 -35.1076 -2.6164 255 127 14
-0.7087 -34.9707 -2.5705 255 127 14
-0.7493 -35.2461 -2.7051 255 127 14
-0.5562 -37.5602 -2.6664 255 127 14
-0.5936 -37.4376 -2.7538 255 127 14
-0.5807 -37.2424 -2.7006 255 127 14
-0.579 -37.1501 -2.687 255 127 14
-0.6094 -37.3566 -2.788 255 127 14
-0.5595 -36.9639 -2.6171 255 127 14
-0.5725 -37.0524 -2.6604 255 127 14
-0.6074 -37.1818 -2.7657 255 127 14
-0.6024 -37.094 -2.7439 255 127 14
-0.5779 -36.8201 -2.6522 255 127 14
-0.6157 -35.3829 -2.6132 255 127 14
-0.5836 -35.084 -2.4987 255 127 14
-0.6127 -35.174 -2.5848 255 127 14
-0.6356 -35.2489 -2.653 255 127 14
-0.6027 -34.9985 -2.5412 255 127 14
-0.6157 -35.087 -2.5844 255 127 14
-0.5039 -37.4536 -2.769 255 127 14
-0.5092 -37.328 -2.7708 255 127 14
-0.4777 -37.0873 -2.6638 255 127 14
-0.4615 -36.8966 -2.6022 255 127 14
-0.4731 -36.9753 -2.6406 255 127 14
-0.5105 -37.1486 -2.7568 255 127 14
-0.4624 -36.7415 -2.5896 255 127 14
-0.5034 -36.9927 -2.7228 255 127 14
-0.4839 -36.8066 -2.6529 255 127 14
-0.5078 -36.0278 -2.641 255 127 14
-0.5032 -35.9158 -2.6178 255 127 14
-0.5081 -35.8144 -2.6209 255 127 14
-0.5432 -36.0263 -2.735 255 127 14
-0.5335 -35.9332 -2.7 255 127 14
-0.5391 -35.7834 -2.7005 255 127 14
-0.52 -35.573 -2.6293 255 127 14
-0.5086 -35.3875 -2.5809 255 127 14
-0.5268 -35.4572 -2.6359 255 127 14
-0.4682 -35.0054 -2.4363 255 127 14
-0.4936 -35.1242 -2.5154 255 127 14
-0.5132 -35.2036 -2.5753 255 127 14
-0.5277 -35.302 -2.6233 255 127 14
-0.4999 -35.0326 -2.5233 255 127 14
-0.2828 -37.4472 -2.7072 255 127 14
-0.2972 -37.5456 -2.7552 255 127 14
-0.2798 -37.2384 -2.6788 255 127 14
-0.2913 -37.3171 -2.7173 255 127 14
-0.3079 -37.1876 -2.7488 255 127 14
-0.2798 -36.9425 -2.65 255 127 14
-0.3081 -37.0809 -2.7387 255 127 14
-0.2737 -36.8206 -2.6221 255 127 14
-0.272 -36.7283 -2.6085 255 127 14
-0.3101 -36.9598 -2.7322 255 127 14
-0.3036 -36.8622 -2.7056 255 127 14
-0.2755 -36.617 -2.6068 255 127 14
-0.2803 -36.5156 -2.6099 255 127 14
-0.3035 -36.673 -2.6868 255 127 14
-0.3098 -36.5814 -2.6947 255 127 14
-0.2889 -36.3854 -2.62 255 127 14
-0.3122 -36.4361 -2.6869 255 127 14
-0.2946 -36.2356 -2.6205 255 127 14
-0.3142 -36.3151 -2.6803 255 127 14
-0.2963 -36.032 -2.6052 255 127 14
-0.3199 -36.1652 -2.6808 255 127 14
-0.3191 -35.9177 -2.6546 255 127 14
-0.3227 -35.6998 -2.6429 255 127 14
-0.3294 -35.584 -2.6495 255 127 14
-0.3223 -35.4281 -2.6154 255 127 14
-0.279 -35.0262 -2.4612 255 127 14
-0.3247 -35.2828 -2.6076 255 127 14
-0.2758 -34.9241 -2.4428 255 127 14
-0.3168 -35.1753 -2.5761 255 127 14
-0.307 -35.0822 -2.5412 255 127 14
-0.2205 -37.4825 -2.8015 255 127 14
-0.2155 -37.3947 -2.7796 255 127 14
-0.197 -37.2426 -2.7159 255 127 14
-0.1945 -36.9028 -2.6762 255 127 14
-0.1852 -36.7855 -2.6399 255 127 14
-0.1939 -36.5487 -2.6399 255 127 14
-0.2054 -36.6274 -2.6784 255 127 14
-0.2002 -36.4571 -2.6478 255 127 14
-0.1956 -36.3451 -2.6247 255 127 14
-0.1906 -36.2573 -2.6028 255 127 14
-0.2231 -36.2361 -2.6872 255 127 14
-0.2174 -36.09 -2.658 255 127 14
-0.2052 -35.953 -2.6121 255 127 14
-0.2199 -35.838 -2.6401 255 127 14
-0.2132 -35.6579 -2.6047 255 127 14
-0.228 -35.5429 -2.6327 255 127 14
-0.2233 -35.4309 -2.6096 255 127 14
-0.1933 -35.2 -2.5073 255 127 14
-0.1883 -35.1123 -2.4855 255 127 14
-0.2202 -35.3287 -2.5912 255 127 14
-0.2218 -35.2318 -2.586 255 127 14
-0.2168 -35.144 -2.5642 255 127 14
-0.2089 -35.0366 -2.5327 255 127 14
-0.209 -34.9299 -2.5227 255 127 14
-0.086 -37.1027 -2.6543 255 127 14
-0.1133 -37.2071 -2.7368 255 127 14
-0.1278 -37.3055 -2.7849 255 127 14
-0.1127 -37.0421 -2.7194 255 127 14
-0.1015 -36.9392 -2.6797 255 127 14
-0.0998 -36.8469 -2.6661 255 127 14
-0.1322 -36.9324 -2.7605 255 127 14
-0.1178 -36.7273 -2.7024 255 127 14
-0.1227 -36.6259 -2.7055 255 127 14
-0.121 -36.5336 -2.692 255 127 14
-0.111 -36.358 -2.6483 255 127 14
-0.1357 -36.4185 -2.72 255 127 14
-0.1046 -36.1536 -2.6117 255 127 14
-0.1228 -36.2233 -2.6667 255 127 14
-0.1406 -36.3171 -2.7231 255 127 14
-0.119 -36.0628 -2.641 255 127 14
-0.114 -35.975 -2.6192 255 127 14
-0.1014 -35.7556 -2.5646 255 127 14
-0.125 -35.8888 -2.6402 255 127 14
-0.1129 -35.6451 -2.5843 255 127 14
-0.1307 -35.7389 -2.6407 255 127 14
-0.1425 -35.6042 -2.6591 255 127 14
-0.1364 -35.4824 -2.6311 255 127 14
-0.1122 -35.2909 -2.5481 255 127 14
-0.1285 -35.3749 -2.5997 255 127 14
-0.1072 -35.2031 -2.5263 255 127 14
-0.1052 -35.0283 -2.504 255 127 14
-0.1277 -35.1274 -2.5735 255 127 14
0.00600004 -37.2276 -2.6763 255 127 14
-0.0168 -37.1133 -2.7257 255 127 14
-0.018 -35.9395 -2.6154 255 127 14
-0.0478001 -36.0878 -2.7089 255 127 14
-0.0243 -35.8479 -2.6233 255 127 14
-0.00880003 -35.7155 -2.5691 255 127 14
-0.0483 -35.9569 -2.6975 255 127 14
-0.0836 -36.062 -2.8016 255 127 14
-0.028 -35.5232 -2.6015 255 127 14
-0.0429 -35.5974 -2.6482 255 127 14
-0.00849998 -35.3371 -2.5316 255 127 14
-0.039 -35.437 -2.6225 255 127 14
-0.0079 -35.1721 -2.5141 255 127 14
-0.0345 -35.2183 -2.5893 255 127 14
-0.0223 -35.0813 -2.5434 255 127 14
